<svg width="1654" height="773" viewBox="0 0 1654 773" fill="none" xmlns="http://www.w3.org/2000/svg">
<g clip-path="url(#clip0_1549_8982)">
<path d="M684.643 1019.78C684.643 1019.78 684.643 1019.78 684.643 1019.78C665.686 1022.92 646.251 1023.13 627.175 1020.62C583.582 1014.88 541.668 994.995 510.43 963.715C484.861 938.105 466.927 906.449 447.608 876.393C420.074 833.517 389.147 792.851 355.506 754.597C327.828 723.155 297.79 692.925 261.225 672.428C255.746 669.363 250.139 666.533 244.411 663.973C201.176 644.679 147.192 642.034 107.103 669.176C69.4598 694.81 51.245 743.284 56.2169 788.108C61.2768 833.548 87.7048 874.758 122.719 903.736C143.181 920.694 166.615 933.891 191.212 943.998C208.965 951.296 227.35 957.031 246.013 961.572C246.013 961.572 246.013 961.572 246.013 961.572C227.297 957.258 208.831 951.732 190.962 944.614C166.207 934.756 142.541 921.752 121.786 904.874C86.2669 876.019 59.1484 834.622 53.6899 788.397C48.3521 742.752 66.5598 693.141 105.29 666.519C146.579 638.408 201.746 641.141 245.838 660.781C251.666 663.383 257.368 666.26 262.934 669.374C300.082 690.206 330.32 720.783 358.011 752.4C391.656 790.864 422.507 831.794 449.866 874.953C469.056 905.211 486.679 936.798 511.795 962.362C542.458 993.573 583.879 1013.77 627.266 1019.96C646.25 1022.67 665.649 1022.69 684.643 1019.78Z" fill="#F97706"/>
<path d="M285.766 717.002C288.756 719.026 291.713 721.123 294.621 723.279C320.816 742.701 343.333 767.109 361.542 794.246C379.77 821.412 393.748 851.352 403.234 882.511C404.289 885.978 405.286 889.449 406.23 892.947C405.062 889.517 403.856 886.117 402.603 882.723C391.339 852.221 376.674 823.089 358.636 796.196C340.599 769.334 319.161 744.663 294.21 723.802C291.439 721.486 288.619 719.215 285.766 717.002Z" fill="#F97706"/>
<path d="M-194.623 345.162C-182.2 341.576 -169.633 338.477 -156.96 335.871C-126.283 329.562 -94.9873 326.143 -63.6299 325.705C-50.1259 325.527 -36.232 325.895 -23.14 330.393C0.267805 338.49 17.1169 358.362 28.8257 379.232C52.365 421.426 59.0475 469.709 74.5569 514.339C75.7247 517.708 76.9421 521.058 78.2193 524.382C87.6922 548.991 101.083 573.097 122.338 588.862C143.091 604.235 172.975 610.129 196.008 597.112C205.166 591.915 212.701 584.066 221.619 577.76C247.226 559.682 283.357 557.584 310.143 573.86C325.576 583.267 336.954 598.599 342.347 615.658C346.265 628.024 347.006 641.466 343.793 654.016C346.778 641.41 345.797 628.058 341.714 615.864C336.095 599.039 324.613 584.11 309.388 575.118C282.956 559.537 247.676 562.098 223.094 579.827C214.489 586.011 206.995 593.993 197.41 599.559C173.142 613.467 142.06 607.42 120.375 591.524C98.2661 575.254 84.5661 550.548 74.9551 525.638C73.6607 522.273 72.4292 518.888 71.25 515.486C55.6153 470.392 49.0914 422.353 26.18 380.701C14.8098 360.106 -1.48072 340.692 -23.9415 332.685C-36.515 328.216 -50.1633 327.666 -63.6142 327.69C-94.85 327.755 -126.097 330.721 -156.831 336.523C-169.528 338.92 -182.138 341.801 -194.623 345.162Z" fill="#F97706"/>
<path d="M129.269 611.36C131.767 614.285 134.568 616.932 137.594 619.268C148.262 627.503 161.728 631.921 174.979 631.369C195.886 630.446 214.028 618.47 233.539 610.387C237.713 608.651 241.981 607.072 246.364 605.812C259.881 601.961 276.713 601.431 287.765 612.146C292.793 617.101 295.622 623.761 296.775 630.464C298.419 639.928 296.761 649.789 292.455 658.184C290.687 661.632 288.47 664.837 285.858 667.661C288.293 664.683 290.302 661.383 291.855 657.897C295.639 649.406 296.744 639.787 294.819 630.841C293.469 624.494 290.564 618.399 285.909 614.084C275.805 604.766 260.233 605.344 247.331 609.126C243.116 610.371 238.975 611.917 234.883 613.619C215.791 621.483 196.96 633.538 175.041 633.819C161.151 633.936 147.494 628.695 137.173 619.783C134.245 617.256 131.585 614.431 129.269 611.36Z" fill="#F97706"/>
<path d="M303.881 591.197C306.291 592.505 308.549 594.112 310.612 595.952C318.179 602.722 322.973 612.255 325.339 622.145C328.341 634.839 327.666 647.942 326.834 660.627C326.707 662.511 326.581 664.369 326.53 666.206C326.444 669.249 326.573 672.247 327.234 675.087C328.217 679.36 330.434 683.367 333.132 687.033C342.815 700.159 358.806 708.542 375.504 709.353C378.224 709.481 380.962 709.406 383.687 709.112C380.997 709.637 378.254 709.937 375.498 710.018C358.569 710.518 341.232 702.728 330.568 688.971C327.613 685.149 325.059 680.799 323.872 675.882C323.083 672.626 322.942 669.313 323.031 666.109C323.085 664.174 323.221 662.267 323.359 660.386C324.268 647.709 325.229 635.016 322.894 622.668C321.047 613.068 317.043 603.632 310.151 596.431C308.267 594.473 306.171 592.705 303.881 591.197Z" fill="#F97706"/>
<path d="M78.9382 601.521C79.4837 602.335 80.0437 603.125 80.6225 603.903C85.8325 610.904 92.3276 616.469 99.2266 621.535C106.136 626.598 113.49 631.195 120.772 636.086C121.58 636.628 122.39 637.176 123.194 637.726C122.282 637.383 121.369 637.032 120.463 636.675C112.309 633.459 104.332 629.612 97.1564 624.357C90.0137 619.141 83.6807 612.334 80.0492 604.24C79.6447 603.344 79.2758 602.44 78.9382 601.521Z" fill="#F97706"/>
<path d="M322.563 541.357C319.631 535.159 316.596 529.007 313.308 522.999C305.815 509.3 296.874 496.2 285.188 485.939C268.682 471.425 245.137 462.867 224.003 469.517C207.073 474.587 192.068 490.216 171.601 486.759C166.217 485.707 161.248 482.985 157.263 479.363C149.149 471.912 144.568 461.623 142.475 451.167C139.454 435.473 141.072 419.678 138.091 404.625C131.191 369.335 101.245 344.504 72.2305 324.858C66.5539 321.019 60.7857 317.301 54.999 313.631C60.9072 317.102 66.7944 320.633 72.5946 324.302C102.163 343.07 133.277 367.4 141.026 404.026C144.294 419.642 142.823 435.5 145.83 450.507C147.84 460.368 152.273 470.059 159.609 476.765C163.211 480.035 167.57 482.409 172.285 483.346C190.116 486.713 205.184 471.976 223.091 466.568C245.758 459.785 269.928 469.3 286.474 484.511C298.16 495.26 306.806 508.732 313.896 522.689C317.008 528.812 319.844 535.063 322.563 541.357Z" fill="#F97706"/>
<path d="M-39.1804 300.852C-34.007 302.395 -28.8588 304.031 -23.7485 305.788C11.0195 317.751 46.6234 336.133 66.3214 369.132C72.2596 379.091 76.4268 389.941 79.7918 400.894C82.7755 410.602 85.1584 420.432 87.6835 430.175C97.3834 466.795 110.53 505.266 140.983 529.625C145.215 532.945 149.744 535.904 154.515 538.434C149.639 536.113 144.972 533.332 140.583 530.156C108.877 506.788 94.4262 467.774 84.4172 431.036C81.8037 421.275 79.3903 411.499 76.4464 401.922C73.1264 391.115 69.1001 380.521 63.4413 370.831C44.7465 338.76 10.2953 319.707 -23.9769 306.413C-29.0057 304.462 -34.0785 302.618 -39.1804 300.852Z" fill="#F97706"/>
<path d="M214.985 526.527C214.835 525.269 215.331 523.943 216.157 522.923C217.535 521.222 219.483 520.129 221.459 519.308C230.13 515.749 239.909 514.77 249.248 516.261C260.689 518.062 271.573 523.584 279.405 531.864C280.275 532.781 281.106 533.73 281.896 534.708C280.939 533.893 279.96 533.11 278.962 532.36C269.965 525.614 259.499 521.445 248.699 519.718C239.876 518.323 230.771 518.576 221.967 520.836C220.052 521.338 218.131 522.064 216.644 523.376C215.754 524.166 215.078 525.26 214.985 526.527Z" fill="#F97706"/>
<path d="M368.999 736.801C372.438 737.677 375.99 738.012 379.502 737.854C390.633 737.351 401.44 731.95 407.998 723.241L411.753 718.418L410.013 724.287C405.87 739.25 411.12 755.025 418.516 768.431C420.868 772.678 423.46 776.814 426.115 780.934C431.958 790.005 438.166 799.064 442.717 809.125C451.54 828.538 453.852 850.435 467.469 866.806C469.76 869.48 472.37 871.896 475.267 873.953C472.241 872.091 469.458 869.824 466.978 867.254C452.149 851.412 448.792 829.042 439.839 810.46C435.247 800.822 429.063 791.966 423.173 782.83C420.499 778.681 417.88 774.463 415.505 770.08C408.012 756.221 402.781 739.402 407.8 723.622L409.816 724.668C402.431 733.717 390.85 738.68 379.512 738.519C375.934 738.468 372.373 737.902 368.999 736.801Z" fill="#F97706"/>
<path d="M113.858 535.375C115.498 537.832 117.236 540.22 119.114 542.482C121.192 544.986 123.445 547.336 125.903 549.425C143.927 564.693 169.273 564.037 191.581 560.218C194.601 559.693 197.611 559.095 200.61 558.439C223.265 553.552 246.925 546.48 270.443 551.016C273.354 551.593 276.224 552.355 279.021 553.312C276.157 552.579 273.255 552.038 270.337 551.673C246.876 548.865 224.242 556.689 201.362 561.818C198.322 562.509 195.261 563.131 192.181 563.666C169.554 567.62 142.647 567.377 125.016 550.403C122.628 548.101 120.501 545.56 118.587 542.889C116.858 540.475 115.299 537.954 113.858 535.375Z" fill="#F97706"/>
<path d="M95.0908 367.15C96.9814 367.824 98.8283 368.643 100.612 369.595C112.54 375.948 121.533 388.189 123.65 401.989C124.386 406.76 124.329 411.569 123.991 416.264C123.427 424.067 122.114 431.644 122.126 439.19C122.248 448.984 125.196 459.787 133.531 465.87C135.147 467.003 136.948 467.888 138.874 468.468C136.894 468.115 134.965 467.427 133.179 466.434C123.847 461.033 119.714 449.723 119.146 439.262C118.785 431.344 119.959 423.6 120.5 416.013C120.83 411.441 120.934 406.897 120.371 402.45C118.749 389.681 111.273 377.632 100.269 370.165C98.6198 369.049 96.8904 368.039 95.0908 367.15Z" fill="#F97706"/>
<path d="M1231.42 71.7519C1231.42 71.7519 1231.42 71.7519 1231.42 71.7519C1242.56 87.4117 1251.26 104.79 1257.37 123.035C1271.33 164.729 1271.83 211.12 1257.41 252.909C1245.6 287.117 1225.01 317.114 1206.47 347.653C1180 391.198 1157.01 436.821 1137.38 483.827C1121.25 522.489 1107.25 562.739 1104.86 604.588C1104.5 610.856 1104.42 617.137 1104.63 623.407C1106.24 670.724 1127.53 720.404 1169.5 744.536C1209.04 767.131 1260.59 762.252 1298.7 738.132C1337.32 713.664 1362.78 671.845 1373.47 627.671C1379.74 601.846 1381.33 574.999 1379.63 548.46C1378.41 529.305 1375.5 510.266 1371.4 491.502C1371.4 491.502 1371.4 491.502 1371.4 491.502C1375.73 510.215 1378.86 529.234 1380.29 548.414C1382.29 574.986 1380.97 601.957 1374.9 628.011C1364.54 672.584 1339.22 715.106 1300.07 740.277C1261.38 765.085 1208.81 770.47 1167.91 747.33C1124.54 722.544 1102.81 671.763 1101.13 623.524C1100.92 617.145 1101 610.759 1101.36 604.392C1103.8 561.871 1118.03 521.289 1134.3 482.539C1154.12 435.438 1177.39 389.766 1204.18 346.256C1222.96 315.742 1243.63 286.056 1255.59 252.275C1270.2 211.033 1270.2 164.951 1256.74 123.242C1250.85 104.992 1242.37 87.5459 1231.42 71.7519Z" fill="#F97706"/>
<path d="M1368.01 459.764C1369.08 457.897 1370.16 456.033 1371.23 454.171C1380.91 437.418 1390.65 420.677 1397.16 402.688C1397.16 402.686 1397.16 402.684 1397.16 402.683C1403.59 384.795 1406.84 365.35 1403.09 346.36C1402.67 344.26 1402.16 342.172 1401.56 340.104C1402.38 342.095 1403.11 344.13 1403.74 346.198C1409.42 364.942 1407.09 385.541 1400.45 403.874C1400.45 403.876 1400.45 403.878 1400.45 403.88C1393.75 422.348 1383.04 438.82 1371.79 454.531C1370.54 456.281 1369.28 458.024 1368.01 459.764Z" fill="#F97706"/>
<path d="M1242.37 329.639C1243.68 328.248 1245 326.867 1246.34 325.501C1258.26 313.385 1272.49 301.551 1290.37 298.842C1290.47 298.827 1290.57 298.812 1290.68 298.797C1308.14 296.407 1328.27 306.46 1332.04 324.087C1332.4 325.989 1332.53 327.922 1332.43 329.836C1332.3 327.923 1331.95 326.048 1331.39 324.248C1325.89 307.882 1306.99 300.185 1291.17 302.262C1291.08 302.276 1290.98 302.29 1290.89 302.304C1274.31 304.768 1260 315.224 1246.79 325.993C1245.31 327.2 1243.84 328.418 1242.37 329.639Z" fill="#F97706"/>
<path d="M1235.39 554.201C1236.99 551.223 1238.6 548.243 1240.19 545.261C1254.57 518.42 1268.51 491.395 1282.03 464.166C1286.45 455.264 1290.83 446.341 1295.16 437.395C1297.75 431.968 1299.99 423.867 1294.88 420.997C1292.41 419.607 1288.96 420.378 1285.95 421.679C1276.74 425.636 1269.17 433.398 1265.1 442.788C1263.77 445.868 1262.82 449.128 1262.31 452.475C1262.58 449.101 1263.33 445.752 1264.48 442.544C1268.02 432.759 1275.41 424.229 1285.02 419.621C1288.19 418.137 1292.23 416.757 1296.11 418.648C1299.92 420.408 1301.15 425.087 1300.83 428.562C1300.59 432.194 1299.5 435.569 1298.05 438.758C1293.89 447.811 1289.6 456.8 1285.17 465.723C1271.61 493.017 1256.79 519.683 1240.77 545.593C1238.99 548.472 1237.2 551.341 1235.39 554.201Z" fill="#F97706"/>
<path d="M1279.8 708.032C1281.53 706.265 1283.24 704.479 1284.92 702.673C1300.07 686.414 1313.31 668.586 1324.54 649.572C1335.76 630.556 1344.97 610.346 1351.88 589.228C1352.65 586.881 1353.39 584.524 1354.1 582.155C1353.62 584.58 1353.09 586.998 1352.52 589.407C1347.42 611.096 1338.93 632.081 1327.55 651.351C1316.18 670.626 1301.91 688.196 1285.39 703.146C1283.55 704.807 1281.69 706.436 1279.8 708.032Z" fill="#F97706"/>
<path d="M1313.16 754.45C1320.01 752.152 1327.3 754.998 1333.38 758.319C1334.02 758.67 1334.66 759.032 1335.29 759.4C1355.18 771.008 1372.4 787.292 1385.15 806.62L1383.03 807.678C1373.84 768.33 1393.83 730.825 1411.82 697.493C1412.4 696.528 1412.99 695.57 1413.58 694.618C1429.24 669.626 1450.09 648.869 1467.67 625.81C1488.27 598.802 1504.53 568.443 1515.67 536.222C1517.96 529.585 1520.04 522.868 1521.89 516.086C1520.26 522.926 1518.4 529.713 1516.3 536.43C1506.11 569.039 1490.4 600.007 1469.99 627.552C1452.55 651.069 1431.91 671.934 1416.55 696.474C1415.96 697.41 1415.39 698.349 1414.82 699.295C1397.02 731.99 1377.15 769.63 1385.27 806.86L1388.89 816.811L1383.14 807.918C1370.95 788.668 1354.35 772.157 1334.91 760.024C1334.3 759.641 1333.68 759.264 1333.05 758.898C1327.13 755.434 1320.08 752.395 1313.16 754.45Z" fill="#F97706"/>
<path d="M1368.47 710.461C1370.33 708.002 1372.2 705.541 1374.06 703.085C1390.82 680.971 1407.67 658.953 1422.68 635.756C1437.68 612.582 1450.84 588.109 1459.47 561.746C1460.43 558.818 1461.33 555.877 1462.18 552.905C1461.56 555.933 1460.87 558.936 1460.11 561.932C1453.27 588.923 1440.74 614.312 1425.62 637.657C1410.48 661.057 1392.8 682.589 1374.57 703.505C1372.55 705.828 1370.51 708.15 1368.47 710.461Z" fill="#F97706"/>
<path d="M1160.42 537.257C1160.93 533.682 1161.52 530.104 1162.18 526.546C1168.16 494.488 1180.22 463.55 1196.63 435.287C1213.06 406.995 1233.84 381.306 1257.68 359.121C1260.34 356.652 1263.02 354.235 1265.75 351.852C1263.18 354.406 1260.65 356.981 1258.15 359.594C1235.67 383.09 1215.92 409.042 1199.66 437.044C1183.42 465.031 1170.64 495.116 1162.83 526.687C1161.97 530.192 1161.16 533.722 1160.42 537.257Z" fill="#F97706"/>
<path d="M1197.87 393.756C1199.03 391.939 1200.25 390.135 1201.49 388.362C1212.76 372.401 1227.05 358.573 1242.82 346.972C1258.61 335.371 1275.98 325.957 1294.21 319.017C1296.24 318.247 1298.28 317.507 1300.32 316.799C1298.37 317.723 1296.42 318.666 1294.48 319.626C1277.06 328.281 1260.47 338.355 1244.89 349.792C1229.34 361.245 1214.73 374.05 1202.02 388.77C1200.61 390.408 1199.22 392.075 1197.87 393.756Z" fill="#F97706"/>
<path d="M1263.34 778.309C1264.74 778.874 1266.23 779.14 1267.7 779.148C1274.08 779.058 1279.53 775.365 1285.9 773.451C1293.07 771.267 1300.74 771.904 1307.78 773.59C1310.18 774.162 1312.53 774.856 1314.84 775.623C1325.54 779.156 1335.73 784.174 1345 790.439C1346.26 791.285 1347.49 792.154 1348.71 793.045C1347.37 792.352 1346.02 791.676 1344.67 791.014C1334.66 786.122 1324.35 782.07 1313.81 778.874C1311.54 778.182 1309.26 777.541 1306.97 776.995C1300.22 775.385 1293.26 774.575 1286.59 776.077C1280.59 777.376 1274.35 780.644 1267.64 779.811C1266.11 779.589 1264.64 779.083 1263.34 778.309Z" fill="#F97706"/>
<path d="M1370.99 752.037C1370.34 751.553 1369.69 751.07 1369.05 750.587C1363.26 746.248 1357.58 741.954 1351.91 737.657C1346.24 733.367 1340.6 729.059 1334.7 724.896C1334.04 724.434 1333.38 723.973 1332.72 723.519C1333.48 723.764 1334.25 724.028 1335.01 724.307C1341.84 726.821 1348.23 730.485 1354.03 734.868C1359.82 739.259 1365.03 744.401 1369.52 750.112C1370.01 750.747 1370.5 751.388 1370.99 752.037Z" fill="#F97706"/>
<path d="M1010.56 1157.77C1001.89 1148.17 993.592 1138.24 985.694 1127.99C966.575 1103.18 949.782 1076.55 935.642 1048.56C929.561 1036.5 923.801 1023.86 922.105 1010.12C919.12 985.528 929.594 961.673 943.218 942C970.823 902.345 1011.29 875.172 1044.6 841.667C1047.12 839.141 1049.6 836.578 1052.02 833.973C1069.99 814.67 1085.78 792.067 1090.64 766.051C1095.35 740.66 1087.55 711.217 1065.75 696.222C1057.07 690.269 1046.71 686.938 1037.13 681.687C1009.66 666.598 991.933 635.043 994.819 603.833C996.508 585.838 1005.3 568.89 1018.27 556.564C1027.66 547.622 1039.42 541.063 1052.11 538.449C1039.47 541.293 1027.9 548.028 1018.73 557.043C1006.07 569.469 997.687 586.334 996.281 603.96C993.864 634.547 1011.63 665.133 1038.34 679.455C1047.67 684.478 1058.13 687.714 1067.34 693.889C1090.48 709.603 1098.67 740.191 1093.89 766.649C1088.96 793.653 1072.76 816.797 1054.58 836.356C1052.13 838.994 1049.62 841.585 1047.08 844.137C1013.41 877.958 973.091 904.881 945.699 943.734C932.173 962.982 921.866 986.134 924.516 1009.83C926.011 1023.09 931.5 1035.6 937.419 1047.68C951.171 1075.72 967.535 1102.51 986.224 1127.59C993.944 1137.95 1002.06 1148.02 1010.56 1157.77Z" fill="#F97706"/>
<path d="M1121.04 799.51C1121.53 798.663 1122 797.814 1122.44 796.952C1126.45 789.201 1128.6 780.923 1130.13 772.501C1131.65 764.072 1132.56 755.447 1133.77 746.758C1133.9 745.794 1134.04 744.826 1134.18 743.862C1134.27 744.832 1134.35 745.806 1134.43 746.778C1135.11 755.515 1135.15 764.372 1133.58 773.125C1132.02 781.831 1128.68 790.507 1123 797.32C1122.37 798.076 1121.72 798.804 1121.04 799.51Z" fill="#F97706"/>
<path d="M960.161 606.919C955.876 612.272 951.677 617.696 947.719 623.285C938.691 636.026 930.836 649.804 926.738 664.807C920.928 686.004 923.559 710.918 938.801 726.997C950.78 739.991 971.405 746.626 977.27 766.537C978.685 771.837 978.417 777.497 976.908 782.666C973.769 793.225 966.53 801.853 958.05 808.318C945.269 817.913 930.363 823.383 918.141 832.662C889.447 854.334 880.258 892.136 875.32 926.826C874.358 933.611 873.545 940.425 872.784 947.235C873.313 940.403 873.906 933.564 874.661 926.743C878.566 891.939 886.793 853.308 916.315 830.286C928.918 820.503 943.816 814.873 955.986 805.592C963.967 799.462 970.734 791.229 973.545 781.696C974.905 777.025 975.128 772.067 973.903 767.419C969.112 749.916 949.262 742.834 936.55 729.11C920.517 711.711 918.473 685.816 924.89 664.277C929.428 649.061 937.746 635.384 947.183 622.893C951.321 617.412 955.696 612.123 960.161 606.919Z" fill="#F97706"/>
<path d="M910.025 1023.1C909.144 1017.77 908.358 1012.43 907.696 1007.06C903.206 970.569 904.119 930.51 925.142 898.339C931.491 888.636 939.415 880.134 947.784 872.308C955.202 865.371 962.993 858.919 970.642 852.379C999.303 827.606 1028.12 798.925 1036.66 760.876C1037.79 755.616 1038.46 750.249 1038.64 744.852C1038.7 750.252 1038.24 755.665 1037.31 761.002C1030.21 799.744 1001.48 829.835 972.848 854.937C965.22 861.565 957.492 868.02 950.175 874.864C941.917 882.586 934.161 890.849 927.932 900.183C907.303 931.046 905.282 970.362 908.358 1006.99C908.809 1012.37 909.375 1017.74 910.025 1023.1Z" fill="#F97706"/>
<path d="M1190.5 590.815C1191.75 591.73 1193.02 592.456 1194.37 593.012C1207.6 597.694 1218.71 585.902 1227.58 576.975C1236.63 567.275 1244.7 556.533 1252.45 545.541C1253.32 544.307 1254.18 543.053 1255 541.852C1254.38 543.169 1253.71 544.537 1253.02 545.883C1246.87 557.887 1239.45 569.38 1230.13 579.373C1221.27 588.491 1207.67 600.603 1194.08 593.608C1192.76 592.836 1191.6 591.907 1190.5 590.815Z" fill="#F97706"/>
<path d="M1046.28 797.122C1047.77 794.571 1049.15 791.962 1050.36 789.283C1051.7 786.317 1052.83 783.262 1053.63 780.138C1059.45 757.244 1047.75 734.751 1034.53 716.375C1032.74 713.891 1030.88 711.448 1028.98 709.04C1014.65 690.82 997.925 672.655 991.691 649.529C990.934 646.66 990.361 643.747 989.995 640.814C990.591 643.709 991.377 646.555 992.328 649.337C1000.09 671.654 1017.05 688.567 1031.68 706.883C1033.64 709.312 1035.54 711.791 1037.37 714.324C1050.84 732.928 1062.42 757.218 1054.89 780.505C1053.87 783.661 1052.52 786.686 1050.96 789.578C1049.55 792.19 1047.97 794.697 1046.28 797.122Z" fill="#F97706"/>
<path d="M1280.5 555.352C1279.48 554.491 1278.54 553.546 1277.69 552.504C1269.89 542.601 1271.35 528.813 1273.73 517.353C1276.28 505.576 1280.62 494.49 1284.44 483.234C1284.86 481.988 1285.28 480.712 1285.67 479.467C1285.51 480.761 1285.31 482.094 1285.09 483.395C1283.08 495.195 1279.63 506.623 1277.15 518.091C1274.87 529.422 1272.42 541.646 1278.24 552.125C1278.89 553.254 1279.64 554.326 1280.5 555.352Z" fill="#F97706"/>
<path d="M1167.52 776.259C1168.36 776.447 1169.21 776.631 1170.05 776.809C1177.64 778.415 1185.15 779.652 1192.69 780.598C1200.24 781.541 1207.82 782.193 1215.57 782.515C1216.43 782.55 1217.29 782.581 1218.16 782.608C1217.32 782.814 1216.47 783.003 1215.62 783.178C1207.98 784.748 1200.04 785.047 1192.26 784.071C1184.47 783.099 1176.85 780.85 1169.83 777.438C1169.05 777.059 1168.28 776.666 1167.52 776.259Z" fill="#F97706"/>
<path d="M1668.91 -17.3569C1667.6 -15.4377 1666.29 -13.5108 1664.99 -11.5838C1653.31 5.76814 1642.16 23.4216 1632.75 41.9519C1623.36 60.4668 1615.73 79.932 1611.6 100.43C1611.14 102.707 1610.73 104.989 1610.36 107.29C1610.5 104.964 1610.69 102.647 1610.95 100.328C1613.21 79.4398 1620.11 59.1132 1629.63 40.3688C1639.17 21.5816 1651.25 4.25706 1664.46 -11.9799C1665.93 -13.7839 1667.41 -15.5788 1668.91 -17.3569Z" fill="#FF9C56"/>
<path d="M1694.94 495.277C1691.66 486.676 1685.92 479.163 1678.89 473.347C1665.49 462.316 1647.96 456.86 1630.8 457.173C1623.04 457.335 1615.22 458.566 1608.3 461.885C1593.03 469.267 1584.38 485.231 1578.02 500.681C1569.76 519.119 1572.57 539.625 1570.31 559.917C1568.1 580.378 1559.04 599.45 1547.81 616.279C1545.48 619.78 1543.1 623.152 1540.53 626.618C1501.63 695.492 1537.25 783.409 1508.19 855.136C1503.45 856.953 1499.07 854.375 1495.21 851.704C1491.57 849.051 1488.42 845.993 1485 842.33C1488.5 845.912 1491.73 848.884 1495.41 851.425C1499.28 854.01 1503.67 856.307 1507.93 854.526C1534.56 783.723 1497.66 696.563 1537.73 624.538C1540.26 621.114 1542.6 617.788 1544.89 614.343C1555.96 597.747 1564.75 579.32 1567 559.517C1569.34 539.991 1566.65 518.612 1575.42 499.595C1582.04 484.031 1591.13 467.527 1607.4 459.954C1614.76 456.572 1622.86 455.465 1630.77 455.44C1648.35 455.438 1666.03 461.379 1679.32 472.84C1686.29 478.88 1691.88 486.596 1694.94 495.277Z" fill="#F97706"/>
<path d="M2045.5 312.83C2013.48 314.524 1995.36 346.359 1990.77 375.046C1982 420.268 1986.05 467.111 1975.32 512.252C1960.11 578.152 1910.93 633.541 1849.51 660.907C1835.83 667.274 1820.27 672.713 1804.7 669.126C1797.7 667.488 1791.41 664.135 1785.3 660.893C1762.81 648.935 1739.34 636.415 1722.89 615.909C1708.67 598.109 1701.38 576.504 1691.58 556.739C1681.93 537.288 1668.5 517.827 1647.97 510.16C1642.72 508.211 1637.02 507.18 1631.84 508.589C1627.17 509.848 1623.08 513.023 1619.35 516.541C1584.96 542.603 1582.38 588.406 1576.23 628.552C1574.7 640.531 1573.01 652.145 1571.11 663.764C1562.59 717.196 1548.53 769.398 1532.2 820.874C1515.07 871.102 1503.84 928.53 1533.84 975.597C1631.71 1110.35 1839.7 1103.89 1973.02 1020.38C1998.7 1004.99 2022.87 987.117 2045.5 967.33C2023.03 987.292 1998.97 1005.36 1973.36 1020.95C1840.39 1105.35 1631.57 1114.09 1531.16 977.062C1500.48 929.483 1511.89 869.806 1528.97 819.879C1545.22 768.375 1559.16 716.46 1567.66 663.199C1569.55 651.621 1571.23 640.047 1572.77 628.107C1578.88 588.16 1581.72 540.804 1617.03 514.072C1620.92 510.43 1625.39 506.851 1630.96 505.339C1637.17 503.681 1643.53 504.95 1649.14 507.031C1671.01 515.302 1684.68 535.578 1694.45 555.321C1704.31 575.372 1711.53 596.751 1725.26 614.013C1741.12 633.923 1764.16 646.406 1786.62 658.428C1792.71 661.695 1798.79 664.93 1805.32 666.479C1819.82 669.908 1834.91 664.854 1848.44 658.602C1909.42 631.693 1958.28 577.272 1973.81 511.868C1984.73 467.173 1981.01 420.2 1990.12 374.912C1994.9 346.166 2013.47 314.232 2045.5 312.83Z" fill="#F97706"/>
<path d="M1764.21 704.763C1753.3 705.451 1742.25 703.702 1732 699.782C1725.55 697.312 1719.42 693.978 1713.85 689.85C1704.01 682.687 1693.97 671.964 1681.5 674.563C1676.06 675.791 1671.61 679.697 1666.34 682.42C1652.72 689.404 1634.79 686.3 1624.29 674.96C1618.58 668.877 1613.49 659.845 1605.64 661.086C1601.08 661.866 1597.93 666.42 1595.58 670.874C1585.54 689.957 1581.5 711.508 1575.61 732.493C1569.48 754.551 1564.83 776.517 1563.79 799.19C1562.86 815.297 1565.21 831.063 1567.69 847.248C1569.16 855.399 1566.19 865.177 1559.79 870.696C1553.85 876.454 1546.73 880.941 1539.83 885.19C1533.26 889.248 1525.4 895.159 1527.5 902.404C1529.91 909.43 1537.39 914.179 1544.12 918.499C1558.06 926.946 1573.24 933.727 1588.03 940.805C1617.82 954.894 1647.61 969.435 1674.38 988.803C1683.24 995.227 1691.71 1002.18 1699.5 1009.83C1691.55 1002.35 1682.95 995.583 1674 989.345C1646.92 970.543 1617.04 956.545 1587.08 942.841C1572.19 935.947 1556.95 929.359 1542.66 920.887C1535.75 916.407 1527.92 912.148 1524.6 903.245C1522.02 892.961 1531.6 886.757 1538.17 882.469C1551.17 874.061 1568.15 864.381 1564.29 847.622C1561.83 831.941 1559.33 815.339 1560.29 799.037C1561.36 775.951 1566.11 753.774 1572.39 731.582C1578.33 710.818 1582.53 689.031 1593.01 669.502C1595.53 664.922 1598.94 659.475 1605.19 658.351C1615.99 657.268 1620.61 667.625 1626.13 673.273C1635.66 683.856 1652.6 687.098 1665.47 680.695C1670.5 678.219 1675.12 674.22 1681.15 672.926C1695.01 670.432 1704.83 681.836 1714.48 689.014C1719.89 693.181 1725.9 696.592 1732.25 699.163C1742.32 703.244 1753.29 705.218 1764.21 704.763Z" fill="#F97706"/>
<path d="M1760.26 672.935C1760.26 672.935 1760.26 672.935 1760.26 672.935C1755.66 671.933 1751.21 670.211 1747.05 667.957C1732.86 660.186 1722.43 647.336 1712.59 634.895C1696.32 614.213 1679.76 592.899 1670.25 567.746C1669.9 566.826 1669.57 565.904 1669.24 564.976C1666.64 557.6 1664.27 549.626 1658 546.029C1651.55 542.303 1642.67 544.931 1637.13 550.146C1631.35 555.564 1628.11 563.286 1625.16 570.945C1619.07 586.699 1613.54 602.681 1608.59 618.857C1607.21 623.355 1605.88 627.868 1604.59 632.396C1604.59 632.396 1604.59 632.396 1604.59 632.396C1605.65 627.81 1606.77 623.237 1607.95 618.677C1612.18 602.279 1617.15 586.057 1622.84 570.084C1625.61 562.319 1628.73 554.116 1635.03 547.952C1641.22 541.981 1651.24 538.498 1659.66 543.092C1667.61 547.704 1669.91 556.617 1672.54 563.812C1672.86 564.717 1673.19 565.615 1673.53 566.51C1682.77 591.002 1698.79 612.302 1714.5 633.438C1723.98 646.125 1733.73 659.086 1747.38 667.379C1751.39 669.788 1755.72 671.706 1760.26 672.935Z" fill="#F97706"/>
<path d="M1737.24 667.312C1734.63 667.799 1731.95 668.012 1729.27 667.963C1723.25 667.841 1717.16 666.462 1711.76 663.487C1704.23 659.264 1698.42 652.506 1690.53 651.321C1681.59 649.708 1673.1 654.738 1664.5 658.792C1659.13 661.322 1653.27 663.669 1646.95 663.848C1637.5 664.12 1628.52 659.515 1622.55 652.604C1616.3 645.414 1613.62 635.146 1616.21 626.14C1616.93 623.547 1618.04 621.082 1619.47 618.835C1618.24 621.198 1617.36 623.715 1616.86 626.293C1615.05 635.259 1618.26 644.602 1624.36 650.988C1630.18 657.105 1638.55 660.945 1646.82 660.524C1652.38 660.263 1657.75 658.11 1663.01 655.626C1671.35 651.744 1680.71 646.182 1691.1 648.324C1700.28 650.138 1705.89 657.568 1712.72 661.847C1717.63 664.943 1723.42 666.715 1729.31 667.299C1731.93 667.555 1734.59 667.568 1737.24 667.312Z" fill="#F97706"/>
<path d="M1657.31 619.644C1657.31 619.644 1657.31 619.644 1657.31 619.644C1657.5 620.587 1657.57 621.57 1657.5 622.556C1657.05 629.626 1650.19 636.34 1642.17 635.531L1640.85 635.391L1640.7 634.001C1640.5 632.197 1640.38 630.384 1640.33 628.569C1640.07 619.815 1641.5 611.019 1644.5 602.873C1644.83 601.967 1645.18 601.07 1645.55 600.182C1645.55 600.182 1645.55 600.182 1645.55 600.182C1645.41 601.133 1645.27 602.083 1645.14 603.032C1644 611.576 1643.58 620.034 1643.82 628.467C1643.88 630.215 1643.96 631.963 1644.07 633.71L1642.6 632.181C1648.35 633.092 1654.94 628.831 1656.85 622.444C1657.11 621.546 1657.27 620.606 1657.31 619.644Z" fill="#F97706"/>
<path d="M1652.63 496.13C1651.49 495.52 1650.34 494.926 1649.19 494.357C1641.11 490.376 1631.96 487.256 1623.88 490.003C1621.74 490.718 1619.73 491.82 1617.89 493.191C1613.98 496.104 1610.8 500.106 1607.98 504.349C1604.51 509.577 1601.39 515.326 1597.1 520.186C1596.24 521.162 1595.33 522.096 1594.37 522.97C1595.16 521.938 1595.88 520.874 1596.57 519.787C1599.95 514.391 1602.29 508.493 1605.48 502.822C1608.09 498.208 1611.33 493.724 1615.8 490.381C1617.91 488.813 1620.3 487.544 1622.87 486.786C1632.72 483.925 1642.21 488.577 1649.53 493.787C1650.58 494.541 1651.62 495.325 1652.63 496.13Z" fill="#F97706"/>
</g>
<defs>
<clipPath id="clip0_1549_8982">
<rect width="1654" height="773" fill="white"/>
</clipPath>
</defs>
</svg>
