<svg width="1654" height="773" viewBox="0 0 1654 773" fill="none" xmlns="http://www.w3.org/2000/svg">
<g clip-path="url(#clip0_1549_10140)">
<path d="M96.5 1040.85C76.533 1048.27 55.043 1051.28 33.7617 1051.38C-13.0615 1051.28 -63.5364 1037.09 -94.2404 999.442C-108.031 982.814 -116.382 961.488 -116.385 939.822C-116.122 918.867 -115.748 894.809 -134.975 882.938C-161.284 864.038 -183.171 837.002 -191.167 805.097C-199.098 777.698 -200.319 748.995 -199.763 720.801C-198.944 679.707 -194.346 638.761 -187.197 598.334C-177.614 544.145 -163.511 490.895 -147.643 438.298C-141.476 417.848 -134.988 397.149 -135.694 375.932C-136.385 355.218 -145.347 333.165 -163.825 322.88C-185.996 310.717 -213.172 318.654 -234.964 329.727C-269.701 347.496 -299.835 374.249 -321.636 406.697C-335.676 427.631 -346.505 451.506 -348.174 476.893C-348.44 480.948 -348.443 485.024 -348.187 489.084C-346.872 510.16 -338.379 531.451 -322.155 545.491C-338.536 531.632 -347.32 510.337 -348.85 489.129C-349.149 485.044 -349.186 480.937 -348.957 476.845C-347.523 451.247 -336.817 427.071 -322.86 405.883C-301.191 373.041 -271.015 345.828 -236.033 327.654C-214.029 316.347 -186.21 307.716 -162.491 320.46C-142.766 331.366 -133.465 354.354 -132.646 375.825C-131.843 397.74 -138.422 418.792 -144.514 439.238C-160.212 491.809 -174.202 544.948 -183.751 598.944C-190.874 639.227 -195.493 679.985 -196.394 720.871C-197.009 748.924 -195.856 777.291 -188.159 804.231C-180.383 835.598 -159.302 861.872 -133.364 880.766C-113.206 893.209 -113.594 919.502 -114.051 939.761C-114.157 961.067 -106.238 981.714 -92.7596 998.263C-62.9099 1035.49 -12.925 1050.18 33.7633 1050.71C54.9798 1050.82 76.4547 1048.05 96.5 1040.85Z" fill="#F97706"/>
<path d="M858 802.462C883.175 811.89 910.279 815.955 937.159 815.007C992.499 813.072 1047.52 790.032 1085.82 749.462C1106.7 727.321 1122.52 701.103 1137.08 674.637C1151.63 648.194 1165.29 620.929 1173.76 591.724C1184.82 553.53 1186.55 513.462 1185.78 474.057C1184.09 387.294 1170.34 301.183 1150.49 216.884C1139.58 170.525 1126.82 124.629 1113.1 79.0517C1104.5 50.4443 1095.41 21.4249 1096.42 -8.37406C1097.42 -37.4793 1110.02 -68.4818 1136.08 -82.9684C1167.35 -100.073 1205.47 -88.8493 1235.98 -73.3191C1284.61 -48.3931 1326.76 -10.8963 1357.23 34.5545C1376.86 63.8764 1391.98 97.3176 1394.28 132.86C1394.84 141.447 1394.55 150.093 1393.43 158.632C1390 185.1 1378.24 211.17 1357.77 228.821C1378.39 211.35 1390.44 185.295 1394.09 158.721C1395.28 150.147 1395.64 141.455 1395.15 132.808C1393.1 97.0332 1378.11 63.2617 1358.57 33.6648C1328.24 -12.2115 1286.03 -50.2013 1237.13 -75.5515C1206.39 -91.3257 1167.58 -103.278 1134.66 -85.5428C1107.28 -70.3865 1094.34 -38.388 1093.22 -8.48675C1092.12 22.048 1101.31 51.4282 1109.86 80.0264C1123.49 125.58 1136.2 171.417 1147.09 217.686C1166.9 301.823 1180.72 387.655 1182.65 474.123C1183.52 513.395 1181.93 553.155 1171.13 590.969C1162.88 619.888 1149.44 647.063 1135.05 673.525C1120.65 700.011 1105.06 726.145 1084.49 748.221C1046.81 788.636 992.29 811.984 937.133 814.342C910.343 815.497 883.256 811.67 858 802.462Z" fill="url(#paint0_linear_1549_10140)"/>
<path d="M1145.66 47.624C1145.77 53.6163 1146.3 59.6056 1147.21 65.5421C1151.03 90.3928 1161.35 113.99 1175.08 135.035C1191 159.409 1211.33 180.483 1232.49 200.181C1234.04 201.632 1235.61 203.077 1237.18 204.515C1247.78 214.202 1259.52 224.482 1274.59 227.302C1297.32 231.348 1319.33 215.777 1327.88 195.693C1334.18 180.908 1334.11 164.211 1330.22 149.014C1328.74 143.187 1326.7 137.514 1324.19 132.074C1326.49 137.608 1328.31 143.332 1329.58 149.167C1332.91 164.391 1332.42 180.753 1325.98 194.859C1317.31 213.963 1295.93 228.148 1275.19 224.128C1261.33 221.412 1250.08 211.621 1239.54 201.941C1237.98 200.505 1236.42 199.065 1234.87 197.62C1213.79 177.995 1193.5 157.336 1177.32 133.545C1163.36 113.002 1152.53 90.0095 1147.87 65.43C1146.75 59.5563 1146.01 53.6075 1145.66 47.624Z" fill="#F97706"/>
<path d="M1154.85 -9.84405C1154.85 -9.84405 1154.85 -9.84405 1154.85 -9.84405C1155.91 -13.6987 1155.89 -17.7736 1155.72 -21.7515C1155.44 -29.9733 1153.66 -39.9518 1160.37 -45.1505C1163.2 -47.3883 1167 -48.1198 1170.71 -48.2208C1191.19 -48.65 1207.64 -33.2402 1220.06 -17.8357C1221.9 -15.548 1223.69 -13.2293 1225.44 -10.8802C1246.7 17.645 1261.99 50.6104 1270.06 85.487C1270.96 89.3623 1271.77 93.2611 1272.48 97.18C1272.48 97.18 1272.48 97.18 1272.48 97.18C1272 93.226 1271.41 89.2823 1270.72 85.3544C1264.49 49.997 1249.83 15.965 1228.24 -12.9722C1226.47 -15.3559 1224.64 -17.7049 1222.77 -20.0172C1210.07 -35.6411 1192.49 -51.6772 1170.61 -50.5075C1166.65 -50.2589 1162.41 -49.3369 1159.19 -46.5814C1151.7 -39.9929 1154.45 -29.7921 1155.06 -21.7047C1155.43 -17.7604 1155.68 -13.7523 1154.85 -9.84405Z" fill="#F97706"/>
<path d="M1192.79 61.6367C1193.06 64.2667 1193.4 66.8921 1193.8 69.5099C1197.38 93.0768 1206.19 115.978 1219.32 136.06C1225.61 145.688 1232.9 154.673 1241.03 162.785C1248.36 170.003 1258.88 177.996 1269.89 174.083L1270.24 173.982L1270.26 173.587C1270.25 171.778 1270.23 169.969 1270.22 168.16C1270.19 165.517 1270.16 162.875 1270.14 160.231C1269.93 162.867 1269.74 165.503 1269.55 168.14C1269.42 169.945 1269.3 171.75 1269.18 173.555L1269.55 173.059C1259.22 175.924 1249.96 168.081 1243.08 160.806C1235.39 152.524 1228.43 143.591 1222.25 134.146C1209.38 114.436 1199.89 92.4992 1194.45 69.3837C1193.85 66.8154 1193.3 64.2326 1192.79 61.6367Z" fill="#F97706"/>
<path d="M1756.75 845.239C1756.75 845.239 1756.75 845.239 1756.75 845.239C1748.01 829.508 1740.95 812.928 1734.41 796.191C1725.58 773.622 1717.64 750.674 1707.54 728.569C1690.11 690.609 1664.26 652.91 1624.24 636.069C1591.59 622.524 1555.28 625.006 1523.4 611.962C1481.45 594.692 1454.83 554.246 1436.3 513.949C1429.83 499.834 1424.05 485.389 1418.15 470.959C1406.97 443.575 1395.32 415.918 1378.08 391.44C1352.33 355.008 1309.04 324.376 1262.35 331.829C1257.66 332.619 1252.61 333.86 1248.68 337.305C1243.61 341.839 1242.05 348.483 1241 354.448C1229.17 425.893 1268.7 493.939 1254.16 564.333C1252.93 570.078 1251.33 575.744 1249.5 581.335C1243.91 598.412 1236.22 614.742 1230.2 631.692C1230.2 631.692 1230.2 631.692 1230.2 631.692C1236.44 614.822 1244.32 598.609 1250.13 581.546C1252.03 575.96 1253.71 570.287 1255.01 564.519C1270.37 493.789 1231.46 424.908 1243.67 354.914C1244.71 349.089 1246.33 343.093 1250.54 339.423C1253.78 336.592 1258.29 335.411 1262.81 334.687C1307.84 327.678 1350.12 357.586 1375.3 393.398C1392.21 417.511 1403.74 444.918 1414.91 472.282C1420.8 486.698 1426.61 501.187 1433.14 515.398C1451.89 555.996 1478.97 597.208 1522.23 614.834C1555.11 628.024 1591.3 625.31 1623.28 638.393C1662.49 654.534 1688.51 691.534 1706.22 729.178C1716.51 751.098 1724.7 773.955 1733.79 796.436C1740.54 813.108 1747.81 829.623 1756.75 845.239Z" fill="#F97706"/>
<path d="M1220.55 563.451C1221.14 556.784 1221.44 550.091 1221.48 543.393C1221.75 482.883 1201.99 424.773 1195.42 365.375C1195.41 365.228 1195.39 365.081 1195.38 364.934C1192.49 338.04 1192.72 308.532 1209.13 286.382C1220.6 271.001 1239.53 261.295 1258.91 261.05C1271.68 260.889 1284.48 264.858 1295.19 272.009C1300.72 275.705 1305.71 280.26 1309.84 285.528C1305.9 280.119 1301.04 275.369 1295.56 271.462C1284.98 263.902 1272.06 259.456 1258.91 259.297C1238.95 259.06 1219.09 268.663 1206.82 284.63C1189.29 307.647 1188.99 338.148 1191.9 365.315C1191.91 365.464 1191.93 365.612 1191.95 365.761C1198.61 425.776 1219.2 483.159 1220.81 543.4C1220.98 550.079 1220.91 556.767 1220.55 563.451Z" fill="#F97706"/>
<path d="M1198.11 264.281C1198.66 262.699 1199.16 261.098 1199.61 259.48C1203.68 244.906 1203.62 229.079 1199.74 214.295C1195.88 199.505 1188.17 185.678 1177.47 174.978C1176.29 173.789 1175.07 172.64 1173.81 171.531C1174.9 172.804 1175.95 174.099 1176.98 175.417C1186.16 187.291 1192.61 200.901 1196.36 215.181C1200.09 229.465 1201.14 244.489 1198.96 259.342C1198.72 260.992 1198.44 262.638 1198.11 264.281Z" fill="#F97706"/>
<path d="M1275.02 15.9028C1276.88 17.0682 1278.71 18.2697 1280.52 19.5066C1296.76 30.6449 1310.79 44.5701 1322.22 60.3519C1333.64 76.1409 1342.48 93.8266 1347.99 112.735C1348.6 114.836 1349.16 116.951 1349.69 119.081C1349.39 116.907 1349.04 114.74 1348.63 112.581C1344.96 93.1347 1336.75 74.4407 1325.06 58.2999C1313.38 42.1502 1298.19 28.5091 1280.87 18.9406C1278.94 17.8771 1276.99 16.8642 1275.02 15.9028Z" fill="#F97706"/>
<path d="M1201.39 132.531C1201.39 132.531 1201.39 132.531 1201.39 132.531C1200.22 129.928 1199.07 127.256 1197.99 124.612C1188.28 100.629 1181 75.7779 1175.89 50.5516C1174.16 41.7227 1172.74 32.8062 1172.13 23.9019C1171.14 8.53837 1171.61 -14.0923 1190.56 -16.1471C1193.37 -16.5819 1196.26 -16.6552 1199.14 -16.6205C1199.14 -16.6205 1199.14 -16.6205 1199.14 -16.6205C1196.27 -16.8876 1193.38 -17.0399 1190.48 -16.8076C1181.81 -16.6854 1173.92 -9.78029 1171.59 -1.37077C1168.9 6.88235 1168.68 15.5679 1168.98 24.0699C1169.37 33.2175 1170.71 42.2877 1172.46 51.2288C1177.62 76.7546 1185.92 101.597 1197.38 124.887C1198.66 127.451 1200.01 130.032 1201.39 132.531Z" fill="#F97706"/>
<path d="M1229.39 671.955C1232.39 664.751 1238.98 659.564 1246.28 657.36C1260 653.274 1275.45 656.54 1286.78 664.869C1304.72 678.41 1314.26 699.556 1328.65 717.044C1349.72 742.648 1381.37 759.096 1414.42 762.1C1418.63 762.482 1422.85 762.645 1427.08 762.582C1464.55 761.997 1501.17 743.603 1524 714.076C1535.21 699.566 1543.19 682.688 1557.38 671.285C1565.31 665 1575.57 661.422 1585.79 661.827C1593.4 662.11 1601.19 665.296 1605.84 671.585C1601.39 665.156 1593.58 661.657 1585.83 661.163C1575.42 660.473 1564.86 663.829 1556.49 670.148C1541.68 681.514 1533.26 698.5 1522.02 712.523C1499.22 741.054 1463.39 758.582 1427.03 759.093C1422.93 759.147 1418.83 758.985 1414.74 758.614C1382.63 755.694 1351.73 739.917 1330.86 715.205C1316.55 698.326 1306.51 677.021 1287.8 663.485C1275.79 655.072 1259.95 652.195 1246.07 656.728C1238.69 659.174 1232.17 664.665 1229.39 671.955Z" fill="#F97706"/>
<path d="M1249.09 783.648C1249.09 783.648 1249.09 783.648 1249.09 783.648C1249.02 781.963 1248.95 780.279 1248.88 778.595C1248.47 769.641 1247.9 760.705 1247.16 751.785C1246.65 745.634 1246.16 739.522 1246.65 733.556C1247.07 728.329 1248.34 723.206 1251.05 718.847C1255.69 711.531 1266.84 707.074 1275.17 711.933C1276.55 712.811 1277.75 714.008 1278.67 715.427C1278.67 715.427 1278.67 715.427 1278.67 715.427C1277.95 713.896 1276.9 712.502 1275.56 711.396C1267.31 705.129 1254.49 708.555 1248.43 717.137C1245.14 721.917 1243.61 727.676 1243.16 733.267C1242.64 739.667 1243.33 745.964 1244.15 752.112C1245.35 760.979 1246.69 769.833 1248.21 778.667C1248.5 780.328 1248.79 781.988 1249.09 783.648Z" fill="url(#paint1_linear_1549_10140)"/>
<path d="M1495.16 661.393C1481.1 658.433 1467.58 653.084 1455.24 645.795C1437.46 635.289 1422.07 620.725 1410.92 603.408C1370.61 540.373 1387.16 455.6 1336.37 396.278C1329.16 388.177 1320.23 380.627 1309.06 378.073C1297.16 378.375 1291.39 387.208 1284.7 393.733C1278.51 400.989 1272.24 408.064 1269.18 418.027C1268.16 423.21 1267.86 428.503 1268.14 433.741C1269.72 458.637 1282.32 480.241 1288.72 503.099C1295.85 528.269 1295.38 555.564 1287.4 580.513C1282.62 595.547 1274.94 610.107 1273.11 626.476L1272.82 629.005L1275.1 627.857C1300.32 623.835 1329.28 637.983 1348.45 655.404C1358.33 668.651 1362.22 685.234 1368.34 700.714C1374.39 715.938 1383.97 731.918 1400.33 737.486C1402.19 738.112 1404.12 738.503 1406.07 738.682C1420.11 740.052 1437.29 729.853 1435.72 714.492C1437.02 729.849 1419.82 739.559 1406.14 738.02C1404.24 737.818 1402.37 737.41 1400.57 736.777C1384.67 731.113 1375.47 715.343 1369.66 700.2C1363.77 684.783 1360.11 668.04 1350.06 654.217C1340.51 643.404 1327.54 637.644 1314.89 632.059C1302.08 627.349 1288.55 620.83 1273.86 625.405L1275.85 626.786C1277.69 611.124 1285.31 596.794 1290.32 581.455C1298.63 555.967 1299.24 528.027 1291.99 502.177C1285.46 478.791 1273.08 457.263 1271.64 433.553C1271.37 428.568 1271.66 423.577 1272.61 418.697C1278.93 403.432 1293.08 384.766 1308.31 381.393C1318.39 383.649 1326.9 390.638 1333.91 398.471C1383.7 455.623 1368.27 540.838 1409.66 604.228C1421.16 621.612 1436.88 636.075 1454.91 646.37C1467.41 653.513 1481.05 658.662 1495.16 661.393Z" fill="#F97706"/>
<path d="M1129.4 795.314C1129.4 795.314 1129.4 795.314 1129.4 795.314C1131.58 792.917 1133.7 790.452 1135.75 787.926C1149.52 770.917 1159.99 751.089 1166.28 729.966C1168.4 722.855 1170.05 715.63 1171.49 708.393C1177.28 679.812 1179.44 650.087 1194.05 624.582C1195.68 621.778 1197.43 619.069 1199.35 616.441C1197.25 618.925 1195.3 621.518 1193.49 624.231C1177.06 649.019 1173.77 679.449 1168.06 707.708C1166.63 714.89 1165.06 722.03 1163.1 729.045C1157.25 749.869 1147.81 769.725 1135.22 787.524C1133.35 790.168 1131.41 792.766 1129.4 795.314Z" fill="url(#paint2_linear_1549_10140)"/>
<path d="M1053.96 671.224C1053.96 671.224 1053.96 671.224 1053.96 671.224C1057.21 668.317 1060.46 665.401 1063.7 662.471C1092.7 636.175 1121.32 608.181 1140.76 573.478C1143.76 568.108 1146.53 562.6 1149 556.965C1162.48 526.303 1167.22 491.96 1162.77 459.016C1162.19 454.683 1161.45 450.374 1160.55 446.103C1161.22 450.416 1161.74 454.748 1162.11 459.089C1164.94 492.088 1159.3 525.579 1145.87 555.572C1143.39 561.088 1140.66 566.489 1137.71 571.77C1118.62 605.872 1090.97 634.309 1063.24 661.989C1060.15 665.07 1057.05 668.148 1053.96 671.224Z" fill="url(#paint3_linear_1549_10140)"/>
<path d="M-3.76158 616.773C9.43 623.533 21.0792 633.073 30.5971 644.352C66.2172 686.679 73.5223 752.965 41.6187 798.735C18.9543 832.334 -24.9919 857.801 -22.9569 904.287C-21.2171 925.792 -7.27544 943.797 8.51286 957.003C20.2059 966.765 33.4174 974.623 47.4756 980.395C110.665 1005.62 182.383 991.917 241.401 962.451C301.451 931.983 351.854 887.052 405.677 847.648C417.614 838.903 429.739 830.409 442.182 822.391C429.614 830.212 417.355 838.529 405.288 847.108C350.868 885.786 299.971 930.147 240.145 959.952C181.464 988.759 110.544 1001.86 48.8068 977.158C35.0593 971.513 22.1619 963.853 10.7292 954.341C-4.68454 941.509 -17.9954 924.168 -19.6699 904.024C-22.129 860.447 20.6852 834.432 43.7044 800.182C75.976 752.958 67.5066 685.959 31.1019 643.919C21.3721 632.714 9.53483 623.324 -3.76158 616.773Z" fill="#F97706"/>
<path d="M647.968 509.054C648.5 513.111 649.936 517.032 651.567 520.806C657.424 534.004 665.832 545.909 671.683 558.856C674.434 565.194 677.116 572.543 674.528 578.42C671.78 584.252 664.308 586.146 657.445 587.05L656.178 587.209L655.998 588.492C654.886 596.431 652.64 604.198 649.736 611.723C645.154 623.594 639.003 634.867 632.862 646.17C621.418 667.062 609.673 688.742 590.058 702.872C586.732 705.238 583.203 707.335 579.497 709.098C583.297 707.548 586.955 705.636 590.429 703.423C610.982 690.178 623.812 668.401 635.62 647.701C641.963 636.504 648.3 625.157 653.002 612.982C655.979 605.267 658.266 597.212 659.329 588.94L657.882 590.382C665.01 589.281 673.589 587.468 677.276 579.647C680.328 571.807 676.838 564.287 673.898 557.828C667.473 544.746 658.644 533.316 652.169 520.525C650.362 516.866 648.732 513.071 647.968 509.054Z" fill="#F97706"/>
<path d="M645.617 686.777C643.096 688.795 640.613 690.862 638.169 692.977C618.507 709.993 601.411 730.131 587.787 752.419C586.18 755.054 584.626 757.645 582.804 759.927C581.095 762.072 579.13 763.926 576.832 765.108C573.008 767.101 568.269 767.234 563.467 767.471C541.992 768.505 520.729 773.178 500.897 781.155C497.897 782.361 494.93 783.643 492 784.998C495.02 783.858 498.063 782.785 501.125 781.78C521.369 775.135 542.454 771.425 563.602 770.768C568.334 770.589 573.57 770.639 578.415 768.197C581.305 766.735 583.642 764.492 585.539 762.111C587.563 759.571 589.17 756.849 590.753 754.217C604.057 732.12 620.155 711.684 638.621 693.465C640.916 691.201 643.248 688.971 645.617 686.777Z" fill="#F97706"/>
<path d="M-26.6328 1010.51C-26.6328 1010.51 -26.6328 1010.51 -26.6328 1010.51C-32.1161 1009.49 -37.5362 1008.15 -42.8227 1006.42C-58.811 1001.23 -74.3586 991.955 -82.4525 977.197C-96.3855 951.534 -84.8138 920.217 -68.0074 898.227C-65.389 894.825 -62.6262 891.527 -59.7692 888.302C-43.6209 870.058 -24.3573 854.144 -10.3044 833.522C4.26444 812.088 12.1128 786.337 12.2852 760.653C12.3232 755.061 11.9978 749.473 11.3014 743.938C11.3014 743.938 11.3014 743.938 11.3014 743.938C11.7657 749.497 11.8676 755.078 11.6204 760.636C10.481 786.164 2.00492 811.219 -12.6221 831.915C-26.7219 851.837 -45.966 867.456 -62.3889 885.981C-65.2899 889.255 -68.1009 892.621 -70.7676 896.109C-87.9846 918.752 -99.7287 951.6 -84.4174 978.316C-75.5183 993.573 -59.2611 1002.45 -43.0175 1007.06C-37.6374 1008.6 -32.1539 1009.72 -26.6328 1010.51Z" fill="#F97706"/>
<path d="M-41.5264 820.621C-41.5264 820.621 -41.5264 820.621 -41.5264 820.621C-38.3176 816.537 -35.2777 812.314 -32.415 807.969C-13.0377 778.574 -1.81602 743.625 -0.703469 708.184C-0.412406 698.07 -0.935566 686.952 -7.12654 677.881C-8.00369 676.606 -8.97157 675.407 -10.021 674.281C-21.4429 662.494 -37.7878 660.332 -49.7962 651.832C-64.495 641.536 -71.588 622.932 -72.4559 605.01C-73.0889 591.957 -70.865 578.867 -67.9048 566.052C-66.7382 560.996 -65.4546 555.963 -64.1734 550.929C-64.1734 550.929 -64.1734 550.929 -64.1734 550.929C-65.6794 555.9 -67.1767 560.874 -68.5497 565.889C-72.029 578.597 -74.7493 591.711 -74.4938 605.078C-74.1248 623.457 -67.3246 643.098 -51.648 654.443C-38.8378 663.58 -22.6591 666.034 -12.5812 676.668C-11.6439 677.673 -10.7853 678.736 -10.0065 679.865C-4.53453 687.795 -3.81717 698.169 -4.02772 708.095C-4.78255 742.927 -14.879 777.559 -32.9776 807.615C-35.6532 812.056 -38.5043 816.397 -41.5264 820.621Z" fill="#F97706"/>
<path d="M77.3623 659.808C78.0839 661.823 78.9403 663.795 79.8917 665.722C85.0835 676.208 92.8576 685.171 97.8776 695.338C101.197 702.025 103.353 709.229 104.553 716.605C107.549 735.279 104.947 754.527 102.164 773.511C101.85 775.625 101.53 777.744 101.212 779.856C101.758 777.791 102.296 775.716 102.816 773.641C107.437 755.041 111.116 735.554 108.007 716.041C106.759 708.355 104.337 700.793 100.586 693.929C94.8669 683.461 86.5831 675.211 80.4729 665.399C79.3479 663.592 78.2991 661.733 77.3623 659.808Z" fill="#F97706"/>
<path d="M211.895 855.468C215.757 850.716 219.743 846.065 223.85 841.527C260.634 800.891 308.077 768.091 361.989 757.445C364.065 757.036 366.146 756.66 368.238 756.318C394.949 751.93 422.731 753.106 449.559 746.186C474.673 739.673 497.721 725.914 515.443 707.249C519.671 702.796 523.596 698.065 527.173 693.091C523.409 697.925 519.326 702.498 514.969 706.783C496.702 724.74 473.634 737.641 448.908 743.575C422.498 749.897 394.9 748.459 367.675 752.867C365.545 753.213 363.425 753.595 361.312 754.011C306.361 764.859 258.751 799.14 223.349 841.089C219.393 845.775 215.573 850.572 211.895 855.468Z" fill="#F97706"/>
<path d="M140.621 732.357C144.817 735.562 146.405 740.974 146.443 746.029C146.51 750.956 145.498 755.844 144.127 760.573C137.651 782.767 128.83 804.225 117.866 824.499C112.755 834.429 105.347 847.501 113.212 859.267C117.696 865.537 125.959 867.346 132.876 866.201C136.391 865.644 139.797 864.408 142.828 862.482C151.934 856.635 157.107 847.137 161.905 838.378C171.068 821.592 180.248 804.754 192.528 790.181C201.447 779.589 212.08 770.242 224.496 763.88C229.082 761.535 233.902 759.62 238.891 758.251C238.891 758.251 238.891 758.251 238.891 758.251C233.845 759.394 228.921 761.107 224.206 763.282C211.433 769.182 200.293 778.296 190.931 788.797C178.046 803.238 168.409 820.118 159.047 836.799C154.175 845.509 149.085 854.397 140.959 859.54C138.368 861.178 135.388 862.261 132.332 862.743C126.252 863.745 119.48 862.111 115.996 857.243C109.53 848.236 115.474 835.863 120.566 825.931C131.309 805.283 139.634 783.402 145.322 760.898C146.539 756.048 147.38 751.034 147.108 746.004C146.868 740.844 144.964 735.359 140.621 732.357Z" fill="#F97706"/>
<path d="M551.19 744.782C552.677 744.125 554.157 743.452 555.631 742.763C568.892 736.565 581.593 729.104 593.49 720.53C605.387 711.956 616.483 702.268 626.559 691.65C627.678 690.47 628.785 689.279 629.88 688.077C628.625 689.11 627.367 690.138 626.107 691.162C614.766 700.374 603.225 709.199 591.443 717.69C579.661 726.18 567.639 734.337 555.311 742.18C553.941 743.051 552.568 743.919 551.19 744.782Z" fill="#F97706"/>
<path d="M341.074 831.676C343.525 829.16 346.225 826.909 349.093 824.918C357.279 819.247 366.695 815.681 376.306 813.422C389.352 810.367 402.812 809.612 416.282 808.243C424.348 807.431 432.525 806.39 440.465 803.988C442.011 803.519 443.545 802.999 445.06 802.42C469.471 782.017 480.912 753.404 507.056 737.123C509.957 735.142 512.915 733.302 516 731.573C512.808 733.095 509.728 734.748 506.698 736.563C479.861 751.06 464.882 781.437 443.821 799.155C442.383 799.699 440.925 800.191 439.45 800.638C431.88 802.931 423.927 804.021 415.924 804.948C402.567 806.516 388.938 807.659 375.766 811.315C366.058 814.017 356.621 818.158 348.698 824.383C345.922 826.566 343.352 829.002 341.074 831.676Z" fill="#F97706"/>
<path d="M29.4787 752.494C29.8152 750.769 30.1056 749.034 30.35 747.29C32.5582 731.585 30.9809 715.241 25.9859 700.044C21.0054 684.841 12.5934 670.741 1.51421 659.394C0.284295 658.133 -0.977111 656.907 -2.26953 655.716C-1.14626 657.068 -0.053066 658.439 1.01134 659.829C10.5862 672.349 17.8066 686.364 22.6604 701.135C27.5017 715.91 29.9889 731.479 29.6871 747.237C29.6528 748.988 29.5837 750.74 29.4787 752.494Z" fill="#F97706"/>
<path d="M528.677 742.661C529.303 742.281 529.925 741.897 530.543 741.509C536.107 738.012 541.366 734.157 546.319 729.943C551.272 725.728 555.918 721.153 560.258 716.217C560.74 715.669 561.218 715.116 561.693 714.559C561.067 714.938 560.445 715.322 559.827 715.711C554.262 719.207 549.003 723.062 544.051 727.277C539.098 731.492 534.451 736.067 530.112 741.002C529.63 741.551 529.151 742.104 528.677 742.661Z" fill="#F97706"/>
<path d="M177.423 730.435C177.073 732.862 176.686 735.282 176.264 737.693C173.538 753.264 169.331 768.489 163.729 783.154L160.926 790.705L166.459 784.839C170.734 780.393 175.214 776.149 179.879 772.119C196.4 757.851 215.215 746.225 235.581 737.842C237.844 736.911 240.126 736.021 242.427 735.173C240.056 735.799 237.698 736.48 235.355 737.217C214.261 743.84 194.429 754.913 177.59 769.471C172.834 773.58 168.315 777.966 164.071 782.599L166.801 784.285C172.13 769.26 175.538 753.577 176.924 737.779C177.138 735.333 177.305 732.885 177.423 730.435Z" fill="#F97706"/>
<path d="M208.982 832.005C208.982 832.005 208.982 832.005 208.982 832.005C208.457 830.057 208.253 828.052 208.369 826.08C209.357 814.711 218.325 806.354 226.927 799.676C232.279 795.651 237.79 791.841 243.407 788.182C258.459 778.376 274.262 769.648 289.967 760.643C291.711 759.643 293.455 758.639 295.196 757.63C293.35 758.43 291.506 759.236 289.666 760.05C273.119 767.364 256.757 775.309 241.496 785.249C235.807 788.956 230.283 792.936 225.011 797.232C216.38 804.443 207.486 814.108 207.704 826.077C207.797 828.122 208.235 830.132 208.982 832.005Z" fill="#F97706"/>
</g>
<defs>
<linearGradient id="paint0_linear_1549_10140" x1="1126.48" y1="-92.9263" x2="1126.48" y2="814.839" gradientUnits="userSpaceOnUse">
<stop offset="0.543269" stop-color="#FF9C56"/>
<stop offset="0.826923" stop-color="#FF9C56" stop-opacity="0.16"/>
<stop offset="1" stop-color="#FF9C56" stop-opacity="0.05"/>
</linearGradient>
<linearGradient id="paint1_linear_1549_10140" x1="1261.69" y1="709.095" x2="1261.69" y2="783.648" gradientUnits="userSpaceOnUse">
<stop stop-color="#FF9C56" stop-opacity="0.7"/>
<stop offset="0.918269" stop-color="#FF9C56" stop-opacity="0"/>
</linearGradient>
<linearGradient id="paint2_linear_1549_10140" x1="1164.38" y1="616.441" x2="1164.38" y2="795.314" gradientUnits="userSpaceOnUse">
<stop stop-color="#FF9C56" stop-opacity="0.72"/>
<stop offset="1" stop-color="#FF9C56" stop-opacity="0"/>
</linearGradient>
<linearGradient id="paint3_linear_1549_10140" x1="1160.99" y1="447.707" x2="1036.59" y2="659.682" gradientUnits="userSpaceOnUse">
<stop offset="0.230769" stop-color="#FF9C56"/>
<stop offset="1" stop-color="#FF9C56" stop-opacity="0"/>
</linearGradient>
<clipPath id="clip0_1549_10140">
<rect width="1654" height="773" fill="white"/>
</clipPath>
</defs>
</svg>
