<svg width="1654" height="773" viewBox="0 0 1654 773" fill="none" xmlns="http://www.w3.org/2000/svg">
<g clip-path="url(#clip0_1549_9847)">
<path d="M425.358 50.4249C426.841 48.4899 428.296 46.5355 429.721 44.5621C442.542 26.7982 452.987 7.52871 460.969 -12.7031C468.944 -32.9375 474.462 -54.1503 477.208 -75.8851C477.513 -78.3001 477.783 -80.7211 478.018 -83.1482C478.016 -80.7097 477.967 -78.27 477.871 -75.8304C477.011 -53.8705 472.331 -31.9641 464.225 -11.4191C456.127 9.12883 444.596 28.3325 430.242 44.9742C428.648 46.8234 427.02 48.6406 425.358 50.4249Z" fill="#F97706"/>
<path d="M147.771 257.548C142.484 253.528 137.287 249.386 132.186 245.126C107.814 224.775 85.6202 201.74 66.1516 176.564C56.6562 164.267 47.6474 151.27 41.6497 136.658C36.8151 124.872 34.099 112.402 32.1896 99.9641C31.9809 98.6042 31.7817 97.2437 31.5903 95.8829C27.0491 63.6238 26.8016 30.0125 36.4136 -1.47944C44.0373 -26.3668 58.1604 -49.5991 78.3402 -66.0404C83.5091 -70.2428 89.0583 -73.9652 94.9181 -77.0967C89.1719 -73.7613 83.7709 -69.8684 78.7677 -65.5311C59.248 -48.5638 45.9569 -25.3392 38.8953 -0.74556C29.9999 30.3968 30.5363 63.4306 35.0545 95.394C35.2451 96.7424 35.4428 98.0888 35.6491 99.4331C37.5361 111.732 40.1654 123.932 44.7768 135.387C50.4915 149.588 59.1832 162.464 68.44 174.822C87.4128 200.122 108.939 223.541 132.62 244.622C137.577 249.035 142.629 253.345 147.771 257.548Z" fill="#F97706"/>
<path d="M14.9082 -17.3569C13.598 -15.4377 12.2899 -13.5108 10.9917 -11.5838C-0.693408 5.76814 -11.8411 23.4216 -21.2463 41.9519C-30.6388 60.4668 -38.2666 79.932 -42.3974 100.43C-42.8568 102.707 -43.2725 104.989 -43.6442 107.29C-43.5044 104.964 -43.3079 102.647 -43.0545 100.328C-40.7892 79.4398 -33.8908 59.1132 -24.3679 40.3688C-14.8321 21.5816 -2.75406 4.25706 10.4575 -11.9799C11.926 -13.7839 13.4122 -15.5788 14.9082 -17.3569Z" fill="#F97706"/>
<path d="M62.4989 204.852C63.5067 206.03 64.4373 207.12 65.3841 208.273C65.9302 208.945 66.4244 209.546 66.9377 210.237C67.0069 210.332 67.0676 210.416 67.1206 210.491C67.189 210.592 67.2554 210.69 67.3167 210.804C67.344 210.865 67.3723 210.908 67.395 211.04C67.3997 211.075 67.4039 211.118 67.3981 211.18C67.3966 211.194 67.38 211.444 67.1425 211.596C66.9063 211.736 66.7318 211.676 66.6568 211.655C66.5745 211.627 66.5357 211.601 66.5006 211.58C66.3934 211.509 66.3658 211.482 66.301 211.426C66.1975 211.335 66.1398 211.282 66.0451 211.189C65.7477 210.902 65.4391 210.574 65.1649 210.284C64.021 209.059 62.9315 207.811 61.8591 206.549C59.7229 203.984 57.617 201.518 55.7702 198.493C52.4592 192.677 48.7611 187.099 44.7161 181.795C36.7019 171.399 27.4813 161.718 15.9603 154.996C14.6817 154.263 13.3599 153.569 12.0195 152.936C13.4426 153.351 14.8632 153.845 16.2492 154.397C28.8074 159.497 39.2787 168.969 47.4984 179.672C51.6662 185.136 55.2716 191.025 58.2274 197.211C59.6036 199.894 61.5537 202.703 63.3638 205.404C64.2848 206.758 65.2181 208.113 66.1819 209.441C66.4097 209.756 66.6744 210.111 66.9045 210.402C66.978 210.492 67.0223 210.549 67.0817 210.616C67.111 210.65 67.1417 210.676 67.1088 210.657C67.0947 210.649 67.0735 210.632 67.0053 210.609C66.9444 210.593 66.7807 210.533 66.5517 210.668C66.3215 210.817 66.3081 211.053 66.3066 211.064C66.3014 211.119 66.3054 211.155 66.309 211.181C66.3273 211.28 66.3372 211.27 66.3313 211.259C66.3217 211.221 66.2744 211.122 66.2269 211.031C66.1917 210.96 66.147 210.876 66.0931 210.779C65.6934 210.062 65.289 209.392 64.8416 208.657C64.0697 207.388 63.3183 206.167 62.4989 204.852Z" fill="#F97706"/>
<path d="M293.205 235.069C295.325 232.063 297.756 229.275 300.369 226.67C312.471 214.637 328.037 206.515 338.612 193.597C348.66 181.325 353.422 165.754 359.143 150.707C359.713 149.206 360.295 147.705 360.893 146.21C372.672 116.757 391.194 90.0681 414.453 68.7852C417.168 66.2999 419.947 63.888 422.786 61.5537C420.101 64.0635 417.477 66.6343 414.916 69.2627C392.988 91.7794 375.661 118.492 364.138 147.503C363.553 148.977 362.98 150.461 362.415 151.95C356.736 166.841 351.663 182.824 340.774 195.42C329.259 208.626 313.453 215.924 300.825 227.154C298.09 229.586 295.512 232.204 293.205 235.069Z" fill="#F97706"/>
<path d="M439.999 101.672C441.003 99.8062 442.002 97.939 442.987 96.0665C449.749 83.2239 455.97 69.9175 458.037 55.8059C458.675 51.4703 458.925 47.0658 458.964 42.6417C459.197 24.0088 455.322 4.19971 461.647 -14.2783C462.352 -16.2944 463.174 -18.2485 464.128 -20.1484C463.388 -18.1553 462.781 -16.1406 462.285 -14.09C457.899 4.5389 462.677 23.392 462.464 42.6731C462.423 47.221 462.113 51.8017 461.337 56.332C458.803 71.1078 451.556 84.2926 443.56 96.4051C442.391 98.1743 441.202 99.9279 439.999 101.672Z" fill="#F97706"/>
<path d="M316.707 432.076C314.315 437.748 311.917 443.416 309.513 449.083C297.922 476.407 286.201 503.674 274.365 530.889C264.771 552.916 254.752 575.674 237.631 593.505C236.519 594.66 235.375 595.787 234.201 596.881C217.635 612.338 193.803 622.632 170.858 616.861C151.073 611.789 136.503 596.409 125.341 580.584C117.624 569.598 111.036 557.964 103.339 547.063C99.795 542.045 96.0122 537.185 91.8148 532.679C96.1801 537.022 100.15 541.759 103.875 546.67C111.967 557.34 118.927 568.806 126.856 579.491C138.301 594.893 152.885 609.442 171.582 613.917C193.19 619.063 215.856 609.21 231.814 594.321C232.942 593.269 234.043 592.188 235.111 591.079C251.683 573.879 261.791 551.599 271.725 529.716C283.991 502.691 296.389 475.726 308.906 448.813C311.501 443.232 314.102 437.653 316.707 432.076Z" fill="#F97706"/>
<path d="M262.146 467.507C262.228 469.809 262.228 472.114 262.148 474.42C261.443 495.263 254.069 515.564 243.78 533.622C238.404 543.076 232.215 552.03 225.54 560.554C219.417 568.262 212.036 576.297 201.991 578.544C199.703 579.017 197.349 579.094 195.069 578.75C197.373 578.861 199.661 578.558 201.828 577.899C211.26 574.856 217.694 566.764 223.351 558.923C229.563 550.161 235.45 541.189 240.737 531.893C250.848 514.097 258.882 494.895 261.485 474.366C261.774 472.091 261.995 469.806 262.146 467.507Z" fill="#F97706"/>
<path d="M172.896 563.357C172.124 563.749 171.146 563.765 170.272 563.505C168.813 563.07 167.591 562.133 166.498 561.17C161.76 556.977 157.469 552.275 153.719 547.175C149.124 540.93 145.343 534.087 142.506 526.879C142.19 526.079 141.886 525.273 141.594 524.464C142.093 525.165 142.592 525.864 143.09 526.562C147.576 532.841 152.04 538.984 156.538 545.101C160.212 550.096 163.909 555.072 167.68 560.076C168.5 561.161 169.382 562.212 170.528 562.891C171.216 563.295 172.043 563.522 172.896 563.357Z" fill="#F97706"/>
<path d="M228.561 500.622C227.802 503.437 227.003 506.245 226.122 509.031C222.417 520.735 217.082 532.718 207.033 540.847C202.582 544.427 196.952 547.325 190.729 546.959C181.196 546.38 174.826 538.583 170.273 531.8C168.568 529.255 167.001 526.656 165.432 524.104C153.413 504.612 136.375 488.19 116.235 476.733C113.707 475.296 111.129 473.938 108.506 472.664C111.223 473.725 113.904 474.886 116.543 476.144C137.574 486.158 155.865 502.331 168.373 522.277C169.978 524.84 171.534 527.394 173.181 529.852C177.622 536.509 183.265 543.173 190.962 543.752C195.99 544.189 201.108 541.896 205.371 538.711C215.052 531.506 220.98 520.196 225.496 508.808C226.571 506.103 227.579 503.367 228.561 500.622Z" fill="#F97706"/>
<path d="M311.313 491.165C311.319 492.568 311.3 493.972 311.256 495.376C310.859 508.016 308.386 520.665 303.979 532.603C302.222 537.364 300.16 542.013 297.809 546.505C294.271 553.227 289.745 560.036 283.017 563.955C281.787 564.665 280.498 565.26 279.172 565.72C280.404 565.047 281.562 564.267 282.643 563.405C288.507 558.67 291.993 551.93 295.067 545.171C297.103 540.64 298.978 536.045 300.695 531.392C304.998 519.722 308.319 507.688 310.595 495.306C310.847 493.93 311.087 492.55 311.313 491.165Z" fill="#F97706"/>
<path d="M116.534 613.884C114.66 613.109 112.84 612.195 111.087 611.154C95.0279 601.461 86.6159 583.361 80.4197 566.456C80.4184 566.452 80.4172 566.449 80.4159 566.445C74.1722 549.429 69.0821 531.666 56.8211 518.095C55.4643 516.61 54.025 515.192 52.5011 513.855C54.1685 515.008 55.7662 516.268 57.288 517.622C71.1583 530.072 77.5379 548.38 83.7054 565.25C83.7067 565.253 83.7079 565.257 83.7092 565.26C89.9199 582.056 96.8423 599.529 111.455 610.6C113.067 611.799 114.762 612.899 116.534 613.884Z" fill="#F97706"/>
<path d="M1269.91 446.288C1253.15 455.733 1244.25 474.33 1240.5 492.538C1238.17 503.575 1237.36 514.887 1237.44 526.153C1237.67 555.068 1241.56 583.866 1247.94 612.035C1253.9 638.647 1262.53 666.398 1255.88 694.139C1252.54 707.844 1245.6 720.182 1238.54 732.041C1226.08 752.919 1212.34 773.779 1193.13 789.451C1166.99 810.678 1134.27 819.862 1103.87 831.742C1075.49 842.86 1046.59 857.751 1030.22 883.797C1029.21 885.41 1028.26 887.055 1027.37 888.739C1018.81 904.902 1016.05 923.559 1009.58 941.216C998.401 971.575 975.299 998.086 945.064 1010.53C915.057 1022.83 878.542 1019.95 852.312 1000.28C808.953 967.061 803.609 904.182 756.015 877.654C749.705 874.301 742.171 871.824 735.438 874.383C727.652 877.387 723.768 885.855 721.136 893.637C715.771 909.657 712.966 926.618 705.936 942.19C705.533 943.081 705.117 943.965 704.686 944.843C696.899 960.661 682.404 975.426 664 976.189C682.38 975.19 696.565 960.332 704.117 944.568C704.535 943.691 704.938 942.808 705.328 941.919C712.141 926.379 714.755 909.458 719.993 893.261C722.599 885.384 726.399 876.467 734.914 873.031C742.313 870.168 750.27 872.816 756.787 876.191C805.621 903.085 811.623 966.335 853.987 998.041C879.388 1016.9 914.879 1019.55 943.832 1007.55C973.052 995.415 995.505 969.573 1006.33 940.025C1012.65 922.82 1015.37 903.998 1024.28 887.1C1025.21 885.343 1026.2 883.626 1027.25 881.945C1044.37 854.772 1074.01 839.743 1102.64 828.567C1133.28 816.692 1165.64 807.636 1191.17 787.045C1209.96 771.861 1223.67 751.372 1236.19 730.634C1243.3 718.859 1250.16 706.786 1253.47 693.546C1260.13 666.76 1251.92 639.186 1246.13 612.435C1239.97 584.107 1236.34 555.159 1236.41 526.156C1236.45 514.832 1237.39 503.469 1239.85 492.397C1243.82 474.13 1253.03 455.517 1269.91 446.288Z" fill="#F97706"/>
<path d="M1153.41 767.776C1152.47 769.544 1151.41 771.251 1150.22 772.879C1146.13 778.493 1140.58 783.187 1134.07 786.091C1126 789.681 1117.21 790.363 1108.94 791.628C1106.41 792.014 1103.88 792.457 1101.37 792.949C1083.9 796.366 1066.89 802.138 1049.79 807.744C1047.89 808.367 1045.99 808.989 1044.09 809.604C1045.9 808.771 1047.73 807.943 1049.55 807.124C1065.95 799.764 1082.83 793.013 1100.69 789.514C1103.26 789.012 1105.85 788.578 1108.45 788.222C1116.94 787.066 1125.4 786.725 1133.15 783.85C1139.42 781.527 1145.11 777.536 1149.7 772.46C1151.03 770.988 1152.27 769.423 1153.41 767.776Z" fill="#F97706"/>
<path d="M1165.24 698.036C1165.56 700.037 1165.65 702.087 1165.51 704.132C1165.15 709.353 1163.29 714.545 1160.08 718.853C1156.14 724.123 1150.57 727.76 1145.16 730.98C1139.32 734.448 1133.31 737.632 1127.16 740.519C1119.24 744.235 1111.09 747.457 1102.78 750.157C1093.88 753.131 1084.36 755.791 1078.24 763.096C1076.99 764.647 1075.97 766.4 1075.26 768.304C1075.75 766.332 1076.58 764.435 1077.7 762.707C1083.26 754.469 1093.1 750.865 1101.84 747.465C1109.91 744.391 1117.86 741.017 1125.67 737.35C1131.74 734.502 1137.72 731.478 1143.62 728.276C1149.09 725.302 1154.48 722.171 1158.48 717.571C1161.74 713.817 1163.97 709.087 1164.85 704.052C1165.19 702.08 1165.33 700.06 1165.24 698.036Z" fill="#F97706"/>
<path d="M1221.98 693.64C1221.98 693.64 1221.98 693.64 1221.98 693.64C1222.33 692.022 1222.62 690.412 1222.86 688.787C1225.03 674.139 1222.88 659.545 1220.76 644.976C1218.64 630.425 1216.34 615.464 1217.89 600.599C1218.07 598.955 1218.29 597.319 1218.56 595.693C1218.56 595.693 1218.56 595.693 1218.56 595.693C1218.52 597.342 1218.52 598.985 1218.56 600.627C1218.91 615.415 1222.08 629.787 1224.23 644.469C1226.37 659.064 1227.59 674.483 1223.51 688.927C1223.06 690.523 1222.55 692.087 1221.98 693.64Z" fill="#F97706"/>
<path d="M1113.86 701.157C1114.81 698.573 1116.23 696.158 1117.96 693.986C1121.65 689.355 1126.54 685.825 1131.58 682.801C1138.98 678.372 1146.86 674.737 1152.82 668.978C1159.11 662.091 1155.5 650.479 1152.89 641.111C1152.03 638.247 1151.08 635.392 1150.21 632.451C1144.06 611.244 1145.2 588.123 1153.07 567.813C1154.07 565.242 1155.17 562.717 1156.38 560.248C1155.38 562.81 1154.49 565.407 1153.7 568.029C1147.47 588.749 1147.42 611.039 1153.53 631.472C1154.39 634.29 1155.37 637.189 1156.24 640.105C1158.68 649.698 1163.34 661.797 1154.87 671.179C1148.19 677.202 1140 680.47 1132.48 684.411C1127.37 687.088 1122.41 690.181 1118.46 694.419C1116.62 696.41 1115.02 698.663 1113.86 701.157Z" fill="#F97706"/>
<path d="M1750.5 1040.85C1730.53 1048.27 1709.04 1051.28 1687.76 1051.38C1640.94 1051.28 1590.46 1037.09 1559.76 999.442C1545.97 982.814 1537.62 961.488 1537.62 939.822C1537.88 918.867 1538.25 894.809 1519.02 882.938C1492.72 864.038 1470.83 837.002 1462.83 805.097C1454.9 777.698 1453.68 748.995 1454.24 720.801C1455.06 679.707 1459.65 638.761 1466.8 598.334C1476.39 544.145 1490.49 490.895 1506.36 438.298C1512.52 417.848 1519.01 397.149 1518.31 375.932C1517.61 355.218 1508.65 333.165 1490.17 322.88C1468 310.717 1440.83 318.654 1419.04 329.727C1384.3 347.496 1354.17 374.249 1332.36 406.697C1318.32 427.631 1307.5 451.506 1305.83 476.893C1305.56 480.948 1305.56 485.024 1305.81 489.084C1307.13 510.16 1315.62 531.451 1331.85 545.491C1315.46 531.632 1306.68 510.337 1305.15 489.129C1304.85 485.044 1304.81 480.937 1305.04 476.845C1306.48 451.247 1317.18 427.071 1331.14 405.883C1352.81 373.041 1382.98 345.828 1417.97 327.654C1439.97 316.347 1467.79 307.716 1491.51 320.46C1511.23 331.366 1520.53 354.354 1521.35 375.825C1522.16 397.74 1515.58 418.792 1509.49 439.238C1493.79 491.809 1479.8 544.948 1470.25 598.944C1463.13 639.227 1458.51 679.985 1457.61 720.871C1456.99 748.924 1458.14 777.291 1465.84 804.231C1473.62 835.598 1494.7 861.872 1520.64 880.766C1540.79 893.209 1540.41 919.502 1539.95 939.761C1539.84 961.067 1547.76 981.714 1561.24 998.263C1591.09 1035.49 1641.07 1050.18 1687.76 1050.71C1708.98 1050.82 1730.45 1048.05 1750.5 1040.85Z" fill="#F97706"/>
<path d="M1483.48 415.952C1483.44 420.237 1483.09 424.524 1482.47 428.777C1479.86 446.582 1472.56 463.538 1462.77 478.655C1451.43 496.163 1436.89 511.289 1421.75 525.382C1420.64 526.419 1419.52 527.453 1418.4 528.481C1410.8 535.408 1402.34 542.827 1391.4 544.858C1374.86 547.754 1359.04 536.424 1352.94 521.926C1348.46 511.259 1348.59 499.275 1351.45 488.415C1352.54 484.249 1354.03 480.202 1355.85 476.326C1354.24 480.295 1352.97 484.395 1352.09 488.567C1349.79 499.455 1350.22 511.105 1354.84 521.092C1361.06 534.61 1376.25 544.554 1390.8 541.683C1400.53 539.756 1408.51 532.827 1416.03 525.907C1417.15 524.881 1418.26 523.852 1419.37 522.82C1434.43 508.8 1448.93 494.09 1460.53 477.165C1470.54 462.55 1478.36 446.199 1481.81 428.665C1482.64 424.475 1483.2 420.228 1483.48 415.952Z" fill="#F97706"/>
<path d="M1476.91 374.867C1476.91 374.867 1476.91 374.867 1476.91 374.867C1476.12 372.119 1476.11 369.197 1476.2 366.348C1476.35 360.451 1477.49 353.349 1472.8 349.831C1470.83 348.304 1468.18 347.809 1465.56 347.757C1451.12 347.556 1439.53 358.483 1430.68 369.465C1429.38 371.097 1428.1 372.75 1426.85 374.425C1411.7 394.759 1400.67 418.174 1394.64 443.039C1393.97 445.802 1393.36 448.583 1392.82 451.38C1392.82 451.38 1392.82 451.38 1392.82 451.38C1393.13 448.548 1393.52 445.722 1393.99 442.907C1398.17 417.561 1408.57 393.079 1424.04 372.333C1425.32 370.624 1426.63 368.94 1427.97 367.283C1437.09 356.083 1449.82 344.529 1465.66 345.471C1468.53 345.67 1471.62 346.356 1473.98 348.4C1479.44 353.308 1477.34 360.632 1476.86 366.395C1476.56 369.21 1476.35 372.066 1476.91 374.867Z" fill="#F97706"/>
<path d="M1449.79 425.97C1449.63 427.855 1449.42 429.738 1449.16 431.616C1446.87 448.529 1440.67 465.038 1431.24 479.449C1426.73 486.357 1421.48 492.788 1415.6 498.563C1410.29 503.716 1402.59 509.452 1394.62 506.504L1394.29 506.411L1394.25 506.008C1394.28 504.715 1394.31 503.421 1394.35 502.127C1394.39 500.237 1394.45 498.347 1394.5 496.456C1394.68 498.339 1394.85 500.223 1395.01 502.107C1395.12 503.397 1395.23 504.687 1395.33 505.977L1394.96 505.481C1402.26 507.379 1408.7 501.794 1413.55 496.585C1418.99 490.64 1423.91 484.261 1428.31 477.534C1437.48 463.496 1444.36 447.951 1448.51 431.49C1448.97 429.661 1449.4 427.821 1449.79 425.97Z" fill="#F97706"/>
<path d="M1293.31 606.363C1292.28 602.061 1291.3 597.744 1290.38 593.413C1282.15 554.497 1278.7 514.076 1284.04 474.318C1284.04 474.314 1284.04 474.31 1284.04 474.307C1289.36 434.696 1303.76 395.763 1328.38 364.254C1331.11 360.762 1333.96 357.369 1336.92 354.086C1334.13 357.521 1331.46 361.046 1328.91 364.651C1305.93 397.175 1292.79 435.65 1287.51 474.772C1287.51 474.776 1287.51 474.78 1287.51 474.783C1282.24 514.044 1284.67 554.059 1291.04 593.291C1291.75 597.655 1292.5 602.013 1293.31 606.363Z" fill="#F97706"/>
<path d="M1046.61 986.174C1052.83 974.911 1057.84 963.048 1062.5 951.074C1068.77 934.926 1074.41 918.508 1081.61 902.678C1094.02 875.496 1112.48 848.444 1141.21 836.305C1164.65 826.556 1190.62 828.297 1213.27 818.992C1243.08 806.697 1262.03 777.891 1275.25 749.125C1279.87 739.048 1284 728.727 1288.22 718.409C1296.21 698.829 1304.56 679.022 1316.93 661.47C1335.42 635.336 1366.51 613.334 1400.13 618.725C1403.51 619.299 1407.19 620.195 1410.1 622.746C1413.85 626.11 1414.95 630.952 1415.7 635.236C1424.11 686.52 1395.76 735.048 1406.04 785.325C1406.9 789.429 1408.04 793.479 1409.34 797.477C1413.31 809.687 1418.77 821.378 1423.05 833.507C1423.05 833.507 1423.05 833.507 1423.05 833.507C1418.55 821.458 1412.89 809.884 1408.71 797.687C1407.34 793.694 1406.13 789.638 1405.19 785.511C1394.09 734.898 1421.82 685.535 1413.04 635.703C1412.3 631.558 1411.13 627.364 1408.24 624.864C1406.02 622.927 1402.88 622.092 1399.67 621.583C1367.71 616.635 1337.63 637.913 1319.71 663.427C1307.67 680.614 1299.44 700.172 1291.46 719.732C1287.25 730.037 1283.09 740.401 1278.41 750.574C1264.98 779.641 1245.55 809.213 1214.44 821.865C1190.79 831.315 1164.93 829.341 1142.17 838.629C1114.25 850.068 1095.63 876.42 1082.92 903.288C1075.54 918.932 1069.65 935.26 1063.11 951.319C1058.26 963.229 1053.04 975.026 1046.61 986.174Z" fill="#F97706"/>
<path d="M1429.95 784.721C1429.49 779.957 1429.25 775.172 1429.19 770.381C1428.73 727.083 1442.73 685.436 1447.41 643.06C1447.42 642.955 1447.44 642.85 1447.45 642.746C1449.51 623.557 1449.35 602.603 1437.78 586.892C1429.7 575.979 1416.29 569.026 1402.52 568.782C1393.45 568.621 1384.31 571.391 1376.64 576.445C1372.68 579.057 1369.09 582.286 1366.11 586.031C1368.9 582.145 1372.36 578.721 1376.26 575.898C1383.81 570.435 1393.07 567.189 1402.52 567.029C1416.87 566.791 1431.2 573.641 1440.09 585.14C1452.78 601.719 1453.01 623.666 1450.93 643.126C1450.91 643.233 1450.9 643.339 1450.89 643.446C1446.11 686.439 1431.27 727.359 1429.85 770.387C1429.7 775.159 1429.72 779.94 1429.95 784.721Z" fill="#F97706"/>
<path d="M1333.55 603.876C1331.27 605.041 1329.08 606.36 1326.98 607.81C1311.44 618.7 1302.03 635.558 1293.4 652.121C1291.5 655.796 1289.63 659.482 1287.77 663.178C1277.44 683.704 1267.63 704.526 1257.47 725.22C1256.34 727.519 1255.21 729.817 1254.07 732.112C1255 729.723 1255.93 727.336 1256.86 724.952C1265.29 703.5 1274.26 682.235 1284.64 661.605C1286.51 657.892 1288.42 654.2 1290.39 650.535C1299.28 634.002 1309.98 616.961 1326.63 607.248C1328.86 605.96 1331.17 604.828 1333.55 603.876Z" fill="#F97706"/>
<path d="M1263.49 634.261C1264.2 632.06 1264.8 629.861 1265.32 627.627C1269.97 607.434 1267.11 586.799 1264.62 566.39C1262.12 546.019 1259.5 524.797 1264.27 504.43C1264.8 502.183 1265.42 499.97 1266.13 497.778C1266.13 497.778 1266.13 497.778 1266.13 497.778C1265.65 500.031 1265.25 502.283 1264.93 504.553C1262.07 525.049 1265.59 545.484 1268.09 565.96C1270.6 586.333 1272.53 607.885 1265.96 627.806C1265.24 630.002 1264.42 632.143 1263.49 634.261Z" fill="#F97706"/>
<path d="M1445.99 570.842C1445.56 569.719 1445.17 568.581 1444.82 567.429C1441.64 557.05 1441.54 545.62 1444.34 534.98C1447.12 524.334 1452.81 514.418 1460.67 506.935C1461.54 506.104 1462.44 505.303 1463.36 504.534C1462.61 505.467 1461.88 506.414 1461.17 507.375C1454.82 516.031 1450.39 525.73 1447.73 535.866C1445.08 546.007 1444.19 556.633 1445.47 567.291C1445.62 568.475 1445.79 569.658 1445.99 570.842Z" fill="#F97706"/>
<path d="M1391 393.274C1389.69 394.136 1388.4 395.022 1387.12 395.931C1375.67 404.118 1365.8 414.113 1357.66 425.343C1349.54 436.581 1343.13 449.081 1338.93 462.522C1338.47 464.016 1338.03 465.521 1337.62 467.037C1337.8 465.477 1338.02 463.92 1338.29 462.368C1340.65 448.389 1346.43 434.881 1354.83 423.291C1363.21 411.693 1374.24 401.982 1386.78 395.365C1388.17 394.629 1389.58 393.932 1391 393.274Z" fill="#F97706"/>
<path d="M1443.64 476.653C1443.64 476.653 1443.64 476.653 1443.64 476.653C1444.45 474.777 1445.24 472.853 1445.99 470.952C1452.67 453.708 1457.74 435.94 1461.38 417.948C1462.62 411.652 1463.65 405.3 1464.11 398.969C1464.84 387.992 1464.76 372.124 1451.38 370.455C1449.38 370.116 1447.31 370.031 1445.26 370.023C1445.26 370.023 1445.26 370.023 1445.26 370.023C1447.3 369.799 1449.37 369.658 1451.45 369.795C1457.68 369.777 1463.52 374.76 1465.25 380.832C1467.25 386.785 1467.45 393.031 1467.26 399.137C1467.01 405.711 1466.07 412.217 1464.82 418.625C1461.11 436.917 1455.04 454.676 1446.59 471.227C1445.65 473.048 1444.66 474.881 1443.64 476.653Z" fill="#F97706"/>
<path d="M1233.62 854.741C1233.62 854.741 1233.62 854.741 1233.62 854.741C1243.67 852.591 1253.32 848.739 1262.12 843.507C1274.8 835.966 1285.75 825.54 1293.67 813.17C1322.33 768.156 1310.34 707.614 1346.79 664.895C1351.98 659.065 1358.43 653.588 1366.56 651.719C1375.71 651.985 1379.57 658.375 1384.45 663.058C1388.91 668.303 1393.39 673.265 1395.67 680.661C1396.41 684.409 1396.62 688.236 1396.42 692.016C1395.27 709.984 1386.23 725.44 1381.68 741.706C1376.6 759.603 1376.92 779.025 1382.57 796.784C1385.96 807.489 1391.45 817.931 1392.76 829.734L1393.06 832.26L1390.77 831.115C1373.27 828.273 1352.25 838.341 1338.74 850.628C1331.7 860.017 1328.89 871.849 1324.48 882.924C1320.12 893.82 1313.21 905.274 1301.46 909.241C1300.12 909.688 1298.72 909.965 1297.32 910.089C1287.23 911.044 1274.96 903.684 1276.12 892.702C1275.23 903.679 1287.53 910.552 1297.26 909.427C1298.61 909.28 1299.94 908.985 1301.21 908.532C1312.51 904.469 1319.04 893.225 1323.16 882.411C1327.33 871.398 1329.92 859.405 1337.13 849.441C1344.05 841.579 1353.3 837.484 1362.37 833.452C1371.59 830.075 1381.13 825.312 1392.01 828.663L1390.03 830.044C1388.71 818.948 1383.26 808.736 1379.65 797.726C1373.67 779.428 1373.21 759.361 1378.4 740.784C1383.1 723.99 1391.92 708.61 1392.92 691.829C1393.11 688.301 1392.91 684.776 1392.24 681.331C1387.97 670.783 1377.36 657.257 1367.31 655.039C1360.26 656.609 1354.24 661.526 1349.25 667.088C1313.8 707.637 1324.67 768.621 1294.93 813.99C1286.65 826.427 1275.37 836.752 1262.45 844.082C1253.49 849.168 1243.72 852.82 1233.62 854.741Z" fill="#F97706"/>
<path d="M1500.3 834.916C1499.08 832.044 1497.87 829.166 1496.67 826.284C1485.94 800.427 1476.09 773.495 1474.38 745.01C1474.12 740.606 1474.06 736.186 1474.23 731.772C1475.14 707.756 1482.96 684.127 1496.28 664.419C1498.03 661.826 1499.88 659.301 1501.82 656.852C1500.07 659.439 1498.41 662.081 1496.85 664.772C1484.95 685.234 1478.32 708.488 1477.66 731.885C1477.54 736.189 1477.62 740.5 1477.88 744.804C1479.53 772.594 1488.32 799.503 1497.29 826.05C1498.29 829.005 1499.3 831.961 1500.3 834.916Z" fill="#F97706"/>
<path d="M1509.5 498.852C1510.06 493.47 1511 488.135 1512.3 482.897C1518.41 457.671 1533.19 435.998 1549.65 416.215C1552.54 411.377 1550.61 406.952 1549.67 402.926C1548.48 398.88 1546.97 395.002 1545.5 391.151C1544.04 387.309 1542.54 383.465 1541.45 379.634C1540.4 376.013 1539.59 371.127 1541.7 370.028C1546.96 366.842 1552.85 364.65 1558.9 363.955C1562.94 363.493 1567.03 363.726 1570.9 364.791C1586.39 369.061 1595.77 385.234 1598.68 400.856C1601.68 416.982 1599.5 433.72 1600.18 450.427C1600.66 461.668 1602.65 473.108 1607.95 483.123C1610.51 487.926 1613.9 492.305 1618.07 495.763C1614.05 492.127 1610.89 487.654 1608.55 482.821C1603.7 472.748 1602.15 461.46 1602 450.38C1601.8 433.874 1604.42 417.155 1601.62 400.337C1598.82 383.979 1589.28 366.431 1571.83 361.438C1567.49 360.228 1562.93 359.971 1558.51 360.477C1551.87 361.243 1545.53 363.634 1539.9 367.082C1537.18 368.738 1536.84 371.94 1536.97 374.116C1537.1 376.43 1537.63 378.513 1538.21 380.562C1539.41 384.624 1540.97 388.494 1542.48 392.327C1545.12 399.695 1549.92 408.573 1547.35 414.491C1531.31 434.453 1516.76 457.193 1511.65 482.749C1510.55 488.064 1509.83 493.451 1509.5 498.852Z" fill="#F97706"/>
<path d="M1650.24 616.773C1663.43 623.533 1675.08 633.073 1684.6 644.352C1720.22 686.679 1727.52 752.965 1695.62 798.735C1672.95 832.334 1629.01 857.801 1631.04 904.287C1632.78 925.792 1646.72 943.797 1662.51 957.003C1674.21 966.765 1687.42 974.623 1701.48 980.395C1764.66 1005.62 1836.38 991.917 1895.4 962.451C1955.45 931.983 2005.85 887.052 2059.68 847.648C2071.61 838.903 2083.74 830.409 2096.18 822.391C2083.61 830.212 2071.36 838.529 2059.29 847.108C2004.87 885.786 1953.97 930.147 1894.15 959.952C1835.46 988.759 1764.54 1001.86 1702.81 977.158C1689.06 971.513 1676.16 963.853 1664.73 954.341C1649.32 941.509 1636 924.168 1634.33 904.024C1631.87 860.447 1674.69 834.432 1697.7 800.182C1729.98 752.958 1721.51 685.959 1685.1 643.919C1675.37 632.714 1663.53 623.324 1650.24 616.773Z" fill="#F97706"/>
<path d="M1627.37 1010.51C1627.37 1010.51 1627.37 1010.51 1627.37 1010.51C1621.88 1009.49 1616.46 1008.15 1611.18 1006.42C1595.19 1001.23 1579.64 991.955 1571.55 977.197C1557.61 951.534 1569.19 920.217 1585.99 898.227C1588.61 894.825 1591.37 891.527 1594.23 888.302C1610.38 870.058 1629.64 854.144 1643.7 833.522C1658.26 812.088 1666.11 786.337 1666.29 760.653C1666.32 755.061 1666 749.473 1665.3 743.938C1665.3 743.938 1665.3 743.938 1665.3 743.938C1665.77 749.497 1665.87 755.078 1665.62 760.636C1664.48 786.164 1656 811.219 1641.38 831.915C1627.28 851.837 1608.03 867.456 1591.61 885.981C1588.71 889.255 1585.9 892.621 1583.23 896.109C1566.02 918.752 1554.27 951.6 1569.58 978.316C1578.48 993.573 1594.74 1002.45 1610.98 1007.06C1616.36 1008.6 1621.85 1009.72 1627.37 1010.51Z" fill="#F97706"/>
<path d="M1612.47 820.621C1612.47 820.621 1612.47 820.621 1612.47 820.621C1615.68 816.537 1618.72 812.314 1621.58 807.969C1640.96 778.574 1652.18 743.625 1653.3 708.184C1653.59 698.07 1653.06 686.952 1646.87 677.881C1646 676.606 1645.03 675.407 1643.98 674.281C1632.56 662.494 1616.21 660.332 1604.2 651.832C1589.51 641.536 1582.41 622.932 1581.54 605.01C1580.91 591.957 1583.14 578.867 1586.1 566.052C1587.26 560.996 1588.55 555.963 1589.83 550.929C1589.83 550.929 1589.83 550.929 1589.83 550.929C1588.32 555.9 1586.82 560.874 1585.45 565.889C1581.97 578.597 1579.25 591.711 1579.51 605.078C1579.88 623.457 1586.68 643.098 1602.35 654.443C1615.16 663.58 1631.34 666.034 1641.42 676.668C1642.36 677.673 1643.21 678.736 1643.99 679.865C1649.47 687.795 1650.18 698.169 1649.97 708.095C1649.22 742.927 1639.12 777.559 1621.02 807.615C1618.35 812.056 1615.5 816.397 1612.47 820.621Z" fill="#F97706"/>
<path d="M1634.12 527.125C1634.12 527.125 1634.12 527.125 1634.12 527.125C1632.34 526.111 1630.02 527.012 1628.66 528.486C1627.5 529.692 1626.69 531.279 1626.56 533.04C1626.29 536.953 1628.18 540.432 1629.05 543.751C1632.28 555.561 1625.32 566.81 1619.85 577.676C1617.69 581.915 1615.57 586.262 1614.04 590.907C1609.88 603.549 1611.23 617.674 1617.25 629.135C1618.17 630.878 1619.19 632.56 1620.31 634.162C1620.31 634.162 1620.31 634.162 1620.31 634.162C1619.39 632.437 1618.57 630.665 1617.86 628.857C1613.18 616.977 1612.95 603.647 1617.16 591.98C1618.72 587.656 1620.82 583.474 1622.97 579.266C1628.32 568.612 1635.57 555.971 1631.05 543.127C1629.8 539.577 1627.8 536.527 1627.71 533.071C1627.68 531.632 1628.23 530.125 1629.16 528.923C1630.26 527.463 1632.23 526.354 1634.12 527.125Z" fill="#F97706"/>
<path d="M1683.48 752.494C1683.82 750.769 1684.11 749.034 1684.35 747.29C1686.56 731.585 1684.98 715.241 1679.99 700.044C1675.01 684.841 1666.59 670.741 1655.51 659.394C1654.28 658.133 1653.02 656.907 1651.73 655.716C1652.85 657.068 1653.95 658.439 1655.01 659.829C1664.59 672.349 1671.81 686.364 1676.66 701.135C1681.5 715.91 1683.99 731.479 1683.69 747.237C1683.65 748.988 1683.58 750.74 1683.48 752.494Z" fill="#F97706"/>
<path d="M382.383 -0.399059C382.383 -0.399059 382.383 -0.399059 382.383 -0.399059C384.735 -1.25451 386.91 0.833164 387.764 2.89931C388.72 5.01977 389.128 7.36267 389.058 9.69199C388.934 12.9034 388.737 16.0899 388.464 19.2928C382.369 90.1184 341.135 153.42 290.246 201.408C288.255 203.285 286.241 205.145 284.215 206.979C268.545 221.138 250.926 234.989 229.489 239.649C202.079 245.51 173.814 234.71 153.126 217.315C138.234 204.786 126.607 188.968 116.934 172.331C113.005 165.578 109.376 158.661 105.926 151.663C105.926 151.663 105.926 151.663 105.926 151.663C109.584 158.554 113.405 165.36 117.504 171.989C127.597 188.324 139.513 203.734 154.403 215.768C175.061 232.471 202.735 242.411 228.806 236.552C249.233 231.933 266.339 218.465 281.868 204.389C283.874 202.568 285.871 200.722 287.846 198.861C338.302 151.195 379.792 89.5535 387.803 19.2275C388.16 16.0431 388.444 12.8714 388.658 9.6709C388.79 7.41187 388.456 5.08826 387.578 2.98197C386.791 0.931272 384.761 -1.17026 382.383 -0.399059Z" fill="#F97706"/>
<path d="M89.3725 105.051C89.3725 105.051 89.3725 105.051 89.3725 105.051C85.4547 96.2624 82.8732 86.8809 81.5479 77.3279C78.8687 57.9516 81.2211 37.9952 87.4361 19.4234C96.7841 -8.42964 114.241 -32.8959 134.557 -53.8227C162.229 -80.3915 199.9 -96.9134 238.65 -96.688C253.814 -96.2226 269.802 -91.3932 280.609 -79.9445C291.525 -68.5706 295.85 -52.8998 296.82 -37.6752C297.434 -28.1007 296.141 -18.661 294.856 -9.39978C288.397 37.0897 281.499 85.1406 258.298 126.739C256.67 129.647 254.967 132.512 253.184 135.331C249.974 140.254 244.32 146.661 237.981 143.68C237.981 143.68 237.981 143.68 237.981 143.68C244.358 146.482 249.738 140.027 252.807 135.099C254.522 132.247 256.156 129.354 257.714 126.42C279.903 84.4921 285.964 36.7745 291.968 -9.78529C293.164 -19.0548 294.329 -28.3123 293.669 -37.4595C293.718 -67.6165 269.049 -94.3505 238.522 -93.1903C201.205 -93.481 163.732 -77.3346 136.667 -51.7551C116.361 -31.2317 98.8337 -7.33728 89.1352 20.0092C82.6922 38.2355 79.9668 57.9308 82.2075 77.2435C83.3176 86.7661 85.6693 96.1698 89.3725 105.051Z" fill="#F97706"/>
<path d="M243.106 46.6787C243.106 46.6787 243.106 46.6787 243.106 46.6787C243.368 49.1504 243.567 51.6312 243.703 54.1176C244.926 76.3179 241.1 98.9489 232.518 119.652C232.449 119.819 232.38 119.986 232.31 120.152C229.724 126.314 226.56 132.585 221.52 137.484C216.404 142.445 209.082 145.79 201.752 144.481C199.273 144.037 196.661 142.965 194.993 140.752C193.956 139.332 193.511 137.749 193.129 136.29C191.879 131.295 191.306 126.16 191.421 121.065C191.477 118.567 191.698 116.078 192.085 113.623C192.085 113.623 192.085 113.623 192.085 113.623C191.93 116.104 191.932 118.586 192.086 121.052C192.398 126.08 193.338 131.041 194.862 135.789C195.317 137.179 195.824 138.501 196.634 139.467C197.917 140.983 200.008 141.771 202.132 142.036C208.447 142.848 214.785 139.712 219.229 135.179C223.645 130.674 226.561 124.819 229.082 118.8C229.15 118.637 229.218 118.474 229.286 118.312C237.683 98.0573 242.371 76.2566 243.038 54.1259C243.112 51.6471 243.135 49.1641 243.106 46.6787Z" fill="#F97706"/>
<path d="M220.172 73.9238C220.043 77.6335 219.33 81.3376 218.082 84.8672C216.728 88.6984 214.744 92.3283 212.197 95.5437C210.468 97.6801 208.118 100.084 204.743 99.981C201.344 99.7705 198.979 96.8887 198.195 93.9209C197.405 90.9142 197.914 87.9101 198.37 85.1677C202.229 64.1987 210.479 44.6524 217.467 24.8847C220.574 16.1882 223.651 7.45641 225.858 -1.39894C229.099 -14.5726 230.812 -28.1374 230.956 -41.7514C230.963 -48.0857 229.945 -56.1528 223.582 -58.3581C220.33 -59.503 216.694 -58.105 214.027 -55.8028C211.236 -53.4401 209.06 -50.3542 207.347 -47.0735C208.853 -50.457 210.842 -53.6938 213.585 -56.3002C216.177 -58.8172 220.105 -60.676 223.936 -59.5531C231.554 -57.2154 232.837 -48.323 233.114 -41.771C233.506 -27.9873 232.146 -14.124 229.051 -0.640404C226.923 8.49969 223.883 17.3259 220.761 26.0682C213.737 45.9121 205.193 65.2624 200.705 85.602C200.144 88.3106 199.643 90.9758 200.194 93.4343C200.692 95.7819 202.539 98.0787 204.858 98.2845C207.198 98.5221 209.465 96.6875 211.192 94.7072C213.799 91.7328 215.92 88.3109 217.461 84.6282C218.881 81.2353 219.81 77.618 220.172 73.9238Z" fill="#F97706"/>
<path d="M141.265 135.494C140.19 133.716 139.177 131.897 138.225 130.043C129.626 113.297 126.246 94.1166 126.209 75.3257C126.209 75.3249 126.209 75.3241 126.209 75.3233C126.168 56.4476 129.351 37.8626 133.214 19.5959C133.644 17.5633 134.082 15.5326 134.527 13.5029C134.313 15.5697 134.093 17.6355 133.87 19.7005C131.869 38.2813 129.665 56.8057 129.709 75.3155C129.709 75.3163 129.709 75.3171 129.709 75.3179C129.767 93.7788 132.04 112.379 138.831 129.769C139.586 131.697 140.396 133.606 141.265 135.494Z" fill="#F97706"/>
<path d="M347.012 -49.3882C346.769 -43.9307 346.473 -38.466 346.116 -33.0118C342.883 15.9688 334.751 65.5137 314.314 110.756C309.371 121.679 303.717 132.287 297.311 142.434C285.875 160.543 271.523 177.733 252.438 188.266C238.356 196.01 221.767 199.593 205.96 196.848C200.547 195.896 195.275 194.165 190.423 191.643C195.378 193.956 200.679 195.456 206.063 196.191C221.775 198.298 237.859 194.231 251.35 186.353C269.667 175.611 283.363 158.637 294.483 140.668C300.712 130.595 306.242 120.104 311.125 109.313C331.306 64.6483 340.34 15.7389 345.453 -33.068C346.019 -38.4999 346.536 -43.9461 347.012 -49.3882Z" fill="#F97706"/>
<path d="M357.911 -39.7271C358.627 -37.5713 359.289 -35.401 359.899 -33.2101C365.412 -13.5 366.43 7.58176 363.097 27.9131C359.796 48.2724 352.238 67.8257 341.624 85.2851C340.442 87.2331 339.231 89.1401 337.974 91.0402C337.974 91.0402 337.974 91.0402 337.974 91.0402C339.03 89.0215 340.046 87.0085 341.04 84.9667C349.958 66.6525 356.404 47.278 359.642 27.3512C362.892 7.4416 362.887 -13.0122 359.251 -33.0616C358.848 -35.2899 358.402 -37.5092 357.911 -39.7271Z" fill="#F97706"/>
<path d="M306.922 34.7354C306.922 34.7354 306.922 34.7354 306.922 34.7354C307.448 32.8938 307.958 31.0492 308.451 29.2018C312.888 12.5746 316.006 -4.27451 317.844 -21.2602C318.931 -31.3159 319.566 -41.4203 319.736 -51.5581C319.778 -54.1634 319.759 -56.707 318.729 -58.8405C317.514 -61.4161 314.818 -63.2464 312.545 -65.5079C311.645 -66.4056 310.852 -67.4118 310.24 -68.5242C309.289 -70.2247 308.806 -72.366 309.577 -74.1621C309.577 -74.1621 309.577 -74.1621 309.577 -74.1621C309.041 -72.285 309.748 -70.3704 310.806 -68.8744C311.491 -67.8988 312.333 -67.0375 313.253 -66.2908C315.611 -64.3408 318.592 -62.819 320.424 -59.7521C321.928 -57.1792 322.104 -54.2332 322.242 -51.6001C322.736 -41.3665 322.427 -31.0822 321.324 -20.8841C319.464 -3.65709 315.335 13.3245 309.083 29.4083C308.388 31.1954 307.668 32.9714 306.922 34.7354Z" fill="#F97706"/>
<path d="M169.244 210.437C168.897 210.469 168.55 210.5 168.203 210.531L168.178 210.533L168.143 210.508C167.373 209.964 166.609 209.408 165.854 208.842C156.535 201.859 148.383 193.213 141.829 183.504C135.27 173.796 130.298 163.025 127.176 151.812C126.829 150.566 126.505 149.315 126.203 148.06C126.726 149.24 127.258 150.414 127.8 151.582C132.682 162.088 138.334 172.071 144.73 181.545C151.13 191.016 158.278 199.982 166.294 208.344C166.945 209.022 167.601 209.696 168.264 210.366L168.203 210.344C168.55 210.375 168.897 210.406 169.244 210.437Z" fill="#F97706"/>
<path d="M40.9419 495.277C37.6563 486.676 31.923 479.163 24.8882 473.347C11.4897 462.316 -6.03716 456.86 -23.205 457.173C-30.9601 457.335 -38.7774 458.566 -45.6956 461.885C-60.9746 469.267 -69.6161 485.231 -75.9759 500.681C-84.2399 519.119 -81.4341 539.625 -83.6898 559.917C-85.8952 580.378 -94.9589 599.45 -106.192 616.279C-108.518 619.78 -110.898 623.152 -113.468 626.618C-152.373 695.492 -116.746 783.409 -145.808 855.136C-150.549 856.953 -154.935 854.375 -158.788 851.704C-162.432 849.051 -165.583 845.993 -169 842.33C-165.499 845.912 -162.27 848.884 -158.592 851.425C-154.715 854.01 -150.326 856.307 -146.073 854.526C-119.443 783.723 -156.341 696.563 -116.274 624.538C-113.74 621.114 -111.396 617.788 -109.107 614.343C-98.0396 597.747 -89.247 579.32 -86.997 559.517C-84.6622 539.991 -87.3475 518.612 -78.584 499.595C-71.9604 484.031 -62.8738 467.527 -46.6026 459.954C-39.2442 456.572 -31.1385 455.465 -23.2258 455.44C-5.64812 455.438 12.028 461.379 25.3187 472.84C32.295 478.88 37.8774 486.596 40.9419 495.277Z" fill="#F97706"/>
<path d="M391.5 312.83C359.481 314.524 341.36 346.359 336.767 375.046C327.995 420.268 332.046 467.111 321.317 512.252C306.11 578.152 256.926 633.541 195.51 660.907C181.833 667.274 166.269 672.713 150.696 669.126C143.697 667.488 137.405 664.135 131.304 660.893C108.807 648.935 85.3443 636.415 68.8871 615.909C54.6712 598.109 47.3751 576.504 37.576 556.739C27.9285 537.288 14.4974 517.827 -6.02618 510.16C-11.2777 508.211 -16.9839 507.18 -22.1581 508.589C-26.8307 509.848 -30.9197 513.023 -34.6505 516.541C-69.04 542.603 -71.6202 588.406 -77.7668 628.552C-79.3022 640.531 -80.9919 652.145 -82.8906 663.764C-91.4077 717.196 -105.471 769.398 -121.797 820.874C-138.929 871.102 -150.158 928.53 -120.165 975.597C-22.2916 1110.35 185.703 1103.89 319.018 1020.38C344.698 1004.99 368.875 987.117 391.5 967.33C369.029 987.292 344.97 1005.36 319.362 1020.95C186.386 1105.35 -22.4339 1114.09 -122.835 977.062C-153.521 929.483 -142.111 869.806 -125.034 819.879C-108.78 768.375 -94.8379 716.46 -86.3448 663.199C-84.4528 651.621 -82.767 640.047 -81.2329 628.107C-75.1238 588.16 -72.2752 540.804 -36.972 514.072C-33.0823 510.43 -28.6122 506.851 -23.0351 505.339C-16.8316 503.681 -10.4736 504.95 -4.86298 507.031C17.0138 515.302 30.6831 535.578 40.4527 555.321C50.3119 575.372 57.5253 596.751 71.2604 614.013C87.1225 633.923 110.16 646.406 132.619 658.428C138.705 661.695 144.786 664.93 151.319 666.479C165.823 669.908 180.909 664.854 194.437 658.602C255.416 631.693 304.285 577.272 319.815 511.868C330.733 467.173 327.011 420.2 336.116 374.912C340.896 346.166 359.468 314.232 391.5 312.83Z" fill="#F97706"/>
<path d="M110.208 704.763C99.3042 705.451 88.2451 703.702 78.003 699.782C71.5504 697.312 65.4151 693.978 59.8488 689.85C50.0112 682.687 39.9672 671.964 27.5028 674.563C22.061 675.791 17.6072 679.697 12.3434 682.42C-1.28136 689.404 -19.2085 686.3 -29.7138 674.96C-35.4184 668.877 -40.5053 659.845 -48.3553 661.086C-52.9158 661.866 -56.0674 666.42 -58.4157 670.874C-68.4589 689.957 -72.5029 711.508 -78.3862 732.493C-84.525 754.551 -89.1657 776.517 -90.2115 799.19C-91.1403 815.297 -88.7861 831.063 -86.3058 847.248C-84.8365 855.399 -87.8102 865.177 -94.2086 870.696C-100.148 876.454 -107.268 880.941 -114.166 885.19C-120.736 889.248 -128.601 895.159 -126.501 902.404C-124.091 909.43 -116.607 914.179 -109.876 918.499C-95.9442 926.946 -80.7636 933.727 -65.9736 940.805C-36.18 954.894 -6.38965 969.435 20.3846 988.803C29.2378 995.227 37.7111 1002.18 45.4998 1009.83C37.5493 1002.35 28.9525 995.583 19.9992 989.345C-7.07564 970.543 -36.9612 956.545 -66.9221 942.841C-81.81 935.947 -97.0461 929.359 -111.336 920.887C-118.251 916.407 -126.08 912.148 -129.395 903.245C-131.981 892.961 -122.396 886.757 -115.834 882.469C-102.826 874.061 -85.8487 864.381 -89.7081 847.622C-92.1733 831.941 -94.6711 815.339 -93.7082 799.037C-92.6407 775.951 -87.8874 753.774 -81.6081 731.582C-75.6727 710.818 -71.4728 689.031 -60.9922 669.502C-58.4655 664.922 -55.055 659.475 -48.8149 658.351C-38.0125 657.268 -33.3876 667.625 -27.8658 673.273C-18.3421 683.856 -1.39704 687.098 11.4699 680.695C16.4991 678.219 21.1242 674.22 27.1472 672.926C41.0106 670.432 50.8257 681.836 60.4806 689.014C65.8942 693.181 71.8972 696.592 78.2466 699.163C88.325 703.244 99.292 705.218 110.208 704.763Z" fill="#F97706"/>
<path d="M106.265 672.935C106.265 672.935 106.265 672.935 106.265 672.935C101.662 671.933 97.2129 670.211 93.0521 667.957C78.863 660.186 68.4345 647.336 58.5917 634.895C42.317 614.213 25.7633 592.899 16.2512 567.746C15.9045 566.826 15.5682 565.904 15.2416 564.976C12.6402 557.6 10.2733 549.626 3.99625 546.029C-2.45116 542.303 -11.332 544.931 -16.8709 550.146C-22.6519 555.564 -25.8904 563.286 -28.8378 570.945C-34.9325 586.699 -40.4592 602.681 -45.4111 618.857C-46.7881 623.355 -48.1206 627.868 -49.4086 632.396C-49.4086 632.396 -49.4086 632.396 -49.4086 632.396C-48.3465 627.81 -47.2273 623.237 -46.0511 618.677C-41.8213 602.279 -36.8538 586.057 -31.1613 570.084C-28.3914 562.319 -25.2749 554.116 -18.9688 547.952C-12.7828 541.981 -2.75855 538.498 5.65932 543.092C13.6083 547.704 15.907 556.617 18.5408 563.812C18.86 564.717 19.1881 565.615 19.5259 566.51C28.7731 591.002 44.7862 612.302 60.4958 633.438C69.9753 646.125 79.7311 659.086 93.3814 667.379C97.3909 669.788 101.717 671.706 106.265 672.935Z" fill="#F97706"/>
<path d="M83.2388 667.312C80.6251 667.799 77.9494 668.012 75.2707 667.963C69.2542 667.841 63.1625 666.462 57.7553 663.487C50.2338 659.264 44.4237 652.506 36.5308 651.321C27.5873 649.708 19.095 654.738 10.5001 658.792C5.13205 661.322 -0.731041 663.669 -7.04769 663.848C-16.5022 664.12 -25.4808 659.515 -31.4461 652.604C-37.6959 645.414 -40.3842 635.146 -37.7869 626.14C-37.067 623.547 -35.9581 621.082 -34.5329 618.835C-35.7559 621.198 -36.6393 623.715 -37.1398 626.293C-38.9468 635.259 -35.7367 644.602 -29.6378 650.988C-23.8239 657.105 -15.4479 660.945 -7.17831 660.524C-1.61867 660.263 3.74896 658.11 9.0097 655.626C17.353 651.744 26.7087 646.182 37.0957 648.324C46.2835 650.138 51.8897 657.568 58.7246 661.847C63.6318 664.943 69.4172 666.715 75.3089 667.299C77.9332 667.555 80.5926 667.568 83.2388 667.312Z" fill="#F97706"/>
<path d="M3.30556 619.644C3.30556 619.644 3.30556 619.644 3.30556 619.644C3.49948 620.587 3.5656 621.57 3.50363 622.556C3.05353 629.626 -3.80878 636.34 -11.8322 635.531L-13.146 635.391L-13.2984 634.001C-13.4955 632.197 -13.6205 630.384 -13.6736 628.569C-13.9326 619.815 -12.4969 611.019 -9.50222 602.873C-9.16983 601.967 -8.81847 601.07 -8.44844 600.182C-8.44844 600.182 -8.44844 600.182 -8.44844 600.182C-8.59378 601.133 -8.72979 602.083 -8.85672 603.032C-9.9959 611.576 -10.4184 620.034 -10.175 628.467C-10.1239 630.215 -10.0434 631.963 -9.93285 633.71L-11.3991 632.181C-5.64682 633.092 0.938359 628.831 2.8481 622.444C3.10793 621.546 3.26675 620.606 3.30556 619.644Z" fill="#F97706"/>
<path d="M103.47 753.254C101.687 753.952 99.7974 754.413 97.87 754.633C89.7897 755.558 81.0492 752.295 75.718 745.596C73.2938 742.542 71.6805 739.08 70.0263 735.847C67.5442 731.014 64.8066 726.315 61.8306 721.773C58.7943 717.138 55.51 712.666 51.9916 708.376C47.7839 703.257 43.1651 698.384 37.2339 695.653C33.0584 693.753 28.1321 693.098 23.567 694.413C21.7695 694.938 20.0471 695.795 18.5529 696.995C19.8892 695.622 21.5416 694.535 23.3447 693.787C27.9334 691.897 33.2643 692.051 38.0055 693.771C44.6649 696.221 49.9262 701.21 54.4264 706.303C58.1852 710.564 61.642 715.098 64.7583 719.855C67.8129 724.517 70.5404 729.394 72.9089 734.435C74.4799 737.806 75.8651 741.132 77.8706 743.98C82.2084 750.157 89.9219 753.995 97.8302 753.969C99.7167 753.962 101.615 753.73 103.47 753.254Z" fill="#F97706"/>
<path d="M139.709 748.33C139.258 747.54 138.792 746.764 138.312 746C133.987 739.125 128.604 733.25 122.499 728.293C116.382 723.349 109.518 719.304 101.894 716.502C101.047 716.191 100.191 715.897 99.3239 715.619C100.233 715.667 101.141 715.746 102.049 715.855C110.226 716.827 118.206 720.3 124.702 725.573C131.209 730.832 136.262 737.917 138.913 745.714C139.208 746.579 139.474 747.451 139.709 748.33Z" fill="#F97706"/>
<path d="M172.456 711.783C174.347 712.243 176.279 712.444 178.195 712.412C186.611 712.217 194.297 707.978 200.348 702.524C206.862 696.6 211.902 689.194 217.583 682.117C218.476 681.006 219.385 679.902 220.32 678.813C230.937 666.44 244.469 656.631 259.346 650.404C261.144 649.651 262.961 648.95 264.794 648.302C263.052 649.165 261.332 650.065 259.635 651.003C245.606 658.762 233.17 668.989 222.971 681.07C222.073 682.134 221.189 683.216 220.312 684.309C214.73 691.25 209.338 698.749 202.137 704.608C195.409 710.046 186.831 713.826 178.17 713.077C176.207 712.897 174.278 712.466 172.456 711.783Z" fill="#F97706"/>
<path d="M151.307 697.988C150.886 697.221 150.456 696.464 150.015 695.716C146.046 688.983 141.331 682.966 136.016 677.548C130.692 672.138 124.758 667.318 118.094 663.236C117.353 662.783 116.603 662.34 115.843 661.906C116.691 662.123 117.533 662.365 118.37 662.631C125.904 665.019 132.905 669.379 138.512 675.095C144.128 680.802 148.364 687.877 150.625 695.45C150.877 696.291 151.104 697.137 151.307 697.988Z" fill="#F97706"/>
</g>
<defs>
<clipPath id="clip0_1549_9847">
<rect width="1654" height="773" fill="white"/>
</clipPath>
</defs>
</svg>
