<svg width="1440" height="773" viewBox="0 0 1440 773" fill="none" xmlns="http://www.w3.org/2000/svg">
<mask id="mask0_769_6753" style="mask-type:alpha" maskUnits="userSpaceOnUse" x="0" y="0" width="1440" height="773">
<rect width="1440" height="772.943" fill="#D9D9D9"/>
</mask>
<g mask="url(#mask0_769_6753)">
<path d="M200.54 -89.0549C200.54 -89.0549 200.54 -89.0549 200.54 -89.0549C201.744 -66.0855 207.501 -43.4257 216.866 -22.4513C239.325 28.6307 287.42 73.2927 345.175 74.292C348.887 74.3758 352.587 74.295 356.285 74.0673C415.655 70.2525 467.436 30.6487 528.545 34.6645C581.938 38.7798 626.463 79.3603 647.226 127.153C661.467 159.914 666.023 196.12 664.652 231.514C663.995 248.713 661.986 265.833 658.99 282.751C640.358 387.853 583.048 488.264 493.83 548.583C424.664 595.188 337.173 614.713 255.268 598.91C232.67 594.525 210.606 587.394 189.839 577.501C189.839 577.501 189.839 577.501 189.839 577.501C210.706 587.182 232.807 594.088 255.392 598.257C337.241 613.269 424.064 593.136 492.434 546.527C580.645 486.178 637.146 386.439 655.563 282.146C658.522 265.36 660.505 248.395 661.155 231.381C662.51 196.361 658.104 160.696 644.259 128.432C624.12 81.4492 580.65 41.2705 528.373 36.8622C468.418 32.3366 416.104 71.4502 356.344 75.0656C352.619 75.2765 348.891 75.3398 345.151 75.2376C286.927 73.927 238.932 28.8724 216.625 -22.3444C207.326 -43.3812 201.652 -66.0806 200.54 -89.0549Z" fill="#255791"/>
<path d="M247.185 558.642C241.172 556.688 235.229 554.496 229.376 552.076C176.964 530.461 130.382 489.582 109.534 435.574C109.526 435.554 109.519 435.534 109.511 435.514C88.9451 381.967 97.0826 316.756 135.122 273.502C139.325 268.756 143.872 264.325 148.729 260.266C144.025 264.501 139.65 269.076 135.627 273.934C99.3452 318.177 92.7361 381.876 112.776 434.253C112.783 434.273 112.791 434.292 112.798 434.312C133.228 487.197 178.108 528.139 229.64 551.466C235.394 554.072 241.248 556.467 247.185 558.642Z" fill="#255791"/>
<path d="M152.554 689.053C152.554 689.053 152.554 689.053 152.554 689.053C162.546 678.927 169.153 665.773 172.171 651.977C177.316 628.598 172.464 602.672 157.164 584.215C119.777 540.675 54.6482 547.657 9.6993 512.607C-26.6905 483.738 -38.2038 432.298 -27.5375 388.49C-26.7056 385.091 -25.7559 381.728 -24.6914 378.398C-11.7899 338.203 16.7801 304.975 49.8438 279.885C72.1621 262.981 96.7076 249.281 116.473 229.811C142.106 204.546 158.482 170.018 161.907 134.06C163.993 112.143 161.258 89.7745 154.16 68.8718C149.605 55.4584 143.247 42.6347 135.206 30.9319C135.206 30.9319 135.206 30.9319 135.206 30.9319C143.438 42.5009 150.016 55.2526 154.788 68.6533C162.226 89.5359 165.299 112.028 163.462 134.198C160.446 170.573 144.24 205.77 118.351 231.701C98.3886 251.665 73.7719 265.591 51.783 282.432C19.2082 307.393 -8.76476 340.196 -21.3576 379.464C-22.3979 382.719 -23.3262 386.003 -24.14 389.322C-34.5631 431.982 -23.3979 482.14 11.6205 510.182C54.8168 544.639 120.599 538.351 158.428 583.18C173.868 602.286 178.348 628.644 172.82 652.125C169.573 665.984 162.713 679.093 152.554 689.053Z" fill="#255791"/>
<path d="M137.534 534.724C133.505 530.396 128.985 526.575 124.179 523.179C104.022 509.014 79.9522 502.18 58.8335 488.993C43.8162 479.604 30.9938 467.327 18.5514 455.06C10.7045 447.284 2.68356 439.109 -2.35999 428.749C-4.10004 425.145 -5.41452 421.292 -6.10703 417.306C-9.39236 397.756 2.09427 379.547 15.9762 367.492C30.1672 355.252 47.1248 347.551 62.1362 337.163C72.2928 330.11 81.7035 321.538 87.8995 310.71C90.8017 305.612 92.8871 300.008 93.7569 294.159C93.1197 300.038 91.236 305.768 88.4835 311.028C82.6056 322.209 73.312 331.232 63.2041 338.664C48.2838 349.58 31.5153 357.666 17.9556 369.749C4.70421 381.573 -5.76961 399.031 -2.67456 416.703C-2.03293 420.338 -0.827347 423.873 0.792877 427.23C5.47482 436.879 13.1753 444.88 20.9319 452.665C33.2639 465.006 45.7482 477.261 60.2766 486.732C80.689 500.06 104.78 507.667 124.572 522.643C129.286 526.231 133.68 530.24 137.534 534.724Z" fill="#255791"/>
<path d="M77.7828 563.069C76.1027 562.258 74.3753 561.569 72.6182 560.991C62.6022 557.73 52.028 557.982 41.6103 558.612C35.4505 559.004 29.2387 559.526 22.9441 559.532C16.6699 559.539 10.2729 559.012 4.11613 557.275C-6.29924 554.31 -16.1278 547.251 -19.9499 537.065C-20.6027 535.293 -21.0453 533.455 -21.259 531.6C-20.8155 533.414 -20.1653 535.158 -19.3395 536.801C-14.5335 546.172 -4.8907 551.881 4.8989 554.263C10.7567 555.655 16.8327 556.039 22.9413 556.032C29.0634 556.027 35.2413 555.64 41.4799 555.504C52.0307 555.295 63.1017 555.913 72.8614 560.372C74.5685 561.156 76.2172 562.054 77.7828 563.069Z" fill="#255791"/>
<path d="M95.2681 478.481C95.9567 478.703 96.6426 478.931 97.3258 479.164C102.57 480.952 107.655 483.05 112.584 485.448C113.433 485.861 114.276 486.28 115.114 486.701C120.81 489.542 126.258 492.548 132.544 493.892C133.241 494.038 133.948 494.163 134.666 494.262C133.954 494.396 133.233 494.494 132.504 494.556C125.867 495.115 119.28 492.717 113.543 489.829C112.689 489.4 111.847 488.958 111.013 488.506C106.19 485.896 101.529 482.977 97.0219 479.755C96.4347 479.336 95.8501 478.911 95.2681 478.481Z" fill="#255791"/>
<path d="M603.03 262.44C602.319 270.986 601.195 279.493 599.672 287.94C585.926 364.081 540.135 433.745 476.54 478.18C453.42 494.331 427.896 507.121 400.963 515.538C373.453 524.138 343.656 528.641 315.148 522.151C295.23 517.578 276.473 507.223 263.046 491.842C257.398 485.354 252.783 477.963 249.637 469.983C252.999 477.874 257.784 485.103 263.543 491.4C277.23 506.321 295.945 516.101 315.566 520.236C343.69 526.104 372.885 521.303 400.017 512.559C426.556 504.004 451.689 491.27 474.537 475.31C537.344 431.374 583.409 363.378 599.019 287.814C600.745 279.427 602.087 270.964 603.03 262.44Z" fill="#255791"/>
<path d="M511.295 487.615C508.093 491.097 504.798 494.497 501.416 497.811C470.969 527.651 433.445 550.429 392.836 563.977C370.523 571.427 347.268 576.099 323.818 577.684C304.75 578.904 284.35 577.852 267.576 567.828C263.508 565.358 259.784 562.344 256.59 558.846C259.953 562.182 263.786 564.993 267.909 567.252C284.874 576.383 304.801 576.701 323.607 575.049C346.791 572.91 369.675 568.018 391.728 560.657C431.854 547.253 469.286 525.704 500.961 497.325C504.479 494.172 507.925 490.935 511.295 487.615Z" fill="#255791"/>
<path d="M262.651 534.272C260.819 534.05 258.994 533.731 257.185 533.321C240.834 529.605 226.569 518.606 216.732 505.026C216.708 504.993 216.685 504.96 216.661 504.928C206.749 491.202 200.983 475.103 197.361 458.937C196.957 457.135 196.578 455.329 196.222 453.519C196.804 455.269 197.396 457.015 198 458.755C203.437 474.389 209.949 489.661 219.498 502.878C219.521 502.91 219.544 502.941 219.567 502.973C229.076 516.03 241.785 527.174 257.369 532.682C259.099 533.288 260.861 533.82 262.651 534.272Z" fill="#255791"/>
<path d="M181.804 497.073C181.804 497.073 181.804 497.073 181.804 497.073C181.892 497.15 181.981 497.244 181.999 497.376C182.019 497.511 181.921 497.637 181.818 497.708C181.603 497.855 181.354 497.906 181.107 497.931C180.616 497.968 180.078 497.9 179.64 497.522C179.265 497.197 178.891 496.868 178.518 496.536C168.783 487.887 160.147 477.846 153.358 466.602C146.573 455.378 141.676 442.899 139.603 430.005C139.372 428.573 139.176 427.14 139.014 425.701C139.014 425.701 139.014 425.701 139.014 425.701C139.405 427.095 139.817 428.477 140.25 429.852C144.153 442.223 149.735 453.823 156.354 464.793C162.983 475.766 170.644 486.131 178.995 496.072C179.315 496.453 179.635 496.833 179.957 497.212C180.199 497.51 180.659 497.675 181.103 497.705C181.326 497.718 181.56 497.705 181.759 497.611C181.855 497.564 181.939 497.486 181.942 497.379C181.946 497.271 181.879 497.162 181.804 497.073Z" fill="#255791"/>
<path d="M462.862 447.356C460.988 448.953 459.08 450.511 457.138 452.03C439.667 465.71 419.541 476.168 398.231 482.777C376.924 489.396 354.41 492.172 332.264 490.756C329.803 490.599 327.348 490.391 324.9 490.132C327.362 490.158 329.821 490.145 332.278 490.091C354.387 489.606 376.236 485.935 397.193 479.435C418.149 472.926 438.236 463.581 456.751 451.49C458.808 450.146 460.845 448.768 462.862 447.356Z" fill="#255791"/>
<path d="M291.285 725.399C295.861 720.727 302.969 719.713 309.27 720.555C315.45 721.328 321.373 723.367 327.136 725.569C356.017 736.663 387.109 744.596 417.785 740.394C437.447 737.658 456.513 729.344 471.063 715.897C478.949 708.592 485.373 699.692 489.381 689.742C495.892 673.621 496.215 655.693 496.637 638.101C497.07 620.518 497.737 602.164 505.17 585.71C509.869 575.422 517.541 566.376 527.42 560.896C533.051 557.785 539.465 556.009 545.868 556.205C539.461 556.245 533.19 558.232 527.75 561.474C518.211 567.181 510.986 576.27 506.69 586.375C499.867 602.606 499.575 620.574 499.433 638.145C499.283 655.726 499.244 674.03 492.534 691.005C488.389 701.487 481.665 710.849 473.444 718.462C458.266 732.481 438.503 740.927 418.195 743.518C386.616 747.454 355.298 738.682 326.675 726.72C321.012 724.363 315.229 722.173 309.179 721.214C303.009 720.192 296.038 720.907 291.285 725.399Z" fill="#255791"/>
<path d="M500.501 565.135C498.973 564.187 497.286 565.386 496.117 566.396C495.086 567.322 494.102 568.296 493.166 569.312C484.422 578.853 480.117 591.419 477.836 603.92C475.294 617.907 475.08 632.315 472.541 646.644C472.509 646.824 472.477 647.001 472.445 647.178C469.872 661.164 464.697 675.618 453.815 685.622C443.729 694.839 428.149 698.945 415.814 692.75C415.005 692.337 414.218 691.882 413.457 691.384L413.779 691.311C412.53 693.068 411.288 694.831 410.033 696.585C411.15 694.741 412.258 692.891 413.381 691.049L413.519 690.855L413.703 690.976C414.483 691.411 415.281 691.801 416.096 692.147C428.445 697.302 442.857 692.499 451.924 683.629C461.784 673.905 466.491 660.175 469.002 646.547C469.033 646.375 469.065 646.202 469.096 646.03C471.587 632.07 472.072 617.598 475.182 603.389C477.967 590.683 483.147 577.904 492.693 568.845C493.712 567.882 494.775 566.968 495.88 566.111C497.15 565.155 499.035 564.051 500.501 565.135Z" fill="#255791"/>
<path d="M361.2 695.265C358.582 690.958 355.919 686.68 353.209 682.434C346.29 671.59 339.071 660.948 331.557 650.528C325.668 642.366 319.487 634.264 311.381 628.628C300.243 620.913 286.407 618.442 272.851 616.568C264.482 615.429 256.012 614.636 247.894 615.989C242.549 616.882 237.422 618.857 233.305 622.22C218.564 634.527 220.758 656.609 215.978 675.255C210.915 695.416 196.574 712.661 178.316 721.812C173.789 724.08 169.019 725.847 164.118 727.029C168.959 725.621 173.619 723.655 178.006 721.224C195.693 711.409 209 694.11 213.413 674.643C217.82 656.576 214.612 633.923 231.12 619.542C235.763 615.705 241.539 613.498 247.309 612.539C256.084 611.085 264.847 611.987 273.329 613.202C286.954 615.205 301.332 617.904 313.008 626.336C321.482 632.506 327.564 640.998 333.234 649.356C340.458 660.032 347.309 670.953 353.777 682.088C356.31 686.448 358.785 690.841 361.2 695.265Z" fill="#255791"/>
<path d="M157.889 703.686C159.767 702.777 161.555 701.711 163.242 700.516C174.7 692.259 180.969 679.285 186.761 666.681C188.687 662.437 190.575 658.196 192.291 653.904C195.254 646.493 197.705 638.895 198.833 631.063C200.289 620.8 199.421 609.912 194.631 600.424C193.694 598.582 192.607 596.807 191.365 595.13C191.365 595.13 191.365 595.13 191.365 595.13C192.786 596.658 194.071 598.324 195.208 600.093C201.054 609.222 202.858 620.609 201.784 631.422C200.963 639.655 198.571 647.627 195.541 655.203C193.786 659.593 191.814 663.872 189.77 668.092C183.644 680.645 176.127 693.865 163.598 701.078C161.769 702.115 159.856 702.993 157.889 703.686Z" fill="#255791"/>
<path d="M461.875 601.575C461.777 603.068 461.638 604.561 461.46 606.051C459.864 619.467 455.048 632.629 447.538 644.042C445.454 647.212 443.164 650.248 440.686 653.118C434.81 659.894 425.685 667.003 416.102 663.975L415.948 663.945L415.824 663.765C415.554 663.228 415.284 662.69 415.015 662.151C414.347 660.813 413.683 659.472 413.025 658.128C413.884 659.353 414.738 660.582 415.588 661.813C415.929 662.309 416.27 662.804 416.61 663.301L416.332 663.091C425.379 664.651 432.751 657.662 438.162 651.022C440.448 648.154 442.6 645.182 444.613 642.119C451.858 631.087 457.358 618.894 460.807 605.926C461.189 604.485 461.546 603.035 461.875 601.575Z" fill="#255791"/>
<path d="M391.174 688.028C389.812 687.908 388.46 687.509 387.223 686.838C380.731 682.976 378.774 674.984 377.53 668.157C376.673 663.004 375.898 657.84 375.209 652.665C374.503 647.367 373.886 642.056 373.363 636.733C372.625 630.081 371.884 622.98 367.214 617.989C366.283 617.041 365.194 616.234 363.974 615.617C365.28 616.017 366.528 616.651 367.649 617.486C373.403 621.982 375.103 629.631 376.295 636.343C377.177 641.619 377.972 646.905 378.678 652.203C379.367 657.378 379.971 662.565 380.487 667.765C381.27 674.436 382.219 681.853 387.582 686.278C388.632 687.078 389.852 687.677 391.174 688.028Z" fill="#255791"/>
<path d="M355.802 659.649C355.802 659.649 355.802 659.649 355.802 659.649C355.6 658.609 355.403 657.567 355.206 656.528C353.443 647.195 351.728 637.833 347.189 629.989C347.166 629.949 347.143 629.909 347.12 629.869C342.646 622.377 334.807 615.941 325.391 615.976C324.352 615.996 323.306 616.107 322.264 616.314C323.236 615.885 324.257 615.55 325.311 615.316C335.066 613.242 345.169 619.574 350.144 628.108C350.17 628.152 350.195 628.196 350.221 628.24C355.239 636.977 355.977 647.02 355.869 656.47C355.856 657.53 355.833 658.59 355.802 659.649Z" fill="#255791"/>
<path d="M444.62 598.312C444.62 598.312 444.62 598.312 444.62 598.312C442.901 598.054 441.163 598.243 439.562 598.772C435.201 600.25 431.86 603.807 429.845 607.745C427.029 613.333 426.274 619.741 424.393 626.11C423.088 630.455 421.175 634.816 417.845 638.339C416.295 639.966 414.408 641.359 412.281 642.265C408.521 643.831 402.842 643.789 400.555 638.966C399.712 636.884 400.033 634.966 400.118 633.392C400.603 625.566 398.051 617.444 393 611.04C391.937 609.694 390.761 608.426 389.478 607.258C389.478 607.258 389.478 607.258 389.478 607.258C390.906 608.243 392.252 609.363 393.496 610.596C399.416 616.46 403.029 624.856 402.986 633.493C402.954 635.199 402.914 636.716 403.412 637.71C404.381 639.959 408.261 640.326 410.897 639.104C412.549 638.367 414.031 637.267 415.315 635.921C418.073 633.019 419.923 629.141 421.27 625.127C423.275 619.177 424.449 612.51 427.999 606.71C430.595 602.544 434.618 599.124 439.394 598.128C441.139 597.778 442.952 597.825 444.62 598.312Z" fill="#255791"/>
<path d="M1644.18 -306.148C1627.31 -285.313 1608.81 -265.784 1588.9 -247.802C1579.41 -239.224 1569.59 -230.999 1559.48 -223.152C1515.98 -189.395 1466.79 -162.402 1430 -121.192C1377.48 -62.2393 1356.81 23.1724 1376.14 99.5086C1386.15 138.941 1405.93 175.286 1416.42 215.127C1426.55 254.144 1426.71 300.787 1398.47 332.987C1389.94 342.651 1379.17 350.206 1367.47 355.443C1338.02 368.437 1304.97 368.55 1273.88 364.057C1230.27 357.554 1187.42 343.058 1143.63 348.014C1109.11 351.973 1077.17 367.976 1047.97 386.653C982.336 428.714 923.385 490.5 907.382 568.729C897.341 619.285 909.812 674.339 941.878 715.034C958.464 735.973 981.061 752.514 1006.88 760.086C980.996 752.742 958.181 736.351 941.36 715.451C908.836 674.826 895.837 619.543 905.663 568.385C921.327 489.356 980.505 426.761 1046.4 384.208C1075.71 365.322 1107.98 348.957 1143.26 344.812C1188.02 339.678 1231.18 354.284 1274.39 360.642C1305.07 365.063 1337.58 364.831 1366.03 352.252C1377.34 347.187 1387.67 339.934 1395.86 330.669C1422.93 299.946 1423.11 254.415 1413.17 215.979C1402.91 176.641 1383.2 140.218 1373.17 100.259C1353.82 22.8162 1375.15 -63.3543 1428.48 -122.552C1465.84 -163.891 1515.24 -190.531 1558.89 -223.911C1569.04 -231.668 1578.91 -239.805 1588.46 -248.297C1608.48 -266.099 1627.13 -285.46 1644.18 -306.148Z" fill="#255791"/>
<path d="M945.798 420.907C942.951 423.981 940.163 427.107 937.436 430.282C918.326 452.529 902.178 477.175 889.467 503.455C885.85 510.932 882.508 518.54 879.398 526.247C865.352 561.077 856.096 597.689 846.931 634.244C845.913 638.307 844.896 642.374 843.873 646.436C844.668 642.323 845.469 638.209 846.283 634.099C853.602 597.147 861.97 560.115 876.153 524.937C879.291 517.159 882.71 509.49 886.45 501.975C899.589 475.553 916.696 451.14 936.942 429.836C939.831 426.795 942.784 423.818 945.798 420.907Z" fill="#255791"/>
<path d="M881.682 624.178C881.799 626.272 881.91 628.366 882.015 630.46C882.257 635.278 882.467 640.096 882.647 644.914L880.723 645.016C878.714 631.083 877.94 616.893 878.988 602.769C880.36 583.819 885.223 564.966 894.008 548.192C894.978 546.33 895.994 544.494 897.056 542.68C896.201 544.601 895.388 546.528 894.612 548.469C887.597 565.956 883.841 584.417 882.478 603.028C881.451 616.891 881.684 630.855 882.642 644.812L880.718 644.914C880.898 640.096 881.108 635.278 881.35 630.46C881.455 628.366 881.566 626.272 881.682 624.178Z" fill="#255791"/>
<path d="M917.024 775.571C917.486 775.567 917.963 775.498 918.32 775.207C918.686 774.915 918.772 774.406 918.697 773.966C918.538 773.063 917.995 772.273 917.373 771.615C916.232 770.311 913.846 769.406 912.734 771.111C909.833 775.291 913.521 780.252 916.69 783.246C923.154 789.203 930.617 794.002 938.648 797.497C973.292 812.104 1012.99 804.692 1046.4 789.909C1099.56 765.937 1144.15 723.766 1171.24 672.304C1188 640.519 1198.28 605.184 1218.88 574.81C1231.69 555.916 1248.45 539.797 1267.5 527.305C1328.67 487.708 1407.58 482.923 1475.91 504.568C1515.42 517.309 1552.05 537.62 1592.5 546.057C1612.62 550.405 1633.88 550.252 1653.39 543.401C1672.26 536.587 1693.64 526.98 1713.57 536.001C1729.67 542.25 1743.39 552.781 1756.69 563.852C1743.25 552.961 1729.38 542.62 1713.34 536.625C1693.47 527.982 1672.9 537.602 1653.83 544.704C1634.19 551.846 1612.48 552.225 1592.11 547.999C1551.18 539.83 1514.26 519.704 1475.03 507.321C1407.35 486.288 1329.42 491.353 1269.42 530.229C1250.73 542.492 1234.31 558.261 1221.72 576.746C1201.45 606.462 1191.06 641.658 1173.97 673.75C1146.31 725.708 1100.94 767.965 1047.16 791.614C1013.29 806.228 973.142 813.264 938.379 798.105C930.327 794.483 922.877 789.556 916.463 783.49C913.297 780.415 909.572 775.317 912.617 771.022C913.166 770.246 914.196 769.849 915.108 770.101C916.02 770.323 916.797 770.898 917.427 771.564C918.047 772.238 918.584 773.042 918.734 773.96C918.805 774.408 918.709 774.93 918.332 775.221C917.965 775.511 917.486 775.573 917.024 775.571Z" fill="#255791"/>
<path d="M1466.94 245.669C1466.94 245.669 1466.94 245.669 1466.94 245.669C1469.28 254.452 1470.73 263.479 1471.32 272.569C1473.38 304.68 1464.65 337.627 1446.16 364.282C1422.54 398.316 1383.46 421.234 1342.03 424.963C1333.28 425.748 1324.49 425.715 1315.77 425.149C1274.12 422.422 1233.98 407.973 1192.74 411.971C1152.63 415.87 1116.36 437.619 1086.38 464.177C1079.58 470.192 1073.04 476.504 1066.72 483.035C1072.87 476.344 1079.26 469.868 1085.93 463.684C1115.34 436.402 1151.54 413.694 1192.45 409.213C1234.52 404.687 1275.03 419.029 1316 421.656C1324.58 422.213 1333.18 422.253 1341.72 421.508C1382.09 417.974 1420.49 395.953 1444.15 362.869C1462.67 336.954 1471.96 304.606 1470.65 272.604C1470.28 263.545 1469.06 254.509 1466.94 245.669Z" fill="#255791"/>
<path d="M1215.21 511.397C1209.99 512.763 1205.01 514.942 1200.41 517.709C1187.81 525.338 1178.12 536.883 1170.49 549.304C1152.94 578.136 1144.8 611.325 1132.01 642.762C1123.1 664.782 1111.33 686.646 1092.93 702.462C1073.87 718.949 1048.59 727.647 1023.71 726.898C1018.3 726.736 1012.91 726.127 1007.62 725.06C1012.95 725.897 1018.34 726.282 1023.72 726.233C1048.44 726.007 1072.87 716.695 1091.06 700.346C1108.66 684.628 1119.93 663.27 1128.77 641.443C1141.44 610.346 1150.1 576.947 1168.69 548.17C1176.78 535.765 1187.04 524.342 1200.08 517.132C1204.83 514.519 1209.93 512.536 1215.21 511.397Z" fill="#255791"/>
<path d="M943.716 640.007C943.471 635.042 943.279 630.074 943.14 625.103C942.587 605.445 942.851 585.752 943.925 566.095C944.426 540.03 960.915 517.813 977.333 499.454C984.931 490.536 992.24 481.44 998.022 471.363C1014.49 442.921 1043.04 418.049 1076.92 416.946C1081.91 416.805 1086.91 417.212 1091.79 418.143C1091.79 418.143 1091.79 418.143 1091.79 418.143C1086.87 417.443 1081.89 417.261 1076.95 417.611C1043.58 420.152 1016.72 445.081 1000.89 472.997C995.066 483.421 987.627 492.768 980.001 501.718C963.465 520.293 947.685 540.98 946.528 566.268C944.994 585.831 944.082 605.451 943.805 625.098C943.734 630.066 943.705 635.036 943.716 640.007Z" fill="#255791"/>
<path d="M1004.44 642.057C1003.86 639.565 1003.28 637.067 1002.71 634.568C997.635 612.119 993.415 589.172 994.049 565.859C994.384 553.821 996.093 541.748 999.654 530.206C1003.01 519.6 1008.71 508.575 1018.99 503.374C1021.33 502.24 1023.86 501.529 1026.41 501.303C1023.89 501.761 1021.48 502.677 1019.31 503.96C1009.82 509.783 1005.11 520.59 1002.29 530.956C999.291 542.381 997.878 554.152 997.548 565.958C996.92 588.789 1000.14 611.642 1003.36 634.448C1003.72 636.984 1004.08 639.522 1004.44 642.057Z" fill="#255791"/>
<path d="M1488.92 230.357C1490.24 223.507 1491.58 216.636 1492.08 209.694C1492.2 208.114 1492.27 206.532 1492.29 204.95C1492.59 171.946 1471.75 144.401 1453.27 118.428C1436.79 95.137 1419.88 69.0685 1420.12 38.9073C1420.19 35.3063 1420.53 31.7059 1421.15 28.1511C1426.03 -0.0166321 1430.83 -28.3012 1435.25 -56.5371C1438.42 -77.3618 1446.19 -98.2103 1460.91 -113.643C1467.69 -120.733 1475.62 -126.405 1483 -132.653C1488.32 -137.146 1493.4 -141.995 1497.38 -147.748C1493.59 -141.864 1488.64 -136.819 1483.44 -132.152C1476.22 -125.661 1468.46 -119.765 1461.99 -112.64C1447.95 -97.1458 1440.79 -76.6343 1437.98 -56.1423C1433.98 -27.7739 1429.43 0.526337 1424.59 28.7528C1424 32.1274 1423.68 35.545 1423.62 38.9706C1423.32 67.6014 1439.52 93.3512 1455.64 116.756C1473.73 142.923 1494.39 171.546 1493.1 204.973C1493.03 206.57 1492.91 208.164 1492.75 209.752C1492.03 216.729 1490.47 223.555 1488.92 230.357Z" fill="#255791"/>
<path d="M1020.17 651.035C1027.49 645.894 1032.46 638.129 1035.69 629.939C1041.33 615.643 1043 600.197 1047.66 585.418C1057.54 554.449 1081.16 530.835 1103.61 508.686C1118.42 494.129 1133.58 479.219 1152.28 469.129C1162.95 463.381 1174.73 459.456 1186.93 458.456C1195.94 457.721 1205.18 458.698 1213.74 461.855L1215.59 462.528L1214.69 464.279C1204.34 483.835 1183.37 492.359 1165.91 502.496C1122.44 527.454 1088.56 568.548 1071.44 615.93C1068.43 624.272 1065.94 632.81 1064.01 641.483C1065.71 632.763 1067.99 624.149 1070.81 615.711C1086.85 567.779 1120.4 525.533 1164.35 499.801C1182 489.436 1202.2 480.782 1211.61 462.685L1212.55 465.109C1204.51 462.168 1195.79 461.246 1187.22 461.945C1175.6 462.894 1164.23 466.639 1153.9 472.156C1135.75 481.863 1120.66 496.431 1105.73 510.851C1083.06 532.779 1059.52 555.69 1049.23 585.933C1044.35 600.406 1042.33 615.91 1036.3 630.194C1032.85 638.378 1027.62 646.093 1020.17 651.035Z" fill="#255791"/>
<path d="M1565.92 520.641C1561.41 516.08 1556.66 511.763 1551.7 507.707C1528.74 488.927 1501.37 475.719 1472.52 469.665C1453.32 465.638 1433.61 464.718 1413.92 463.74C1405.63 463.332 1397.36 462.921 1389.1 462.709C1368.9 462.189 1348.57 462.87 1329.05 467.787C1292.85 476.885 1261.93 499.778 1233.18 523.415C1228.22 527.491 1223.31 531.614 1218.39 535.738C1218.39 535.738 1218.39 535.738 1218.39 535.738C1223.15 531.438 1227.92 527.147 1232.75 522.909C1260.71 498.356 1291.33 474.501 1328.27 464.737C1348.16 459.48 1368.86 458.687 1389.19 459.21C1397.51 459.423 1405.81 459.856 1414.1 460.303C1433.78 461.376 1453.69 462.499 1473.12 466.898C1502.34 473.512 1529.72 487.603 1552.13 507.199C1556.97 511.431 1561.58 515.919 1565.92 520.641Z" fill="#255791"/>
<path d="M1489.92 377.509C1489.27 378.918 1488.58 380.294 1487.83 381.654C1481.12 393.948 1470.26 403.752 1458.34 411.026C1446.37 418.356 1433.33 423.48 1420.15 427.803C1418.69 428.283 1417.22 428.755 1415.75 429.216C1417.13 428.538 1418.52 427.86 1419.9 427.187C1432.37 421.111 1444.85 415.188 1456.51 408.043C1468.14 400.909 1479.03 392.42 1487.28 381.295C1488.19 380.06 1489.07 378.805 1489.92 377.509Z" fill="#255791"/>
<path d="M1364.23 372.027C1364.03 371.995 1363.83 371.936 1363.7 371.783C1363.55 371.628 1363.55 371.391 1363.61 371.201C1363.73 370.81 1364.02 370.499 1364.33 370.248C1364.65 370.001 1365.03 369.802 1365.45 369.768C1365.88 369.718 1366.34 369.979 1366.53 370.368C1367.61 372.472 1365.72 374.486 1364.23 375.712C1363.66 376.175 1363.08 376.628 1362.5 377.069C1341.08 393.112 1312.29 393.731 1286.74 389.847C1273.86 387.87 1261.22 384.885 1248.58 382.371C1235.06 379.682 1221.43 377.518 1207.76 377.744C1182.95 378.147 1158.28 386.694 1138.17 401.696C1134.71 404.281 1131.38 407.059 1128.21 410.019C1131.22 406.892 1134.41 403.938 1137.76 401.173C1157.22 385.112 1182.17 375.447 1207.68 374.603C1221.73 374.129 1235.65 376.232 1249.26 378.938C1262 381.472 1274.56 384.545 1287.25 386.7C1312.39 390.893 1340.23 391.28 1362.11 376.529C1362.71 376.121 1363.3 375.701 1363.89 375.269C1365.39 374.166 1367.18 372.368 1366.31 370.485C1366.01 369.745 1365 369.895 1364.41 370.349C1364.1 370.572 1363.81 370.86 1363.67 371.221C1363.6 371.397 1363.59 371.61 1363.72 371.762C1363.84 371.913 1364.04 371.985 1364.23 372.027Z" fill="#255791"/>
<path d="M1281.55 437.231C1280.35 437.791 1279.16 438.365 1277.98 438.952C1267.37 444.242 1257.48 450.601 1248.33 457.87C1239.17 465.145 1230.75 473.336 1223.18 482.471C1222.34 483.486 1221.51 484.513 1220.69 485.552C1221.31 484.385 1221.96 483.23 1222.63 482.089C1228.69 471.809 1236.73 462.605 1246.15 455.13C1255.56 447.648 1266.35 441.89 1277.74 438.335C1279 437.94 1280.27 437.572 1281.55 437.231Z" fill="#255791"/>
<path d="M1622.19 871.852C1627.47 864.305 1631.93 857.155 1636.25 849.189C1680.51 778.206 1645.12 687.259 1583.91 638.41C1554.43 612.797 1520.88 591.176 1484.71 576.803C1461.68 568.156 1438.56 559.424 1414.3 555.514C1398.82 553.032 1382.9 552.608 1367.41 555.419C1358.72 557 1350.2 559.63 1342.21 563.462C1350.1 559.42 1358.58 556.563 1367.28 554.767C1382.79 551.569 1398.87 551.647 1414.55 553.857C1439.11 557.338 1462.56 565.791 1485.69 574.166C1522.54 588.321 1556.39 609.88 1586.23 635.782C1648.26 684.861 1683.26 779.444 1636.83 849.512C1632.32 857.401 1627.66 864.441 1622.19 871.852Z" fill="#255791"/>
<path d="M1394.93 534.216C1394.93 534.216 1394.93 534.216 1394.93 534.216C1391.56 532.714 1388.11 531.429 1384.6 530.358C1354.54 521.231 1320.51 527.606 1296.46 547.083C1295.2 548.107 1293.96 549.164 1292.75 550.251C1279.81 561.838 1269.79 576.424 1258.48 590.002C1248.51 601.944 1237.16 613.399 1223.01 620.266C1219.68 621.876 1216.21 623.202 1212.65 624.179C1216.14 622.979 1219.5 621.455 1222.71 619.675C1236.29 612.091 1246.86 600.423 1256.38 588.305C1267.18 574.532 1277.04 559.643 1290.42 547.643C1291.67 546.52 1292.95 545.427 1294.27 544.367C1319.38 524.093 1355.09 518.755 1384.81 529.728C1388.28 531.006 1391.67 532.504 1394.93 534.216Z" fill="#255791"/>
<path d="M1521.59 569.318C1519.92 568.711 1518.23 568.143 1516.54 567.594C1509.76 565.385 1502.85 563.464 1496.22 560.431C1488.02 556.645 1480.71 551.336 1473.65 546.021C1473.62 546 1473.6 545.978 1473.57 545.957C1460.82 536.358 1448.37 526.377 1436.18 516.032C1434.83 514.88 1433.47 513.724 1432.12 512.563C1433.61 513.537 1435.1 514.517 1436.58 515.501C1449.9 524.339 1462.93 533.566 1475.67 543.161C1475.7 543.183 1475.73 543.204 1475.76 543.225C1482.82 548.544 1489.75 553.921 1497.4 558.076C1503.58 561.415 1510.28 563.972 1516.79 566.974C1518.4 567.722 1520.01 568.497 1521.59 569.318Z" fill="#255791"/>
<path d="M1432.65 588.455C1429.98 588.162 1427.32 587.664 1424.69 587.073C1421.22 586.294 1417.79 585.355 1414.37 584.501C1401.34 581.261 1387.91 579.18 1374.76 580.707C1367.86 581.52 1361.07 583.388 1354.86 586.412C1349.31 589.115 1344.24 592.777 1340.16 597.368C1336.04 601.965 1332.79 607.728 1327.72 612.195C1318.53 620.21 1306.11 621.427 1294.88 621.335C1292.18 621.31 1289.49 621.205 1286.81 621.073C1286.81 621.073 1286.81 621.073 1286.81 621.073C1289.49 620.971 1292.18 620.855 1294.86 620.67C1306.05 619.911 1317.92 617.838 1325.9 610.194C1330.35 605.964 1333.36 600.267 1337.67 595.199C1341.97 590.148 1347.41 586.146 1353.33 583.266C1359.95 580.041 1367.15 578.158 1374.42 577.472C1388.23 576.198 1401.9 578.996 1414.76 583.121C1418.15 584.209 1421.48 585.389 1424.86 586.431C1427.42 587.22 1430.01 587.931 1432.65 588.455Z" fill="#255791"/>
</g>
</svg>
