<svg width="1654" height="773" viewBox="0 0 1654 773" fill="none" xmlns="http://www.w3.org/2000/svg">
<mask id="mask0_769_6753" style="mask-type:alpha" maskUnits="userSpaceOnUse" x="0" y="0" width="1654" height="773">
<rect width="1654" height="772.943" fill="#D9D9D9"/>
</mask>
<g mask="url(#mask0_769_6753)">
<path d="M200.095 -89.0549C201.299 -66.0875 207.054 -43.4295 216.416 -22.4561C238.869 28.6239 286.955 73.292 344.707 74.292C348.418 74.3757 352.117 74.2949 355.813 74.0675C415.175 70.2538 466.948 30.6488 528.05 34.6645C581.439 38.7804 625.954 79.3641 646.712 127.153C660.952 159.915 665.507 196.12 664.136 231.514C663.479 248.713 661.47 265.833 658.475 282.751C639.846 387.848 582.55 488.259 493.34 548.583C424.188 595.185 336.71 614.713 254.818 598.911C232.221 594.526 210.16 587.394 189.395 577.501C189.395 577.501 189.395 577.501 189.395 577.501C210.259 587.183 232.359 594.089 254.941 598.258C336.778 613.269 423.588 593.134 491.944 546.527C580.147 486.174 636.634 386.434 655.048 282.146C658.006 265.36 659.989 248.395 660.639 231.38C661.993 196.361 657.589 160.696 643.746 128.432C623.612 81.4527 580.151 41.2711 527.877 36.8621C467.93 32.3366 415.625 71.4514 355.871 75.0657C352.148 75.2765 348.421 75.3397 344.684 75.2376C286.462 73.9263 238.476 28.8656 216.175 -22.3492C206.879 -43.385 201.207 -66.0826 200.095 -89.0549Z" fill="#255791"/>
<path d="M246.732 558.642C240.719 556.687 234.777 554.496 228.925 552.076C176.518 530.459 129.945 489.578 109.102 435.574C109.094 435.552 109.085 435.531 109.077 435.509C88.5175 381.963 96.6527 316.757 134.686 273.502C138.889 268.756 143.435 264.325 148.292 260.266C143.588 264.501 139.213 269.076 135.191 273.934C98.9155 318.178 92.3084 381.871 112.342 434.248C112.35 434.269 112.358 434.29 112.367 434.312C132.792 487.194 177.663 528.137 229.189 551.465C234.942 554.072 240.796 556.467 246.732 558.642Z" fill="#255791"/>
<path d="M152.116 689.053C152.116 689.053 152.116 689.053 152.116 689.053C162.107 678.926 168.712 665.773 171.73 651.978C176.874 628.599 172.023 602.673 156.725 584.215C119.346 540.676 54.2238 547.657 9.28279 512.607C-27.1036 483.735 -38.6123 432.297 -27.9483 388.49C-27.1163 385.09 -26.1665 381.727 -25.1018 378.395C-12.2025 338.203 16.3618 304.975 49.4211 279.885C71.736 262.981 96.2782 249.281 116.04 229.811C141.671 204.545 158.042 170.017 161.467 134.06C163.553 112.142 160.819 89.774 153.721 68.8708C149.167 55.4579 142.81 42.6345 134.771 30.9319C134.771 30.9319 134.771 30.9319 134.771 30.9319C143.001 42.5008 149.578 55.2522 154.35 68.6523C161.787 89.5355 164.859 112.028 163.023 134.198C160.007 170.571 143.804 205.768 117.918 231.701C97.9595 251.664 73.3461 265.591 51.3606 282.432C18.7902 307.393 -9.17722 340.196 -21.7679 379.461C-22.8085 382.716 -23.737 386.002 -24.5508 389.322C-34.9717 431.981 -23.8109 482.138 11.2042 510.182C54.3925 544.638 120.168 538.353 157.99 583.18C173.427 602.287 177.906 628.645 172.378 652.125C169.132 665.984 162.273 679.093 152.116 689.053Z" fill="#255791"/>
<path d="M137.098 534.724C133.07 530.396 128.551 526.575 123.745 523.179C103.591 509.014 79.5248 502.18 58.4096 488.993C43.3942 479.604 30.5739 467.326 18.1335 455.06C10.2869 447.283 2.2664 439.107 -2.77605 428.746C-4.51518 425.143 -5.82895 421.291 -6.52115 417.306C-9.80589 397.756 1.67804 379.548 15.5587 367.492C29.7474 355.252 46.7028 347.551 61.7118 337.163C71.8675 330.109 81.2769 321.537 87.4717 310.709C90.3733 305.611 92.4582 300.008 93.3277 294.158C92.6907 300.037 90.8076 305.767 88.0558 311.027C82.1791 322.208 72.8868 331.231 62.7798 338.664C47.8618 349.58 31.0956 357.666 17.5383 369.749C4.28821 381.574 -6.18315 399.031 -3.08867 416.703C-2.44728 420.337 -1.24237 423.871 0.376999 427.227C5.05791 436.878 12.7579 444.879 20.5142 452.665C32.8441 465.006 45.3264 477.26 59.8528 486.733C80.2617 500.06 104.349 507.668 124.139 522.643C128.851 526.231 133.244 530.24 137.098 534.724Z" fill="#255791"/>
<path d="M77.3561 563.069C75.6763 562.258 73.9491 561.569 72.1922 560.991C62.1779 557.73 51.6052 557.981 41.1892 558.612C35.0299 559.004 28.8186 559.526 22.5246 559.532C16.2517 559.539 9.85596 559.012 3.70058 557.275C-6.7141 554.31 -16.5411 547.25 -20.3619 537.065C-21.0145 535.293 -21.457 533.454 -21.6706 531.6C-21.2271 533.413 -20.5771 535.158 -19.7516 536.801C-14.9467 546.171 -5.30527 551.881 4.48347 554.263C10.3399 555.654 16.4146 556.038 22.5218 556.032C28.6433 556.027 34.8207 555.64 41.0587 555.504C51.608 555.295 62.6775 555.913 72.4355 560.372C74.1424 561.156 75.7908 562.054 77.3561 563.069Z" fill="#255791"/>
<path d="M94.8387 478.481C95.5272 478.703 96.213 478.931 96.8961 479.164C102.139 480.952 107.224 483.05 112.152 485.448C113.001 485.861 113.844 486.28 114.681 486.701C120.377 489.542 125.824 492.548 132.108 493.892C132.806 494.038 133.513 494.163 134.23 494.261C133.518 494.396 132.797 494.494 132.069 494.556C125.433 495.115 118.847 492.717 113.11 489.829C112.257 489.4 111.415 488.957 110.581 488.506C105.759 485.896 101.098 482.977 96.5922 479.755C96.0051 479.336 95.4206 478.911 94.8387 478.481Z" fill="#255791"/>
<path d="M602.523 262.44C601.812 270.986 600.689 279.492 599.166 287.938C585.424 364.073 539.646 433.736 476.061 478.174C452.942 494.328 427.419 507.12 400.487 515.538C372.982 524.138 343.189 528.641 314.685 522.151C294.769 517.577 276.015 507.222 262.59 491.841C256.943 485.353 252.329 477.962 249.184 469.983C252.545 477.873 257.329 485.102 263.087 491.399C276.771 506.32 295.484 516.1 315.103 520.236C343.222 526.104 372.414 521.303 399.541 512.559C426.08 504.003 451.211 491.266 474.057 475.305C536.855 431.365 582.907 363.37 598.513 287.812C600.238 279.426 601.58 270.963 602.523 262.44Z" fill="#255791"/>
<path d="M510.802 487.615C507.601 491.097 504.307 494.496 500.925 497.81C470.484 527.649 432.967 550.427 392.364 563.976C370.053 571.427 346.801 576.099 323.354 577.684C304.288 578.904 283.891 577.852 267.12 567.827C263.052 565.358 259.33 562.343 256.136 558.846C259.498 562.182 263.331 564.993 267.453 567.252C284.415 576.383 304.339 576.701 323.143 575.049C346.324 572.91 369.206 568.018 391.255 560.656C431.375 547.252 468.801 525.702 500.47 497.325C503.988 494.172 507.433 490.935 510.802 487.615Z" fill="#255791"/>
<path d="M262.196 534.272C260.364 534.049 258.539 533.731 256.731 533.32C240.381 529.604 226.119 518.605 216.284 505.026C216.26 504.992 216.236 504.959 216.212 504.926C206.301 491.2 200.537 475.102 196.916 458.937C196.512 457.135 196.133 455.329 195.778 453.519C196.359 455.269 196.951 457.015 197.555 458.755C202.991 474.388 209.502 489.659 219.049 502.877C219.072 502.909 219.095 502.941 219.119 502.973C228.626 516.029 241.332 527.174 256.915 532.681C258.645 533.288 260.407 533.82 262.196 534.272Z" fill="#255791"/>
<path d="M181.361 497.073C181.361 497.073 181.361 497.073 181.361 497.073C181.45 497.15 181.538 497.244 181.557 497.376C181.577 497.511 181.479 497.637 181.376 497.708C181.161 497.854 180.911 497.906 180.665 497.931C180.173 497.968 179.635 497.9 179.198 497.522C178.823 497.196 178.449 496.867 178.076 496.536C168.342 487.886 159.707 477.845 152.919 466.601C146.135 455.377 141.239 442.898 139.167 430.005C138.936 428.573 138.74 427.14 138.578 425.701C138.578 425.701 138.578 425.701 138.578 425.701C138.969 427.095 139.381 428.477 139.814 429.851C143.716 442.222 149.297 453.822 155.915 464.793C162.543 475.765 170.203 486.13 178.553 496.072C178.872 496.453 179.193 496.833 179.515 497.212C179.757 497.51 180.217 497.675 180.661 497.705C180.883 497.718 181.118 497.705 181.316 497.611C181.412 497.564 181.497 497.486 181.5 497.379C181.504 497.271 181.437 497.162 181.361 497.073Z" fill="#255791"/>
<path d="M462.376 447.356C460.503 448.952 458.595 450.511 456.654 452.03C439.186 465.71 419.063 476.168 397.756 482.777C376.453 489.396 353.941 492.172 331.798 490.756C329.338 490.599 326.884 490.391 324.436 490.132C326.897 490.158 329.356 490.145 331.812 490.091C353.918 489.606 375.764 485.935 396.719 479.434C417.671 472.926 437.755 463.581 456.267 451.489C458.324 450.145 460.36 448.768 462.376 447.356Z" fill="#255791"/>
<path d="M290.826 725.399C295.401 720.727 302.508 719.713 308.809 720.556C314.988 721.328 320.909 723.367 326.671 725.569C355.547 736.663 386.635 744.596 417.307 740.394C436.969 737.658 456.035 729.341 470.583 715.891C478.465 708.587 484.885 699.689 488.891 689.742C495.402 673.62 495.724 655.693 496.147 638.101C496.579 620.518 497.246 602.164 504.678 585.71C509.376 575.423 517.046 566.377 526.924 560.897C532.554 557.786 538.967 556.009 545.369 556.205C538.963 556.244 532.693 558.233 527.254 561.474C517.716 567.182 510.493 576.27 506.198 586.375C499.376 602.606 499.084 620.574 498.942 638.145C498.792 655.726 498.753 674.029 492.044 691.005C487.901 701.483 481.181 710.843 472.965 718.455C457.789 732.478 438.025 740.926 417.717 743.518C386.142 747.454 354.829 738.681 326.21 726.72C320.548 724.363 314.767 722.173 308.718 721.214C302.548 720.192 295.578 720.907 290.826 725.399Z" fill="#255791"/>
<path d="M500.01 565.135C498.482 564.187 496.796 565.386 495.627 566.396C494.596 567.322 493.612 568.297 492.676 569.312C483.933 578.854 479.629 591.419 477.348 603.92C474.807 617.907 474.592 632.315 472.054 646.644C472.023 646.823 471.991 646.999 471.958 647.176C469.386 661.162 464.213 675.617 453.331 685.622C443.247 694.838 427.669 698.945 415.336 692.75C414.526 692.337 413.74 691.882 412.979 691.384L413.301 691.311C412.052 693.068 410.81 694.831 409.556 696.585C410.673 694.741 411.781 692.891 412.903 691.049L413.041 690.855L413.225 690.976C414.005 691.411 414.803 691.801 415.618 692.147C427.965 697.302 442.375 692.499 451.44 683.629C461.3 673.904 466.005 660.173 468.516 646.545C468.547 646.373 468.578 646.202 468.609 646.03C471.1 632.07 471.585 617.597 474.694 603.389C477.479 590.683 482.658 577.905 492.202 568.845C493.221 567.882 494.284 566.968 495.39 566.111C496.659 565.155 498.544 564.051 500.01 565.135Z" fill="#255791"/>
<path d="M360.73 695.265C358.113 690.958 355.45 686.681 352.741 682.434C345.823 671.59 338.605 660.948 331.091 650.528C325.204 642.366 319.024 634.264 310.918 628.627C299.783 620.913 285.948 618.442 272.395 616.568C264.026 615.429 255.556 614.636 247.44 615.99C242.095 616.883 236.97 618.857 232.854 622.22C218.116 634.528 220.309 656.609 215.53 675.255C210.468 695.415 196.131 712.659 177.875 721.812C173.348 724.08 168.579 725.847 163.678 727.029C168.519 725.621 173.178 723.655 177.564 721.223C195.25 711.407 208.553 694.109 212.966 674.643C217.371 656.576 214.164 633.924 230.67 619.542C235.311 615.706 241.085 613.499 246.854 612.539C255.628 611.085 264.391 611.987 272.872 613.202C286.495 615.205 300.872 617.904 312.546 626.336C321.019 632.506 327.1 640.998 332.768 649.356C339.991 660.032 346.841 670.954 353.309 682.088C355.841 686.449 358.315 690.842 360.73 695.265Z" fill="#255791"/>
<path d="M157.45 703.686C159.328 702.777 161.116 701.711 162.802 700.516C174.259 692.258 180.527 679.284 186.318 666.681C188.243 662.437 190.132 658.195 191.847 653.903C194.809 646.492 197.26 638.895 198.388 631.063C199.843 620.8 198.975 609.912 194.187 600.424C193.25 598.582 192.162 596.807 190.921 595.13C190.921 595.13 190.921 595.13 190.921 595.13C192.342 596.658 193.626 598.324 194.763 600.093C200.608 609.222 202.413 620.609 201.339 631.422C200.518 639.654 198.126 647.625 195.097 655.202C193.342 659.593 191.371 663.872 189.327 668.092C183.201 680.644 175.686 693.864 163.159 701.078C161.33 702.115 159.417 702.992 157.45 703.686Z" fill="#255791"/>
<path d="M461.39 601.574C461.291 603.068 461.153 604.561 460.975 606.051C459.379 619.466 454.564 632.628 447.056 644.04C444.972 647.211 442.682 650.247 440.205 653.118C434.329 659.893 425.206 667.003 415.624 663.975L415.469 663.945L415.346 663.765C415.075 663.227 414.806 662.69 414.537 662.151C413.869 660.813 413.205 659.472 412.547 658.128C413.406 659.353 414.26 660.582 415.109 661.813C415.451 662.308 415.792 662.804 416.132 663.301L415.854 663.091C424.9 664.651 432.27 657.661 437.68 651.022C439.966 648.153 442.118 645.181 444.131 642.118C451.374 631.086 456.874 618.893 460.322 605.926C460.704 604.485 461.06 603.034 461.39 601.574Z" fill="#255791"/>
<path d="M390.7 688.028C389.338 687.907 387.986 687.509 386.749 686.837C380.258 682.975 378.301 674.984 377.057 668.157C376.2 663.004 375.426 657.84 374.736 652.665C374.03 647.367 373.414 642.056 372.891 636.733C372.153 630.081 371.413 622.98 366.743 617.989C365.813 617.041 364.723 616.234 363.503 615.616C364.81 616.017 366.057 616.651 367.179 617.486C372.931 621.983 374.631 629.631 375.823 636.343C376.705 641.619 377.5 646.904 378.206 652.203C378.895 657.378 379.499 662.565 380.014 667.764C380.797 674.435 381.746 681.853 387.108 686.277C388.158 687.078 389.377 687.677 390.7 688.028Z" fill="#255791"/>
<path d="M355.333 659.649C355.333 659.649 355.333 659.649 355.333 659.649C355.131 658.609 354.934 657.567 354.737 656.528C352.974 647.195 351.259 637.834 346.722 629.991C346.699 629.95 346.675 629.909 346.652 629.869C342.179 622.378 334.341 615.941 324.927 615.976C323.888 615.996 322.842 616.107 321.8 616.314C322.772 615.885 323.793 615.549 324.846 615.316C334.601 613.243 344.702 619.575 349.676 628.108C349.702 628.152 349.728 628.197 349.754 628.242C354.77 636.978 355.508 647.021 355.4 656.47C355.387 657.53 355.364 658.59 355.333 659.649Z" fill="#255791"/>
<path d="M444.137 598.312C444.137 598.312 444.137 598.312 444.137 598.312C442.418 598.054 440.68 598.243 439.08 598.772C434.719 600.251 431.379 603.807 429.365 607.745C426.549 613.333 425.795 619.741 423.913 626.109C422.609 630.455 420.696 634.816 417.367 638.339C415.817 639.966 413.93 641.359 411.803 642.265C408.044 643.831 402.365 643.788 400.079 638.966C399.236 636.884 399.557 634.965 399.642 633.392C400.127 625.566 397.576 617.444 392.526 611.04C391.462 609.694 390.287 608.426 389.004 607.258C389.004 607.258 389.004 607.258 389.004 607.258C390.432 608.243 391.777 609.363 393.021 610.596C398.941 616.461 402.553 624.856 402.51 633.493C402.478 635.199 402.438 636.716 402.936 637.71C403.905 639.959 407.784 640.326 410.419 639.104C412.071 638.367 413.552 637.267 414.836 635.921C417.594 633.019 419.443 629.141 420.791 625.127C422.796 619.177 423.969 612.51 427.519 606.71C430.114 602.544 434.136 599.125 438.912 598.128C440.656 597.778 442.47 597.825 444.137 598.312Z" fill="#255791"/>
<path d="M1643.51 -306.148C1626.64 -285.313 1608.15 -265.784 1588.25 -247.802C1578.75 -239.224 1568.93 -230.999 1558.82 -223.152C1515.34 -189.395 1466.15 -162.401 1429.37 -121.192C1376.85 -62.2359 1356.19 23.1733 1375.52 99.5085C1385.52 138.941 1405.31 175.286 1415.79 215.127C1425.92 254.144 1426.07 300.785 1397.85 332.987C1389.31 342.646 1378.55 350.199 1366.86 355.436C1337.41 368.437 1304.36 368.551 1273.27 364.057C1229.67 357.554 1186.83 343.058 1143.04 348.014C1108.52 351.973 1076.59 367.976 1047.39 386.653C981.767 428.716 922.828 490.504 906.828 568.729C896.79 619.284 909.257 674.335 941.318 715.032C957.901 735.971 980.494 752.514 1006.31 760.086C980.43 752.741 957.618 736.349 940.799 715.448C908.281 674.822 895.286 619.541 905.11 568.385C920.77 489.36 979.937 426.763 1045.82 384.208C1075.13 365.322 1107.39 348.957 1142.67 344.812C1187.42 339.678 1230.58 354.284 1273.78 360.642C1304.46 365.064 1336.97 364.831 1365.43 352.244C1376.73 347.18 1387.04 339.929 1395.23 330.669C1422.3 299.945 1422.48 254.415 1412.54 215.978C1402.28 176.641 1382.58 140.217 1372.54 100.259C1353.2 22.8171 1374.53 -63.3507 1427.85 -122.552C1465.2 -163.891 1514.59 -190.531 1558.24 -223.911C1568.39 -231.668 1578.25 -239.805 1587.8 -248.297C1607.82 -266.1 1626.46 -285.46 1643.51 -306.148Z" fill="#255791"/>
<path d="M945.239 420.906C942.392 423.981 939.604 427.107 936.877 430.282C917.77 452.53 901.625 477.176 888.917 503.455C885.299 510.933 881.958 518.541 878.849 526.249C864.804 561.079 855.55 597.69 846.387 634.244C845.369 638.308 844.352 642.374 843.329 646.436C844.124 642.323 844.925 638.209 845.738 634.099C853.056 597.148 861.422 560.117 875.603 524.939C878.741 517.16 882.16 509.491 885.899 501.975C899.036 475.554 916.14 451.141 936.384 429.836C939.273 426.795 942.225 423.818 945.239 420.906Z" fill="#255791"/>
<path d="M881.133 624.178C881.25 626.272 881.36 628.366 881.465 630.46C881.707 635.278 881.918 640.096 882.098 644.914L880.174 645.016C878.165 631.083 877.391 616.893 878.438 602.77C879.811 583.819 884.673 564.966 893.456 548.192C894.427 546.33 895.442 544.494 896.504 542.68C895.65 544.601 894.836 546.528 894.061 548.469C887.047 565.956 883.291 584.417 881.929 603.029C880.901 616.891 881.135 630.855 882.092 644.812L880.168 644.914C880.348 640.096 880.559 635.278 880.8 630.46C880.905 628.366 881.016 626.272 881.133 624.178Z" fill="#255791"/>
<path d="M916.469 775.571C916.469 775.571 916.469 775.571 916.469 775.571C916.931 775.567 917.408 775.497 917.765 775.207C918.131 774.915 918.217 774.406 918.142 773.965C917.983 773.063 917.44 772.273 916.818 771.615C915.677 770.311 913.291 769.406 912.18 771.111C909.279 775.29 912.967 780.252 916.135 783.246C922.598 789.203 930.06 794.001 938.089 797.496C972.727 812.104 1012.42 804.692 1045.83 789.909C1098.98 765.936 1143.56 723.763 1170.65 672.304C1187.41 640.519 1197.68 605.185 1218.28 574.81C1231.09 555.92 1247.84 539.804 1266.88 527.312C1328.04 487.71 1406.95 482.921 1475.27 504.568C1514.77 517.309 1551.39 537.62 1591.85 546.057C1611.96 550.405 1633.21 550.252 1652.72 543.401C1671.59 536.587 1692.96 526.98 1712.89 536.001C1728.99 542.25 1742.71 552.781 1756.01 563.852C1742.57 552.961 1728.7 542.62 1712.66 536.625C1692.8 527.982 1672.23 537.602 1653.16 544.704C1633.53 551.846 1611.82 552.225 1591.45 547.999C1550.53 539.83 1513.61 519.703 1474.39 507.321C1406.72 486.286 1328.79 491.354 1268.8 530.237C1250.11 542.498 1233.7 558.266 1221.12 576.746C1200.85 606.463 1190.46 641.658 1173.38 673.75C1145.72 725.706 1100.36 767.963 1046.59 791.614C1012.72 806.228 972.577 813.265 937.819 798.104C929.77 794.482 922.32 789.555 915.908 783.49C912.743 780.414 909.019 775.317 912.062 771.022C912.612 770.246 913.642 769.849 914.554 770.101C915.466 770.324 916.242 770.898 916.872 771.564C917.492 772.238 918.029 773.042 918.179 773.96C918.25 774.408 918.154 774.93 917.777 775.221C917.41 775.511 916.931 775.573 916.469 775.571Z" fill="#255791"/>
<path d="M1564.44 -177.076C1558.43 -170.629 1552.62 -164.007 1547.03 -157.208C1521.57 -126.255 1500.54 -91.3563 1488.1 -53.3351C1476.03 -16.4122 1472.31 23.522 1479.82 61.6248C1481.72 71.2759 1484.36 80.7802 1487.75 90.0106C1496.64 114.251 1510.7 136.707 1517.83 162.171C1529.73 204.879 1520.18 249.411 1507.98 290.559C1505.47 299.005 1502.82 307.412 1500.13 315.797C1502.59 307.344 1505.04 298.874 1507.34 290.377C1518.57 248.957 1527.15 204.603 1515.02 162.969C1507.8 138.125 1493.66 115.875 1484.51 91.2069C1481.02 81.8092 1478.32 72.1287 1476.38 62.3036C1468.74 23.507 1472.79 -17.0344 1485.43 -54.2254C1498.46 -92.511 1520.29 -127.253 1546.52 -157.636C1552.28 -164.311 1558.27 -170.79 1564.44 -177.076Z" fill="#255791"/>
<path d="M1466.3 245.669C1466.3 245.669 1466.3 245.669 1466.3 245.669C1468.64 254.451 1470.09 263.477 1470.68 272.566C1472.74 304.678 1464.01 337.625 1445.52 364.282C1421.91 398.314 1382.84 421.233 1341.41 424.963C1332.66 425.747 1323.88 425.715 1315.16 425.15C1273.51 422.423 1233.38 407.973 1192.14 411.97C1152.04 415.87 1115.77 437.62 1085.8 464.177C1079 470.192 1072.46 476.504 1066.14 483.035C1072.29 476.344 1078.68 469.868 1085.35 463.684C1114.75 436.404 1150.95 413.695 1191.85 409.213C1233.92 404.687 1274.42 419.03 1315.39 421.657C1323.97 422.213 1332.57 422.253 1341.1 421.508C1381.47 417.973 1419.86 395.951 1443.52 362.869C1462.04 336.952 1471.32 304.603 1470.01 272.601C1469.64 263.543 1468.42 254.508 1466.3 245.669Z" fill="#255791"/>
<path d="M1214.61 511.397C1209.39 512.763 1204.41 514.942 1199.81 517.709C1187.21 525.339 1177.53 536.883 1169.89 549.304C1152.35 578.135 1144.21 611.323 1131.43 642.758C1122.52 664.779 1110.75 686.645 1092.34 702.462C1073.29 718.948 1048.02 727.647 1023.14 726.898C1017.73 726.736 1012.34 726.127 1007.05 725.06C1012.38 725.897 1017.77 726.282 1023.15 726.233C1047.86 726.006 1072.29 716.694 1090.48 700.346C1108.08 684.626 1119.35 663.267 1128.18 641.44C1140.85 610.343 1149.51 576.947 1168.09 548.17C1176.18 535.766 1186.44 524.343 1199.48 517.133C1204.23 514.519 1209.33 512.536 1214.61 511.397Z" fill="#255791"/>
<path d="M943.157 640.007C942.913 635.042 942.721 630.074 942.581 625.103C942.028 605.446 942.292 585.752 943.366 566.095C943.867 540.033 960.35 517.816 976.765 499.458C984.363 490.538 991.673 481.442 997.455 471.363C1013.92 442.923 1042.46 418.05 1076.34 416.946C1081.33 416.805 1086.33 417.212 1091.21 418.143C1091.21 418.143 1091.21 418.143 1091.21 418.143C1086.29 417.442 1081.31 417.261 1076.37 417.611C1043.01 420.153 1016.15 445.083 1000.33 472.997C994.498 483.423 987.059 492.771 979.433 501.723C962.9 520.296 947.126 540.983 945.969 566.268C944.435 585.831 943.524 605.452 943.246 625.099C943.176 630.067 943.146 635.036 943.157 640.007Z" fill="#255791"/>
<path d="M1003.87 642.057C1003.29 639.565 1002.71 637.068 1002.14 634.568C997.068 612.119 992.848 589.173 993.482 565.86C993.817 553.822 995.526 541.748 999.086 530.206C1002.44 519.601 1008.14 508.576 1018.42 503.374C1020.76 502.24 1023.28 501.529 1025.84 501.303C1023.32 501.761 1020.91 502.677 1018.74 503.961C1009.25 509.784 1004.54 520.591 1001.72 530.956C998.724 542.381 997.311 554.152 996.981 565.959C996.353 588.79 999.574 611.642 1002.8 634.448C1003.16 636.984 1003.52 639.522 1003.87 642.057Z" fill="#255791"/>
<path d="M1488.27 230.357C1489.6 223.507 1490.94 216.636 1491.44 209.694C1491.56 208.114 1491.63 206.532 1491.65 204.95C1491.94 171.947 1471.11 144.401 1452.63 118.428C1436.16 95.1364 1419.24 69.0677 1419.49 38.9078C1419.56 35.3066 1419.9 31.7061 1420.52 28.1511C1425.4 -0.0166779 1430.19 -28.3012 1434.61 -56.5371C1437.79 -77.3612 1445.55 -98.2095 1460.28 -113.643C1467.05 -120.733 1474.98 -126.404 1482.36 -132.653C1487.67 -137.146 1492.76 -141.995 1496.74 -147.748C1492.95 -141.864 1487.99 -136.819 1482.8 -132.152C1475.58 -125.661 1467.82 -119.765 1461.35 -112.64C1447.31 -97.1453 1440.15 -76.6339 1437.34 -56.1424C1433.35 -27.774 1428.8 0.526215 1423.96 28.7527C1423.37 32.1275 1423.05 35.5452 1422.99 38.971C1422.69 67.6008 1438.89 93.3508 1455 116.756C1473.09 142.923 1493.75 171.547 1492.45 204.973C1492.39 206.57 1492.27 208.164 1492.1 209.753C1491.38 216.729 1489.83 223.555 1488.27 230.357Z" fill="#255791"/>
<path d="M1019.6 651.035C1026.92 645.894 1031.89 638.129 1035.12 629.94C1040.76 615.643 1042.42 600.197 1047.09 585.418C1056.97 554.45 1080.58 530.836 1103.03 508.686C1117.83 494.129 1132.99 479.219 1151.68 469.129C1162.36 463.381 1174.14 459.456 1186.34 458.456C1195.34 457.721 1204.59 458.698 1213.14 461.855L1214.99 462.528L1214.09 464.279C1203.74 483.834 1182.78 492.359 1165.32 502.495C1121.85 527.455 1087.98 568.551 1070.86 615.931C1067.85 624.273 1065.36 632.811 1063.43 641.483C1065.13 632.763 1067.41 624.15 1070.23 615.713C1086.27 567.782 1119.81 525.535 1163.76 499.801C1181.41 489.436 1201.61 480.781 1211.01 462.685L1211.95 465.109C1203.91 462.168 1195.2 461.245 1186.62 461.945C1175 462.895 1163.64 466.639 1153.31 472.156C1135.16 481.864 1120.08 496.431 1105.14 510.851C1082.48 532.78 1058.94 555.691 1048.66 585.933C1043.77 600.406 1041.76 615.91 1035.73 630.194C1032.28 638.378 1027.05 646.093 1019.6 651.035Z" fill="#255791"/>
<path d="M1690.77 344.627C1690.77 344.627 1690.77 344.627 1690.77 344.627C1691.58 346.628 1692.22 348.714 1692.67 350.847C1695.88 366.717 1689.19 382.908 1680.37 395.952C1678.26 399.053 1675.96 402.057 1673.39 404.852C1667.74 411.024 1660.34 416.438 1651.64 417.691C1639.64 419.324 1629.2 413.658 1618.32 411.698C1616.21 411.309 1614.07 411.048 1611.91 410.996C1614.06 410.814 1616.24 410.854 1618.41 411.039C1629.62 412.007 1640.56 416.746 1651.15 414.74C1658.84 413.307 1665.44 408.344 1670.81 402.483C1673.24 399.837 1675.48 396.979 1677.58 394.014C1686.35 381.472 1693.59 366.681 1692.01 350.952C1691.78 348.823 1691.36 346.705 1690.77 344.627Z" fill="#255791"/>
<path d="M1533.04 402.352C1531.26 402.468 1529.49 402.659 1527.73 402.927C1514.74 404.84 1502.53 411.382 1495.19 421.789C1493.69 423.899 1492.59 426.338 1491.89 428.894C1487.77 443.821 1496.76 459.656 1509.64 468.825C1511.05 469.88 1512.52 470.883 1514.05 471.852C1512.4 471.087 1510.82 470.271 1509.27 469.381C1495.31 461.858 1483.83 445.043 1488.52 427.964C1489.32 425.052 1490.6 422.242 1492.43 419.778C1500.67 408.585 1514.42 402.605 1527.67 402.264C1529.47 402.204 1531.26 402.235 1533.04 402.352Z" fill="#255791"/>
<path d="M1565.27 520.641C1560.76 516.08 1556.01 511.764 1551.05 507.708C1528.1 488.928 1500.73 475.719 1471.88 469.665C1452.69 465.638 1432.98 464.718 1413.29 463.74C1405 463.332 1396.73 462.921 1388.47 462.709C1368.28 462.189 1347.94 462.87 1328.43 467.787C1292.24 476.886 1261.32 499.779 1232.57 523.416C1227.62 527.491 1222.7 531.614 1217.79 535.738C1217.79 535.738 1217.79 535.738 1217.79 535.738C1222.55 531.438 1227.32 527.147 1232.14 522.909C1260.1 498.357 1290.72 474.502 1327.65 464.737C1347.54 459.48 1368.23 458.687 1388.56 459.21C1396.88 459.423 1405.18 459.856 1413.47 460.303C1433.15 461.376 1453.05 462.499 1472.48 466.898C1501.7 473.512 1529.07 487.604 1551.48 507.2C1556.32 511.431 1560.93 515.919 1565.27 520.641Z" fill="#255791"/>
<path d="M1545.71 400.202C1545.71 400.202 1545.71 400.202 1545.71 400.202C1552.13 398.758 1558.56 397.293 1564.95 395.675C1589.24 389.533 1614.06 380.831 1631.61 362.796C1641.47 352.706 1648.56 340.244 1654.6 327.43C1662.96 309.671 1669.38 291.012 1673.81 271.897C1683.17 231.537 1683.73 189.097 1674.96 148.485C1671.18 131.553 1665.13 114.246 1652.49 101.901C1647.77 97.3719 1642.04 93.8316 1635.71 91.9314C1642.1 93.6049 1648.01 96.9749 1652.94 101.412C1666.16 113.526 1672.8 130.962 1677.01 148.018C1686.77 188.746 1686.71 231.818 1677.22 272.688C1672.73 292.045 1666.13 310.92 1657.47 328.803C1651.22 341.701 1643.79 354.38 1633.43 364.606C1614.95 382.872 1589.59 390.939 1565.1 396.322C1558.66 397.738 1552.18 398.986 1545.71 400.202Z" fill="#255791"/>
<path d="M1676.2 116.589C1675.36 113.832 1674.5 111.081 1673.61 108.346C1667.48 89.6378 1659.02 69.3132 1641.01 60.9606C1635.96 58.604 1630.42 57.378 1624.77 56.6668C1613.17 55.1824 1600.89 55.7849 1589.09 52.0848C1575.32 47.7278 1563.95 37.2619 1558.09 24.4671C1556.89 21.8304 1555.91 19.0951 1555.2 16.3023C1556.14 19.0284 1557.31 21.66 1558.69 24.1686C1565.38 36.3343 1576.85 45.6486 1589.92 49.3075C1601.15 52.4451 1613.16 51.6819 1625.21 53.1945C1631.06 53.9316 1637 55.2738 1642.45 57.9282C1661.96 67.5292 1669.48 89.1262 1674.25 108.163C1674.94 110.963 1675.58 113.773 1676.2 116.589Z" fill="#255791"/>
<path d="M1635.37 139.257C1637.26 143.349 1639.04 147.5 1640.68 151.705C1648.44 171.57 1653.29 192.904 1652.77 214.499C1652.3 233.925 1647.33 253.463 1637.25 270.296C1633.82 276.026 1629.78 281.413 1625.18 286.278C1616.84 295.101 1606.95 302.027 1597.21 308.8C1579.06 321.432 1560.82 333.951 1542.5 346.349C1538.77 348.876 1535.03 351.397 1531.29 353.914C1534.89 351.207 1538.5 348.505 1542.12 345.807C1559.84 332.569 1577.64 319.44 1595.52 306.426C1605.12 299.45 1614.73 292.488 1622.68 283.935C1627.07 279.222 1630.94 274.025 1634.25 268.495C1643.98 252.258 1649.03 233.376 1649.91 214.4C1650.89 193.288 1646.87 172.082 1640.06 151.933C1638.62 147.668 1637.05 143.442 1635.37 139.257Z" fill="#255791"/>
<path d="M1545.95 287.777C1545.95 287.777 1545.95 287.777 1545.95 287.777C1550.48 284.896 1554.75 281.639 1558.72 278.063C1591.47 248.005 1601.8 201.419 1600.86 158.469C1600.74 154.151 1600.48 149.837 1600.05 145.551C1598.19 127.008 1592.74 107.714 1578.78 95.1704C1568.54 85.8512 1553.85 80.8418 1545.37 68.3205C1536.73 55.0803 1538.28 39.1744 1535.74 24.7048C1534.86 19.4477 1533.45 14.2258 1530.92 9.48364C1530.92 9.48364 1530.92 9.48364 1530.92 9.48364C1533.65 14.1105 1535.3 19.3212 1536.4 24.5809C1539.47 39.0757 1538.66 55.0066 1547.14 67.1078C1555.31 78.6278 1569.71 83.2329 1580.81 92.8829C1595.88 106.028 1601.63 126.266 1603.53 145.198C1603.98 149.586 1604.23 153.987 1604.33 158.379C1605.21 201.979 1593.42 249.564 1559.15 278.566C1555.02 282.007 1550.6 285.095 1545.95 287.777Z" fill="#255791"/>
<path d="M1553.58 137.284C1553.58 137.284 1553.58 137.284 1553.58 137.284C1554.64 139.194 1555.63 141.137 1556.57 143.113C1565 160.907 1568.46 181.146 1566.9 200.933C1565.37 220.721 1558.81 240.179 1547.7 256.439C1546.46 258.245 1545.18 260.009 1543.84 261.73C1543.84 261.73 1543.84 261.73 1543.84 261.73C1544.99 259.875 1546.08 257.996 1547.13 256.091C1556.55 238.936 1561.9 219.921 1563.42 200.66C1564.91 181.398 1562.58 161.783 1555.95 143.369C1555.22 141.323 1554.43 139.296 1553.58 137.284Z" fill="#255791"/>
<path d="M1489.28 377.509C1488.63 378.918 1487.94 380.293 1487.19 381.654C1480.48 393.947 1469.62 403.751 1457.7 411.025C1445.73 418.356 1432.69 423.479 1419.52 427.803C1418.06 428.283 1416.58 428.755 1415.12 429.216C1416.5 428.538 1417.89 427.86 1419.27 427.187C1431.74 421.111 1444.21 415.187 1455.87 408.042C1467.5 400.908 1478.39 392.419 1486.63 381.295C1487.55 380.06 1488.43 378.805 1489.28 377.509Z" fill="#255791"/>
<path d="M1363.61 372.026C1363.41 371.995 1363.21 371.936 1363.07 371.782C1362.93 371.628 1362.92 371.391 1362.98 371.201C1363.11 370.81 1363.39 370.499 1363.71 370.248C1364.03 370.001 1364.4 369.802 1364.83 369.768C1365.26 369.718 1365.71 369.979 1365.91 370.368C1366.98 372.472 1365.1 374.486 1363.61 375.712C1363.04 376.175 1362.46 376.627 1361.87 377.069C1340.46 393.111 1311.67 393.731 1286.13 389.847C1273.25 387.87 1260.62 384.885 1247.97 382.371C1234.46 379.682 1220.83 377.518 1207.16 377.744C1182.35 378.147 1157.68 386.695 1137.58 401.696C1134.12 404.281 1130.79 407.059 1127.63 410.019C1130.63 406.893 1133.82 403.939 1137.17 401.173C1156.63 385.113 1181.57 375.446 1207.08 374.603C1221.12 374.129 1235.05 376.232 1248.65 378.938C1261.39 381.472 1273.95 384.545 1286.64 386.7C1311.77 390.893 1339.61 391.279 1361.49 376.528C1362.09 376.12 1362.68 375.701 1363.27 375.269C1364.76 374.166 1366.56 372.368 1365.69 370.485C1365.39 369.745 1364.38 369.895 1363.78 370.349C1363.47 370.572 1363.18 370.86 1363.04 371.221C1362.98 371.397 1362.97 371.61 1363.1 371.762C1363.22 371.913 1363.41 371.985 1363.61 372.026Z" fill="#255791"/>
<path d="M1280.94 437.231C1279.74 437.791 1278.55 438.365 1277.37 438.952C1266.76 444.243 1256.87 450.601 1247.72 457.871C1238.57 465.145 1230.14 473.337 1222.58 482.471C1221.73 483.486 1220.91 484.513 1220.09 485.552C1220.71 484.385 1221.36 483.231 1222.03 482.089C1228.08 471.81 1236.13 462.606 1245.54 455.13C1254.95 447.649 1265.74 441.89 1277.12 438.335C1278.39 437.94 1279.66 437.572 1280.94 437.231Z" fill="#255791"/>
<path d="M1621.53 871.852C1621.53 871.852 1621.53 871.852 1621.53 871.852C1626.81 864.305 1631.27 857.155 1635.59 849.19C1679.83 778.212 1644.46 687.272 1583.27 638.418C1553.79 612.802 1520.24 591.178 1484.07 576.802C1461.05 568.156 1437.93 559.424 1413.67 555.514C1398.19 553.032 1382.27 552.608 1366.79 555.419C1358.1 556.999 1349.58 559.629 1341.59 563.462C1341.59 563.462 1341.59 563.462 1341.59 563.462C1349.48 559.42 1357.96 556.562 1366.66 554.766C1382.17 551.568 1398.25 551.647 1413.92 553.857C1438.48 557.338 1461.92 565.791 1485.04 574.166C1521.9 588.323 1555.75 609.885 1585.58 635.791C1647.6 684.875 1682.58 779.449 1636.17 849.513C1631.65 857.401 1626.99 864.441 1621.53 871.852Z" fill="#255791"/>
<path d="M1394.3 534.215C1394.3 534.215 1394.3 534.215 1394.3 534.215C1390.94 532.714 1387.48 531.429 1383.97 530.358C1353.91 521.231 1319.89 527.606 1295.85 547.083C1294.59 548.108 1293.35 549.165 1292.14 550.253C1279.2 561.839 1269.18 576.425 1257.88 590.002C1247.91 601.944 1236.56 613.398 1222.41 620.266C1219.08 621.876 1215.61 623.202 1212.05 624.179C1215.54 622.979 1218.9 621.455 1222.1 619.675C1235.68 612.091 1246.26 600.423 1255.78 588.305C1266.57 574.532 1276.43 559.645 1289.8 547.645C1291.06 546.521 1292.34 545.427 1293.66 544.367C1318.76 524.093 1354.47 518.754 1384.18 529.727C1387.65 531.006 1391.04 532.504 1394.3 534.215Z" fill="#255791"/>
<path d="M1720.51 563.416C1717.21 565.519 1713.81 567.481 1710.34 569.295C1686.57 581.708 1659 587.186 1632.05 584.538C1623.53 583.703 1615.12 582.091 1606.86 579.93C1572.39 570.843 1541.62 553.026 1508.55 541.128C1504.87 539.805 1501.17 538.555 1497.43 537.4C1501.23 538.33 1505.01 539.37 1508.76 540.497C1542.57 550.661 1573.94 567.661 1607.75 576.544C1615.86 578.667 1624.09 580.297 1632.4 581.219C1658.67 584.131 1685.76 579.751 1710.04 568.697C1713.6 567.08 1717.09 565.319 1720.51 563.416Z" fill="#255791"/>
<path d="M1520.94 569.318C1519.27 568.711 1517.59 568.143 1515.9 567.593C1509.11 565.385 1502.2 563.464 1495.58 560.431C1487.38 556.645 1480.07 551.335 1473.01 546.02C1472.98 545.999 1472.96 545.978 1472.93 545.957C1460.19 536.357 1447.73 526.377 1435.55 516.032C1434.19 514.88 1432.84 513.724 1431.49 512.563C1432.98 513.537 1434.47 514.517 1435.95 515.501C1449.27 524.339 1462.29 533.566 1475.03 543.161C1475.06 543.183 1475.09 543.204 1475.12 543.225C1482.18 548.544 1489.11 553.921 1496.76 558.076C1502.93 561.415 1509.63 563.971 1516.14 566.974C1517.76 567.722 1519.36 568.497 1520.94 569.318Z" fill="#255791"/>
<path d="M1432.02 588.455C1429.34 588.162 1426.69 587.664 1424.06 587.073C1420.59 586.294 1417.16 585.355 1413.73 584.501C1400.71 581.261 1387.28 579.18 1374.14 580.707C1367.23 581.52 1360.45 583.388 1354.24 586.413C1348.69 589.115 1343.62 592.777 1339.54 597.368C1335.43 601.965 1332.17 607.728 1327.1 612.194C1317.92 620.209 1305.49 621.427 1294.26 621.335C1291.57 621.31 1288.88 621.205 1286.2 621.073C1286.2 621.073 1286.2 621.073 1286.2 621.073C1288.88 620.971 1291.57 620.855 1294.24 620.67C1305.44 619.911 1317.3 617.838 1325.28 610.194C1329.73 605.964 1332.74 600.267 1337.05 595.199C1341.35 590.149 1346.79 586.146 1352.71 583.267C1359.33 580.042 1366.53 578.158 1373.8 577.472C1387.6 576.198 1401.27 578.996 1414.13 583.121C1417.52 584.209 1420.85 585.389 1424.23 586.431C1426.79 587.22 1429.38 587.931 1432.02 588.455Z" fill="#255791"/>
<path d="M1863.21 599.994C1858.84 603.483 1853.09 604.768 1847.56 604.918C1846.24 604.955 1844.93 604.931 1843.61 604.856C1816.05 603.172 1793.96 583.678 1775.66 564.743C1760.58 549.11 1746.1 532.494 1727.43 521.882C1723.18 519.482 1718.75 517.438 1714.15 515.851C1690.54 507.728 1664.76 512.111 1639.49 510.169C1620 508.495 1599.42 501.785 1587.03 485.974C1583.66 481.534 1581.22 476.396 1580.04 470.982C1581.45 476.342 1584.07 481.323 1587.55 485.563C1600.3 500.614 1620.59 506.511 1639.65 507.717C1664.52 509.11 1690.43 504.208 1715.28 512.567C1720.1 514.211 1724.73 516.341 1729.15 518.835C1748.56 529.892 1763.04 546.906 1777.81 562.709C1795.72 581.823 1816.64 601.37 1843.68 604.047C1844.96 604.168 1846.26 604.241 1847.55 604.253C1853 604.308 1858.7 603.291 1863.21 599.994Z" fill="#255791"/>
</g>
</svg>
