<svg width="1440" height="773" viewBox="0 0 1440 773" fill="none" xmlns="http://www.w3.org/2000/svg">
<mask id="mask0_769_7663" style="mask-type:alpha" maskUnits="userSpaceOnUse" x="0" y="0" width="1440" height="773">
<rect width="1440" height="772.943" fill="#D9D9D9"/>
</mask>
<g mask="url(#mask0_769_7663)">
<path d="M54.2798 -37.8686C57.2779 -9.59358 56.3574 20.6756 41.7315 45.8764C37.7946 52.9857 33.1608 59.662 28.6265 66.3677C-3.06039 106.147 -48.2017 131.368 -89.733 159.39C-155.142 199.711 -187.121 274.797 -203.334 347.452C-209.59 374.991 -218.34 401.691 -229.38 427.626C-239.908 452.892 -254.729 480.685 -240.71 506.454C-220.461 551.843 -151.772 584.895 -175.627 643.851C-181.842 658.013 -193.861 669.231 -207.736 675.591C-249.367 693.33 -295.316 685.59 -337.706 677.362C-383.848 667.668 -426.217 646.663 -471.17 634.622C-520.394 621.434 -571.788 619.15 -622.724 618.549C-694.872 617.77 -770.25 620.656 -835.161 654.766C-873.653 675.224 -905.921 708.272 -923.445 748.441C-934.84 774.621 -939.042 804.362 -932.66 832.426C-939.273 804.416 -935.307 774.55 -924.056 748.18C-906.754 707.718 -874.56 674.26 -835.886 653.4C-770.752 618.667 -694.937 615.412 -622.699 615.901C-571.704 616.301 -520.065 618.4 -470.358 631.576C-424.972 643.63 -382.594 664.519 -337.007 674.016C-294.914 682.205 -249.16 689.542 -209.227 672.424C-195.935 666.311 -184.71 655.805 -178.807 642.412C-155.793 587.706 -222.101 554.76 -243.723 507.808C-258.389 480.727 -242.64 451.169 -232.245 426.42C-221.183 400.626 -212.428 374.188 -206.106 346.811C-189.607 273.958 -156.916 198.146 -90.7074 157.872C-49.0616 130.132 -3.7381 105.102 27.9319 65.8949C32.5187 59.2146 37.1834 52.5948 41.1512 45.5516C55.8716 20.6262 57.0518 -9.56005 54.2798 -37.8686Z" fill="#255791"/>
<path d="M154.28 877.631C147.861 885.157 139.059 890.517 129.565 893.347C97.4254 902.147 63.2622 890.083 36.5888 871.591C19.0741 859.269 0.284286 847.356 -20.8764 844.441C-42.096 841.236 -63.0018 850.642 -79.1177 864.452C-89.6436 873.243 -103.695 875.592 -116.647 875.525C-190.13 869.632 -255.575 829.646 -309.85 782.712C-321.956 771.367 -332.383 758.498 -344.64 747.466C-351.945 740.889 -359.982 734.995 -369.002 730.952C-359.889 734.779 -351.677 740.518 -344.201 746.966C-331.658 757.785 -320.945 770.489 -308.752 781.519C-254.135 827.229 -188.144 866.372 -116.626 872.025C-104.091 872.103 -90.8811 869.778 -81.3227 861.811C-64.8158 847.707 -42.6678 837.829 -20.4598 841.398C1.63406 844.661 20.519 857.065 37.971 869.671C63.9551 888.204 97.4463 900.731 129.379 892.709C138.827 890.109 147.682 885.003 154.28 877.631Z" fill="#255791"/>
<path d="M167.929 180.306C167.929 180.306 167.929 180.306 167.929 180.306C171.403 167.477 164.042 154.11 153.779 146.659C149.806 143.772 145.38 141.548 140.774 139.86C133.043 137.033 124.859 135.652 116.671 134.834C40.6432 127.418 -32.007 165.238 -87.4603 214.713C-144.596 265.912 -189.797 333.457 -203.492 409.491C-205.025 418.073 -206.14 426.729 -206.813 435.422C-213.39 520.048 -172.366 610.553 -95.879 650.988C-37.1662 682.135 34.6247 680.323 96.5261 658.062C113.346 652.032 129.639 644.466 145.089 635.454C145.089 635.454 145.089 635.454 145.089 635.454C129.757 644.667 113.54 652.445 96.7541 658.687C34.9925 681.716 -37.3051 684.364 -97.0497 653.218C-174.917 612.728 -216.923 521.063 -210.294 435.154C-209.618 426.342 -208.491 417.57 -206.938 408.876C-193.051 331.829 -147.147 263.792 -89.3517 212.586C-33.2604 163.075 40.4059 125.565 116.77 133.891C124.994 134.805 133.23 136.289 141.006 139.237C145.64 140.996 150.089 143.299 154.068 146.266C164.372 153.934 171.578 167.518 167.929 180.306Z" fill="#255791"/>
<path d="M91.6453 596.544C86.3726 598.775 80.9865 600.752 75.5144 602.47C44.8318 612.101 11.4747 613.623 -20.1245 606.559C-34.0788 603.448 -47.6465 598.708 -60.6242 592.752C-65.4306 590.548 -70.1599 588.17 -74.7931 585.614C-97.8716 572.89 -118.818 555.601 -133.896 533.809C-148.428 512.801 -157.149 487.534 -156.946 462.059C-156.898 456.317 -156.391 450.586 -155.404 444.944C-156.16 450.621 -156.442 456.347 -156.281 462.052C-155.546 487.354 -146.251 511.889 -131.635 532.213C-116.451 553.301 -95.806 570.026 -73.1027 582.55C-68.5455 585.063 -63.896 587.413 -59.1713 589.601C-46.4081 595.515 -33.1092 600.292 -19.4288 603.541C11.5362 610.908 44.423 610.292 75.3268 601.832C80.8384 600.321 86.2861 598.559 91.6453 596.544Z" fill="#255791"/>
<path d="M266.323 56.8947C259.942 59.7641 253.748 63.0183 247.955 66.8668C237.199 73.9889 227.46 83.6624 223.728 96.0198C221.436 103.485 221.399 111.409 221.53 119.317C221.271 126.812 223.244 136.813 215.014 142.355C210.216 145.161 204.583 144.382 199.915 143.029C187.451 139.898 186.696 124.583 177.714 121.168C160.844 114.24 142.19 121.072 123.623 122.359C119.397 122.664 115.108 122.701 110.83 122.222C85.5733 119.37 64.1051 96.1373 65.081 70.5025C65.5075 60.9695 68.6802 52.0392 71.7486 43.3895C80.5994 19.7806 91.0069 -3.02698 98.423 -27.0276C100.54 -33.6983 102.486 -40.3682 104.284 -47.1386C102.713 -40.3121 100.979 -33.5775 99.0598 -26.8359C92.3683 -2.61109 82.4285 20.6683 74.0908 44.198C71.1716 52.8977 68.2629 61.6535 67.9947 70.6108C67.3343 94.4486 87.8372 116.239 111.214 118.755C115.218 119.196 119.292 119.162 123.371 118.868C141.283 117.744 160.467 110.53 178.979 118.17C190.411 123.719 190.293 137.961 200.72 140.252C205.108 141.614 209.948 142.176 213.662 140.049C219.958 136.353 219.071 126.909 219.288 119.325C219.318 111.407 219.516 103.22 222.091 95.4961C226.311 82.69 236.572 73.1475 247.595 66.3076C253.541 62.6105 259.85 59.5501 266.323 56.8947Z" fill="#255791"/>
<path d="M518.264 479.184C524.008 480.292 529.755 481.39 535.499 482.499L535.654 482.529L535.542 482.64C522.578 495.681 505.622 504.054 488.082 509.128C437.207 523.832 380.45 516.692 334.536 544.878C279.409 580.215 270.772 651.944 267.268 712.91C263.703 774.144 259.709 845.828 207.539 887.652C184.569 905.717 156.071 914.111 128.221 920.119C118.976 922.105 109.675 923.852 100.33 925.324C58.3916 931.932 15.1317 933.024 -26.6985 924.455C-72.7709 915 -115.219 894.452 -160.148 882.679C-226.839 862.973 -308.862 860.917 -356.536 919.111C-392.838 964.028 -384.864 1028.52 -375.732 1083.04C-370.759 1106.49 -364.471 1130.39 -351.222 1150.63C-364.673 1130.51 -371.198 1106.62 -376.384 1083.17C-385.886 1028.53 -394.927 964.378 -357.905 917.711C-310.476 858.709 -226.101 860.078 -159.386 879.753C-114.035 891.483 -71.557 911.889 -26.0208 921.131C15.316 929.527 58.1492 928.428 99.785 921.867C109.063 920.406 118.301 918.672 127.488 916.703C155.162 910.753 183.143 902.458 205.427 884.97C256.092 844.666 260.653 773.994 264.386 712.752C268.166 651.677 277.118 579.001 333.537 543.285C380.492 514.993 437.096 522.746 487.898 508.489C505.412 503.585 522.36 495.413 535.424 482.521L535.467 482.663C529.733 481.5 523.997 480.348 518.264 479.184Z" fill="#255791"/>
<path d="M558.448 502.291C560.417 501.58 562.368 500.832 564.302 500.046C581.702 492.965 597.643 482.905 611.533 470.569C625.413 458.224 637.279 443.569 646.181 427.024C647.169 425.186 648.12 423.325 649.032 421.441C648.335 423.415 647.585 425.372 646.782 427.309C639.558 444.762 628.083 460.553 613.858 473.185C599.64 485.83 582.638 495.359 564.521 500.674C562.508 501.265 560.484 501.804 558.448 502.291Z" fill="#255791"/>
<path d="M109.813 620.048C107.545 622.358 105.103 624.504 102.521 626.477C80.7593 642.876 52.5331 646.329 26.262 648.832C23.8365 649.055 21.4013 649.269 18.9664 649.467C-9.78737 651.731 -40.826 652.335 -66.9597 638.228C-69.8094 636.673 -72.5596 634.949 -75.1906 633.058C-72.4303 634.755 -69.5814 636.278 -66.6601 637.635C-39.9809 649.845 -10.015 648.198 18.6833 645.978C21.106 645.782 23.5325 645.575 25.9526 645.366C52.2346 642.975 79.6464 640.673 102.135 625.936C104.814 624.151 107.384 622.188 109.813 620.048Z" fill="#255791"/>
<path d="M155.197 549.48C152.562 553.103 148.788 555.83 144.68 557.659C137.165 560.98 128.869 561.833 120.79 562.319C99.0103 563.557 76.8343 563.572 55.2495 558.737C45.1529 556.477 35.2628 553.348 25.6678 549.51C-12.0459 534.361 -44.4865 509.022 -73.2363 481.091C-76.4342 477.979 -79.6012 474.817 -82.7207 471.631C-79.4388 474.65 -76.1209 477.649 -72.7839 480.604C-42.7643 507.137 -10.1136 531.371 26.9676 546.26C36.4091 550.037 46.1027 553.167 55.9939 555.506C77.0443 560.493 98.9635 561.049 120.725 560.628C128.753 560.447 136.909 559.952 144.422 557.046C148.531 555.442 152.373 552.96 155.197 549.48Z" fill="#255791"/>
<path d="M125.975 186.356C125.975 186.356 125.975 186.356 125.975 186.356C124.13 186.143 122.285 185.972 120.438 185.842C103.819 184.687 87.2404 186.849 71.5703 191.784C55.9069 196.736 41.085 204.482 28.2177 215.065C26.7893 216.241 25.386 217.452 24.0097 218.699C24.0097 218.699 24.0097 218.699 24.0097 218.699C25.2188 217.29 26.472 215.915 27.7666 214.576C39.4232 202.514 54.3831 193.528 70.5171 188.446C86.6485 183.348 104.035 182.122 120.522 185.183C122.353 185.522 124.171 185.913 125.975 186.356Z" fill="#255791"/>
<path d="M55.6062 157.683C53.7295 158.229 51.8611 158.795 50 159.38C33.2524 164.644 17.1334 171.441 1.76636 179.639C-13.5983 187.842 -28.2169 197.449 -41.875 208.479C-43.3922 209.705 -44.8977 210.948 -46.3903 212.209C-45.0586 210.779 -43.7013 209.371 -42.3201 207.985C-29.8884 195.509 -15.4941 184.881 0.118446 176.552C15.729 168.218 32.5644 162.177 49.8351 158.735C51.7541 158.353 53.6778 158.002 55.6062 157.683Z" fill="#255791"/>
<path d="M411.858 493.588C395.565 497.142 379.272 500.692 362.976 504.235C354.637 506.048 346.298 507.86 337.958 509.67C319.906 513.59 301.629 517.563 285.208 525.975C255.745 541.048 235.003 569.498 224.047 600.272C213.075 631.085 211.027 664.255 211.491 696.891C211.838 729.045 214.568 764.513 195.497 793.166C185.132 808.554 169.563 819.509 153.073 827.139C147.244 829.832 141.227 832.117 135.086 833.988C101.933 844.081 64.505 842.315 33.6936 825.601C9.46912 812.399 -8.74753 791.64 -29.3567 774.543C-59.5209 749.51 -95.5824 731.612 -133.778 722.54C-165.663 715.082 -202.979 714.049 -229.366 735.756C-241.335 745.772 -247.768 761.547 -248.007 777.122C-248.508 793.493 -240.32 811.359 -224.265 817.455C-240.411 811.601 -248.98 793.686 -248.672 777.117C-248.623 761.364 -242.336 745.257 -230.158 734.817C-203.483 712.383 -165.548 713.114 -133.274 720.376C-94.6666 729.202 -58.0936 747.028 -27.4292 772.209C-6.49945 789.426 11.7131 809.925 35.29 822.654C65.2085 838.785 101.714 840.495 134.066 830.64C140.057 828.815 145.925 826.588 151.608 823.966C167.708 816.532 182.749 805.909 192.657 791.252C210.955 764.026 208.655 729.218 208.401 696.928C208.094 664.134 210.346 630.606 221.712 599.43C233.066 568.275 254.401 539.555 284.488 524.552C301.249 516.189 319.66 512.422 337.756 508.713C346.117 507.002 354.478 505.292 362.839 503.584C379.178 500.246 395.517 496.914 411.858 493.588Z" fill="#255791"/>
<path d="M286.647 561.565C284.498 563.209 282.401 564.914 280.359 566.678C262.613 582.02 248.966 601.73 241.153 623.551C240.88 624.314 240.614 625.08 240.356 625.847C232.657 648.661 231.133 673.134 229.866 697.388C229.726 700.089 229.588 702.791 229.446 705.492C229.355 702.789 229.271 700.084 229.202 697.379C228.585 673.133 229.126 648.224 237.039 624.729C237.305 623.94 237.579 623.154 237.862 622.369C245.946 599.918 260.947 580.134 279.945 566.158C282.128 564.55 284.364 563.017 286.647 561.565Z" fill="#255791"/>
<path d="M191.048 620.291C187.349 623.302 183.86 626.555 180.601 630.017C168.116 643.285 159.018 659.629 154.604 677.133C151.459 689.567 150.639 702.58 147.475 715.374C144.621 726.796 139.633 738.337 130.421 746.485C129.346 747.431 128.219 748.322 127.045 749.15C112.066 759.594 92.0328 758.4 76.428 750.885C66.8479 746.229 58.7552 739.533 50.0596 734.051C38.2758 726.62 25.143 721.268 11.4473 718.243C6.80368 717.218 2.09421 716.461 -2.65085 715.985C2.11183 716.228 6.86617 716.767 11.5763 717.591C25.4685 720.022 38.9846 724.941 51.2155 732.157C60.2338 737.489 68.4579 743.934 77.7016 748.196C92.6698 755.079 111.523 755.806 125.027 746.293C126.097 745.537 127.125 744.723 128.109 743.857C136.53 736.431 141.4 725.587 144.286 714.563C147.517 702.193 148.588 689.142 152.124 676.474C157.104 658.636 166.987 642.333 180.127 629.551C183.556 626.215 187.206 623.117 191.048 620.291Z" fill="#255791"/>
<path d="M85.248 798.834C81.1171 799.268 76.966 799.575 72.7982 799.624C65.8589 799.706 58.8246 799.063 52.0815 797.026C44.1221 794.618 36.8615 790.375 30.1651 785.599C11.7974 772.485 -2.87436 755.237 -17.836 738.859C-29.3595 726.234 -41.2566 713.904 -55.2019 704.189C-71.6392 692.729 -90.57 685.117 -109.891 679.324C-113.866 678.132 -117.866 677.015 -121.882 675.953C-117.813 676.787 -113.755 677.691 -109.716 678.682C-90.0931 683.502 -70.6585 690.46 -53.5698 701.788C-39.0757 711.395 -26.8205 723.825 -15.2514 736.499C-0.213905 752.967 14.0079 770.186 31.6428 783.592C38.0755 788.478 44.9684 792.836 52.581 795.487C59.0305 797.73 65.916 798.693 72.8072 798.959C76.9452 799.12 81.0992 799.036 85.248 798.834Z" fill="#255791"/>
<path d="M242.907 526.294C240.957 526.507 239.019 526.783 237.096 527.121C223.244 529.56 210.145 535.149 199.042 543.36C196.274 545.409 193.616 547.631 190.995 549.926C185.037 555.139 179.249 560.758 172.681 565.556C164.815 571.286 155.543 575.817 145.733 576.178C143.754 576.246 141.778 576.135 139.839 575.832C141.8 575.903 143.753 575.79 145.675 575.516C155.172 574.125 163.572 569.131 170.906 563.243C177.035 558.294 182.618 552.61 188.689 547.292C191.359 544.955 194.126 542.69 197.057 540.616C208.816 532.288 222.867 527.399 237.016 526.46C238.98 526.329 240.946 526.274 242.907 526.294Z" fill="#255791"/>
<path d="M430.77 541.897C431.426 545.925 431.716 550.02 431.656 554.117C431.175 579.643 418.073 603.195 402.258 622.651C394.866 631.695 386.805 640.116 378.701 648.416C366.261 661.159 353.638 673.682 343.022 687.827C331.765 702.809 322.839 719.592 316.701 737.427C315.376 741.276 314.182 745.175 313.123 749.115C313.955 745.121 314.938 741.154 316.067 737.227C321.297 719.028 329.676 701.664 340.736 686.155C351.168 671.51 363.778 658.694 376.197 645.971C384.291 637.681 392.35 629.395 399.783 620.596C415.647 601.669 429.195 579.27 430.992 554.09C431.26 550.039 431.195 545.956 430.77 541.897Z" fill="#255791"/>
<path d="M401.626 553.726C400.719 555.921 399.623 558.046 398.372 560.082C392.755 569.192 384.338 576.295 375.473 582.164C366.39 588.162 356.744 593.056 347.727 598.733C345.852 599.914 344.003 601.128 342.194 602.391C326.803 613.162 314.056 627.795 305.521 644.841C304.463 646.958 303.471 649.112 302.548 651.3C303.251 649.032 304.041 646.787 304.914 644.571C311.938 626.71 324.376 610.825 340.194 599.557C342.05 598.235 343.944 596.979 345.863 595.771C355.095 589.964 364.827 585.3 373.993 579.814C382.936 574.442 391.51 568.156 397.821 559.709C399.228 557.817 400.508 555.821 401.626 553.726Z" fill="#255791"/>
<path d="M292.237 696.592C289.825 702.097 288.035 707.841 286.732 713.683C281.912 735.495 283.552 757.927 282.113 780.264C280.735 801.693 276.479 822.755 272.192 843.641C270.1 853.823 267.97 864.069 264.893 874.117C262.39 882.29 259.24 890.337 255.027 897.865C243.781 917.935 225.982 933.06 207.432 945.685C195.404 953.87 182.435 961.383 168.042 964.657C159.589 966.559 150.739 966.853 142.283 965.061C136.377 963.806 130.678 961.471 125.788 957.972C130.81 961.278 136.541 963.374 142.411 964.408C150.812 965.884 159.486 965.307 167.691 963.206C181.683 959.585 194.199 951.928 205.965 943.573C224.117 930.688 241.308 915.605 252.029 896.199C256.051 888.917 259.094 881.1 261.547 873.091C264.562 863.248 266.71 853.113 268.869 842.947C273.297 822.087 277.8 801.247 279.598 780.077C281.482 758.006 280.469 735.303 286.086 713.527C287.601 707.698 289.613 701.999 292.237 696.592Z" fill="#255791"/>
<path d="M357.7 628.66C356.98 629.909 356.178 631.115 355.307 632.275C347.593 642.435 335.873 648.307 326.461 655.88C326.099 656.171 325.738 656.466 325.38 656.763C315.699 664.822 307.848 675.128 302.686 686.94C302.113 688.253 301.575 689.585 301.073 690.935C301.351 689.522 301.679 688.116 302.058 686.72C305.458 674.149 312.953 662.523 323.143 654.071C323.519 653.759 323.899 653.45 324.283 653.146C334.294 645.224 345.935 640.55 354.805 631.838C355.819 630.833 356.788 629.776 357.7 628.66Z" fill="#255791"/>
<path d="M530.034 510.904C529.793 510.546 530.149 510.09 530.519 509.957C530.887 509.802 531.404 509.784 531.741 510.158C532.335 510.829 532.048 511.822 531.588 512.44C531.519 512.534 531.444 512.625 531.362 512.71C522.279 522.357 512.235 531.131 501.443 538.859C490.568 546.648 478.933 553.375 466.779 558.901C465.429 559.515 464.072 560.115 462.709 560.699C462.709 560.699 462.709 560.699 462.709 560.699C463.964 559.908 465.214 559.114 466.462 558.317C477.689 551.142 488.647 543.717 499.405 536.013C510.08 528.368 520.557 520.448 530.881 512.19C530.949 512.137 531.015 512.078 531.077 512.015C531.504 511.582 531.805 510.892 531.464 510.376C531.192 509.864 529.795 510.047 530.034 510.904Z" fill="#255791"/>
<path d="M939.282 405.902C939.723 407.974 940.303 410.021 940.983 412.037C944.703 423.018 951.178 432.833 954.77 443.473C957.143 450.452 958.299 457.788 958.486 465.165C958.916 483.869 953.712 502.378 948.371 520.599C947.772 522.627 947.166 524.66 946.564 526.686C947.386 524.738 948.201 522.78 948.998 520.819C956.105 503.235 962.413 484.636 961.984 465.074C961.792 457.38 960.42 449.65 957.643 442.435C953.396 431.4 946.322 422.226 941.602 411.793C940.734 409.874 939.948 407.913 939.282 405.902Z" fill="#255791"/>
<path d="M910.96 579.445C910.96 579.445 910.96 579.445 910.96 579.445C906.124 582.617 901.509 586.166 897.207 590.062C881.628 604.087 868.12 625.193 873.389 647.447C876.992 662.663 888.384 674.534 900.853 682.967C911.02 689.825 922.605 695.076 935.017 696.616C938.694 697.072 942.401 697.2 946.088 697.046C963.932 696.244 980.44 689.352 996.334 682.66C1028.35 669.102 1060.29 655.345 1092.14 641.397C1097.45 639.076 1102.75 636.749 1108.04 634.417C1102.66 636.534 1097.27 638.656 1091.89 640.784C1059.55 653.567 1027.29 666.548 995.109 679.718C979.157 686.225 962.928 692.804 945.942 693.549C942.43 693.695 938.918 693.578 935.441 693.155C923.731 691.736 912.586 686.816 902.652 680.27C890.488 672.238 879.509 661.06 875.833 646.846C870.363 626.104 882.631 605.07 897.663 590.547C901.795 586.522 906.256 582.809 910.96 579.445Z" fill="#255791"/>
<path d="M994.588 485.486C998.309 489.186 999.154 494.734 998.49 499.712C997.878 504.53 996.215 509.162 994.223 513.587C984.777 534.47 973.112 554.294 959.506 572.649C953.114 581.661 943.954 593.478 950.159 606.106C953.85 613.009 961.943 615.811 969.023 615.539C972.463 615.427 975.885 614.68 979.05 613.247C988.832 608.769 995.279 600.156 1001.23 592.206C1012.61 576.985 1024.01 561.721 1038.14 549.12C1048.46 539.907 1060.3 532.176 1073.47 527.625C1078.31 525.959 1083.32 524.741 1088.42 524.073C1088.42 524.073 1088.42 524.073 1088.42 524.073C1083.29 524.509 1078.21 525.513 1073.27 526.992C1059.81 531.032 1047.5 538.459 1036.75 547.519C1022.04 559.904 1010.18 575.147 998.626 590.236C992.604 598.127 986.335 606.145 977.613 610.071C974.905 611.289 971.909 611.945 968.913 612.041C962.677 612.28 956.035 609.807 953.183 604.467C948.007 594.792 955.593 583.464 961.973 574.447C975.412 555.688 986.646 535.375 995.356 514.075C997.215 509.509 998.727 504.728 999.151 499.779C999.632 494.668 998.482 489.003 994.588 485.486Z" fill="#255791"/>
<path d="M927.993 551.883C928.646 554.524 929.206 557.183 929.674 559.855C933.416 581.24 931.334 603.376 923.761 623.416C922.806 625.942 921.84 628.512 921.036 631.171C919.136 637.423 917.67 645.829 923.086 651.729C925.536 654.392 928.743 655.826 931.797 656.873C946.251 661.752 962.655 658.92 974.651 650.253C976.871 648.648 978.937 646.842 980.8 644.859C980.8 644.859 980.8 644.859 980.8 644.859C978.774 646.675 976.586 648.291 974.282 649.7C961.834 657.286 946.12 658.954 932.819 654.003C929.994 652.946 927.326 651.583 925.537 649.533C921.548 645.12 922.528 638.24 924.387 632.184C925.147 629.666 926.073 627.162 927.007 624.628C934.664 603.887 935.758 580.871 930.324 559.714C929.647 557.072 928.87 554.459 927.993 551.883Z" fill="#255791"/>
<path d="M864.354 353.179C922.888 393.269 933.428 486.261 885.24 538.132C882.527 541.042 879.68 543.838 876.755 546.554C850.429 571.823 810.627 591.758 807.348 632.246C806.169 653.131 817.376 672.396 831.049 687.279C888.766 748.938 984.437 749.39 1059.99 724.243C1137.73 698.053 1204.46 648.941 1278.61 615.605C1312.87 600.193 1348.55 588.206 1384.2 576.234C1411.73 566.989 1439.35 557.73 1467.89 552.75C1548.15 538.809 1631.34 559.883 1701.78 599.285C1782.64 644.669 1855.17 723.091 1859.58 818.986C1863.38 913.006 1796.93 998.957 1713.29 1037.01C1689.88 1047.66 1664.57 1055.29 1638.87 1054.55C1620.94 1054.03 1603.33 1049.46 1585.72 1045.13C1551.85 1036.8 1517.76 1029.38 1483.49 1022.9C1455.64 1017.65 1427.27 1013.06 1398.64 1014.54C1383.83 1015.31 1369.02 1017.83 1354.95 1022.78C1320.39 1034.93 1291.66 1060.76 1255.54 1064.06C1205.74 1068.24 1162.78 1023.94 1154.21 976.632C1145.45 927.767 1164.98 878.518 1191.47 837.565C1262.21 728.559 1396.44 657.241 1526.81 678.833C1573.41 686.657 1619.52 706.606 1651.3 742.153C1682.33 776.895 1697.39 828.327 1681.33 872.926C1673.87 893.619 1660.41 911.671 1645.22 927.589C1635.83 937.421 1625.31 946.781 1612.39 950.836C1363.2 980.615 1111.87 1006.24 861.301 1030.68C787.816 1036.95 713.382 1046.82 640.866 1046.82C713.395 1047.06 787.858 1037.41 861.363 1031.35C1112.16 1007.59 1362.91 982.672 1613.11 953.134C1626.71 948.88 1637.51 939.208 1647.02 929.302C1662.37 913.261 1676.09 894.975 1683.76 873.806C1700.27 828.096 1684.95 775.748 1653.39 740.287C1621.09 704.066 1574.39 683.852 1527.31 675.882C1395.52 653.94 1260.17 725.749 1188.66 835.74C1161.91 877.065 1141.89 927.028 1150.83 977.242C1159.73 1026.03 1203.6 1071.73 1255.85 1067.53C1293.53 1063.96 1322.39 1037.8 1356.11 1026.08C1369.81 1021.26 1384.28 1018.79 1398.82 1018.03C1426.94 1016.58 1455.07 1021.1 1482.84 1026.33C1517.05 1032.8 1551.08 1040.19 1584.89 1048.51C1602.47 1052.82 1620.31 1057.47 1638.77 1058.01C1665.23 1058.76 1691.02 1050.91 1714.71 1040.13C1799.42 1001.51 1866.71 914.566 1862.82 818.847C1858.18 721.272 1784.68 642.343 1703.22 596.719C1632.26 557.15 1548.43 536.005 1467.45 550.201C1438.65 555.273 1410.94 564.629 1383.42 573.919C1347.79 585.954 1312.05 598.029 1277.69 613.566C1203.32 647.19 1136.78 696.369 1059.44 722.603C984.343 747.794 889.24 747.504 831.886 686.506C818.289 671.789 807.214 652.78 808.324 632.302C811.34 592.573 850.826 572.424 877.209 547.041C880.135 544.308 882.984 541.493 885.702 538.562C934.014 486.211 923.014 393.081 864.354 353.179Z" fill="#255791"/>
<path d="M788.084 735.721C782.824 733.994 777.666 731.964 772.687 729.575C757.577 722.357 743.377 711.21 737.321 695.571C726.992 668.527 742.816 639.385 762.377 620.204C765.429 617.229 768.608 614.377 771.869 611.61C790.358 595.905 811.588 582.934 828.353 564.594C845.641 545.634 856.962 521.487 860.649 496.322C861.455 490.828 861.897 485.288 861.962 479.75C861.664 485.28 861.001 490.782 859.993 496.213C855.373 521.088 843.531 544.454 826.289 562.677C809.575 580.317 788.405 592.997 769.604 608.941C766.293 611.751 763.056 614.664 759.944 617.716C739.889 637.48 723.66 668.128 735.221 696.422C742.017 712.673 756.973 723.5 772.411 730.179C777.507 732.391 782.755 734.217 788.084 735.721Z" fill="#255791"/>
<path d="M772.59 686.308C773.361 687.433 774.157 688.543 774.975 689.637C782.342 699.491 791.608 708.027 802.063 714.68C812.515 721.34 824.165 726.124 836.202 728.661C837.539 728.943 838.881 729.198 840.226 729.425C838.939 728.972 837.66 728.504 836.389 728.023C824.948 723.683 814.124 718.206 803.943 711.728C793.766 705.243 784.226 697.752 775.476 689.199C774.504 688.249 773.542 687.285 772.59 686.308Z" fill="#255791"/>
<path d="M710.435 685.984C708.043 689.195 706.065 692.724 704.532 696.449C697.139 714.402 700.103 736.737 713.288 751.794C724.771 764.867 741.38 771.383 757.313 776.241C757.881 776.413 758.45 776.584 759.017 776.752C793.144 786.882 828.373 792.09 863.504 796.354C867.477 796.836 871.45 797.306 875.424 797.77C871.484 797.075 867.543 796.386 863.602 795.696C828.729 789.593 793.824 783.469 760.014 773.398C759.453 773.231 758.891 773.062 758.33 772.892C742.558 768.089 726.574 761.955 715.439 749.866C702.709 736.042 698.811 714.766 705.153 696.686C706.471 692.935 708.234 689.329 710.435 685.984Z" fill="#255791"/>
<path d="M1550.55 936.062C1550.55 936.062 1550.55 936.062 1550.55 936.062C1542.97 932.348 1534.58 930.449 1526.15 929.88C1508.5 928.726 1491.08 932.612 1473.9 935.811C1437.46 942.653 1400.37 945.865 1363.34 945.385C1352.34 945.24 1341.22 944.726 1331.21 940.753C1322.18 937.206 1314.43 930.847 1308.4 923.162C1298.16 910.063 1292.25 893.956 1287.91 877.762C1284.48 864.835 1281.76 851.133 1285.83 838.54C1288.86 829.191 1295.42 821.313 1302.17 813.867C1316.69 797.88 1332.76 782.903 1352 772.973C1363.8 766.9 1376.78 762.9 1390.08 761.986C1398.45 761.416 1406.94 762.117 1415.06 764.36C1415.06 764.36 1415.06 764.36 1415.06 764.36C1407 761.893 1398.49 760.957 1390.05 761.322C1376.61 761.908 1363.39 765.648 1351.3 771.563C1331.58 781.226 1315.02 796.148 1300.2 812.051C1293.31 819.467 1286.34 827.511 1282.94 837.589C1278.43 851.189 1281.29 865.533 1284.66 878.614C1288.98 895.065 1294.92 911.583 1305.65 925.33C1311.97 933.387 1320.25 940.199 1329.95 943.962C1340.7 948.179 1352.23 948.585 1363.31 948.665C1400.57 948.89 1437.83 945.167 1474.26 937.602C1491.4 934.065 1508.58 929.837 1526.12 930.544C1534.49 930.901 1542.87 932.561 1550.55 936.062Z" fill="#255791"/>
<path d="M1383.71 727.904C1383.71 727.904 1383.71 727.904 1383.71 727.904C1385.46 727.138 1387.22 726.411 1388.99 725.724C1404.95 719.54 1421.84 716.494 1438.74 716.324C1455.63 716.17 1472.58 718.893 1488.65 724.767C1490.44 725.42 1492.21 726.112 1493.97 726.845C1492.31 725.903 1490.63 725.006 1488.91 724.156C1473.5 716.489 1456.06 712.65 1438.7 712.824C1421.34 712.983 1403.99 717.155 1388.72 725.118C1387.02 726.001 1385.35 726.93 1383.71 727.904Z" fill="#255791"/>
<path d="M981.411 795.436C986.029 798.684 991.121 801.265 996.455 803.186C1010.15 808.098 1025.17 808.774 1039.54 806.41C1059.61 803.08 1078.23 794.254 1095.76 784.472C1110.02 776.524 1123.84 767.843 1137.41 758.847C1179.79 730.786 1219.99 699.496 1265.46 676.753C1270.51 674.231 1275.61 671.823 1280.77 669.539C1275.52 671.607 1270.32 673.816 1265.18 676.152C1218.76 697.246 1177.69 727.981 1135.48 755.93C1121.94 764.898 1108.25 773.614 1094.18 781.679C1076.88 791.604 1058.77 800.603 1039.18 804.394C1025.17 807.082 1010.4 806.909 996.669 802.556C991.319 800.852 986.16 798.49 981.411 795.436Z" fill="#255791"/>
<path d="M1206.74 750.263C1209.04 748.402 1211.38 746.594 1213.74 744.831C1227.07 734.916 1241.34 726.459 1255.54 717.827C1263.63 712.899 1271.7 707.931 1279.73 702.9C1280.16 702.632 1280.59 702.362 1281.02 702.093C1303.44 688.169 1326.45 673.619 1353.08 670.653C1356 670.341 1358.95 670.181 1361.91 670.186C1361.91 670.186 1361.91 670.186 1361.91 670.186C1358.96 669.947 1356 669.885 1353.03 669.99C1325.93 671.052 1301.55 685.186 1279.16 699.125C1278.73 699.395 1278.3 699.666 1277.87 699.936C1269.85 704.976 1261.85 710.057 1253.89 715.199C1239.94 724.202 1225.97 733.437 1213.33 744.312C1211.08 746.244 1208.88 748.226 1206.74 750.263Z" fill="#255791"/>
<path d="M904.149 762.808C907.235 760.16 910.718 758.028 914.414 756.422C928.754 750.325 944.897 751.467 959.8 754.728C978.752 758.948 997.489 766.624 1017.8 766.184C1019.2 766.15 1020.58 766.078 1021.96 765.969C1060.34 762.465 1087.83 734.078 1120.02 717.687C1123.62 715.827 1127.29 714.097 1131.04 712.551C1127.21 713.878 1123.44 715.41 1119.73 717.089C1086.48 732.003 1058.15 759.358 1021.68 762.48C1020.37 762.584 1019.05 762.654 1017.72 762.689C998.394 763.19 979.707 755.967 960.323 752.218C945.033 749.333 928.378 748.862 914.133 755.819C910.469 757.642 907.077 759.987 904.149 762.808Z" fill="#255791"/>
<path d="M811.532 753.747C811.532 753.747 811.532 753.747 811.532 753.747C812.509 753.767 813.485 753.788 814.459 753.812C823.225 754.029 831.866 754.422 840.498 754.967C849.129 755.515 857.751 756.216 866.474 757.111C867.443 757.211 868.413 757.313 869.385 757.417C869.385 757.417 869.385 757.417 869.385 757.417C868.466 757.085 867.541 756.766 866.613 756.461C858.252 753.709 849.521 752.031 840.719 751.474C831.917 750.916 823.045 751.478 814.403 753.15C813.443 753.335 812.486 753.535 811.532 753.747Z" fill="#255791"/>
<path d="M794.838 -464.632C843.59 -431.197 859.032 -361.21 834.845 -308.457C830.007 -297.949 823.561 -288.191 815.666 -279.732C788.511 -249.673 741.94 -230.706 737.715 -185.571C736.529 -164.637 747.752 -145.343 761.435 -130.441C819.198 -68.7073 914.934 -68.246 990.533 -93.3953C1068.31 -119.587 1135.05 -168.7 1209.18 -202.019C1243.42 -217.423 1279.1 -229.408 1314.75 -241.381C1342.28 -250.626 1369.89 -259.882 1398.41 -264.859C1478.61 -278.794 1561.76 -257.744 1632.18 -218.368C1713.01 -173.016 1785.51 -94.6499 1789.95 1.18094C1791.95 45.5649 1777.38 89.7486 1752.75 126.547C1725.93 166.691 1687.68 199.12 1643.77 219.181C1620.36 229.836 1595.06 237.48 1569.36 236.746C1551.42 236.235 1533.81 231.675 1516.19 227.352C1482.32 219.032 1448.23 211.635 1413.96 205.167C1371.99 197.311 1327.19 190.543 1285.49 205.111C1250.96 217.262 1222.26 243.123 1186.05 246.464C1136.09 250.674 1093.03 206.309 1084.39 158.876C1075.58 109.896 1095.12 60.5505 1121.61 19.5305C1192.36 -89.6488 1326.68 -161.217 1457.42 -139.701C1504.15 -131.896 1550.44 -111.944 1582.43 -76.2348C1608.1 -47.4299 1622.87 -7.98056 1618.52 30.709C1617.55 39.1412 1615.64 47.465 1612.76 55.4584C1605.25 76.3495 1591.72 94.5245 1576.49 110.523C1567.06 120.404 1556.44 129.923 1543.21 134.096C1530.32 138.124 1514.22 135.967 1505.48 124.9C1514.18 136.005 1530.3 138.247 1543.26 134.253C1556.55 130.117 1567.25 120.604 1576.72 110.747C1592.03 94.7864 1605.67 76.6237 1613.3 55.6528C1616.22 47.6274 1618.17 39.2635 1619.18 30.7863C1623.69 -8.11465 1608.99 -47.841 1583.23 -76.9467C1551.14 -113.005 1504.63 -133.216 1457.67 -141.205C1326.25 -163.223 1190.99 -91.6638 1119.48 18.1528C1092.73 59.4109 1072.73 109.278 1081.61 159.377C1090.46 208.039 1134.21 253.67 1186.31 249.51C1223.9 245.981 1252.78 219.851 1286.55 208.129C1327.23 193.942 1371.47 200.544 1413.34 208.441C1447.54 214.928 1481.57 222.338 1515.38 230.664C1532.96 234.985 1550.8 239.645 1569.26 240.187C1595.72 240.95 1621.51 233.117 1645.21 222.344C1689.73 202.016 1728.46 169.198 1755.66 128.488C1780.64 91.1754 1795.48 46.2553 1793.42 1.03146C1788.8 -96.6087 1715.28 -175.592 1633.79 -221.249C1562.81 -260.844 1478.94 -282.012 1397.89 -267.811C1369.08 -262.736 1341.35 -253.378 1313.84 -244.087C1278.21 -232.052 1242.46 -219.975 1208.09 -204.432C1133.69 -170.791 1067.16 -121.612 989.863 -95.3799C914.815 -70.1916 819.776 -70.4712 762.469 -131.395C748.881 -146.094 737.823 -165.072 738.925 -185.501C742.761 -229.607 788.977 -248.942 816.244 -279.195C824.169 -287.745 830.622 -297.594 835.45 -308.18C859.576 -361.327 843.728 -431.394 794.838 -464.632Z" fill="#255791"/>
<path d="M1481.03 118.251C1481.03 118.251 1481.03 118.251 1481.03 118.251C1473.46 114.538 1465.06 112.639 1456.64 112.07C1438.99 110.915 1421.56 114.802 1404.39 118.001C1367.94 124.842 1330.85 128.055 1293.83 127.575C1282.82 127.43 1271.7 126.915 1261.7 122.942C1252.66 119.395 1244.91 113.037 1238.89 105.352C1228.65 92.252 1222.73 76.145 1218.39 59.9514C1214.97 47.0247 1212.25 33.3225 1216.32 20.7297C1219.34 11.38 1225.9 3.50204 1232.66 -3.94317C1247.17 -19.9303 1263.24 -34.9075 1282.49 -44.8379C1294.29 -50.9105 1307.26 -54.9105 1320.57 -55.8245C1328.93 -56.3947 1337.42 -55.6932 1345.55 -53.4508C1345.55 -53.4508 1345.55 -53.4508 1345.55 -53.4508C1337.49 -55.9179 1328.97 -56.8533 1320.53 -56.4885C1307.1 -55.9026 1293.87 -52.1621 1281.78 -46.2473C1262.06 -36.5845 1245.51 -21.6626 1230.68 -5.75956C1223.79 1.65662 1216.82 9.70041 1213.43 19.7785C1208.91 33.3785 1211.78 47.722 1215.14 60.8033C1219.46 77.2548 1225.41 93.7722 1236.14 107.52C1242.45 115.577 1250.74 122.388 1260.43 126.151C1271.19 130.368 1282.72 130.775 1293.79 130.854C1331.05 131.08 1368.31 127.356 1404.74 119.791C1421.89 116.255 1439.07 112.026 1456.6 112.734C1464.97 113.091 1473.36 114.75 1481.03 118.251Z" fill="#255791"/>
<path d="M1302.36 111.976C1309.41 112.093 1316.44 111.932 1323.45 111.499C1361.38 111.16 1398.23 91.7793 1434.36 94.3408C1455.46 101.017 1479.72 110.079 1501.86 99.0573C1504.29 97.8059 1506.59 96.2984 1508.71 94.5732C1526.25 79.9391 1529.77 53.6898 1520.87 33.616C1510.4 10.483 1487.51 -3.88319 1464.32 -11.0167C1447.52 -16.1546 1430.06 -18.067 1412.74 -19.5638C1405.74 -20.168 1398.74 -20.7048 1391.75 -21.3574C1398.72 -20.4728 1405.7 -19.7149 1412.67 -18.9022C1429.94 -16.8913 1447.27 -14.525 1463.71 -9.09947C1486.4 -1.59371 1508.3 12.8681 1517.97 34.9023C1526.18 53.8062 1522.52 78.6179 1506.5 91.8603C1504.56 93.4345 1502.47 94.8077 1500.26 95.9508C1480.12 106.168 1456.51 97.9718 1435.29 91.4409C1395.81 89.1955 1361.61 109.405 1323.4 110.836C1316.42 111.477 1309.41 111.86 1302.36 111.976Z" fill="#255791"/>
<path d="M1182.62 11.0694C1179.14 15.2512 1175.84 19.5923 1172.73 24.073C1149.06 58.1672 1136.73 100.356 1138.88 142.142C1139.28 149.791 1140.34 157.476 1142.65 164.896C1145.68 174.786 1151.54 184.594 1160.94 190C1178.61 199.99 1198.81 193.228 1215.79 187.362C1234.97 180.553 1254.12 173.667 1273.24 166.707C1278.35 164.845 1283.47 162.977 1288.58 161.105C1283.39 162.757 1278.21 164.414 1273.02 166.078C1253.65 172.296 1234.3 178.593 1214.98 184.967C1197.91 190.517 1178.32 196.288 1162.66 187.09C1154.25 182.167 1148.89 173.264 1145.99 163.851C1143.8 156.813 1142.74 149.395 1142.31 141.956C1139.97 100.961 1151.04 59.3095 1173.28 24.4414C1176.2 19.8602 1179.32 15.3967 1182.62 11.0694Z" fill="#255791"/>
<path d="M1202.7 -15.6777C1202.7 -15.6777 1202.7 -15.6777 1202.7 -15.6777C1202.42 -12.199 1202.09 -8.72607 1201.72 -5.25975C1199 19.9198 1193.9 44.7495 1186.49 68.855C1184.72 74.6359 1182.93 80.4673 1181.53 86.4359C1178.34 99.8429 1176.87 115.919 1185.92 128.014C1197.38 143.374 1217.89 144.497 1234.77 143.189C1238.26 142.907 1241.73 142.497 1245.18 142.005C1245.18 142.005 1245.18 142.005 1245.18 142.005C1241.71 142.265 1238.22 142.454 1234.74 142.525C1217.78 142.867 1198.16 140.526 1188.3 126.299C1180.41 115.176 1181.81 100.41 1184.94 87.2363C1186.3 81.4139 1188.04 75.64 1189.75 69.832C1196.94 45.4089 1201.19 20.1369 1202.38 -5.20847C1202.54 -8.69755 1202.65 -12.188 1202.7 -15.6777Z" fill="#255791"/>
<path d="M1122.27 68.6671C1121.45 70.1091 1120.67 71.5756 1119.93 73.0667C1113.29 86.4882 1110.15 101.76 1110.69 116.873C1111.22 131.988 1115.44 146.996 1123 159.92C1123.84 161.356 1124.72 162.764 1125.64 164.145C1124.92 162.649 1124.24 161.141 1123.6 159.621C1117.78 145.937 1114.72 131.376 1114.19 116.749C1113.68 102.122 1115.71 87.3804 1120.55 73.323C1121.09 71.7613 1121.66 70.2098 1122.27 68.6671Z" fill="#255791"/>
<path d="M1163.88 219.44C1166.52 219.458 1169.15 219.47 1171.79 219.461C1187.21 219.403 1202.92 218.633 1217.97 213.97C1225.98 211.492 1233.57 207.973 1240.98 204.333C1251 199.408 1260.8 194.211 1271.25 190.794C1283.01 186.946 1295.5 185.385 1307.96 184.146C1310.58 183.885 1313.21 183.638 1315.83 183.386C1313.19 183.405 1310.56 183.431 1307.92 183.482C1295.39 183.728 1282.69 184.54 1270.41 188.047C1259.5 191.171 1249.4 196.296 1239.43 201.191C1232.05 204.817 1224.68 208.355 1216.99 210.967C1202.57 215.888 1187.13 217.514 1171.76 218.796C1169.13 219.015 1166.51 219.225 1163.88 219.44Z" fill="#255791"/>
<path d="M1288.59 -15.1455C1288.59 -15.1455 1288.59 -15.1455 1288.59 -15.1455C1287.28 -15.497 1285.94 -15.7343 1284.57 -15.8543C1271.98 -16.8854 1259.97 -8.41363 1253.79 2.47646C1253.77 2.49869 1253.76 2.52092 1253.75 2.54316C1247.53 13.5942 1246.25 26.2526 1245.94 38.3138C1245.9 39.6677 1245.88 41.0213 1245.86 42.375C1245.86 42.375 1245.86 42.375 1245.86 42.375C1246.11 41.0442 1246.35 39.7127 1246.6 38.3825C1248.78 26.4695 1251.01 14.4796 1256.8 4.2635C1256.81 4.24319 1256.82 4.22289 1256.83 4.20259C1262.58 -5.73035 1272.45 -14.2301 1284.56 -15.1894C1285.9 -15.2797 1287.24 -15.2672 1288.59 -15.1455Z" fill="#255791"/>
</g>
</svg>
