<svg width="1654" height="773" viewBox="0 0 1654 773" fill="none" xmlns="http://www.w3.org/2000/svg">
<mask id="mask0_1319_6343" style="mask-type:alpha" maskUnits="userSpaceOnUse" x="0" y="0" width="1654" height="773">
<rect width="1654" height="772.943" fill="#D9D9D9"/>
</mask>
<g mask="url(#mask0_1319_6343)">
<path d="M-737.531 775.571C-737.531 775.571 -737.531 775.571 -737.531 775.571C-737.069 775.567 -736.592 775.497 -736.235 775.207C-735.869 774.915 -735.783 774.406 -735.858 773.965C-736.017 773.063 -736.56 772.273 -737.182 771.615C-738.323 770.311 -740.709 769.406 -741.82 771.111C-744.721 775.29 -741.033 780.252 -737.865 783.246C-731.402 789.203 -723.94 794.001 -715.911 797.496C-681.273 812.104 -641.581 804.692 -608.172 789.909C-555.018 765.936 -510.443 723.763 -483.351 672.304C-466.593 640.519 -456.323 605.185 -435.721 574.81C-422.912 555.92 -406.163 539.804 -387.121 527.312C-325.964 487.71 -247.055 482.921 -178.731 504.568C-139.226 517.309 -102.605 537.62 -62.1543 546.057C-42.0423 550.405 -20.7872 550.252 -1.27538 543.401C17.5865 536.587 38.9632 526.98 58.8928 536.001C74.9889 542.25 88.7102 552.781 102.011 563.852C88.5683 552.961 74.6969 542.62 58.6625 536.625C38.7953 527.982 18.2253 537.602 -0.837639 544.704C-20.4712 551.846 -42.1847 552.225 -62.5494 547.999C-103.474 539.83 -140.39 519.703 -179.61 507.321C-247.284 486.286 -325.206 491.354 -385.198 530.237C-403.887 542.498 -420.297 558.266 -432.878 576.746C-453.147 606.463 -463.54 641.658 -480.62 673.75C-508.282 725.706 -553.641 767.963 -607.413 791.614C-641.279 806.228 -681.423 813.265 -716.181 798.104C-724.23 794.482 -731.68 789.555 -738.092 783.49C-741.257 780.414 -744.981 775.317 -741.938 771.022C-741.388 770.246 -740.358 769.849 -739.446 770.101C-738.534 770.324 -737.758 770.898 -737.128 771.564C-736.508 772.238 -735.971 773.042 -735.821 773.96C-735.75 774.408 -735.846 774.93 -736.223 775.221C-736.59 775.511 -737.069 775.573 -737.531 775.571Z" fill="#255791"/>
<path d="M36.7677 344.627C36.7677 344.627 36.7677 344.627 36.7677 344.627C37.5841 346.628 38.2186 348.714 38.6656 350.847C41.8777 366.717 35.195 382.908 26.3688 395.952C24.2567 399.053 21.9577 402.057 19.3888 404.852C13.7401 411.024 6.34439 416.438 -2.36258 417.691C-14.3644 419.324 -24.7962 413.658 -35.6817 411.698C-37.7917 411.309 -39.9314 411.048 -42.0927 410.996C-39.9384 410.814 -37.759 410.854 -35.5932 411.039C-24.3814 412.007 -13.4384 416.746 -2.85413 414.74C4.84392 413.307 11.4385 408.344 16.8124 402.483C19.2445 399.837 21.4776 396.979 23.578 394.014C32.3467 381.472 39.5944 366.681 38.0089 350.952C37.7752 348.823 37.3636 346.705 36.7677 344.627Z" fill="#255791"/>
<path d="M-108.295 400.202C-108.295 400.202 -108.295 400.202 -108.295 400.202C-101.867 398.758 -95.4374 397.293 -89.0547 395.675C-64.7614 389.533 -39.9428 380.831 -22.3884 362.796C-12.5304 352.706 -5.44492 340.244 0.595598 327.43C8.95975 309.671 15.3779 291.012 19.8123 271.897C29.1695 231.537 29.7324 189.097 20.9599 148.485C17.1791 131.553 11.1252 114.246 -1.51024 101.901C-6.23148 97.3719 -11.9606 93.8316 -18.2873 91.9314C-11.8984 93.6049 -5.98846 96.9749 -1.05887 101.412C12.1585 113.526 18.7985 130.962 23.006 148.018C32.7715 188.746 32.7053 231.818 23.2218 272.688C18.7317 292.045 12.1265 310.92 3.47022 328.803C-2.77904 341.701 -10.207 354.38 -20.5695 364.606C-39.0531 382.872 -64.4108 390.939 -88.9017 396.322C-95.3435 397.738 -101.82 398.986 -108.295 400.202Z" fill="#255791"/>
<path d="M22.1953 116.589C21.3577 113.832 20.5049 111.081 19.6132 108.346C13.4822 89.6378 5.01604 69.3132 -12.9898 60.9606C-18.0386 58.604 -23.5822 57.378 -29.2272 56.6668C-40.8294 55.1824 -53.1096 55.7849 -64.913 52.0848C-78.6807 47.7278 -90.0529 37.2619 -95.9075 24.4671C-97.1143 21.8304 -98.0862 19.0951 -98.7968 16.3023C-97.8626 19.0284 -96.6906 21.66 -95.3133 24.1686C-88.6228 36.3343 -77.1504 45.6486 -64.0841 49.3075C-52.8485 52.4451 -40.8364 51.6819 -28.7866 53.1945C-22.9362 53.9316 -17.0008 55.2738 -11.5475 57.9282C7.96278 67.5292 15.4795 89.1262 20.2526 108.163C20.9443 110.963 21.5835 113.773 22.1953 116.589Z" fill="#255791"/>
<path d="M91.4623 -25.1482C91.4955 -23.6852 91.5417 -22.2244 91.6009 -20.7659C92.1352 -7.63934 93.6954 5.30256 96.2021 18.0565C98.7134 30.8094 102.172 43.378 106.642 55.731C107.139 57.1035 107.649 58.4732 108.171 59.8402C107.438 58.5736 106.726 57.294 106.035 56.0019C99.8134 44.3733 95.3253 31.742 92.7682 18.7324C90.2066 5.72368 89.5754 -7.66768 90.9362 -20.7868C91.0872 -22.2443 91.2625 -23.6985 91.4623 -25.1482Z" fill="#255791"/>
<path d="M-32.4693 871.852C-32.4693 871.852 -32.4693 871.852 -32.4693 871.852C-27.1948 864.305 -22.7319 857.155 -18.4119 849.19C25.8304 778.212 -9.53946 687.272 -70.7338 638.418C-100.214 612.802 -133.758 591.178 -169.928 576.802C-192.953 568.156 -216.072 559.424 -240.333 555.514C-255.807 553.032 -271.727 552.608 -287.213 555.419C-295.898 556.999 -304.419 559.629 -312.408 563.462C-312.408 563.462 -312.408 563.462 -312.408 563.462C-304.523 559.42 -296.037 556.562 -287.34 554.766C-271.831 551.568 -255.753 551.647 -240.083 553.857C-215.521 557.338 -192.077 565.791 -168.955 574.166C-132.1 588.323 -98.2511 609.885 -68.4221 635.791C-6.39732 684.875 28.5833 779.449 -17.8306 849.513C-22.3484 857.401 -27.0053 864.441 -32.4693 871.852Z" fill="#255791"/>
<path d="M66.5073 563.416C63.208 565.519 59.813 567.481 56.3366 569.295C32.5683 581.708 4.99868 587.186 -21.9467 584.538C-30.4664 583.703 -38.8836 582.091 -47.1352 579.93C-81.6066 570.843 -112.376 553.026 -145.45 541.128C-149.125 539.805 -152.831 538.555 -156.569 537.4C-152.769 538.33 -148.992 539.37 -145.241 540.497C-111.427 550.661 -80.0637 567.661 -46.2491 576.544C-38.1393 578.667 -29.9141 580.297 -21.6 581.219C4.66534 584.131 31.7556 579.751 56.0449 568.697C59.5969 567.08 63.0885 565.319 66.5073 563.416Z" fill="#255791"/>
<path d="M108.274 376.186C108.274 376.186 108.274 376.186 108.274 376.186C107.026 373.731 105.828 371.247 104.68 368.739C102.055 363.005 99.6921 357.141 97.6044 351.173C93.837 340.44 90.9507 329.42 85.7252 319.625C82.4492 313.457 78.2252 307.787 74.0215 302.007C71.1503 298.056 68.2851 294.03 65.7681 289.738C55.47 272.117 51.7454 251.954 49.1913 232.305C48.8382 229.572 48.508 226.837 48.1866 224.102C48.1866 224.102 48.1866 224.102 48.1866 224.102C48.7384 226.8 49.2873 229.5 49.847 232.195C53.8865 251.607 58.5138 271.231 68.6794 288.001C71.1622 292.094 73.989 296.009 76.8529 299.95C81.0402 305.71 85.3295 311.583 88.6232 318.122C93.8661 328.526 96.3048 339.762 99.4359 350.589C101.166 356.615 103.121 362.585 105.295 368.486C106.246 371.066 107.239 373.634 108.274 376.186Z" fill="#255791"/>
<path d="M1373.5 179.852C1372.59 192.318 1372.84 204.855 1374.18 217.265C1381.4 286.5 1423.64 352.198 1486.47 382.492C1523.39 402.082 1563.72 426.971 1605.45 414.214C1623.33 408.816 1638.63 396.952 1650.98 382.756C1708.18 310.552 1701.4 195.219 1789.11 144.895C1799.71 138.309 1810.96 132.863 1822.75 128.352C1811.04 133.08 1799.91 138.718 1789.46 145.457C1703.07 196.972 1711.91 310.272 1653.56 385.002C1640.98 399.548 1625.16 411.917 1606.48 417.561C1562.73 430.832 1521.47 404.772 1485.1 385.265C1421.4 354.047 1379.56 286.883 1373.52 217.33C1372.39 204.861 1372.36 192.299 1373.5 179.852Z" fill="#255791"/>
<path d="M1684.27 223.852C1682.84 231.614 1681.24 239.162 1679.4 246.659C1667.55 298.522 1632.26 372.133 1566.99 355.308C1555.2 351.795 1543.89 346.844 1533.15 340.914C1530.91 339.676 1528.7 338.396 1526.51 337.075C1495.86 318.658 1470.17 291.935 1453.46 260.347C1438.48 231.984 1430.51 200.017 1430.49 168.094C1430.5 160.318 1431 152.547 1432.02 144.852C1432.02 144.852 1432.02 144.852 1432.02 144.852C1431.23 152.574 1430.95 160.34 1431.15 168.086C1432.04 199.877 1440.62 231.337 1455.8 259.082C1472.74 289.991 1498.17 315.997 1528.31 334.08C1530.47 335.377 1532.65 336.634 1534.85 337.85C1545.39 343.677 1556.47 348.55 1567.97 352.038C1629.17 368.717 1665.46 298.332 1678.75 246.492C1680.8 239.062 1682.61 231.569 1684.27 223.852Z" fill="#255791"/>
<path d="M1640.88 -298.088C1640.88 -298.088 1640.88 -298.088 1640.88 -298.088C1642.52 -277.696 1638.88 -257.039 1631.38 -238.014C1617.44 -202.803 1591.83 -173.038 1561.53 -150.602C1514.25 -115.819 1458.03 -97.1898 1404.34 -75.445C1350.91 -53.793 1296.79 -27.284 1260.47 18.2708C1242 41.4169 1229.16 68.6438 1220.31 96.9102C1205.32 144.883 1200.66 195.342 1194.04 245.26C1183.47 322.995 1163.41 410.468 1094.42 457.27C1049.4 487.578 991.293 490.942 939.955 478.015C920.11 473.07 900.867 465.768 882.74 456.365C882.74 456.365 882.74 456.365 882.74 456.365C900.973 465.56 920.269 472.641 940.112 477.369C991.463 489.743 1049.1 485.777 1093.26 455.553C1160.94 408.958 1180.46 322.391 1190.78 244.834C1197.26 194.977 1201.83 144.334 1216.97 95.8605C1225.91 67.3044 1238.96 39.6555 1257.79 16.1359C1294.86 -30.17 1349.63 -56.6384 1403.28 -78.0901C1457.19 -99.6124 1513.27 -117.8 1560.52 -151.981C1590.78 -174.008 1616.52 -203.348 1630.76 -238.259C1638.42 -257.127 1642.29 -277.678 1640.88 -298.088Z" fill="#255791"/>
<path d="M585.9 83.9599C585.648 80.1588 585.897 76.3159 586.59 72.5472C589.558 56.7537 599.596 42.956 611.959 32.822C626.498 20.9773 644.028 13.644 661.623 8.06045C663.751 7.38656 665.886 6.73761 668.025 6.10884C698.887 -2.95276 730.885 -8.09647 762.935 -9.19123C766.743 -9.32129 770.552 -9.39419 774.359 -9.40971C770.56 -9.161 766.765 -8.86679 762.976 -8.52749C731.086 -5.66789 699.59 0.36133 669.014 9.45376C666.896 10.0845 664.784 10.7308 662.679 11.3972C645.269 16.9242 628.088 23.8357 613.623 34.923C601.352 44.4035 591.029 57.3107 587.24 72.6851C586.353 76.3607 585.881 80.1504 585.9 83.9599Z" fill="#255791"/>
<path d="M579.438 -35.1487C571.53 -21.1399 562.023 -8.04827 551.175 3.85253C537.796 18.6142 523.656 32.7316 509.953 47.1972C470.077 87.9198 420.745 128.201 415.398 187.861L415.409 187.686C412.834 235.989 372.999 271.744 369.192 317.32C369.577 337.681 370.71 357.995 372.671 378.219C385.09 522.227 448.651 660.65 549.618 764.469C560.713 776.122 572.133 787.378 583.937 798.351C571.976 787.55 560.396 776.449 549.139 764.93C446.712 662.409 381.619 523.283 369.187 378.556C367.217 358.236 366.098 337.829 365.749 317.382C370.189 269.113 409.991 234.162 412.511 187.686L412.522 187.511C418.435 126.563 468.875 86.3104 508.951 46.231C522.823 31.9139 537.138 17.9634 550.683 3.40512C561.663 -8.32992 571.324 -21.2519 579.438 -35.1487Z" fill="#255791"/>
<path d="M1202.87 929.171C1202.87 929.171 1202.87 929.171 1202.87 929.171C1175.17 952.128 1130.01 938.711 1112.97 908.503C1111 904.986 1109.34 901.291 1108.01 897.48C1097.86 867.759 1107.44 833.825 1127.82 810.573C1151.36 783.922 1186.38 770.512 1220.93 765.704C1337.46 749.781 1458.01 833.531 1483.77 948.637C1493.61 993.116 1490.36 1039.6 1479.55 1083.52C1451.09 1198.92 1365.32 1301.89 1251.1 1339.66C1249.35 1340.24 1247.59 1340.8 1245.83 1341.34C1133.87 1375.78 1000.46 1341.1 927.607 1247.36C846.607 1141.77 854.076 998.998 878.331 875.134C890.98 808.32 928.59 738.015 895.867 672.621C880.956 643.348 854.984 621.24 826.827 604.854C793.391 585.499 756.406 572.949 718.917 563.911C756.461 572.724 793.537 585.06 827.16 604.278C855.471 620.552 881.707 642.607 896.912 672.084C930.293 738.114 892.624 809.086 880.38 875.537C856.597 999.3 849.866 1141.33 930.12 1245.41C1002.15 1337.81 1134.21 1372.04 1244.8 1337.99C1246.54 1337.46 1248.27 1336.91 1250 1336.34C1362.89 1299.04 1448.07 1197.12 1476.48 1082.76C1487.29 1039.22 1490.59 993.209 1480.98 949.25C1455.95 835.677 1336.8 752.004 1221.15 767.327C1186.83 771.948 1152.09 785.089 1128.67 811.334C1108.43 834.195 1098.74 867.783 1108.64 897.264C1109.93 901.045 1111.56 904.715 1113.49 908.211C1130.17 938.192 1175.04 951.95 1202.87 929.171Z" fill="#255791"/>
<path d="M569.144 909.182C588.116 916.947 599.777 936.777 602.253 956.68C603.468 966.1 602.818 975.804 600.058 984.934C591.209 1014.01 566.18 1035.19 539.15 1047.32C474.619 1076.17 395.838 1059.22 342.678 1014.19C321.553 996.263 303.262 973.349 295.98 945.967C288.848 919 293.932 887.441 314.409 867.171C327.278 854.549 343.981 847.914 358.762 839.201C364.529 835.816 370.073 832.097 374.971 827.675C390.236 813.896 398.646 793.871 402.43 773.674C418.213 686.013 357.171 606.17 291.098 553.803C238.654 512.503 179.366 480.387 127.942 437.428C112.48 424.495 97.8088 410.577 84.5752 395.371C84.5752 395.371 84.5752 395.371 84.5752 395.371C97.9841 410.423 112.791 424.161 128.366 436.916C180.156 479.277 239.616 510.818 292.558 551.936C359.255 604.14 421.696 684.421 405.806 774.302C401.955 794.992 393.362 815.752 377.314 830.27C372.168 834.918 366.418 838.765 360.534 842.219C345.433 851.082 329.031 857.673 316.846 869.647C297.457 888.734 292.364 919.107 299.195 945.118C306.153 971.603 323.904 994.124 344.652 1011.87C396.791 1056.42 474.443 1073.71 538.437 1045.72C565.246 1033.94 590.133 1013.26 599.148 984.653C601.954 975.692 602.7 966.106 601.593 956.762C599.341 937.02 588.018 917.173 569.144 909.182Z" fill="#255791"/>
<path d="M490.046 814.54C489.558 808.85 488.862 803.24 487.964 797.625C479.856 746.922 455.818 700.953 431.452 656.24C407.059 611.48 381.097 566.547 367.422 516.99C365.914 511.502 364.567 505.982 363.397 500.413C364.794 505.929 366.354 511.385 368.06 516.802C383.51 565.66 410.076 609.694 434.525 654.563C458.913 699.279 482.383 746.353 488.623 797.532C489.315 803.192 489.791 808.835 490.046 814.54Z" fill="#255791"/>
<path d="M282 460.637C279.513 452.119 275.566 444.096 270.677 436.741C257.676 417.304 239.149 402.604 220.912 388.198C176.666 353.32 132.455 317.278 97.0668 272.805C79.4047 250.569 64.2066 226.19 53.3324 199.865C33.4232 151.775 28.5659 99.4708 26.1547 48.2167C25.7397 39.3605 25.3982 30.5027 25.068 21.6458C25.6313 30.4909 26.1941 39.3373 26.8185 48.1777C30.4369 99.3627 36.1572 151.328 56.2319 198.651C67.1962 224.572 82.305 248.591 99.8086 270.629C134.862 314.694 178.561 350.966 222.213 386.574C240.217 401.292 258.616 416.506 271.235 436.38C275.979 443.896 279.739 452.057 282 460.637Z" fill="#255791"/>
<path d="M494.538 9.85181C493.11 11.966 491.556 13.9945 489.895 15.9403C474.687 33.6057 452.76 43.1962 435.521 57.6579C433.914 59.0022 432.346 60.3879 430.829 61.823C416.04 75.8221 406.059 94.8899 402.831 115.351C402.438 117.858 402.147 120.386 401.965 122.927C401.914 120.38 401.984 117.826 402.171 115.275C403.684 94.4489 413.11 73.9988 428.431 59.3068C429.997 57.8032 431.616 56.3611 433.276 54.9732C451.2 40.006 473.054 31.6186 489.408 15.4882C491.207 13.7014 492.923 11.8267 494.538 9.85181Z" fill="#255791"/>
<path d="M300.366 670.619C298.939 666.632 296.738 662.98 293.9 659.914C279.386 645.241 257.141 644.384 237.466 644.383C219.783 644.657 202.099 644.816 184.417 644.882C182.167 644.89 179.916 644.897 177.666 644.903C163.517 644.902 148.162 644.814 135.187 637.154C115.573 625.176 109.549 602.502 99.3832 584.104C97.381 580.405 95.2147 576.782 92.7557 573.355C95.4008 576.641 97.766 580.161 99.96 583.773C111.041 601.817 118.154 624.017 136.673 634.592C148.845 641.456 163.509 641.472 177.654 641.413C179.903 641.401 182.153 641.39 184.404 641.382C202.088 641.316 219.771 641.362 237.455 641.498C257.344 641.944 280.254 643.682 294.4 659.475C297.139 662.747 299.162 666.56 300.366 670.619Z" fill="#255791"/>
<path d="M453.587 294.416C452.857 291.498 452.331 288.525 452.006 285.525C449.167 258.049 462.497 231.498 479.262 210.435C479.269 210.426 479.277 210.416 479.284 210.407C496.333 189.1 517.098 171.618 534.054 150.593C535.935 148.258 537.768 145.881 539.54 143.453C537.962 146.011 536.306 148.523 534.586 150.992C519.042 173.28 498.749 191.655 482.018 212.593C482.011 212.602 482.003 212.611 481.996 212.62C465.561 233.376 451.812 258.257 452.669 285.476C452.783 288.463 453.086 291.45 453.587 294.416Z" fill="#255791"/>
<path d="M314.649 349.254C314.649 349.254 314.649 349.254 314.649 349.254C313.655 356.388 312.868 363.563 312.298 370.753C310.58 392.408 310.832 414.187 313.096 435.74C314.535 449.535 316.862 463.154 319.511 476.765C320.817 483.601 322.227 490.378 323.265 497.327C323.763 500.802 324.195 504.307 324.116 507.964C323.991 511.455 323.458 516.06 319.51 518.536C314.894 521.235 310.32 518.773 306.914 517.159C303.376 515.336 300.093 513.219 296.85 511.114C290.381 506.871 284.022 502.498 277.625 498.238C271.82 494.362 266.082 490.6 260.204 486.841C242.639 475.11 223.92 466.136 205.944 454.516C175.032 433.039 154.993 399.688 142.05 365.306C139.505 358.546 137.213 351.695 135.138 344.765C135.138 344.765 135.138 344.765 135.138 344.765C137.436 351.624 139.934 358.395 142.669 365.063C156.579 398.998 177.151 431.475 207.625 452.064C225.132 463.089 244.494 472.254 262.067 483.917C267.98 487.672 273.746 491.44 279.568 495.327C285.98 499.597 292.354 503.996 298.747 508.22C301.942 510.312 305.179 512.41 308.471 514.125C311.721 515.796 315.386 517.258 317.766 515.688C322.25 512.665 320.862 504.177 320.133 497.77C319.186 490.961 317.857 484.16 316.638 477.299C314.162 463.625 312.04 449.862 310.861 435.953C309.001 414.217 309.283 392.327 311.636 370.69C312.416 363.507 313.425 356.352 314.649 349.254Z" fill="#255791"/>
<path d="M283.475 310.033C279.176 304.9 275.18 299.505 271.504 293.895C240.063 245.908 232.278 182.533 252.671 128.279C253.731 125.46 254.728 122.64 255.515 119.793C257.474 112.846 258.237 104.668 253.064 100.117C250.894 98.1148 247.824 97.0081 244.624 96.0436C216.454 87.5825 184.876 89.797 157.639 75.4118C140.261 66.1378 126.917 50.1236 120.345 31.8263C118.072 25.4999 116.61 18.8903 116.074 12.2156C116.843 18.8675 118.518 25.3919 120.967 31.5918C128.052 49.5233 141.601 64.8288 158.652 73.4647C185.366 86.9234 216.505 84.3115 245.596 92.7798C248.885 93.7678 252.478 94.9291 255.392 97.5645C262.234 103.739 260.88 113.547 258.889 120.724C258.057 123.734 257.02 126.65 255.939 129.511C235.923 182.614 242.315 244.765 272.066 293.539C275.551 299.241 279.357 304.753 283.475 310.033Z" fill="#255791"/>
<path d="M61.971 106.792C65.7835 107.496 69.4197 109.087 72.7082 111.181C77.5107 114.239 81.6179 118.266 85.3683 122.506C104.899 144.674 116.454 172.376 127.158 199.404C139.967 231.581 151.732 265.172 176.125 290.379C178.813 293.146 181.626 295.78 184.6 298.291C181.481 295.963 178.511 293.487 175.661 290.855C149.699 266.81 136.645 232.759 123.903 200.691C113.187 173.651 102.483 146.225 84.2155 123.478C80.7082 119.131 76.8866 114.99 72.3368 111.732C69.2196 109.503 65.7342 107.726 61.971 106.792Z" fill="#255791"/>
<path d="M209.206 599.994C204.842 603.483 199.092 604.768 193.558 604.918C192.243 604.955 190.927 604.931 189.614 604.856C162.048 603.172 139.963 583.678 121.66 564.743C106.583 549.11 92.1006 532.494 73.4262 521.882C69.1794 519.482 64.7459 517.438 60.1494 515.851C36.5378 507.728 10.7589 512.111 -14.5059 510.169C-34.0025 508.495 -54.584 501.785 -66.9698 485.974C-70.344 481.534 -72.7752 476.396 -73.9626 470.982C-72.5472 476.342 -69.9308 481.323 -66.4472 485.563C-53.7039 500.614 -33.411 506.511 -14.3455 507.717C10.522 509.11 36.4264 504.208 61.2764 512.567C66.0976 514.211 70.7343 516.341 75.1476 518.835C94.5568 529.892 109.042 546.906 123.808 562.709C141.716 581.823 162.641 601.37 189.675 604.047C190.963 604.168 192.257 604.241 193.552 604.253C199.003 604.308 204.698 603.291 209.206 599.994Z" fill="#255791"/>
<path d="M371.221 716.78C368.941 711.009 366.506 705.308 363.905 699.689C349.693 668.901 330.155 640.418 304.838 618.048C288.727 603.484 269.993 592.518 250.653 582.493C228.886 571.59 208.426 556.077 194.8 535.42C184.391 519.6 174.206 502.885 156.8 494.853C145.797 489.394 133.327 487.148 120.977 487.415C114.797 487.536 108.623 488.248 102.538 489.387C108.576 488.02 114.738 487.083 120.952 486.751C133.367 486.061 146.124 487.934 157.568 493.24C175.676 500.981 186.793 518.354 197.222 533.72C210.98 553.833 230.599 568.49 252.304 579.407C271.596 589.399 290.766 600.785 306.888 615.767C332.285 638.812 351.33 668.107 364.513 699.42C366.928 705.137 369.16 710.928 371.221 716.78Z" fill="#255791"/>
<path d="M1672.77 205.352C1672.77 205.352 1672.77 205.352 1672.77 205.352C1670.79 211.419 1668.54 217.111 1665.84 222.733C1644.68 277.625 1567.3 293.699 1522.78 256.025C1508.24 244.753 1496.64 228.854 1492.76 210.558C1483.4 173.511 1512.79 125.627 1553.73 134.055C1559.92 134.908 1565.95 136.601 1571.79 138.852C1565.87 136.82 1559.81 135.352 1553.65 134.715C1513.09 127.992 1486.73 174.58 1495.89 209.872C1499.77 227.234 1510.9 242.385 1524.92 253.263C1567.96 289.365 1642.06 276.023 1665.25 222.435C1668.12 216.935 1670.57 211.342 1672.77 205.352Z" fill="#255791"/>
<path d="M266.647 341.923C262.912 339.605 259.351 337.027 255.975 334.207C225.109 308.086 213.459 267.087 204.683 229.137C203.801 225.259 202.944 221.356 202.107 217.475C198.949 202.916 195.584 187.894 186.028 176.645C178.157 167.408 166.809 161.718 156.825 154.22C150.386 149.349 144.489 143.425 140.939 136.101C139.018 132.117 137.938 127.696 138.134 123.305C138.174 127.701 139.466 131.989 141.532 135.8C145.349 142.797 151.346 148.321 157.82 152.842C167.893 159.854 179.526 165.157 188.169 174.777C198.625 186.557 202.252 202.18 205.499 216.734C206.353 220.606 207.217 224.498 208.096 228.361C216.911 266.255 227.168 306.413 256.413 333.707C259.628 336.665 263.04 339.41 266.647 341.923Z" fill="#255791"/>
<path d="M599.547 -2.47675C599.547 -2.47675 599.547 -2.47675 599.547 -2.47675C599.224 1.33659 598.352 5.0895 597.203 8.76516C585.419 41.6046 562.1 68.3883 540.275 94.8352C535.59 100.389 530.842 105.904 526.249 111.412L525.716 108.838C550.101 121.076 578.486 106.629 605.588 111.282C609.382 111.955 613.102 113.042 616.598 114.612C616.598 114.612 616.598 114.612 616.598 114.612C613.012 113.258 609.268 112.398 605.49 111.94C578.647 108.653 551.229 124.543 524.177 111.842L522.31 110.871L523.643 109.268C528.207 103.665 532.921 98.1249 537.601 92.5766C559.415 66.136 583.17 40.3317 596.574 8.54905C597.91 4.97329 598.992 1.3089 599.547 -2.47675Z" fill="#255791"/>
<path d="M1947.73 -34.1482C1950.73 -5.87542 1949.81 24.3906 1935.19 49.5912C1931.25 56.7025 1926.61 63.3807 1922.08 70.0881C1890.4 109.866 1845.26 135.088 1803.74 163.111C1738.33 203.435 1706.36 278.52 1690.15 351.172C1683.9 378.711 1675.15 405.412 1664.11 431.347C1653.59 456.612 1638.77 484.406 1652.78 510.175C1673.03 555.563 1741.71 588.619 1717.86 647.571C1711.65 661.722 1699.64 672.936 1685.78 679.297C1644.15 697.057 1598.2 689.312 1555.8 681.083C1509.67 671.388 1467.31 650.384 1422.36 638.342C1373.14 625.154 1321.76 622.87 1270.83 622.27C1198.69 621.491 1123.32 624.377 1058.42 658.487C1019.93 678.946 987.671 711.998 970.151 752.168C958.759 778.347 954.559 808.084 960.939 836.146C960.939 836.146 960.939 836.146 960.939 836.146C954.328 808.139 958.292 778.275 969.539 751.907C986.838 711.443 1019.03 677.982 1057.7 657.121C1122.82 622.388 1198.63 619.132 1270.85 619.621C1321.84 620.022 1373.47 622.12 1423.17 635.297C1468.55 647.351 1510.92 668.24 1556.5 677.736C1598.6 685.927 1644.36 693.267 1684.29 676.131C1697.57 670.016 1708.78 659.515 1714.68 646.132C1737.69 591.429 1671.39 558.48 1649.77 511.529C1635.11 484.447 1650.85 454.89 1661.25 430.141C1672.31 404.346 1681.06 377.908 1687.38 350.531C1703.88 277.681 1736.56 201.87 1802.76 161.593C1844.4 133.852 1889.72 108.822 1921.38 69.6153C1925.97 62.9333 1930.64 56.3116 1934.6 49.2665C1949.32 24.3413 1950.5 -5.84191 1947.73 -34.1482Z" fill="#255791"/>
<path d="M1376.13 -103.606C1374.24 -100.646 1371.32 -98.4339 1368.19 -96.8351C1365.02 -95.2121 1361.62 -94.1146 1358.25 -93.1022C1331.52 -85.0851 1304.14 -78.8176 1279.25 -66.6713C1276.12 -65.1411 1273.03 -63.52 1270.01 -61.7974C1246.37 -48.2109 1225.44 -26.8545 1219.13 0.516571C1218.37 3.90852 1217.86 7.36478 1217.62 10.8517C1217.63 7.35644 1217.92 3.85535 1218.48 0.390907C1223.15 -27.6787 1244.08 -50.7421 1268.28 -64.8023C1271.37 -66.5861 1274.52 -68.2542 1277.72 -69.8161C1303.17 -82.2183 1330.88 -87.7561 1357.92 -94.322C1361.32 -95.1482 1364.71 -96.0355 1367.9 -97.4353C1371.05 -98.8162 1374.04 -100.781 1376.13 -103.606Z" fill="#255791"/>
<path d="M1417.67 -23.6624C1413.55 -20.4476 1409.26 -17.4497 1404.87 -14.615C1383.11 -0.595345 1359 9.38007 1337.82 23.8391C1320.44 35.6853 1305.23 50.5267 1292.44 67.2007C1264.05 104.352 1247.32 149.404 1238.32 195.371C1237.32 200.494 1236.43 205.643 1235.63 210.799C1236.19 205.613 1236.87 200.425 1237.66 195.258C1244.81 148.9 1260.79 102.844 1289.67 65.0697C1302.65 48.1255 1318.31 33.1256 1336.19 21.4092C1358 7.10986 1382.3 -2.09174 1404.52 -15.181C1409.01 -17.8287 1413.41 -20.6348 1417.67 -23.6624Z" fill="#255791"/>
<path d="M1688.27 289.852C1686.91 293.676 1685.48 297.426 1683.96 301.108C1670.54 333.903 1646.35 367.407 1609.11 375.337C1603.78 376.47 1598.34 377.029 1592.9 377.016C1562.42 376.855 1529.64 375.803 1502.98 359.119C1499.57 356.959 1496.33 354.553 1493.31 351.914C1493.31 351.914 1493.31 351.914 1493.31 351.914C1496.48 354.373 1499.84 356.585 1503.32 358.548C1530.52 373.628 1562.43 373.623 1592.89 373.577C1598.1 373.55 1603.3 372.996 1608.39 371.914C1643.79 364.448 1668.2 332.891 1683.35 300.838C1685.06 297.252 1686.7 293.592 1688.27 289.852Z" fill="#255791"/>
<path d="M1563.39 316.232C1560.79 315.829 1558.21 315.276 1555.67 314.582C1533.22 308.392 1514.62 292.238 1500.76 273.836C1500.35 273.288 1499.94 272.737 1499.54 272.183C1485.43 252.863 1475.65 231.033 1466.74 209.167C1465.76 206.732 1464.78 204.293 1463.8 201.852C1464.99 204.197 1466.17 206.545 1467.35 208.892C1477.98 229.996 1488.54 251.191 1502.36 270.116C1502.76 270.66 1503.16 271.201 1503.56 271.74C1517.14 289.785 1534.25 306.049 1555.87 313.948C1558.33 314.835 1560.84 315.601 1563.39 316.232Z" fill="#255791"/>
<path d="M373.41 488.953C372.717 487.693 372.043 486.422 371.388 485.141C365.486 473.611 361.101 461.249 358.385 448.53C355.665 435.812 354.614 422.737 355.286 409.803C355.36 408.366 355.456 406.93 355.572 405.497C355.689 406.93 355.815 408.361 355.95 409.788C357.171 422.64 359.137 435.295 361.807 447.799C364.481 460.302 367.859 472.655 372 484.882C372.461 486.241 372.93 487.597 373.41 488.953Z" fill="#255791"/>
<path d="M453.361 761.622C454.012 763.734 454.582 765.87 455.072 768.031C459.509 787.506 457.228 808.51 449.447 827.082C441.704 845.669 428.364 862.055 411.386 872.578C409.504 873.748 407.584 874.842 405.623 875.862C405.623 875.862 405.623 875.862 405.623 875.862C407.465 874.641 409.259 873.364 411.009 872.031C426.766 860.013 438.688 843.73 446.218 825.733C453.729 807.727 456.935 787.803 454.418 768.147C454.137 765.964 453.786 763.791 453.361 761.622Z" fill="#255791"/>
<path d="M331.679 553.347C331.861 551.085 333.86 549.311 336.014 548.637C337.202 548.252 338.491 548.125 339.763 548.339C343.39 548.962 346.245 551.461 348.751 553.768C359.915 564.144 369.796 575.96 378.096 588.793C388.931 605.536 397.072 624.023 402.024 643.235C402.575 645.37 403.086 647.513 403.558 649.663C402.861 647.575 402.138 645.497 401.389 643.432C394.643 624.841 385.814 607.174 375.158 590.694C366.988 578.066 357.738 566.135 347.455 555.067C345.154 552.61 342.736 550.159 339.555 549.315C338.482 549.032 337.311 549.03 336.191 549.278C334.162 549.715 332.112 551.126 331.679 553.347Z" fill="#255791"/>
<path d="M222.464 421.728C222.464 421.728 222.464 421.728 222.464 421.728C223.845 421.611 224.344 420.213 224.152 419.068C223.92 417.362 223.037 415.696 221.886 414.556C215.102 407.932 207.932 401.833 200.401 396.221C191.416 389.53 181.918 383.525 171.86 378.256C170.742 377.671 169.617 377.095 168.485 376.529C169.702 376.878 170.913 377.249 172.118 377.643C182.964 381.187 193.286 386.552 202.492 393.414C210.213 399.165 217.153 405.967 223.012 413.554C224.236 415.191 224.864 417.095 224.816 419.05C224.781 419.716 224.634 420.417 224.212 420.969C223.794 421.532 223.093 421.764 222.464 421.728Z" fill="#255791"/>
<path d="M286.021 335.956C285.872 337.04 285.73 338.123 285.595 339.206C284.376 348.948 283.658 358.614 283.386 368.292C283.116 377.97 283.292 387.662 283.961 397.457C284.036 398.545 284.117 399.635 284.204 400.726C283.888 399.678 283.588 398.625 283.306 397.566C280.761 388.038 279.608 378.096 279.887 368.194C280.162 358.292 281.87 348.43 284.946 339.06C285.287 338.019 285.646 336.984 286.021 335.956Z" fill="#255791"/>
<path d="M139.252 187.515C139.252 187.515 139.252 187.515 139.252 187.515C138.049 184.795 139.595 181.558 141.927 179.833C144.603 177.771 148.315 176.77 151.746 177.957C158.268 180.344 161.608 186.852 164.401 192.43C171.505 206.801 178.447 221.247 185.219 235.772C186.618 238.773 188.009 241.777 189.393 244.784L194.954 256.7L186.505 246.622C172.226 229.408 158.222 211.964 144.493 194.29C142.741 192.035 140.994 189.777 139.252 187.515C139.252 187.515 139.252 187.515 139.252 187.515C141.173 189.627 143.09 191.743 145.002 193.863C159.994 210.48 174.71 227.327 189.152 244.405L186.264 246.242C184.851 243.249 183.445 240.252 182.047 237.251C175.275 222.726 168.666 208.124 162.23 193.442C159.721 187.769 156.922 181.688 151.256 179.211C148.467 178.016 144.959 178.614 142.318 180.37C140.029 181.832 138.299 184.699 139.252 187.515ZM139.252 187.515" fill="#255791"/>
<path d="M222.837 211.576C222.837 211.576 222.837 211.576 222.837 211.576C222.942 208.439 223.052 205.302 223.167 202.166C224.012 179.287 225.156 156.429 226.623 133.593C226.783 131.495 226.697 129.543 225.818 128.59C225.107 127.719 223.554 127.263 221.774 126.986C220.522 126.777 219.266 126.593 218.006 126.428C205.243 124.74 191.798 125.073 178.944 120.929C164.07 116.103 152.05 105.758 141.92 94.5879C139.808 92.259 137.761 89.8744 135.76 87.4573C137.935 89.719 140.142 91.9503 142.397 94.125C153.223 104.575 165.509 114.036 179.793 118.166C192.126 121.746 205.302 121.242 218.46 122.958C219.758 123.128 221.056 123.32 222.351 123.54C224.223 123.88 226.66 124.28 228.458 126.348C230.47 128.837 230.138 131.688 230.012 133.834C228.257 156.647 226.203 179.441 223.831 202.213C223.506 205.334 223.174 208.456 222.837 211.576Z" fill="#255791"/>
<path d="M541.979 -4.14819C540.677 -3.30473 539.385 -2.44936 538.103 -1.58228C526.569 6.22368 515.845 14.9622 505.921 24.5278C496.002 34.097 486.879 44.4968 478.659 55.7393C477.745 56.9887 476.844 58.2485 475.953 59.5189C476.643 58.1293 477.358 56.7508 478.096 55.3843C484.744 43.0828 493.369 31.7666 503.492 22.0084C513.612 12.2464 525.234 4.03861 537.769 -2.15709C539.162 -2.84569 540.565 -3.50955 541.979 -4.14819Z" fill="#255791"/>
<path d="M570.607 -12.1482C570.714 -10.8839 570.757 -9.60986 570.736 -8.33295C570.547 3.25182 565.212 14.4664 557.756 23.3056C557.757 23.3051 557.756 23.3057 557.756 23.3062C550.254 32.2237 540.815 38.9978 531.18 45.0439C530.106 45.7179 529.028 46.3843 527.945 47.0458C528.888 46.1973 529.834 45.3532 530.781 44.5119C539.305 36.9424 547.915 29.5791 555.077 21.0539C555.077 21.0534 555.078 21.0529 555.078 21.0524C562.182 12.5665 567.985 2.76261 570.074 -8.39832C570.302 -9.63497 570.481 -10.8856 570.607 -12.1482Z" fill="#255791"/>
<path d="M553.137 693.73C551.694 692.624 550.262 691.502 548.842 690.364C536.064 680.121 524.279 668.581 513.739 655.996C503.199 643.413 493.904 629.785 486.068 615.406C485.197 613.808 484.344 612.201 483.509 610.585C484.544 612.081 485.585 613.57 486.632 615.054C496.058 628.407 505.988 641.289 516.423 653.749C526.858 666.207 537.799 678.243 549.287 689.87C550.564 691.162 551.847 692.448 553.137 693.73Z" fill="#255791"/>
<path d="M214.36 337.527C214.953 337.814 215.542 338.107 216.128 338.404C221.401 341.079 226.398 344.132 231.117 347.567C235.835 351.002 240.277 354.82 244.437 359.022C244.899 359.489 245.358 359.96 245.813 360.437C245.22 360.149 244.631 359.856 244.045 359.559C238.772 356.885 233.776 353.832 229.057 350.397C224.338 346.961 219.896 343.144 215.736 338.942C215.274 338.475 214.815 338.003 214.36 337.527Z" fill="#255791"/>
<path d="M501.209 90.2498C501.209 90.2498 501.209 90.2498 501.209 90.2498C502.128 91.4028 502.961 92.631 503.702 93.9202C510.444 105.743 508.971 121.023 502.896 133.069C502.89 133.081 502.883 133.093 502.877 133.106C496.7 145.321 486.654 154.646 476.432 162.958C475.289 163.887 474.139 164.807 472.986 165.722C472.986 165.722 472.986 165.722 472.986 165.722C473.98 164.636 474.979 163.554 475.977 162.473C484.939 152.764 493.954 143.035 499.752 131.529C499.759 131.517 499.765 131.505 499.771 131.493C505.398 120.162 507.894 106.522 503.104 94.2101C502.565 92.8573 501.934 91.5333 501.209 90.2498Z" fill="#255791"/>
<path d="M426.597 258.481C426.293 257.183 426.011 255.879 425.752 254.569C423.413 242.784 422.896 230.574 424.203 218.564C425.505 206.553 428.631 194.739 433.44 183.728C433.975 182.505 434.529 181.292 435.104 180.089C434.748 181.374 434.403 182.659 434.069 183.946C431.066 195.526 428.961 207.19 427.682 218.941C426.408 230.694 425.961 242.537 426.412 254.492C426.462 255.82 426.524 257.15 426.597 258.481Z" fill="#255791"/>
<path d="M685.664 243.411C674.65 241.678 664.12 237.179 654.977 230.753C630.91 213.85 615.562 183.535 619.85 153.696L621.702 154.492C579.026 210.396 547.804 277.3 543.992 347.883C542.491 377.615 546.483 407.69 556.841 435.633C567.499 464.513 584.517 490.766 596.028 519.724C610.606 556.416 615.579 596.735 610.755 635.748C609.387 646.815 607.23 657.777 604.284 668.516C607.004 657.718 608.938 646.732 610.094 635.673C614.167 596.685 608.591 556.773 593.756 520.641C582.051 492.115 564.811 466.04 553.799 436.766C543.114 408.439 538.971 377.857 540.496 347.711C544.372 276.119 576.434 208.804 620.058 153.211L622.516 150.073L621.91 154.008C617.344 182.866 631.804 212.999 655.364 230.212C664.31 236.754 674.688 241.446 685.664 243.411Z" fill="#255791"/>
<path d="M588.157 344.211C588.157 344.211 588.157 344.211 588.157 344.211C589.382 345.274 590.706 346.196 592.1 346.968C603.949 353.146 617.47 349.757 630.809 350.369C632.153 350.42 633.495 350.514 634.833 350.651C649.666 352.15 663.853 358.901 674.235 369.222C675.389 370.366 676.496 371.554 677.552 372.781C676.331 371.718 675.079 370.699 673.799 369.723C662.267 360.95 648.56 355.583 634.478 354.133C633.207 354.003 631.933 353.906 630.657 353.843C617.986 353.084 603.22 355.535 591.741 347.527C590.42 346.553 589.216 345.439 588.157 344.211Z" fill="#255791"/>
<path d="M641.748 293.559C640.165 293.086 638.611 292.493 637.101 291.791C623.27 285.26 614.864 270.945 610.009 256.944C610.006 256.936 610.004 256.927 610.001 256.919C605.103 242.711 602.938 228.051 597.257 214.368C596.625 212.85 595.95 211.348 595.223 209.864C596.151 211.231 597.027 212.636 597.853 214.073C605.323 227.105 608.54 241.98 613.309 255.778C613.312 255.786 613.315 255.794 613.317 255.802C618.111 269.423 624.896 283.159 637.419 291.207C638.802 292.08 640.247 292.867 641.748 293.559Z" fill="#255791"/>
<path d="M718.279 323.454C715.569 323.694 712.858 323.928 710.147 324.155C697.857 325.187 685.56 326.092 673.259 326.888C664.112 327.468 654.491 328.027 645.259 324.985C642.349 324.021 639.581 322.716 636.962 321.221C632.256 318.534 628.02 315.267 623.874 312.039C608.965 300.322 592.869 286.968 587.433 267.924C586.708 265.281 586.232 262.578 586.025 259.865C586.464 262.55 587.154 265.182 588.067 267.724C594.832 285.904 610.858 297.887 625.923 309.364C630.117 312.522 634.264 315.653 638.696 318.181C641.163 319.589 643.716 320.803 646.362 321.706C654.731 324.57 663.968 324.333 673.132 324.089C685.456 323.765 697.784 323.572 710.117 323.491C712.838 323.473 715.558 323.461 718.279 323.454Z" fill="#255791"/>
<path d="M674.734 500.956C671.985 503.798 667.538 503.154 664.023 502.266C663.297 502.079 662.575 501.882 661.857 501.676C632.341 493.15 610.052 469.735 591.964 445.925C585.775 437.76 579.856 429.319 574.781 420.325C569.323 410.655 564.857 400.289 562.395 389.355C555.74 359.825 563.929 329.993 573.464 302.533C574.939 298.297 576.462 294.081 578 289.871C576.684 294.156 575.37 298.441 574.097 302.737C565.838 330.628 558.784 360.264 565.599 388.611C568.108 399.126 572.489 409.143 577.83 418.606C582.794 427.405 588.574 435.761 594.62 443.936C612.328 467.77 633.278 491.217 662.055 501.041C662.757 501.279 663.464 501.508 664.176 501.728C667.598 502.759 671.848 503.626 674.734 500.956Z" fill="#255791"/>
<path d="M646.286 431.81C646.049 430.693 645.535 429.68 644.887 428.79C643.174 426.486 640.683 424.884 638.1 423.918C635.609 422.949 632.344 422.801 631.461 424.297C629.704 426.917 631.1 431.358 632.89 434.828C634.258 437.461 636.019 439.938 638.065 442.115C642.701 447.06 648.607 450.853 654.69 454.429C655.669 455.008 656.652 455.585 657.634 456.165C656.555 455.797 655.478 455.421 654.406 455.031C647.774 452.63 641.139 449.477 635.784 444.399C633.361 442.099 631.331 439.417 629.781 436.435C627.903 432.492 625.694 427.294 629.099 422.455C632.336 419.13 636.3 420.764 638.945 422.032C641.712 423.506 644.107 425.686 645.459 428.451C645.966 429.512 646.282 430.667 646.286 431.81Z" fill="#255791"/>
<path d="M694.844 405.177C692.827 403.189 690.724 401.297 688.547 399.504C668.925 383.381 643.414 375.152 618.478 376.82C617.72 376.872 616.962 376.933 616.205 377.003C614.473 377.155 612.928 377.424 611.969 378.146C610.467 379.189 609.831 381.625 609.505 384.174C606.869 403.867 609.783 424.342 617.895 442.789C619.032 445.372 620.272 447.914 621.615 450.407C620.071 448.033 618.631 445.587 617.296 443.079C607.762 425.174 603.724 404.156 606.153 383.748C606.514 381.08 606.942 377.64 609.905 375.355C611.873 373.914 614.071 373.711 615.875 373.521C616.665 373.446 617.453 373.382 618.241 373.328C644.18 371.553 670.503 381.301 688.988 399.006C691.042 400.97 692.997 403.03 694.844 405.177Z" fill="#255791"/>
<path d="M581.026 353.865C581.348 354.583 581.663 355.304 581.969 356.027C584.73 362.541 586.871 369.275 588.37 376.149C589.87 383.023 590.729 390.037 590.934 397.108C590.956 397.894 590.971 398.68 590.978 399.467C590.741 398.717 590.507 397.967 590.277 397.216C588.209 390.463 586.437 383.71 584.951 376.895C583.464 370.081 582.262 363.204 581.328 356.203C581.224 355.425 581.124 354.646 581.026 353.865Z" fill="#255791"/>
<path d="M655.015 342.865C656.575 343.689 658.13 344.526 659.677 345.376C673.606 353.02 686.999 361.662 699.712 371.209C712.426 380.756 724.46 391.209 735.681 402.458C736.927 403.707 738.164 404.967 739.391 406.236C738.007 405.14 736.623 404.046 735.239 402.954C722.775 393.131 710.246 383.498 697.61 374.008C684.974 364.519 672.229 355.173 659.323 345.939C657.889 344.912 656.453 343.888 655.015 342.865Z" fill="#255791"/>
<path d="M1261 244.38C1261 244.38 1261 244.38 1261 244.38C1258.05 254.106 1255.15 263.858 1252.55 273.68C1243.39 308.303 1237.32 345.818 1249.43 379.994C1255.54 397.334 1266.09 412.796 1273.35 430.093C1286.22 460.863 1287.79 496.155 1277.83 528.028C1276.67 531.72 1275.34 535.364 1273.84 538.936C1266.86 555.553 1255.86 571.263 1239.97 580.729C1219.2 593.055 1194.63 592.528 1171.88 593.351C1122.13 595.265 1069.39 605.934 1031.69 640.474C1024.24 647.371 1017.61 655.126 1011.98 663.614C1011.98 663.614 1011.98 663.614 1011.98 663.614C1017.41 655 1023.89 647.076 1031.23 639.991C1068.43 604.447 1121.68 592.786 1171.76 590.421C1194.64 589.422 1218.65 589.605 1238.23 577.818C1253.24 568.809 1263.83 553.727 1270.62 537.581C1272.07 534.113 1273.36 530.571 1274.5 526.98C1284.23 495.932 1282.87 461.434 1270.54 431.258C1263.6 414.275 1253.15 398.619 1247.1 380.8C1235.18 345.653 1242.04 307.957 1251.91 273.503C1254.72 263.724 1257.83 254.036 1261 244.38Z" fill="#255791"/>
<path d="M925.368 714.852C925.368 714.852 925.368 714.852 925.368 714.852C925.848 709.297 925.812 703.713 925.284 698.187C920.105 650.676 883.902 613.61 844.867 589.457C842.216 587.835 839.533 586.257 836.826 584.722C793.299 560.161 744.552 546.535 696.119 533.983C690.724 532.593 685.323 531.22 679.922 529.852C685.375 530.993 690.827 532.15 696.273 533.336C745.128 544.054 794.447 556.804 838.553 581.677C841.293 583.231 844.008 584.833 846.691 586.483C886.272 611 922.575 649.956 925.947 698.136C926.269 703.718 926.08 709.322 925.368 714.852Z" fill="#255791"/>
<path d="M915.182 805.353C915.182 805.353 915.182 805.353 915.182 805.353C914.867 805.414 914.61 805.677 914.583 805.99C914.546 806.3 914.645 806.611 914.794 806.88C915.088 807.413 915.681 807.853 916.261 807.702C917.622 807.346 918.138 805.821 918.503 804.533C918.945 802.921 919.374 801.305 919.787 799.685C924.317 781.955 927.125 763.832 928.147 745.635L928.172 745.203L928.472 744.846C942.202 729.039 962.311 718.118 969.122 699.277C969.842 696.64 969.977 693.922 969.37 691.323C964.87 671.838 954.513 654.208 944.473 636.677C936.584 622.883 928.722 608.798 923.929 593.533C922.624 589.371 921.559 585.137 920.799 580.852C920.799 580.852 920.799 580.852 920.799 580.852C921.787 585.09 923.063 589.248 924.558 593.319C930.051 608.242 938.349 621.846 946.626 635.403C957.141 652.622 968.004 670.337 972.763 690.533C973.527 693.733 973.347 697.108 972.5 700.192C964.545 721.505 944.096 731.511 930.514 746.61L930.839 745.821C929.335 764.173 925.822 782.331 920.428 799.865C919.935 801.467 919.426 803.063 918.903 804.654C918.462 805.94 917.846 807.571 916.303 807.899C915.586 808.036 914.981 807.495 914.705 806.928C914.563 806.637 914.476 806.306 914.533 805.982C914.579 805.652 914.866 805.395 915.182 805.353Z" fill="#255791"/>
<path d="M1223.1 258.515C1224.36 262.988 1225.27 267.567 1225.84 272.196C1227.17 283.093 1226.59 294.272 1224.01 305.029C1221.08 317.327 1215.7 328.781 1213.24 340.821C1209.53 358.593 1212.38 377.021 1217.78 394.333C1229.77 433.667 1255.16 470.875 1253.21 513.861C1252.92 518.519 1252.27 523.121 1251.21 527.675C1251.21 527.675 1251.21 527.675 1251.21 527.675C1252.04 523.074 1252.47 518.467 1252.54 513.835C1252.58 471.339 1226.73 435.527 1214.44 395.367C1208.93 377.763 1206.13 358.568 1210.35 340.2C1213.17 327.744 1218.86 316.479 1222.12 304.543C1224.99 294.106 1226.01 283.131 1225.18 272.261C1224.82 267.645 1224.13 263.046 1223.1 258.515Z" fill="#255791"/>
<path d="M1200.49 398.852C1200.49 398.852 1200.49 398.852 1200.49 398.852C1199.92 400.252 1199.45 401.681 1199.08 403.127C1195.82 416.338 1199.79 429.59 1203.42 442.447C1203.42 442.45 1203.42 442.453 1203.42 442.457C1207.1 455.305 1210.82 469.594 1206.57 482.936C1206.1 484.384 1205.53 485.795 1204.87 487.153C1205.32 485.709 1205.67 484.246 1205.93 482.774C1208.19 469.361 1203.73 456.363 1200.06 443.429C1200.06 443.425 1200.05 443.422 1200.05 443.419C1196.38 430.542 1193.2 415.938 1198.45 402.916C1199.03 401.508 1199.71 400.148 1200.49 398.852Z" fill="#255791"/>
<path d="M1578.79 642.352C1587.01 649.829 1595.78 656.36 1605.39 661.5C1630 675.591 1664.07 676.113 1684.45 655.345C1694.35 645.597 1700.8 630.889 1696.71 617.501C1692.63 603.92 1678.34 596.929 1664.53 594.834C1644.17 591.408 1623.54 586.918 1605.25 576.53C1586.39 566.351 1575.36 547.448 1560.4 533.975C1558.02 531.785 1555.61 529.745 1553.04 527.731L1552.99 527.689C1522.95 502.264 1486.94 483.92 1448.66 474.612C1416.83 466.951 1379.44 466.023 1353.36 488.014C1336.94 502.26 1330.72 526.948 1337.24 547.801C1340.51 558.149 1348.02 567.369 1358.28 571.507C1347.94 567.596 1340.12 558.446 1336.61 548.014C1329.61 526.995 1335.36 501.756 1352.19 486.659C1378.71 463.64 1417.01 464.228 1449.34 471.73C1488.16 480.823 1524.77 499.254 1555.25 525.019L1555.19 524.976C1557.84 527.045 1560.32 529.144 1562.77 531.396C1578.26 545.451 1588.91 563.843 1606.94 573.609C1624.51 583.699 1644.85 588.322 1665.02 591.87C1679.28 594.132 1694.83 601.696 1699.2 616.747C1703.47 631.528 1696.29 646.84 1685.91 656.827C1664.4 678.102 1629.5 676.721 1605.07 662.083C1595.51 656.726 1586.86 650 1578.79 642.352Z" fill="#255791"/>
<path d="M1572.11 588.233C1568.28 586.79 1564.75 584.595 1561.54 582.026C1555.49 577.175 1550.56 571.152 1545.41 565.502C1525.92 544.089 1501.76 527.157 1475.21 515.975C1467.18 512.596 1458.93 509.744 1450.53 507.463C1435.25 503.329 1419.17 501.017 1403.62 504.147C1392.16 506.48 1381.11 512.021 1373.07 520.772C1370.33 523.763 1367.97 527.131 1366.16 530.794C1367.76 527.033 1369.94 523.509 1372.56 520.336C1380.26 511.041 1391.36 504.815 1403.15 501.991C1419.1 498.197 1435.79 500.216 1451.38 504.236C1459.97 506.454 1468.39 509.307 1476.57 512.749C1503.62 524.128 1527.94 541.963 1546.71 564.367C1551.66 570.269 1556.25 576.427 1561.97 581.518C1565 584.213 1568.37 586.573 1572.11 588.233Z" fill="#255791"/>
<path d="M1490.79 601.173C1488.89 602.036 1486.96 602.807 1484.98 603.483C1467.14 609.606 1446.67 607.85 1429.54 599.408C1419.61 594.535 1410.74 587.373 1404.2 578.473C1401.22 574.422 1398.43 569.619 1398.47 564.276C1398.52 561.198 1399.72 558.232 1401.78 556.073C1403.25 554.52 1405.27 553.453 1407.36 553.365C1405.29 553.692 1403.51 554.925 1402.28 556.509C1400.57 558.713 1399.75 561.553 1399.94 564.23C1400.32 569.003 1403.11 573.175 1406.21 576.903C1413 585.079 1421.6 591.603 1431.09 596.268C1447.47 604.297 1466.62 607.046 1484.8 602.844C1486.81 602.375 1488.81 601.819 1490.79 601.173Z" fill="#255791"/>
<path d="M1457.94 569.644C1457.94 569.644 1457.94 569.644 1457.94 569.644C1458.48 570.919 1459.28 572.042 1460.2 573.025C1469.26 581.304 1482.48 582.875 1494.19 581.997C1494.68 581.948 1495.18 581.892 1495.67 581.828C1497.2 581.645 1498.89 581.286 1499.55 580.767L1499.56 580.76C1499.79 580.562 1499.8 580.55 1499.84 580.321C1499.88 580.086 1499.81 579.617 1499.64 579.062C1497.23 570.814 1492.33 563.281 1486.37 556.668C1485.45 555.646 1484.5 554.644 1483.52 553.661C1483.52 553.661 1483.52 553.661 1483.52 553.661C1484.65 554.466 1485.75 555.308 1486.83 556.186C1493.77 561.862 1499.76 569.229 1502.77 578.081C1502.98 578.746 1503.25 579.536 1503.19 580.582C1503.16 581.634 1502.48 582.821 1501.71 583.41L1501.71 583.403C1499.66 584.92 1497.87 584.999 1496.12 585.294C1495.6 585.365 1495.07 585.427 1494.53 585.48C1481.96 586.472 1467.85 583.562 1459.68 573.441C1458.88 572.278 1458.25 570.992 1457.94 569.644Z" fill="#255791"/>
<path d="M1447.14 532.738C1448.02 532.637 1448.9 532.546 1449.78 532.461C1450.63 532.379 1451.47 532.302 1452.32 532.227L1452.16 533.447C1445.14 532.464 1438.2 531.369 1431.29 530.133C1429.17 529.754 1427.05 529.362 1424.93 528.956C1419.44 528 1413.76 526.844 1408.3 528.178C1407.49 528.42 1406.68 528.767 1405.97 529.29C1406.52 528.597 1407.25 528.024 1408.04 527.569C1413.43 524.784 1419.68 525.084 1425.44 525.709C1427.6 525.978 1429.76 526.304 1431.91 526.688C1438.9 527.937 1445.78 529.792 1452.46 532.246L1457.7 533.607L1452.3 533.466C1451.45 533.361 1450.61 533.246 1449.76 533.126C1448.89 533.001 1448.01 532.87 1447.14 532.738Z" fill="#255791"/>
<path d="M1555.34 651.855C1554.76 650.609 1554.16 649.367 1553.56 648.132C1548.15 637.017 1542.04 626.39 1535.4 616.101C1528.76 605.811 1521.59 595.856 1513.97 586.116C1513.12 585.032 1512.27 583.955 1511.41 582.876C1512.44 583.795 1513.45 584.722 1514.46 585.667C1523.5 594.155 1531.59 603.733 1538.34 614.204C1545.1 624.666 1550.51 636.029 1554.18 647.887C1554.59 649.204 1554.98 650.529 1555.34 651.855Z" fill="#255791"/>
<path d="M1692.77 579.852C1687.55 580.377 1682.62 580.724 1677.54 580.815C1662.48 581.141 1642.05 578.952 1636.53 561.609C1631.66 546.303 1630.03 529.434 1616.59 520.435C1605.44 512.13 1595.65 502.245 1586.39 492.057C1568.77 472.67 1552.73 451.743 1531.56 436.598C1515.9 425.407 1497.87 417.793 1479.4 412.037C1474.57 410.532 1469.7 409.148 1464.8 407.852C1464.8 407.852 1464.8 407.852 1464.8 407.852C1469.75 408.921 1474.68 410.092 1479.58 411.398C1498.31 416.395 1516.78 423.461 1533.02 434.494C1555 449.446 1571.49 470.473 1588.98 489.704C1598.18 499.825 1607.75 509.597 1618.54 517.847C1632.97 527.768 1634.46 546.383 1638.68 560.817C1643.17 576.875 1662.34 579.847 1677.54 580.15C1682.6 580.269 1687.53 580.145 1692.77 579.852Z" fill="#255791"/>
<path d="M2047.71 881.352C2041.3 888.877 2032.5 894.237 2023 897.068C1990.87 905.868 1956.71 893.803 1930.04 875.312C1912.53 862.99 1893.74 851.077 1872.58 848.161C1851.37 844.956 1830.46 854.363 1814.35 868.172C1803.83 876.964 1789.78 879.312 1776.83 879.246C1703.35 873.35 1637.92 833.364 1583.65 786.433C1571.55 775.087 1561.12 762.219 1548.87 751.186C1541.57 744.609 1533.53 738.715 1524.51 734.673C1533.62 738.5 1541.83 744.238 1549.31 750.687C1561.85 761.505 1572.56 774.209 1584.75 785.24C1639.36 830.947 1705.34 870.091 1776.85 875.746C1789.38 875.823 1802.59 873.498 1812.15 865.532C1828.65 851.428 1850.8 841.549 1873 845.119C1895.09 848.382 1913.97 860.786 1931.42 873.392C1957.4 891.924 1990.89 904.452 2022.82 896.429C2032.26 893.829 2041.12 888.723 2047.71 881.352Z" fill="#255791"/>
<path d="M1655.02 734.655C1652.26 733.522 1649.26 733.132 1646.35 733.425C1636.54 734.607 1628.59 741.258 1621.45 747.78C1612.31 756.029 1600.29 766.786 1585.9 761.954C1581.75 760.423 1578.42 757.56 1575.58 754.603C1574.09 753.046 1572.7 751.435 1571.33 749.856C1555.25 731.341 1537.35 714.386 1517.9 699.247C1515.55 697.422 1513.19 695.623 1510.8 693.852C1513.32 695.43 1515.82 697.049 1518.29 698.708C1538.8 712.462 1557.6 728.937 1573.96 747.567C1575.34 749.148 1576.7 750.713 1578.11 752.18C1580.78 754.978 1583.72 757.45 1587.11 758.737C1598.64 763.041 1610.46 753.934 1619.87 746.009C1627.41 739.705 1636.06 733.267 1646.31 732.761C1649.33 732.67 1652.36 733.309 1655.02 734.655Z" fill="#255791"/>
<path d="M1590.72 863.809C1590.58 863.745 1590.4 863.794 1590.37 863.941C1590.33 864.076 1590.35 864.227 1590.39 864.362C1590.47 864.632 1590.72 864.877 1590.96 864.764C1591.6 864.491 1591.6 863.62 1591.52 862.956C1591.39 862.025 1591.23 861.104 1591.04 860.189C1588.54 848.554 1581.26 838.994 1574.97 828.919C1570.37 821.602 1566.26 814.031 1562.17 806.495C1552.44 788.63 1542.84 770.327 1527.22 757.011C1525.49 755.543 1523.7 754.15 1521.84 752.83C1521.84 752.83 1521.84 752.83 1521.84 752.83C1523.83 753.953 1525.75 755.171 1527.62 756.485C1544.64 768.445 1555.55 786.979 1565.25 804.827C1569.34 812.381 1573.29 819.979 1577.54 827.373C1583.35 837.535 1590.26 848.011 1591.7 860.082C1591.8 861.027 1591.88 861.973 1591.91 862.922C1591.93 863.634 1591.87 864.65 1591.01 864.936C1590.84 864.992 1590.64 864.933 1590.52 864.81C1590.4 864.689 1590.34 864.538 1590.31 864.386C1590.27 864.234 1590.27 864.071 1590.33 863.924C1590.38 863.759 1590.6 863.73 1590.72 863.809Z" fill="#255791"/>
<path d="M1539.27 871.359C1534.03 872.36 1528.63 872.518 1523.31 871.902C1502.59 869.376 1484.43 856.533 1471.02 840.9C1453.99 820.881 1443.34 796.765 1428.97 775.492C1428.13 774.259 1427.29 773.034 1426.43 771.818C1410.03 748.621 1388.98 728.712 1364.83 713.619C1348.65 703.59 1330.42 695.571 1311.08 695.466C1305.78 695.461 1300.47 696.113 1295.32 697.505C1300.4 695.889 1305.72 695.007 1311.07 694.801C1330.61 694.129 1349.49 701.704 1366.12 711.493C1390.92 726.186 1412.61 746.203 1429.28 769.797C1430.16 771.034 1431.02 772.281 1431.86 773.537C1446.45 795.216 1456.74 819.269 1472.99 839.253C1485.77 854.817 1503.07 867.938 1523.4 871.243C1528.63 872.058 1534 872.13 1539.27 871.359Z" fill="#255791"/>
<path d="M1526.12 799.847C1526.12 799.847 1526.12 799.847 1526.12 799.847C1521.11 792.043 1512.99 787.035 1504.71 783.295C1495.25 778.991 1485.21 775.942 1475.95 770.918C1443.87 753.089 1430.56 716.374 1403.46 694.224C1390.12 683.296 1374 676.319 1357.65 670.611C1339.52 664.292 1320.77 659.689 1301.73 657.327C1262.7 652.393 1220.76 657.542 1188.21 680.581C1167.13 695.397 1151.19 716.275 1133.22 734.976C1121.6 747.043 1108.8 758.317 1093.88 766.118C1085.72 770.373 1076.93 773.48 1067.84 774.809C1067.84 774.809 1067.84 774.809 1067.84 774.809C1076.89 773.248 1085.56 769.943 1093.57 765.532C1108.21 757.445 1120.66 746.015 1131.99 733.811C1149.53 714.894 1165.18 693.683 1186.57 678.268C1219.63 654.303 1262.58 648.835 1302.16 653.854C1321.48 656.25 1340.46 660.966 1358.76 667.455C1375.24 673.308 1391.68 680.542 1405.33 691.961C1432.99 715.217 1445.48 751.718 1476.6 769.752C1485.59 774.872 1495.58 778.151 1504.99 782.693C1513.23 786.64 1521.31 791.914 1526.12 799.847Z" fill="#255791"/>
<path d="M1521.99 728.816C1519.92 729.424 1517.74 729.731 1515.55 729.746C1506.41 729.762 1497.75 725.141 1491.11 718.938C1483.22 711.517 1477.77 702.215 1471.66 693.828C1471.34 693.38 1471.01 692.934 1470.68 692.491C1459.58 677.571 1445.27 665.027 1428.81 655.856C1426.92 654.808 1425.01 653.804 1423.07 652.847C1425.1 653.589 1427.11 654.394 1429.1 655.26C1446.48 662.818 1462.02 675.047 1473.49 690.4C1473.83 690.854 1474.16 691.312 1474.5 691.771C1480.75 700.39 1485.84 709.591 1492.99 717.041C1498.96 723.223 1506.75 728.226 1515.58 729.081C1517.7 729.274 1519.86 729.197 1521.99 728.816Z" fill="#255791"/>
<path d="M1478.59 731.848C1478.59 731.848 1478.59 731.848 1478.59 731.848C1476.51 730.875 1474.52 729.754 1472.59 728.486C1455.04 716.678 1446.53 696.382 1434.61 680.242C1430.88 675.141 1426.79 670.34 1422.04 666.284C1411.61 657.373 1397.86 652.269 1383.8 652.116C1381.53 652.093 1379.25 652.201 1376.98 652.446C1376.98 652.446 1376.98 652.446 1376.98 652.446C1379.22 651.97 1381.49 651.639 1383.78 651.451C1397.96 650.282 1412.77 654.657 1424.1 663.803C1429.24 667.944 1433.6 672.926 1437.44 678.176C1449.76 694.926 1456.93 714.878 1472.98 727.948C1474.76 729.368 1476.62 730.669 1478.59 731.848Z" fill="#255791"/>
<path d="M1369.67 782.467C1367.94 779.989 1366.22 777.512 1364.48 775.051C1353.23 759.187 1340.73 743.282 1323.37 734.868C1316.75 731.645 1309.57 729.634 1302.25 728.7C1291.3 727.305 1280.06 728.243 1269.29 730.97C1254.12 734.815 1239.89 742.054 1226.58 750.583C1224.04 752.208 1221.53 753.883 1219.05 755.596C1221.39 753.696 1223.78 751.839 1226.2 750.036C1238.92 740.579 1253 732.482 1268.51 728.064C1279.53 724.929 1291.22 723.767 1302.7 725.228C1310.36 726.205 1317.92 728.398 1324.83 731.932C1342.97 741.211 1354.92 758.102 1365.03 774.686C1366.6 777.266 1368.14 779.863 1369.67 782.467Z" fill="#255791"/>
<path d="M1240.16 698.28C1237.28 697.45 1234.33 696.944 1231.37 696.743C1218.99 695.911 1206.44 700.349 1197.77 708.797C1191.15 715.242 1186.77 723.643 1181.53 731.639C1178.78 735.83 1175.79 739.867 1172.6 743.728C1155.22 764.731 1131.6 780.463 1105.76 788.322C1102.88 789.196 1099.99 789.974 1097.07 790.651C1099.93 789.749 1102.75 788.762 1105.54 787.693C1130.64 778.066 1152.93 761.975 1169.9 741.496C1173.02 737.728 1175.96 733.809 1178.7 729.753C1183.93 722.02 1188.64 713.443 1195.93 706.837C1205.55 698.151 1218.96 694.35 1231.44 696.081C1234.42 696.496 1237.36 697.229 1240.16 698.28Z" fill="#255791"/>
<path d="M1138.34 667.417C1134.7 672.746 1129.95 677.293 1124.64 680.979C1108.49 692.02 1089 696.002 1070.96 702.262C1049.85 709.533 1029.3 721.121 1016.78 739.605C1007.92 752.667 1003.76 768.355 1001.39 784.054C1000.14 792.271 999.354 800.581 998.59 808.915C994.305 857.796 989.676 909.286 1010.53 954.949C1013.24 960.775 1016.37 966.413 1019.93 971.789C1016.18 966.545 1012.85 961.002 1009.93 955.239C987.423 909.966 991.081 857.5 995.163 808.609C995.888 800.261 996.663 791.879 997.928 783.529C1000.33 767.591 1004.67 751.35 1014.07 737.754C1027.39 718.508 1048.74 707.041 1070.25 700.139C1088.62 694.222 1107.95 690.822 1124.26 680.427C1129.64 676.951 1134.51 672.611 1138.34 667.417Z" fill="#255791"/>
<path d="M1470.4 449.924C1468.69 451.762 1465.77 451.767 1463.47 451.039C1462.14 450.641 1460.87 450.051 1459.68 449.354C1441.58 438.651 1432.2 418.496 1424.75 399.844C1424.05 398.092 1423.37 396.329 1422.7 394.574C1415.58 376.265 1408.77 357.201 1394.38 343.44C1392.63 341.799 1390.77 340.261 1388.81 338.852C1390.9 340.065 1392.9 341.435 1394.81 342.936C1410.63 355.598 1418.72 375.08 1425.94 393.317C1426.62 395.063 1427.31 396.814 1428 398.555C1435.47 417.154 1443.52 436.667 1460.22 448.505C1461.3 449.26 1462.46 449.923 1463.69 450.411C1465.82 451.28 1468.51 451.569 1470.4 449.924Z" fill="#255791"/>
<path d="M683.592 626.955C683.592 626.955 683.592 626.955 683.592 626.955C689.453 628.774 695.43 630.166 701.455 631.257C723.075 635.162 745.105 635.265 767.013 637.954C794.603 641.398 824.365 649.927 842.628 673.025C845.879 677.169 848.639 681.678 850.932 686.392C858.185 701.365 860.844 717.914 861.931 734.154C864.473 773.212 858.158 813.342 840.487 848.293C837.711 853.777 834.661 859.116 831.339 864.274C831.339 864.274 831.339 864.274 831.339 864.274C834.463 858.993 837.312 853.558 839.888 848.003C856.275 812.602 861.567 772.94 858.684 734.383C857.456 718.368 854.736 702.257 847.785 687.924C845.588 683.409 842.965 679.111 839.89 675.166C822.707 653.201 793.962 644.361 766.687 640.405C745.033 637.288 722.886 636.569 701.325 631.909C695.319 630.608 689.38 628.995 683.592 626.955Z" fill="#255791"/>
<path d="M808.735 1084.43C808.82 1077.59 808.891 1070.75 808.948 1063.91C809.082 1047.64 809.134 1031.38 809.103 1015.12C809.002 994.854 808.785 973.571 798.856 955.962C791.388 942.769 778.407 933.316 770.257 919.491C765.36 911.197 762.585 901.808 761.453 892.356C759.471 875.412 762.222 858.328 767.522 842.356C775.775 817.691 789.497 795.692 799.146 772.02C806.297 754.38 811.162 735.387 809.984 716.212C809.546 709.414 808.28 702.645 806.018 696.185C808.5 702.564 809.995 709.325 810.647 716.159C812.431 735.447 808.01 754.826 801.153 772.815C791.899 796.926 778.518 819.141 770.648 843.388C765.596 859.031 763.02 875.685 764.928 891.937C766.015 901.007 768.642 909.916 773.221 917.755C780.766 930.839 793.719 940.458 801.505 954.473C811.715 973.218 811.394 994.854 811.068 1015.14C810.731 1031.4 810.246 1047.67 809.612 1063.93C809.346 1070.76 809.053 1077.6 808.735 1084.43Z" fill="#255791"/>
<path d="M840.186 951.488C840.186 951.488 840.186 951.488 840.186 951.488C842.13 948.337 843.357 944.796 843.895 941.18C845.414 930.99 841.599 920.051 833.692 913.82C830.16 911.024 825.934 909.09 821.888 906.547C805.976 896.479 796.749 877.506 797.205 858.775C797.35 852.831 798.488 846.887 800.684 841.334C803.868 833.321 808.758 826.417 812.827 819.281C822.229 802.817 827.871 784.152 829.224 765.052C829.484 761.373 829.584 757.677 829.52 753.979C829.52 753.979 829.52 753.979 829.52 753.979C829.818 757.666 829.94 761.372 829.888 765.08C829.626 784.331 824.678 803.63 815.443 820.733C811.44 828.138 806.763 835.032 803.865 842.575C801.876 847.756 800.84 853.296 800.704 858.861C800.28 876.404 808.634 894.369 823.337 904.324C827.102 906.868 831.373 908.994 835.068 912.148C843.406 919.294 846.687 930.986 844.55 941.297C843.791 944.958 842.325 948.467 840.186 951.488Z" fill="#255791"/>
<path d="M638.29 668.676C638.29 668.676 638.29 668.676 638.29 668.676C638.17 676.338 638.318 684.032 638.887 691.669C640.821 718.255 648.641 750.51 675.709 759.879C683.613 762.687 692.57 763.046 700.701 767.236C726.36 782.012 720.766 815.485 715.471 839.06L712.404 837.597C716.175 832.138 719.368 825.585 722.543 819.408C734 796.006 745.881 772.106 753.987 747.842C757.476 730.427 741.259 716.204 726.559 707.915C704.133 697.996 678.931 693.058 656.195 682.494C649.449 679.096 641.726 675.79 638.274 668.692C638.279 668.686 638.285 668.681 638.29 668.676C638.29 668.676 638.29 668.676 638.29 668.676C638.285 668.681 638.28 668.687 638.274 668.692C641.926 675.65 649.665 678.687 656.469 681.888C679.469 691.823 704.252 695.982 727.683 705.856C742.743 714.126 760.52 728.351 757.014 748.468C748.82 773.964 737.23 797.305 725.667 820.985C722.422 827.27 719.408 833.581 715.168 839.696L710.102 846.362L712.101 838.233C717.536 814.918 722.365 782.999 699.36 769.768C692.061 765.831 683.202 765.284 674.862 762.216C646.317 751.605 639.484 718.303 638.224 691.71C637.863 684.035 637.937 676.331 638.29 668.676ZM638.29 668.676" fill="#255791"/>
<path d="M624.396 761.203C622.356 760.097 620.441 758.735 618.704 757.162C607.493 746.711 604.813 730.46 603.813 715.882C603.434 709.773 603.252 703.652 603.257 697.532C603.274 676.586 605.477 655.688 609.373 635.179C609.806 632.9 610.26 630.625 610.734 628.355C610.49 630.661 610.256 632.967 610.031 635.273C608.011 656.028 606.775 676.784 606.757 697.535C606.752 703.599 606.852 709.662 607.067 715.722C607.707 730.105 609.265 745.589 619.172 756.689C620.725 758.376 622.477 759.897 624.396 761.203Z" fill="#255791"/>
<path d="M754.585 681.755C753.115 681.39 751.647 681.024 750.179 680.657C736.972 677.356 723.841 673.992 710.733 670.544C697.625 667.096 684.538 663.563 671.417 659.934C669.959 659.531 668.501 659.127 667.042 658.721C668.546 658.898 670.048 659.085 671.549 659.283C685.059 661.062 698.451 663.694 711.623 667.159C724.796 670.624 737.75 674.922 750.385 680.025C751.789 680.592 753.189 681.169 754.585 681.755Z" fill="#255791"/>
<path d="M618.636 809.866C617.57 808.816 616.509 807.76 615.455 806.699C605.97 797.141 596.995 787.1 588.57 776.617C580.146 766.134 572.271 755.208 564.984 743.884C564.174 742.626 563.372 741.363 562.577 740.095C563.559 741.224 564.539 742.354 565.517 743.486C574.313 753.671 582.899 763.973 591.299 774.424C599.698 784.876 607.91 795.479 615.959 806.264C616.853 807.463 617.746 808.663 618.636 809.866Z" fill="#255791"/>
<path d="M260.373 617.154C259.828 616.583 259.284 616.013 258.74 615.445C253.842 610.338 248.973 605.393 244.063 600.49C239.15 595.589 234.196 590.729 229.08 585.84C228.511 585.297 227.941 584.754 227.368 584.21C228.075 584.563 228.776 584.927 229.471 585.303C235.728 588.681 241.496 592.982 246.535 598.013C251.576 603.042 255.887 608.803 259.277 615.053C259.654 615.748 260.019 616.448 260.373 617.154Z" fill="#255791"/>
<path d="M724.343 745.312C724.23 744.475 724.082 743.655 723.903 742.843C722.267 735.536 718.217 729.329 713.044 724.455C707.845 719.611 701.386 715.973 693.987 714.831C693.164 714.707 692.336 714.615 691.493 714.558C691.493 714.558 691.493 714.558 691.493 714.558C692.319 714.382 693.154 714.252 694.002 714.166C701.673 713.369 709.718 716.5 715.437 721.901C721.199 727.258 724.846 735.077 724.565 742.782C724.537 743.634 724.463 744.476 724.343 745.312Z" fill="#255791"/>
<path d="M582.075 738.509C582.075 738.509 582.075 738.509 582.075 738.509C582.263 737.207 582.287 735.904 582.14 734.635C580.102 722.876 567.991 717.327 557.902 712.705C557.899 712.704 557.898 712.704 557.898 712.703C547.516 708.053 534.541 700.675 534.201 687.694C534.246 686.356 534.483 685.043 534.881 683.789C534.881 683.789 534.881 683.789 534.881 683.789C534.711 685.094 534.703 686.397 534.866 687.664C537.04 699.398 549.167 704.845 559.27 709.484C559.271 709.484 559.272 709.485 559.273 709.485C569.664 714.126 582.615 721.622 582.804 734.613C582.744 735.95 582.49 737.261 582.075 738.509Z" fill="#255791"/>
<path d="M845.325 650.907C844.912 649.949 844.482 649.003 844.035 648.068C840.009 639.655 834.715 632.136 828.481 625.521C822.237 618.916 815.036 613.196 806.867 608.695C805.959 608.196 805.04 607.713 804.107 607.245C805.12 607.494 806.127 607.773 807.127 608.083C816.135 610.869 824.473 616.163 831.027 623.118C837.592 630.063 842.395 638.692 844.661 647.844C844.913 648.86 845.135 649.881 845.325 650.907Z" fill="#255791"/>
<path d="M504.893 159.795C504.332 160.503 503.773 161.21 503.214 161.916C498.19 168.273 493.264 174.564 488.351 180.864C483.439 187.165 478.539 193.476 473.601 199.9C473.053 200.614 472.504 201.329 471.954 202.046C472.302 201.212 472.66 200.383 473.03 199.559C476.359 192.141 480.589 185.125 485.591 178.712C490.592 172.297 496.364 166.484 502.744 161.446C503.453 160.886 504.169 160.335 504.893 159.795Z" fill="#255791"/>
<path d="M2411.64 482.905C2411.64 482.905 2411.64 482.905 2411.64 482.905C2417.39 484.013 2423.13 485.11 2428.87 486.219L2429.03 486.249L2428.92 486.361C2415.96 499.401 2399 507.775 2381.46 512.849C2330.6 527.552 2273.85 520.413 2227.94 548.599C2172.82 583.94 2164.19 655.666 2160.68 716.631C2157.12 777.863 2153.13 849.545 2100.96 891.372C2078 909.437 2049.5 917.831 2021.66 923.84C2012.42 925.825 2003.12 927.572 1993.78 929.044C1951.84 935.652 1908.59 936.744 1866.76 928.175C1820.7 918.72 1778.26 898.172 1733.33 886.4C1666.65 866.692 1584.64 864.64 1536.98 922.832C1500.68 967.752 1508.65 1032.25 1517.78 1086.76C1522.76 1110.21 1529.04 1134.11 1542.29 1154.35C1528.84 1134.23 1522.32 1110.35 1517.13 1086.9C1507.63 1032.25 1498.59 968.102 1535.61 921.431C1583.02 862.432 1667.39 863.797 1734.1 883.473C1779.44 895.204 1821.91 915.609 1867.44 924.852C1908.77 933.248 1951.6 932.148 1993.23 925.586C2002.51 924.125 2011.74 922.392 2020.92 920.423C2048.6 914.474 2076.57 906.178 2098.85 888.691C2149.51 848.383 2154.07 777.713 2157.8 716.472C2161.58 655.399 2170.53 582.726 2226.94 547.006C2273.89 518.714 2330.48 526.467 2381.28 512.21C2398.79 507.306 2415.74 499.134 2428.8 486.242L2428.84 486.383C2423.11 485.22 2417.37 484.068 2411.64 482.905Z" fill="#255791"/>
<path d="M2305.25 497.309C2288.96 500.863 2272.67 504.412 2256.38 507.956C2248.04 509.769 2239.7 511.581 2231.36 513.39C2213.31 517.31 2195.04 521.283 2178.62 529.696C2149.16 544.769 2128.42 573.22 2117.47 603.992C2106.5 634.806 2104.45 667.976 2104.92 700.611C2105.26 732.765 2107.99 768.232 2088.92 796.886C2078.56 812.274 2062.99 823.229 2046.51 830.859C2040.68 833.551 2034.67 835.835 2028.53 837.705C1995.38 847.802 1957.95 846.037 1927.15 829.321C1902.92 816.119 1884.71 795.36 1864.1 778.263C1833.95 753.231 1797.89 735.333 1759.7 726.26C1727.82 718.802 1690.51 717.77 1664.13 739.476C1652.16 749.493 1645.73 765.27 1645.49 780.844C1644.99 797.214 1653.17 815.079 1669.23 821.176C1653.08 815.32 1644.52 797.407 1644.82 780.839C1644.87 765.086 1651.16 748.978 1663.33 738.538C1690 716.104 1727.93 716.834 1760.2 724.097C1798.81 732.922 1835.37 750.749 1866.03 775.93C1886.96 793.146 1905.17 813.646 1928.74 826.374C1958.66 842.507 1995.16 844.215 2027.51 834.357C2033.5 832.533 2039.36 830.307 2045.04 827.686C2061.14 820.252 2076.18 809.629 2086.08 794.972C2104.38 767.745 2102.08 732.939 2101.83 700.648C2101.52 667.855 2103.77 634.327 2115.14 603.151C2126.49 571.997 2147.82 543.276 2177.9 528.273C2194.66 519.909 2213.07 516.142 2231.16 512.433C2239.52 510.723 2247.88 509.013 2256.24 507.305C2272.57 503.967 2288.91 500.634 2305.25 497.309Z" fill="#255791"/>
</g>
</svg>
