<svg width="1438" height="773" viewBox="0 0 1438 773" fill="none" xmlns="http://www.w3.org/2000/svg">
<mask id="mask0_769_7117" style="mask-type:alpha" maskUnits="userSpaceOnUse" x="0" y="0" width="1438" height="773">
<rect width="1438" height="772.943" fill="#D9D9D9"/>
</mask>
<g mask="url(#mask0_769_7117)">
<path d="M-33.8562 -25.1482C-33.823 -23.6852 -33.7767 -22.2244 -33.7176 -20.7659C-33.1833 -7.63946 -31.623 5.30241 -29.1158 18.0564C-26.6042 30.8093 -23.145 43.3779 -18.6738 55.731C-18.1767 57.1035 -17.6671 58.4732 -17.1445 59.8402C-17.8777 58.5736 -18.59 57.294 -19.2811 56.0018C-25.5037 44.3731 -29.9925 31.7417 -32.55 18.7321C-35.1119 5.7233 -35.7433 -7.66796 -34.3823 -20.7869C-34.2313 -22.2444 -34.056 -23.6985 -33.8562 -25.1482Z" fill="#255791"/>
<path d="M1248.37 179.852C1247.47 192.319 1247.72 204.857 1249.06 217.267C1256.28 286.506 1298.53 352.201 1361.36 382.492C1398.29 402.082 1438.63 426.969 1480.36 414.215C1498.24 408.818 1513.55 396.954 1525.9 382.756C1583.11 310.553 1576.33 195.211 1664.05 144.894C1674.65 138.308 1685.9 132.863 1697.69 128.352C1685.99 133.08 1674.86 138.718 1664.4 145.456C1578 196.965 1586.84 310.273 1528.48 385.002C1515.89 399.55 1500.07 411.918 1481.38 417.562C1437.64 430.831 1396.37 404.772 1359.99 385.265C1296.29 354.05 1254.44 286.888 1248.39 217.333C1247.26 204.863 1247.24 192.3 1248.37 179.852Z" fill="#255791"/>
<path d="M1559.19 223.852C1557.77 231.615 1556.17 239.163 1554.32 246.661C1542.47 298.528 1507.17 372.134 1441.9 355.308C1430.11 351.795 1418.79 346.845 1408.06 340.916C1405.82 339.677 1403.6 338.397 1401.41 337.075C1370.76 318.658 1345.06 291.937 1328.35 260.347C1313.36 231.985 1305.4 200.018 1305.38 168.096C1305.38 160.319 1305.88 152.547 1306.91 144.852C1306.11 152.575 1305.84 160.341 1306.04 168.087C1306.92 199.878 1315.51 231.338 1330.69 259.082C1347.64 289.992 1373.06 315.998 1403.21 334.08C1405.37 335.378 1407.55 336.636 1409.75 337.852C1420.3 343.678 1431.38 348.551 1442.88 352.038C1504.08 368.718 1540.38 298.337 1553.68 246.493C1555.72 239.062 1557.54 231.569 1559.19 223.852Z" fill="#255791"/>
<path d="M1515.8 -298.088C1517.44 -277.695 1513.79 -257.036 1506.3 -238.01C1492.35 -202.8 1466.73 -173.036 1436.43 -150.602C1389.15 -115.818 1332.92 -97.1898 1279.22 -75.445C1225.79 -53.7934 1171.65 -27.2859 1135.33 18.2709C1116.86 41.4149 1104.01 68.64 1095.17 96.9051C1080.17 144.879 1075.51 195.34 1068.89 245.26C1058.32 322.998 1038.25 410.473 969.257 457.27C924.227 487.58 866.109 490.941 814.763 478.014C794.916 473.07 775.672 465.767 757.542 456.365C775.778 465.56 795.075 472.64 814.92 477.368C866.279 489.743 923.927 485.779 968.1 455.553C1035.78 408.962 1055.31 322.393 1065.63 244.834C1072.11 194.975 1076.69 144.329 1091.83 95.8552C1100.77 67.3003 1113.82 39.6533 1132.65 16.1358C1169.73 -30.1721 1224.51 -56.6388 1278.16 -78.0902C1332.08 -99.6124 1388.16 -117.799 1435.43 -151.981C1465.69 -174.006 1491.44 -203.344 1505.68 -238.256C1513.34 -257.124 1517.21 -277.677 1515.8 -298.088Z" fill="#255791"/>
<path d="M460.657 83.9599C460.405 80.1584 460.654 76.315 461.347 72.5459C464.316 56.7521 474.356 42.9553 486.72 32.822C501.263 20.9764 518.796 13.6432 536.394 8.05952C538.522 7.38596 540.656 6.73731 542.794 6.10883C573.662 -2.95283 605.665 -8.09651 637.72 -9.19124C641.528 -9.3213 645.337 -9.39419 649.145 -9.40971C645.345 -9.161 641.55 -8.8668 637.761 -8.5275C605.866 -5.6679 574.364 0.361309 543.783 9.45378C541.666 10.0842 539.555 10.7302 537.451 11.3963C520.037 16.9234 502.852 23.8349 488.384 34.923C476.112 44.4029 465.787 57.3092 461.998 72.6839C461.11 76.3599 460.638 80.1499 460.657 83.9599Z" fill="#255791"/>
<path d="M454.194 -35.1487C446.285 -21.1399 436.777 -8.04849 425.928 3.85194C412.546 18.6139 398.404 32.7315 384.699 47.1973C344.818 87.9191 295.478 128.198 290.129 187.861L290.14 187.686C287.564 235.991 247.724 271.743 243.916 317.32C244.301 337.681 245.434 357.994 247.395 378.218C259.816 522.232 323.392 660.656 424.37 764.47C435.467 776.123 446.889 787.378 458.694 798.351C446.731 787.55 435.15 776.45 423.892 764.932C321.453 662.415 256.345 523.288 243.911 378.556C241.941 358.236 240.822 337.829 240.472 317.382C244.914 269.112 284.721 234.163 287.242 187.686L287.253 187.511C293.168 126.56 343.616 86.3096 383.696 46.231C397.57 31.9137 411.888 17.963 425.436 3.4045C436.417 -8.33016 446.079 -21.2519 454.194 -35.1487Z" fill="#255791"/>
<path d="M1077.72 929.171C1050.02 952.127 1004.85 938.713 987.809 908.503C985.834 904.987 984.177 901.293 982.853 897.485C972.691 867.763 982.273 833.824 1002.66 810.573C1026.21 783.921 1061.23 770.512 1095.78 765.704C1212.32 749.782 1332.9 833.519 1358.67 948.637C1368.51 993.116 1365.25 1039.6 1354.44 1083.52C1325.98 1198.93 1240.19 1301.9 1125.95 1339.66C1124.21 1340.24 1122.45 1340.8 1120.69 1341.34C1008.72 1375.78 875.288 1341.11 802.417 1247.36C721.406 1141.77 728.873 998.999 753.133 875.134C765.783 808.32 803.4 738.015 770.671 672.621C755.756 643.344 729.777 621.236 701.614 604.85C668.174 585.497 631.186 572.949 593.694 563.911C631.241 572.724 668.32 585.058 701.947 604.275C730.264 620.548 756.507 642.604 771.716 672.084C805.103 738.113 767.427 809.086 755.181 875.537C731.394 999.3 724.665 1141.33 804.929 1245.41C876.975 1337.82 1009.06 1372.04 1119.66 1337.99C1121.4 1337.46 1123.13 1336.91 1124.86 1336.34C1237.76 1299.05 1322.95 1197.12 1351.37 1082.76C1362.18 1039.22 1365.49 993.208 1355.88 949.25C1330.84 835.665 1211.67 752.005 1096 767.327C1061.68 771.948 1026.93 785.088 1003.51 811.334C983.263 834.195 973.572 867.786 983.481 897.268C984.773 901.048 986.393 904.716 988.332 908.211C1005.01 938.194 1049.88 951.949 1077.72 929.171Z" fill="#255791"/>
<path d="M443.898 909.182C462.872 916.946 474.537 936.776 477.013 956.681C478.228 966.101 477.578 975.804 474.818 984.934C465.966 1014.01 440.933 1035.19 413.9 1047.32C349.359 1076.17 270.569 1059.23 217.398 1014.19C196.271 996.264 177.977 973.35 170.693 945.967C163.559 919 168.645 887.439 189.125 867.171C201.995 854.55 218.698 847.915 233.48 839.203C239.25 835.818 244.796 832.099 249.696 827.675C264.963 813.896 273.374 793.872 277.159 773.674C292.945 686.008 231.889 606.167 165.81 553.803C113.358 512.503 54.0615 480.388 2.62927 437.428C-12.8351 424.495 -27.5086 410.577 -40.7443 395.371C-27.3333 410.423 -12.5238 424.161 3.05331 436.916C54.8516 479.277 114.32 510.817 167.27 551.936C233.973 604.136 296.428 684.416 280.535 774.302C276.684 794.993 268.088 815.753 252.038 830.27C246.891 834.919 241.139 838.766 235.252 842.222C220.15 851.083 203.748 857.673 191.562 869.647C172.17 888.733 167.076 919.106 173.908 945.118C180.868 971.604 198.621 994.125 219.372 1011.87C271.522 1056.42 349.183 1073.71 413.187 1045.72C439.999 1033.94 464.89 1013.26 473.907 984.653C476.713 975.692 477.459 966.106 476.353 956.763C474.101 937.02 462.774 917.172 443.898 909.182Z" fill="#255791"/>
<path d="M364.788 814.54C364.3 808.85 363.604 803.24 362.707 797.625C354.597 746.92 330.555 700.952 306.186 656.239C281.789 611.481 255.823 566.548 242.146 516.991C240.637 511.502 239.29 505.982 238.12 500.413C239.517 505.929 241.077 511.385 242.784 516.802C258.236 565.66 284.806 609.694 309.258 654.562C333.65 699.278 357.124 746.352 363.365 797.532C364.057 803.192 364.533 808.835 364.788 814.54Z" fill="#255791"/>
<path d="M156.71 460.637C154.223 452.119 150.275 444.095 145.385 436.74C132.382 417.304 113.853 402.604 95.6137 388.198C51.3632 353.322 7.14754 317.282 -28.2456 272.811C-45.9122 250.574 -61.1145 226.193 -71.9915 199.865C-91.9034 151.777 -96.7619 99.4719 -99.1736 48.218C-99.5887 39.3614 -99.9303 30.5031 -100.261 21.6458C-99.6972 30.4914 -99.1343 39.3381 -98.5098 48.179C-94.891 99.3638 -89.1696 151.329 -69.0922 198.651C-58.125 224.575 -43.0121 248.596 -25.504 270.635C9.55518 314.698 53.2585 350.968 96.9145 386.574C114.921 401.292 133.322 416.505 145.944 436.379C150.689 443.896 154.449 452.056 156.71 460.637Z" fill="#255791"/>
<path d="M369.281 9.85181C367.853 11.966 366.298 13.9945 364.638 15.9403C349.427 33.6056 327.498 43.1955 310.257 57.6566C308.649 59.0013 307.08 60.3874 305.562 61.823C290.772 75.8214 280.789 94.8889 277.56 115.351C277.167 117.858 276.876 120.386 276.694 122.927C276.643 120.38 276.713 117.825 276.9 115.275C278.414 94.4478 287.842 73.9978 303.164 59.3067C304.731 57.8025 306.351 56.3599 308.012 54.9716C325.938 40.0052 347.794 31.6184 364.15 15.4882C365.95 13.7014 367.666 11.8267 369.281 9.85181Z" fill="#255791"/>
<path d="M175.079 670.619C173.653 666.631 171.451 662.98 168.612 659.913C154.094 645.24 131.848 644.384 112.17 644.383C94.4847 644.657 76.7998 644.816 59.1153 644.882C56.8639 644.89 54.6125 644.897 52.3611 644.903C38.2094 644.902 22.8527 644.814 9.87549 637.154C-9.7403 625.177 -15.7659 602.503 -25.9335 584.105C-27.9362 580.405 -30.1029 576.782 -32.5625 573.355C-29.9169 576.641 -27.5512 580.162 -25.3568 583.774C-14.2747 601.818 -7.15903 624.018 11.3608 634.592C23.536 641.456 38.2017 641.472 52.3486 641.413C54.5991 641.401 56.8506 641.39 59.1022 641.382C76.788 641.316 94.4733 641.362 112.159 641.498C132.051 641.944 154.963 643.682 169.112 659.475C171.852 662.747 173.875 666.56 175.079 670.619Z" fill="#255791"/>
<path d="M328.324 294.416C327.594 291.498 327.068 288.525 326.743 285.525C323.903 258.048 337.236 231.498 354.003 210.435C354.011 210.425 354.019 210.415 354.027 210.406C371.077 189.099 391.845 171.618 408.803 150.593C410.685 148.258 412.518 145.881 414.29 143.453C412.712 146.011 411.055 148.523 409.335 150.992C393.788 173.28 373.494 191.654 356.76 212.592C356.752 212.601 356.745 212.611 356.737 212.62C340.3 233.376 326.549 258.256 327.406 285.476C327.52 288.463 327.823 291.45 328.324 294.416Z" fill="#255791"/>
<path d="M189.364 349.254C189.364 349.254 189.364 349.254 189.364 349.254C188.371 356.389 187.583 363.564 187.013 370.754C185.294 392.409 185.547 414.188 187.811 435.74C189.25 449.535 191.578 463.154 194.227 476.765C195.534 483.601 196.943 490.379 197.982 497.327C198.48 500.803 198.912 504.307 198.832 507.965C198.708 511.455 198.174 516.06 194.226 518.536C189.609 521.235 185.034 518.773 181.627 517.159C178.089 515.335 174.805 513.219 171.561 511.113C165.09 506.869 158.73 502.495 152.331 498.235C146.526 494.36 140.789 490.599 134.911 486.841C117.344 475.11 98.6221 466.136 80.6429 454.516C49.7284 433.041 29.6849 399.69 16.7392 365.307C14.194 358.547 11.902 351.695 9.82628 344.765C12.1244 351.625 14.6234 358.395 17.3581 365.063C31.2714 398.999 51.8472 431.476 82.324 452.064C99.8334 463.089 119.198 472.254 136.774 483.917C142.687 487.671 148.453 491.438 154.274 495.324C160.688 499.594 167.063 503.994 173.458 508.219C176.653 510.311 179.892 512.409 183.184 514.125C186.436 515.796 190.101 517.258 192.482 515.688C196.967 512.666 195.579 504.177 194.85 497.77C193.902 490.961 192.573 484.16 191.354 477.3C188.878 463.625 186.755 449.862 185.576 435.953C183.716 414.218 183.998 392.328 186.351 370.691C187.131 363.508 188.14 356.353 189.364 349.254Z" fill="#255791"/>
<path d="M158.186 310.033C153.886 304.9 149.89 299.505 146.213 293.895C114.768 245.909 106.981 182.533 127.377 128.279C128.439 125.458 129.437 122.635 130.224 119.785C132.182 112.841 132.942 104.666 127.771 100.117C125.6 98.1148 122.53 97.0081 119.33 96.0437C91.1545 87.5824 59.5721 89.7972 32.3304 75.4118C14.9516 66.1386 1.60501 50.125 -4.96886 31.8272C-7.24188 25.5006 -8.70418 18.8906 -9.24083 12.2156C-8.47176 18.8679 -6.79619 25.3925 -4.34659 31.5926C2.73991 49.5247 16.2915 64.8295 33.3433 73.4646C60.0625 86.9235 91.2054 84.3115 120.301 92.7798C123.591 93.7678 127.184 94.929 130.099 97.5644C136.938 103.735 135.588 113.541 133.598 120.717C132.765 123.729 131.728 126.648 130.645 129.511C110.626 182.614 117.02 244.766 146.775 293.539C150.261 299.241 154.068 304.753 158.186 310.033Z" fill="#255791"/>
<path d="M-63.352 106.792C-59.5393 107.496 -55.9028 109.087 -52.6139 111.18C-47.8105 114.238 -43.7024 118.266 -39.9511 122.506C-20.4186 144.673 -8.86116 172.375 1.84446 199.404C14.6553 231.581 26.423 265.173 50.8197 290.379C53.5081 293.147 56.3215 295.78 59.2954 298.291C56.1764 295.963 53.2062 293.488 50.3555 290.855C24.3906 266.811 11.3342 232.76 -1.41043 200.69C-12.1278 173.651 -22.8346 146.225 -41.1039 123.479C-44.612 119.13 -48.4345 114.99 -52.9852 111.732C-56.1029 109.502 -59.5886 107.726 -63.352 106.792Z" fill="#255791"/>
<path d="M83.9055 599.994C79.5411 603.483 73.7906 604.768 68.2555 604.918C66.9405 604.955 65.6237 604.931 64.311 604.857C36.7415 603.173 14.6527 583.679 -3.65363 564.743C-18.7334 549.109 -33.2188 532.493 -51.8964 521.881C-56.1434 519.482 -60.577 517.438 -65.1736 515.851C-88.7892 507.728 -114.572 512.111 -139.84 510.169C-159.339 508.495 -179.923 501.786 -192.312 485.976C-195.687 481.535 -198.119 476.397 -199.306 470.982C-197.891 476.343 -195.273 481.323 -191.789 485.564C-179.043 500.615 -158.748 506.511 -139.68 507.717C-114.809 509.11 -88.9006 504.208 -64.0468 512.567C-59.2255 514.211 -54.5888 516.34 -50.1752 518.834C-30.7629 529.89 -16.2745 546.905 -1.50542 562.709C16.4054 581.824 37.3346 601.37 64.3721 604.047C65.6603 604.168 66.9545 604.241 68.2493 604.253C73.7008 604.308 79.3969 603.291 83.9055 599.994Z" fill="#255791"/>
<path d="M245.945 716.78C243.665 711.009 241.229 705.307 238.627 699.688C224.413 668.899 204.873 640.417 179.552 618.048C163.437 603.483 144.7 592.517 125.356 582.492C103.588 571.59 83.1258 556.077 69.498 535.421C59.0872 519.599 48.8991 502.885 31.4916 494.853C20.4858 489.393 8.01381 487.148 -4.33867 487.415C-10.5185 487.536 -16.6928 488.248 -22.7792 489.387C-16.7401 488.02 -10.5779 487.083 -4.36298 486.751C8.05362 486.061 20.813 487.934 32.2598 493.24C50.3696 500.98 61.4889 518.353 71.9192 533.72C85.6792 553.832 105.301 568.489 127.007 579.406C146.303 589.397 165.477 600.784 181.602 615.767C207.002 638.811 226.051 668.105 239.235 699.419C241.651 705.136 243.883 710.927 245.945 716.78Z" fill="#255791"/>
<path d="M1547.69 205.352C1545.71 211.419 1543.46 217.111 1540.77 222.733C1519.6 277.626 1442.2 293.698 1397.68 256.025C1383.13 244.753 1371.54 228.854 1367.66 210.558C1358.29 173.512 1387.69 125.626 1428.64 134.055C1434.83 134.908 1440.85 136.601 1446.69 138.852C1440.77 136.82 1434.71 135.352 1428.56 134.715C1387.99 127.992 1361.62 174.581 1370.78 209.872C1374.67 227.234 1385.8 242.385 1399.83 253.263C1442.86 289.364 1516.98 276.024 1540.17 222.435C1543.04 216.936 1545.49 211.342 1547.69 205.352Z" fill="#255791"/>
<path d="M141.355 341.923C137.62 339.605 134.058 337.027 130.682 334.208C99.8121 308.088 88.1596 267.087 79.3819 229.136C78.4996 225.259 77.6431 221.355 76.8062 217.475C73.6474 202.916 70.2815 187.893 60.7244 176.645C52.8522 167.408 41.5024 161.719 31.5165 154.22C25.0767 149.349 19.1792 143.425 15.6282 136.102C13.7074 132.118 12.6272 127.696 12.8228 123.305C12.8628 127.701 14.155 131.99 16.2209 135.8C20.0391 142.798 26.0373 148.321 32.5121 152.842C42.5859 159.854 54.2203 165.156 62.8648 174.777C73.3222 186.556 76.9506 202.18 80.1974 216.734C81.0521 220.606 81.9157 224.497 82.7947 228.36C91.6114 266.256 101.872 306.414 131.121 333.708C134.336 336.665 137.748 339.41 141.355 341.923Z" fill="#255791"/>
<path d="M474.307 -2.47675C473.983 1.33666 473.11 5.08967 471.962 8.76541C460.176 41.6057 436.852 68.39 415.023 94.8376C410.338 100.391 405.59 105.905 400.997 111.412L400.464 108.839C424.853 121.076 453.243 106.629 480.349 111.282C484.143 111.955 487.863 113.042 491.36 114.612C487.774 113.258 484.029 112.398 480.25 111.94C453.403 108.653 425.98 124.543 398.924 111.842L397.057 110.871L398.391 109.268C402.954 103.666 407.669 98.1266 412.349 92.5792C434.166 66.1379 457.926 40.333 471.333 8.54934C472.669 4.97348 473.751 1.30899 474.307 -2.47675Z" fill="#255791"/>
<path d="M1822.69 -34.1482C1825.69 -5.87318 1824.77 24.396 1810.15 49.5968C1806.21 56.7061 1801.57 63.3824 1797.04 70.0881C1765.35 109.867 1720.21 135.089 1678.68 163.111C1613.27 203.431 1581.29 278.517 1565.08 351.172C1558.82 378.711 1550.07 405.412 1539.03 431.347C1528.51 456.612 1513.69 484.406 1527.7 510.175C1547.95 555.563 1616.64 588.616 1592.79 647.571C1586.57 661.734 1574.55 672.952 1560.68 679.311C1519.05 697.051 1473.1 689.311 1430.71 681.083C1384.57 671.388 1342.2 650.384 1297.24 638.342C1248.02 625.154 1196.63 622.87 1145.69 622.27C1073.54 621.491 998.164 624.376 933.253 658.487C894.761 678.944 862.493 711.993 844.969 752.162C833.574 778.342 829.372 808.082 835.754 836.146C829.141 808.137 833.107 778.27 844.358 751.901C861.66 711.438 893.854 677.98 932.528 657.121C997.662 622.387 1073.48 619.133 1145.72 619.621C1196.71 620.022 1248.35 622.12 1298.06 635.297C1343.44 647.351 1385.82 668.24 1431.41 677.736C1473.5 685.926 1519.25 693.262 1559.19 676.144C1572.48 670.031 1583.7 659.526 1589.61 646.132C1612.62 591.426 1546.31 558.48 1524.69 511.529C1510.02 484.447 1525.77 454.889 1536.17 430.14C1547.23 404.346 1555.99 377.909 1562.31 350.531C1578.81 277.678 1611.5 201.867 1677.71 161.593C1719.35 133.853 1764.68 108.823 1796.35 69.6153C1800.93 62.935 1805.6 56.3152 1809.57 49.272C1824.29 24.3466 1825.47 -5.83965 1822.69 -34.1482Z" fill="#255791"/>
<path d="M1251 -103.606C1249.11 -100.646 1246.19 -98.4338 1243.06 -96.8351C1239.9 -95.2121 1236.5 -94.1146 1233.13 -93.1022C1206.39 -85.0855 1179.01 -78.8182 1154.12 -66.6729C1150.98 -65.1422 1147.9 -63.5206 1144.87 -61.7973C1121.23 -48.2118 1100.29 -26.8566 1093.99 0.51561C1093.23 3.90784 1092.72 7.36446 1092.47 10.8517C1092.48 7.35611 1092.77 3.85466 1093.33 0.389915C1098 -27.681 1118.94 -50.7431 1143.15 -64.8023C1146.23 -66.5868 1149.38 -68.2554 1152.58 -69.8178C1178.04 -82.219 1205.75 -87.7564 1232.8 -94.322C1236.2 -95.1482 1239.59 -96.0355 1242.78 -97.4353C1245.93 -98.8162 1248.92 -100.781 1251 -103.606Z" fill="#255791"/>
<path d="M1292.55 -23.6624C1288.43 -20.4478 1284.14 -17.45 1279.75 -14.6154C1257.99 -0.595383 1233.87 9.37986 1212.69 23.8392C1195.31 35.6839 1180.09 50.5235 1167.31 67.196C1138.91 104.347 1122.18 149.4 1113.17 195.371C1112.18 200.493 1111.28 205.643 1110.48 210.799C1111.05 205.612 1111.73 200.424 1112.52 195.257C1119.67 148.896 1135.65 102.838 1164.53 65.0647C1177.52 48.122 1193.18 33.124 1211.06 21.4091C1232.88 7.10952 1257.18 -2.09189 1279.4 -15.1814C1283.89 -17.829 1288.3 -20.6349 1292.55 -23.6624Z" fill="#255791"/>
<path d="M1563.19 289.852C1561.84 293.676 1560.41 297.427 1558.88 301.109C1545.46 333.907 1521.26 367.411 1484.02 375.338C1478.69 376.47 1473.25 377.029 1467.81 377.016C1437.33 376.855 1404.54 375.804 1377.87 359.119C1374.47 356.959 1371.23 354.553 1368.2 351.914C1371.38 354.373 1374.73 356.585 1378.22 358.548C1405.42 373.628 1437.33 373.623 1467.81 373.577C1473.01 373.55 1478.21 372.996 1483.29 371.915C1518.7 364.452 1543.12 332.895 1558.28 300.839C1559.99 297.253 1561.62 293.592 1563.19 289.852Z" fill="#255791"/>
<path d="M1438.3 316.232C1435.7 315.83 1433.12 315.276 1430.57 314.582C1408.12 308.392 1389.52 292.239 1375.66 273.837C1375.25 273.289 1374.84 272.738 1374.44 272.185C1360.33 252.865 1350.54 231.034 1341.64 209.168C1340.65 206.732 1339.67 204.293 1338.69 201.852C1339.88 204.197 1341.06 206.545 1342.24 208.893C1352.87 229.997 1363.43 251.193 1377.26 270.118C1377.66 270.661 1378.06 271.201 1378.46 271.739C1392.04 289.786 1409.16 306.049 1430.77 313.948C1433.24 314.835 1435.75 315.601 1438.3 316.232Z" fill="#255791"/>
<path d="M248.134 488.953C247.442 487.693 246.768 486.422 246.112 485.141C240.21 473.612 235.824 461.249 233.107 448.531C230.387 435.813 229.336 422.737 230.007 409.803C230.082 408.366 230.177 406.93 230.294 405.497C230.411 406.93 230.537 408.361 230.672 409.789C231.893 422.64 233.859 435.295 236.53 447.799C239.204 460.302 242.583 472.655 246.725 484.882C247.185 486.241 247.655 487.597 248.134 488.953Z" fill="#255791"/>
<path d="M328.098 761.622C328.749 763.734 329.319 765.87 329.809 768.031C334.247 787.506 331.964 808.512 324.182 827.084C316.437 845.671 303.095 862.056 286.116 872.578C284.234 873.748 282.313 874.842 280.352 875.862C282.195 874.641 283.988 873.364 285.739 872.031C301.498 860.014 313.421 843.732 320.953 825.734C328.466 807.728 331.672 787.804 329.155 768.147C328.874 765.965 328.523 763.791 328.098 761.622Z" fill="#255791"/>
<path d="M206.397 553.347C206.579 551.085 208.579 549.311 210.733 548.637C211.921 548.252 213.21 548.125 214.482 548.339C218.11 548.962 220.965 551.461 223.472 553.768C234.637 564.144 244.519 575.958 252.82 588.792C263.657 605.535 271.799 624.022 276.753 643.235C277.304 645.369 277.815 647.512 278.287 649.663C277.59 647.574 276.867 645.497 276.118 643.432C269.371 624.84 260.54 607.173 249.882 590.693C241.711 578.065 232.46 566.135 222.176 555.067C219.874 552.61 217.456 550.159 214.274 549.315C213.201 549.032 212.03 549.03 210.91 549.278C208.88 549.715 206.83 551.126 206.397 553.347Z" fill="#255791"/>
<path d="M97.1659 421.728C97.1659 421.728 97.1659 421.728 97.1659 421.728C98.5469 421.611 99.0462 420.213 98.8534 419.068C98.6222 417.362 97.7387 415.696 96.5874 414.556C89.8026 407.931 82.6315 401.833 75.0991 396.221C66.1129 389.53 56.6133 383.525 46.5534 378.256C45.4355 377.671 44.3107 377.095 43.1786 376.529C43.1786 376.529 43.1786 376.529 43.1786 376.529C44.3954 376.878 45.6067 377.249 46.8117 377.643C57.6587 381.187 67.9821 386.552 77.1899 393.414C84.9121 399.164 91.8536 405.967 97.7133 413.554C98.938 415.191 99.5662 417.095 99.5182 419.05C99.4825 419.716 99.3355 420.417 98.914 420.969C98.4959 421.532 97.7948 421.764 97.1659 421.728Z" fill="#255791"/>
<path d="M160.732 335.956C160.584 337.04 160.442 338.123 160.306 339.206C159.087 348.948 158.369 358.614 158.097 368.292C157.828 377.97 158.003 387.662 158.673 397.457C158.747 398.545 158.828 399.635 158.915 400.726C158.599 399.678 158.299 398.625 158.017 397.566C155.472 388.038 154.319 378.096 154.598 368.194C154.874 358.292 156.581 348.43 159.657 339.06C159.999 338.019 160.357 336.984 160.732 335.956Z" fill="#255791"/>
<path d="M13.941 187.515C13.941 187.515 13.941 187.515 13.941 187.515C12.7372 184.795 14.2839 181.558 16.6167 179.833C19.2932 177.771 23.0051 176.77 26.4372 177.957C32.9588 180.344 36.3005 186.852 39.0934 192.43C46.1984 206.801 53.1414 221.247 59.9145 235.773C61.3135 238.773 62.7053 241.777 64.0897 244.784L69.6505 256.698L61.2015 246.622C46.9202 229.408 32.9138 211.964 19.1822 194.29C17.4307 192.035 15.6836 189.777 13.941 187.515C13.941 187.515 13.941 187.515 13.941 187.515C15.8625 189.627 17.7795 191.743 19.692 193.863C34.6856 210.48 49.4044 227.327 63.8484 244.404L60.9601 246.243C59.5473 243.249 58.1414 240.252 56.7424 237.252C49.9695 222.726 43.3601 208.124 36.9222 193.442C34.4131 187.769 31.6132 181.688 25.9468 179.211C23.1574 178.016 19.6491 178.614 17.0078 180.37C14.7183 181.832 12.9873 184.698 13.941 187.515ZM13.941 187.515" fill="#255791"/>
<path d="M97.5389 211.576C97.6434 208.439 97.7535 205.302 97.8693 202.165C98.7137 179.286 99.8586 156.429 101.325 133.593C101.485 131.495 101.399 129.543 100.52 128.591C99.8087 127.719 98.2555 127.263 96.4752 126.986C95.2217 126.777 93.9643 126.593 92.7017 126.428C79.9389 124.741 66.4937 125.073 53.6387 120.929C38.7633 116.103 26.7412 105.758 16.609 94.5879C14.4969 92.259 12.4493 89.8744 10.4481 87.4573C12.6234 89.719 14.8313 91.9503 17.0864 94.125C27.9137 104.575 40.2025 114.036 54.4884 118.166C66.8213 121.746 79.998 121.242 93.1558 122.957C94.4555 123.127 95.7552 123.32 97.0529 123.54C98.9245 123.88 101.362 124.28 103.16 126.348C105.173 128.837 104.841 131.688 104.715 133.834C102.959 156.646 100.905 179.441 98.5326 202.212C98.2074 205.334 97.8761 208.455 97.5389 211.576Z" fill="#255791"/>
<path d="M416.729 -4.14819C415.427 -3.30475 414.135 -2.44941 412.853 -1.58235C401.318 6.22338 390.592 14.9617 380.667 24.5273C370.745 34.0965 361.621 44.4963 353.399 55.7392C352.486 56.9886 351.584 58.2484 350.694 59.5189C351.383 58.1292 352.098 56.7507 352.837 55.3841C359.486 43.0822 368.113 31.7658 378.237 22.0076C388.359 12.2457 399.982 4.03822 412.519 -2.15719C413.912 -2.84576 415.315 -3.50958 416.729 -4.14819Z" fill="#255791"/>
<path d="M445.362 -12.1482C445.469 -10.8838 445.512 -9.60972 445.491 -8.33273C445.302 3.25236 439.965 14.4669 432.509 23.3057C432.509 23.3055 432.508 23.3064 432.508 23.3072C425.005 32.2245 415.565 38.9982 405.929 45.044C404.855 45.718 403.776 46.3844 402.694 47.0458C403.636 46.1973 404.583 45.3533 405.53 44.5119C414.054 36.9427 422.666 29.5797 429.829 21.0547C429.829 21.0539 429.83 21.0531 429.831 21.0523C436.936 12.5668 442.739 2.76305 444.829 -8.39811C445.057 -9.63483 445.236 -10.8855 445.362 -12.1482Z" fill="#255791"/>
<path d="M427.889 693.73C426.445 692.624 425.013 691.502 423.593 690.364C410.814 680.122 399.027 668.581 388.486 655.997C377.944 643.413 368.648 629.786 360.81 615.406C359.939 613.808 359.086 612.201 358.251 610.585C359.286 612.081 360.327 613.57 361.374 615.054C370.801 628.408 380.733 641.29 391.169 653.749C401.607 666.207 412.549 678.243 424.039 689.87C425.315 691.162 426.599 692.448 427.889 693.73Z" fill="#255791"/>
<path d="M89.0605 337.527C89.6533 337.814 90.2427 338.107 90.8286 338.404C96.1024 341.079 101.099 344.132 105.819 347.567C110.539 351.002 114.981 354.82 119.142 359.022C119.604 359.489 120.063 359.96 120.518 360.437C119.925 360.149 119.336 359.856 118.75 359.559C113.476 356.885 108.479 353.832 103.759 350.397C99.0399 346.961 94.5977 343.144 90.4369 338.942C89.9746 338.475 89.5158 338.003 89.0605 337.527Z" fill="#255791"/>
<path d="M375.953 90.2498C376.872 91.4028 377.706 92.631 378.447 93.9202C385.19 105.742 383.716 121.024 377.64 133.069C377.634 133.081 377.627 133.094 377.621 133.107C371.442 145.322 361.395 154.646 351.172 162.958C350.029 163.887 348.879 164.807 347.725 165.722C347.725 165.722 347.725 165.722 347.725 165.722C348.72 164.636 349.719 163.554 350.717 162.473C359.681 152.764 368.697 143.036 374.496 131.53C374.502 131.518 374.509 131.505 374.515 131.493C380.143 120.163 382.64 106.522 377.848 94.2101C377.31 92.8573 376.678 91.5333 375.953 90.2498Z" fill="#255791"/>
<path d="M301.33 258.481C301.026 257.183 300.744 255.879 300.484 254.569C298.145 242.784 297.629 230.574 298.936 218.563C300.238 206.553 303.364 194.738 308.174 183.728C308.709 182.505 309.263 181.292 309.839 180.089C309.482 181.374 309.137 182.659 308.803 183.946C305.8 195.526 303.694 207.19 302.415 218.941C301.141 230.693 300.693 242.537 301.145 254.492C301.195 255.82 301.257 257.15 301.33 258.481Z" fill="#255791"/>
<path d="M560.437 243.411C549.422 241.678 538.892 237.18 529.748 230.755C505.677 213.854 490.324 183.538 494.612 153.696L496.464 154.492C453.784 210.393 422.556 277.295 418.742 347.879C417.241 377.612 421.234 407.689 431.593 435.633C442.253 464.513 459.274 490.765 470.787 519.724C485.367 556.415 490.34 596.734 485.516 635.747C484.148 646.814 481.991 657.777 479.044 668.516C481.765 657.718 483.699 646.732 484.855 635.672C488.929 596.685 483.352 556.772 468.514 520.641C456.808 492.115 439.565 466.04 428.551 436.766C417.865 408.438 413.721 377.854 415.247 347.706C419.124 276.114 451.193 208.801 494.821 153.211L497.278 150.073L496.673 154.008C492.106 182.868 506.571 213.003 530.135 230.214C539.082 236.755 549.461 241.447 560.437 243.411Z" fill="#255791"/>
<path d="M462.915 344.211C462.915 344.211 462.915 344.211 462.915 344.211C464.14 345.274 465.464 346.196 466.858 346.968C478.709 353.146 492.233 349.757 505.573 350.369C506.917 350.42 508.259 350.514 509.597 350.651C524.433 352.15 538.622 358.902 549.006 369.222C550.16 370.366 551.267 371.554 552.324 372.781C552.324 372.781 552.324 372.781 552.324 372.781C551.102 371.718 549.85 370.699 548.569 369.723C537.036 360.95 523.327 355.583 509.243 354.133C507.971 354.003 506.697 353.906 505.42 353.843C492.748 353.084 477.98 355.534 466.499 347.527C465.178 346.553 463.974 345.439 462.915 344.211Z" fill="#255791"/>
<path d="M516.514 293.559C514.93 293.086 513.376 292.493 511.866 291.791C498.033 285.26 489.626 270.945 484.77 256.944C484.767 256.936 484.765 256.928 484.762 256.919C479.863 242.711 477.698 228.051 472.016 214.368C471.384 212.85 470.708 211.348 469.982 209.864C470.91 211.231 471.786 212.636 472.612 214.073C480.083 227.104 483.3 241.98 488.07 255.778C488.073 255.786 488.076 255.794 488.079 255.802C492.873 269.423 499.66 283.159 512.185 291.207C513.568 292.08 515.012 292.867 516.514 293.559Z" fill="#255791"/>
<path d="M593.057 323.454C590.346 323.694 587.635 323.928 584.924 324.155C572.631 325.187 560.332 326.092 548.03 326.888C538.882 327.468 529.258 328.027 520.025 324.985C517.116 324.022 514.349 322.717 511.73 321.223C507.022 318.535 502.785 315.268 498.638 312.039C483.727 300.322 467.629 286.969 462.191 267.925C461.465 265.282 460.989 262.578 460.783 259.865C461.221 262.551 461.911 265.183 462.825 267.725C469.591 285.905 485.619 297.888 500.685 309.364C504.881 312.522 509.03 315.654 513.463 318.182C515.93 319.589 518.483 320.803 521.128 321.706C529.498 324.57 538.737 324.333 547.903 324.089C560.228 323.765 572.558 323.571 584.894 323.491C587.614 323.473 590.335 323.461 593.057 323.454Z" fill="#255791"/>
<path d="M549.505 500.956C546.756 503.798 542.308 503.154 538.792 502.266C538.067 502.079 537.345 501.882 536.627 501.676C507.108 493.151 484.814 469.737 466.723 445.926C460.534 437.762 454.614 429.322 449.539 420.329C444.08 410.658 439.611 400.29 437.149 389.355C430.493 359.825 438.683 329.993 448.219 302.533C449.694 298.298 451.218 294.081 452.756 289.871C451.439 294.156 450.126 298.442 448.852 302.737C440.592 330.628 433.537 360.264 440.353 388.61C442.863 399.128 447.246 409.146 452.588 418.61C457.552 427.407 463.332 435.762 469.378 443.936C487.09 467.771 508.044 491.218 536.825 501.042C537.527 501.279 538.234 501.508 538.945 501.728C542.368 502.759 546.619 503.626 549.505 500.956Z" fill="#255791"/>
<path d="M521.052 431.81C520.815 430.693 520.301 429.68 519.653 428.79C517.94 426.486 515.448 424.884 512.866 423.918C510.374 422.949 507.109 422.801 506.225 424.297C504.468 426.918 505.864 431.358 507.655 434.828C509.022 437.461 510.784 439.938 512.83 442.115C517.467 447.06 523.374 450.853 529.458 454.429C530.437 455.008 531.421 455.585 532.402 456.165C531.323 455.797 530.247 455.421 529.174 455.031C522.541 452.63 515.905 449.477 510.55 444.399C508.126 442.099 506.096 439.417 504.546 436.436C502.668 432.493 500.457 427.294 503.863 422.455C507.1 419.13 511.064 420.764 513.71 422.032C516.477 423.506 518.872 425.686 520.225 428.451C520.732 429.511 521.049 430.667 521.052 431.81Z" fill="#255791"/>
<path d="M569.618 405.177C567.601 403.189 565.497 401.297 563.32 399.504C543.695 383.382 518.182 375.153 493.244 376.82C492.484 376.872 491.725 376.932 490.967 377.003C489.234 377.155 487.689 377.424 486.73 378.146C485.228 379.189 484.591 381.625 484.266 384.174C481.629 403.867 484.543 424.343 492.656 442.788C493.794 445.371 495.035 447.914 496.378 450.407C494.834 448.033 493.393 445.587 492.058 443.079C482.522 425.174 478.485 404.156 480.914 383.748C481.275 381.08 481.703 377.64 484.667 375.355C486.634 373.914 488.832 373.711 490.637 373.521C491.428 373.446 492.218 373.382 493.007 373.328C518.949 371.554 545.273 381.301 563.761 399.006C565.815 400.97 567.771 403.03 569.618 405.177Z" fill="#255791"/>
<path d="M455.783 353.865C456.105 354.583 456.419 355.304 456.726 356.027C459.487 362.541 461.628 369.275 463.127 376.149C464.627 383.023 465.487 390.037 465.692 397.108C465.714 397.894 465.729 398.68 465.736 399.467C465.499 398.717 465.265 397.967 465.035 397.216C462.967 390.463 461.195 383.71 459.708 376.895C458.221 370.081 457.019 363.204 456.084 356.203C455.981 355.425 455.88 354.646 455.783 353.865Z" fill="#255791"/>
<path d="M529.783 342.865C531.343 343.689 532.898 344.526 534.446 345.376C548.376 353.02 561.771 361.662 574.486 371.209C587.202 380.756 599.238 391.209 610.461 402.458C611.708 403.707 612.945 404.967 614.171 406.236C612.788 405.14 611.404 404.046 610.019 402.954C597.553 393.13 585.023 383.498 572.385 374.008C559.746 364.519 547 355.173 534.092 345.939C532.657 344.912 531.221 343.888 529.783 342.865Z" fill="#255791"/>
<path d="M1135.86 244.38C1132.91 254.107 1130.01 263.859 1127.41 273.681C1118.24 308.304 1112.18 345.819 1124.29 379.994C1130.4 397.334 1140.95 412.796 1148.21 430.093C1161.08 460.863 1162.66 496.155 1152.69 528.028C1151.53 531.726 1150.2 535.374 1148.7 538.951C1141.71 555.563 1130.72 571.267 1114.83 580.73C1094.05 593.055 1069.48 592.528 1046.73 593.351C996.968 595.265 944.227 605.933 906.511 640.474C899.063 647.371 892.435 655.126 886.803 663.614C886.803 663.614 886.803 663.614 886.803 663.614C892.238 654.999 898.712 647.076 906.054 639.99C943.263 604.446 996.518 592.786 1046.61 590.421C1069.49 589.421 1093.5 589.605 1113.09 577.818C1128.09 568.813 1138.69 553.736 1145.47 537.595C1146.93 534.122 1148.23 530.576 1149.36 526.98C1159.1 495.932 1157.73 461.434 1145.4 431.258C1138.46 414.275 1128.01 398.619 1121.96 380.8C1110.03 345.654 1116.9 307.957 1126.77 273.505C1129.58 263.725 1132.69 254.037 1135.86 244.38Z" fill="#255791"/>
<path d="M800.177 714.852C800.177 714.852 800.177 714.852 800.177 714.852C800.658 709.296 800.621 703.712 800.093 698.185C794.912 650.672 758.703 613.608 719.664 589.457C717.01 587.834 714.325 586.255 711.616 584.718C668.082 560.159 619.33 546.535 570.892 533.983C565.496 532.593 560.095 531.22 554.694 529.852C554.694 529.852 554.694 529.852 554.694 529.852C560.147 530.993 565.6 532.15 571.046 533.336C619.906 544.053 669.23 556.802 713.342 581.674C716.085 583.229 718.803 584.832 721.488 586.483C761.072 610.998 797.382 649.952 800.756 698.134C801.078 703.717 800.89 709.321 800.177 714.852Z" fill="#255791"/>
<path d="M789.99 805.353C789.674 805.414 789.417 805.677 789.39 805.99C789.353 806.3 789.452 806.611 789.602 806.88C789.895 807.413 790.489 807.853 791.068 807.702C792.43 807.346 792.946 805.821 793.311 804.533C793.754 802.921 794.182 801.304 794.596 799.685C799.126 781.955 801.935 763.832 802.957 745.635L802.981 745.204L803.282 744.846C817.014 729.039 837.128 718.118 843.938 699.275C844.658 696.638 844.793 693.921 844.186 691.323C839.685 671.837 829.326 654.208 819.285 636.677C811.395 622.883 803.532 608.798 798.738 593.533C797.433 589.371 796.367 585.137 795.608 580.852C795.608 580.852 795.608 580.852 795.608 580.852C796.596 585.09 797.871 589.248 799.367 593.319C804.861 608.242 813.16 621.846 821.438 635.403C831.955 652.622 842.819 670.337 847.579 690.533C848.343 693.732 848.164 697.106 847.317 700.189C839.362 721.504 818.908 731.51 805.324 746.61L805.648 745.821C804.144 764.172 800.631 782.331 795.236 799.865C794.743 801.467 794.235 803.063 793.711 804.654C793.27 805.94 792.654 807.571 791.111 807.899C790.394 808.036 789.789 807.495 789.512 806.928C789.37 806.637 789.284 806.306 789.34 805.982C789.386 805.652 789.673 805.395 789.99 805.353Z" fill="#255791"/>
<path d="M1097.95 258.515C1099.21 262.988 1100.13 267.567 1100.69 272.196C1102.02 283.093 1101.44 294.272 1098.87 305.029C1095.93 317.327 1090.55 328.781 1088.09 340.821C1084.38 358.593 1087.23 377.022 1092.63 394.334C1104.62 433.667 1130.02 470.874 1128.07 513.86C1127.78 518.519 1127.13 523.121 1126.07 527.675C1126.07 527.675 1126.07 527.675 1126.07 527.675C1126.9 523.074 1127.33 518.467 1127.4 513.835C1127.44 471.338 1101.59 435.527 1089.29 395.367C1083.79 377.763 1080.98 358.569 1085.21 340.2C1088.03 327.744 1093.71 316.479 1096.98 304.543C1099.84 294.106 1100.86 283.131 1100.03 272.262C1099.68 267.645 1098.99 263.046 1097.95 258.515Z" fill="#255791"/>
<path d="M1075.34 398.852C1075.34 398.852 1075.34 398.852 1075.34 398.852C1074.77 400.252 1074.31 401.681 1073.93 403.127C1070.67 416.338 1074.64 429.59 1078.27 442.447C1078.27 442.45 1078.27 442.453 1078.27 442.457C1081.95 455.305 1085.67 469.594 1081.43 482.936C1080.95 484.384 1080.39 485.795 1079.72 487.153C1080.17 485.709 1080.52 484.246 1080.78 482.774C1083.05 469.361 1078.58 456.362 1074.91 443.429C1074.91 443.426 1074.91 443.422 1074.91 443.419C1071.23 430.543 1068.05 415.938 1073.3 402.916C1073.88 401.508 1074.57 400.147 1075.34 398.852Z" fill="#255791"/>
<path d="M1453.69 642.352C1461.92 649.83 1470.7 656.36 1480.3 661.5C1504.92 675.59 1538.99 676.114 1559.37 655.347C1569.27 645.6 1575.72 630.891 1571.63 617.501C1567.56 603.919 1553.26 596.929 1539.45 594.834C1519.09 591.408 1498.45 586.918 1480.16 576.531C1461.3 566.352 1450.27 547.449 1435.31 533.975C1432.92 531.785 1430.52 529.745 1427.95 527.731L1427.89 527.689C1397.85 502.264 1361.83 483.919 1323.55 474.612C1291.71 466.951 1254.32 466.022 1228.24 488.014C1211.81 502.258 1205.59 526.947 1212.12 547.8C1215.38 558.149 1222.89 567.369 1233.15 571.507C1222.81 567.596 1214.99 558.446 1211.49 548.013C1204.48 526.993 1210.23 501.755 1227.07 486.659C1253.59 463.639 1291.9 464.228 1324.23 471.73C1363.06 480.823 1399.67 499.253 1430.15 525.019L1430.1 524.976C1432.75 527.045 1435.22 529.144 1437.68 531.396C1453.17 545.452 1463.82 563.845 1481.85 573.61C1499.42 583.7 1519.77 588.322 1539.94 591.87C1554.2 594.132 1569.76 601.695 1574.12 616.747C1578.4 631.53 1571.21 646.843 1560.83 656.829C1539.32 678.103 1504.42 676.721 1479.98 662.083C1470.42 656.726 1461.77 650 1453.69 642.352Z" fill="#255791"/>
<path d="M1447.02 588.233C1443.19 586.79 1439.65 584.595 1436.45 582.026C1430.4 577.175 1425.46 571.152 1420.31 565.502C1400.82 544.088 1376.66 527.156 1350.1 515.974C1342.07 512.595 1333.82 509.744 1325.42 507.463C1310.14 503.329 1294.06 501.017 1278.51 504.147C1267.04 506.48 1255.99 512.02 1247.94 520.772C1245.2 523.763 1242.85 527.13 1241.04 530.794C1242.64 527.033 1244.82 523.508 1247.44 520.336C1255.14 511.04 1266.25 504.815 1278.03 501.991C1293.98 498.197 1310.67 500.215 1326.27 504.236C1334.86 506.453 1343.28 509.307 1351.46 512.748C1378.51 524.127 1402.84 541.962 1421.61 564.367C1426.56 570.269 1431.16 576.427 1436.88 581.518C1439.91 584.214 1443.27 586.573 1447.02 588.233Z" fill="#255791"/>
<path d="M1365.68 601.173C1363.79 602.036 1361.85 602.806 1359.87 603.483C1342.03 609.606 1321.56 607.851 1304.43 599.41C1294.5 594.536 1285.63 587.374 1279.08 578.473C1276.1 574.422 1273.32 569.619 1273.36 564.276C1273.4 561.198 1274.61 558.232 1276.66 556.072C1278.13 554.52 1280.15 553.453 1282.24 553.365C1280.17 553.692 1278.39 554.925 1277.16 556.509C1275.45 558.713 1274.63 561.553 1274.83 564.23C1275.2 569.003 1278 573.176 1281.09 576.903C1287.88 585.079 1296.48 591.604 1305.97 596.269C1322.36 604.297 1341.51 607.045 1359.69 602.844C1361.71 602.375 1363.7 601.819 1365.68 601.173Z" fill="#255791"/>
<path d="M1332.83 569.644C1332.83 569.644 1332.83 569.644 1332.83 569.644C1333.37 570.919 1334.17 572.042 1335.09 573.026C1344.15 581.304 1357.38 582.875 1369.08 581.997C1369.58 581.948 1370.07 581.892 1370.56 581.828C1372.1 581.645 1373.79 581.286 1374.45 580.767L1374.46 580.76C1374.69 580.562 1374.7 580.55 1374.74 580.321C1374.78 580.086 1374.7 579.617 1374.54 579.062C1372.13 570.814 1367.22 563.281 1361.26 556.668C1360.34 555.646 1359.39 554.644 1358.42 553.661C1358.42 553.661 1358.42 553.661 1358.42 553.661C1359.54 554.466 1360.64 555.308 1361.72 556.186C1368.67 561.861 1374.66 569.229 1377.67 578.081C1377.88 578.746 1378.14 579.536 1378.08 580.582C1378.05 581.634 1377.38 582.821 1376.6 583.41L1376.61 583.403C1374.56 584.92 1372.76 584.999 1371.02 585.294C1370.49 585.365 1369.96 585.428 1369.43 585.48C1356.86 586.472 1342.74 583.563 1334.57 573.442C1333.77 572.278 1333.14 570.992 1332.83 569.644Z" fill="#255791"/>
<path d="M1322.03 532.738C1322.91 532.637 1323.79 532.546 1324.67 532.461C1325.52 532.379 1326.36 532.302 1327.21 532.227L1327.05 533.447C1320.03 532.464 1313.09 531.369 1306.18 530.133C1304.06 529.754 1301.93 529.362 1299.81 528.956C1294.33 528 1288.64 526.844 1283.19 528.178C1282.37 528.42 1281.56 528.767 1280.85 529.29C1281.4 528.597 1282.13 528.024 1282.92 527.569C1288.31 524.784 1294.57 525.084 1300.33 525.709C1302.49 525.978 1304.65 526.304 1306.79 526.688C1313.78 527.937 1320.67 529.792 1327.35 532.246L1332.59 533.607L1327.18 533.466C1326.34 533.361 1325.5 533.246 1324.65 533.126C1323.78 533.001 1322.9 532.87 1322.03 532.738Z" fill="#255791"/>
<path d="M1430.25 651.855C1429.66 650.609 1429.07 649.367 1428.47 648.132C1423.05 637.017 1416.94 626.39 1410.31 616.101C1403.66 605.811 1396.49 595.856 1388.87 586.116C1388.02 585.032 1387.17 583.955 1386.31 582.876C1387.34 583.795 1388.35 584.722 1389.36 585.667C1398.4 594.154 1406.49 603.732 1413.25 614.203C1420 624.665 1425.41 636.029 1429.09 647.887C1429.49 649.204 1429.88 650.529 1430.25 651.855Z" fill="#255791"/>
<path d="M1567.69 579.852C1562.47 580.377 1557.54 580.724 1552.46 580.815C1537.4 581.14 1516.97 578.955 1511.44 561.612C1506.57 546.304 1504.95 529.434 1491.5 520.435C1480.35 512.13 1470.56 502.245 1461.3 492.056C1443.68 472.669 1427.64 451.742 1406.46 436.598C1390.8 425.407 1372.76 417.792 1354.29 412.037C1349.46 410.532 1344.59 409.148 1339.69 407.852C1344.64 408.921 1349.57 410.091 1354.47 411.398C1373.21 416.395 1391.68 423.461 1407.92 434.494C1429.9 449.445 1446.4 470.472 1463.89 489.702C1473.09 499.824 1482.66 509.597 1493.46 517.847C1507.89 527.767 1509.37 546.384 1513.6 560.819C1518.09 576.877 1537.26 579.847 1552.46 580.15C1557.52 580.269 1562.46 580.145 1567.69 579.852Z" fill="#255791"/>
<path d="M1922.69 881.352C1916.28 888.878 1907.47 894.238 1897.98 897.068C1865.84 905.867 1831.68 893.804 1805 875.312C1787.49 862.99 1768.7 851.077 1747.54 848.161C1726.32 844.956 1705.41 854.362 1689.3 868.172C1678.77 876.964 1664.72 879.312 1651.77 879.246C1578.28 873.352 1512.84 833.366 1458.56 786.433C1446.46 775.087 1436.03 762.219 1423.77 751.186C1416.47 744.609 1408.43 738.715 1399.41 734.673C1408.53 738.5 1416.74 744.238 1424.21 750.687C1436.76 761.505 1447.47 774.209 1459.66 785.24C1514.28 830.949 1580.27 870.093 1651.79 875.746C1664.32 875.823 1677.53 873.498 1687.09 865.532C1703.6 851.427 1725.75 841.549 1747.95 845.119C1770.05 848.381 1788.93 860.785 1806.39 873.392C1832.37 891.924 1865.86 904.452 1897.79 896.429C1907.24 893.829 1916.1 888.724 1922.69 881.352Z" fill="#255791"/>
<path d="M1529.94 734.655C1527.18 733.522 1524.18 733.132 1521.27 733.425C1511.45 734.606 1503.5 741.258 1496.37 747.78C1487.22 756.029 1475.2 766.786 1460.81 761.954C1456.66 760.424 1453.33 757.561 1450.49 754.605C1449 753.047 1447.61 751.436 1446.24 749.856C1430.15 731.341 1412.25 714.386 1392.8 699.247C1390.45 697.422 1388.08 695.623 1385.69 693.852C1388.22 695.43 1390.71 697.049 1393.19 698.708C1413.71 712.462 1432.5 728.937 1448.86 747.566C1450.25 749.149 1451.61 750.713 1453.01 752.181C1455.69 754.979 1458.63 757.45 1462.02 758.737C1473.55 763.041 1485.38 753.935 1494.79 746.009C1502.33 739.704 1510.98 733.267 1521.23 732.761C1524.25 732.67 1527.28 733.309 1529.94 734.655Z" fill="#255791"/>
<path d="M1465.63 863.809C1465.49 863.745 1465.31 863.794 1465.28 863.941C1465.24 864.076 1465.26 864.227 1465.31 864.362C1465.39 864.632 1465.63 864.877 1465.87 864.764C1466.51 864.491 1466.51 863.62 1466.43 862.956C1466.3 862.025 1466.14 861.104 1465.95 860.188C1463.45 848.554 1456.17 838.994 1449.87 828.92C1445.28 821.602 1441.16 814.031 1437.07 806.495C1427.34 788.63 1417.74 770.326 1402.12 757.011C1400.39 755.543 1398.6 754.15 1396.74 752.83C1396.74 752.83 1396.74 752.83 1396.74 752.83C1398.73 753.953 1400.65 755.171 1402.52 756.484C1419.54 768.444 1430.45 786.978 1440.15 804.826C1444.25 812.38 1448.19 819.978 1452.45 827.373C1458.26 837.535 1465.17 848.011 1466.61 860.082C1466.72 861.027 1466.79 861.973 1466.82 862.922C1466.84 863.634 1466.78 864.65 1465.92 864.936C1465.75 864.992 1465.55 864.933 1465.43 864.81C1465.31 864.689 1465.25 864.538 1465.22 864.386C1465.18 864.234 1465.18 864.071 1465.24 863.924C1465.29 863.759 1465.51 863.73 1465.63 863.809Z" fill="#255791"/>
<path d="M1414.18 871.359C1408.94 872.36 1403.54 872.518 1398.21 871.902C1377.49 869.377 1359.32 856.534 1345.91 840.9C1328.88 820.881 1318.23 796.765 1303.85 775.492C1303.02 774.258 1302.17 773.032 1301.31 771.816C1284.91 748.619 1263.86 728.712 1239.71 713.619C1223.53 703.59 1205.29 695.571 1185.95 695.466C1180.65 695.461 1175.33 696.113 1170.19 697.505C1175.27 695.889 1180.59 695.007 1185.94 694.801C1205.48 694.129 1224.36 701.704 1241 711.493C1265.8 726.185 1287.49 746.201 1304.17 769.796C1305.04 771.033 1305.9 772.28 1306.75 773.537C1321.34 795.216 1331.63 819.269 1347.89 839.253C1360.66 854.818 1377.97 867.938 1398.3 871.243C1403.53 872.058 1408.9 872.13 1414.18 871.359Z" fill="#255791"/>
<path d="M1401.02 799.847C1401.02 799.847 1401.02 799.847 1401.02 799.847C1396.01 792.042 1387.88 787.035 1379.6 783.295C1370.14 778.991 1360.11 775.942 1350.84 770.918C1318.76 753.09 1305.45 716.374 1278.34 694.224C1265 683.296 1248.88 676.318 1232.53 670.611C1214.4 664.292 1195.64 659.689 1176.6 657.327C1137.56 652.393 1095.61 657.541 1063.06 680.581C1041.98 695.397 1026.04 716.275 1008.06 734.976C996.443 747.043 983.64 758.317 968.714 766.119C960.556 770.374 951.759 773.48 942.668 774.809C942.668 774.809 942.668 774.809 942.668 774.809C951.723 773.248 960.395 769.943 968.4 765.533C983.043 757.446 995.497 746.015 1006.83 733.811C1024.38 714.894 1040.02 693.683 1061.42 678.268C1094.48 654.302 1137.44 648.835 1177.03 653.853C1196.35 656.25 1215.33 660.966 1233.64 667.455C1250.11 673.308 1266.56 680.542 1280.21 691.961C1307.87 715.217 1320.37 751.719 1351.49 769.752C1360.49 774.872 1370.47 778.151 1379.89 782.693C1388.13 786.639 1396.21 791.914 1401.02 799.847Z" fill="#255791"/>
<path d="M1396.9 728.816C1394.82 729.424 1392.64 729.731 1390.45 729.746C1381.31 729.763 1372.65 725.141 1366.01 718.938C1358.12 711.517 1352.66 702.215 1346.56 693.828C1346.23 693.38 1345.9 692.934 1345.57 692.491C1334.47 677.571 1320.16 665.026 1303.69 655.856C1301.81 654.807 1299.9 653.804 1297.96 652.847C1299.99 653.589 1302 654.394 1303.99 655.26C1321.37 662.817 1336.91 675.046 1348.38 690.399C1348.72 690.854 1349.06 691.312 1349.39 691.771C1355.64 700.39 1360.74 709.591 1367.88 717.041C1373.86 723.223 1381.65 728.226 1390.48 729.081C1392.6 729.273 1394.76 729.197 1396.9 728.816Z" fill="#255791"/>
<path d="M1353.48 731.848C1353.48 731.848 1353.48 731.848 1353.48 731.848C1351.4 730.875 1349.41 729.754 1347.48 728.486C1329.93 716.679 1321.42 696.381 1309.5 680.241C1305.77 675.14 1301.68 670.34 1296.93 666.284C1286.49 657.373 1272.74 652.269 1258.68 652.116C1256.41 652.093 1254.13 652.201 1251.86 652.446C1251.86 652.446 1251.86 652.446 1251.86 652.446C1254.09 651.97 1256.37 651.639 1258.66 651.451C1272.84 650.282 1287.65 654.657 1298.99 663.803C1304.13 667.944 1308.49 672.925 1312.32 678.175C1324.65 694.925 1331.82 714.878 1347.88 727.948C1349.65 729.368 1351.51 730.669 1353.48 731.848Z" fill="#255791"/>
<path d="M1244.54 782.467C1242.82 779.989 1241.1 777.512 1239.35 775.051C1228.11 759.186 1215.6 743.281 1198.24 734.868C1191.62 731.645 1184.44 729.634 1177.12 728.699C1166.16 727.305 1154.92 728.243 1144.15 730.97C1128.98 734.815 1114.75 742.054 1101.44 750.583C1098.9 752.208 1096.39 753.883 1093.9 755.596C1096.25 753.696 1098.63 751.839 1101.06 750.036C1113.78 740.579 1127.85 732.482 1143.37 728.064C1154.4 724.929 1166.09 723.767 1177.56 725.228C1185.23 726.205 1192.79 728.397 1199.7 731.932C1217.84 741.21 1229.79 758.101 1239.91 774.685C1241.48 777.266 1243.02 779.863 1244.54 782.467Z" fill="#255791"/>
<path d="M1115.02 698.28C1112.14 697.45 1109.19 696.944 1106.22 696.743C1093.85 695.911 1081.29 700.348 1072.62 708.797C1066 715.242 1061.62 723.643 1056.38 731.639C1053.63 735.831 1050.64 739.868 1047.44 743.729C1030.06 764.732 1006.44 780.464 980.592 788.323C977.721 789.196 974.824 789.974 971.907 790.651C974.763 789.749 977.586 788.762 980.376 787.694C1005.48 778.067 1027.77 761.976 1044.75 741.496C1047.87 737.728 1050.81 733.809 1053.54 729.753C1058.77 722.02 1063.49 713.443 1070.78 706.837C1080.4 698.151 1093.81 694.35 1106.29 696.082C1109.28 696.496 1112.22 697.229 1115.02 698.28Z" fill="#255791"/>
<path d="M1013.18 667.417C1009.54 672.746 1004.79 677.292 999.475 680.978C983.33 692.021 963.837 696.002 945.786 702.262C924.683 709.533 904.122 721.12 891.606 739.606C882.741 752.664 878.578 768.349 876.21 784.047C874.964 792.266 874.174 800.578 873.41 808.915C869.124 857.796 864.495 909.286 885.351 954.949C888.063 960.775 891.198 966.413 894.754 971.789C891.005 966.545 887.667 961.002 884.753 955.239C862.242 909.967 865.9 857.5 869.983 808.609C870.709 800.259 871.483 791.873 872.749 783.522C875.156 767.585 879.492 751.348 888.896 737.754C902.211 718.507 923.572 707.041 945.082 700.139C963.45 694.222 982.789 690.822 999.104 680.426C1004.48 676.951 1009.35 672.611 1013.18 667.417Z" fill="#255791"/>
<path d="M1345.29 449.924C1343.58 451.762 1340.67 451.767 1338.36 451.04C1337.03 450.641 1335.77 450.051 1334.57 449.355C1316.47 438.652 1307.09 418.497 1299.63 399.845C1298.94 398.092 1298.26 396.33 1297.58 394.574C1290.46 376.265 1283.66 357.2 1269.26 343.44C1267.51 341.798 1265.65 340.261 1263.69 338.852C1265.78 340.065 1267.78 341.435 1269.69 342.936C1285.51 355.597 1293.6 375.079 1300.83 393.317C1301.51 395.063 1302.2 396.815 1302.89 398.556C1310.36 417.155 1318.41 436.668 1335.11 448.505C1336.19 449.26 1337.35 449.923 1338.58 450.411C1340.71 451.28 1343.4 451.569 1345.29 449.924Z" fill="#255791"/>
<path d="M558.364 626.955C564.225 628.774 570.203 630.166 576.228 631.256C597.852 635.162 619.886 635.265 641.798 637.954C669.391 641.398 699.157 649.925 717.424 673.025C720.673 677.166 723.432 681.672 725.724 686.382C732.982 701.358 735.643 717.91 736.73 734.154C739.273 773.212 732.956 813.342 715.283 848.293C712.507 853.776 709.456 859.116 706.134 864.274C709.258 858.993 712.107 853.558 714.684 848.003C731.073 812.603 736.367 772.94 733.483 734.383C732.254 718.364 729.533 702.249 722.578 687.914C720.382 683.403 717.76 679.109 714.686 675.166C697.5 653.2 668.75 644.361 641.471 640.405C619.814 637.288 597.663 636.569 576.098 631.909C570.092 630.608 564.152 628.995 558.364 626.955Z" fill="#255791"/>
<path d="M683.526 1084.43C683.526 1084.43 683.526 1084.43 683.526 1084.43C683.611 1077.59 683.682 1070.75 683.739 1063.91C683.873 1047.64 683.925 1031.38 683.894 1015.12C683.793 994.854 683.576 973.57 673.646 955.962C666.177 942.769 653.194 933.316 645.042 919.491C640.144 911.197 637.369 901.809 636.237 892.357C634.254 875.412 637.006 858.328 642.307 842.356C650.561 817.691 664.285 795.692 673.936 772.02C681.088 754.38 685.954 735.387 684.776 716.212C684.337 709.414 683.071 702.645 680.808 696.185C680.808 696.185 680.808 696.185 680.808 696.185C683.291 702.564 684.786 709.325 685.439 716.159C687.223 735.447 682.801 754.827 675.943 772.815C666.687 796.926 653.305 819.141 645.433 843.389C640.381 859.031 637.803 875.685 639.712 891.938C640.799 901.008 643.426 909.916 648.006 917.755C655.553 930.839 668.507 940.458 676.295 954.473C686.506 973.217 686.185 994.854 685.859 1015.14C685.522 1031.4 685.037 1047.67 684.404 1063.93C684.137 1070.76 683.844 1077.6 683.526 1084.43Z" fill="#255791"/>
<path d="M714.982 951.488C714.982 951.488 714.982 951.488 714.982 951.488C716.926 948.337 718.153 944.796 718.692 941.18C720.211 930.99 716.395 920.051 708.487 913.82C704.955 911.024 700.728 909.09 696.681 906.547C680.768 896.48 671.539 877.508 671.995 858.776C672.14 852.832 673.278 846.887 675.474 841.334C678.659 833.321 683.549 826.417 687.62 819.28C697.022 802.818 702.665 784.153 704.019 765.053C704.279 761.373 704.379 757.677 704.315 753.979C704.612 757.666 704.734 761.372 704.683 765.081C704.42 784.331 699.471 803.63 690.236 820.733C686.232 828.138 681.554 835.032 678.656 842.575C676.666 847.756 675.63 853.297 675.494 858.863C675.07 876.406 683.426 894.37 698.131 904.324C701.896 906.868 706.167 908.994 709.863 912.148C718.202 919.293 721.485 930.986 719.347 941.297C718.587 944.958 717.121 948.467 714.982 951.488Z" fill="#255791"/>
<path d="M513.055 668.676C513.055 668.676 513.055 668.676 513.055 668.676C512.935 676.339 513.083 684.033 513.652 691.671C515.586 718.257 523.41 750.512 550.479 759.879C558.385 762.687 567.343 763.046 575.475 767.236C601.137 782.009 595.544 815.485 590.248 839.061L587.181 837.597C590.952 832.137 594.147 825.582 597.323 819.404C608.781 796.003 620.663 772.105 628.769 747.842C632.259 730.426 616.039 716.204 601.338 707.915C578.907 697.996 553.702 693.058 530.962 682.494C524.216 679.096 516.492 675.79 513.039 668.692C513.044 668.686 513.05 668.681 513.055 668.676C513.055 668.676 513.055 668.676 513.055 668.676C513.05 668.681 513.045 668.687 513.039 668.692C516.691 675.65 524.431 678.687 531.236 681.888C554.24 691.823 579.027 695.981 602.462 705.856C617.522 714.125 635.303 728.349 631.797 748.468C623.602 773.963 612.011 797.303 600.447 820.982C597.201 827.267 594.185 833.581 589.944 839.696L584.879 846.361L586.877 838.233C592.313 814.917 597.142 782.998 574.135 769.768C566.834 765.831 557.974 765.284 549.633 762.216C521.086 751.608 514.249 718.306 512.989 691.711C512.628 684.035 512.702 676.332 513.055 668.676ZM513.055 668.676" fill="#255791"/>
<path d="M499.159 761.203C497.119 760.097 495.204 758.735 493.467 757.162C482.254 746.713 479.573 730.461 478.573 715.882C478.194 709.773 478.012 703.652 478.017 697.533C478.034 676.587 480.238 655.688 484.134 635.179C484.567 632.9 485.021 630.625 485.495 628.355C485.251 630.661 485.017 632.967 484.792 635.273C482.771 656.028 481.535 676.784 481.517 697.536C481.512 703.599 481.612 709.662 481.827 715.722C482.467 730.105 484.026 745.59 493.935 756.69C495.488 758.377 497.24 759.897 499.159 761.203Z" fill="#255791"/>
<path d="M629.368 681.755C627.898 681.39 626.429 681.024 624.961 680.657C611.752 677.356 598.619 673.992 585.509 670.544C572.399 667.096 559.31 663.563 546.187 659.934C544.729 659.531 543.27 659.127 541.811 658.721C543.315 658.898 544.818 659.085 546.319 659.283C559.831 661.062 573.225 663.694 586.399 667.159C599.574 670.624 612.53 674.922 625.167 680.025C626.571 680.592 627.971 681.169 629.368 681.755Z" fill="#255791"/>
<path d="M493.398 809.866C492.332 808.816 491.271 807.761 490.217 806.699C480.73 797.141 471.754 787.1 463.328 776.617C454.902 766.134 447.027 755.208 439.738 743.884C438.928 742.626 438.126 741.363 437.33 740.095C438.313 741.224 439.293 742.354 440.271 743.486C449.068 753.671 457.656 763.973 466.056 774.424C474.457 784.876 482.67 795.479 490.721 806.264C491.615 807.463 492.508 808.663 493.398 809.866Z" fill="#255791"/>
<path d="M135.081 617.154C134.536 616.583 133.991 616.013 133.447 615.445C128.549 610.338 123.679 605.393 118.768 600.49C113.854 595.588 108.899 590.729 103.782 585.84C103.214 585.297 102.643 584.754 102.07 584.21C102.777 584.563 103.478 584.927 104.173 585.302C110.431 588.681 116.2 592.982 121.24 598.013C126.281 603.042 130.594 608.802 133.984 615.053C134.361 615.748 134.727 616.448 135.081 617.154Z" fill="#255791"/>
<path d="M599.121 745.312C599.008 744.475 598.86 743.654 598.681 742.842C597.045 735.535 592.994 729.328 587.82 724.455C582.62 719.611 576.16 715.973 568.76 714.831C567.938 714.707 567.109 714.615 566.266 714.558C566.266 714.558 566.266 714.558 566.266 714.558C567.093 714.382 567.928 714.252 568.776 714.166C576.447 713.369 584.492 716.499 590.213 721.9C595.976 727.256 599.624 735.076 599.343 742.782C599.315 743.634 599.241 744.476 599.121 745.312Z" fill="#255791"/>
<path d="M456.832 738.509C457.019 737.207 457.044 735.904 456.896 734.634C454.857 722.875 442.745 717.327 432.655 712.705C432.652 712.704 432.651 712.704 432.65 712.703C422.269 708.053 409.291 700.676 408.951 687.695C408.995 686.356 409.232 685.043 409.63 683.789C409.46 685.094 409.452 686.397 409.615 687.665C411.79 699.399 423.919 704.845 434.023 709.484C434.024 709.484 434.025 709.485 434.026 709.485C444.417 714.126 457.37 721.621 457.561 734.612C457.5 735.95 457.246 737.26 456.832 738.509Z" fill="#255791"/>
<path d="M720.122 650.907C719.708 649.949 719.278 649.003 718.831 648.068C714.805 639.655 709.51 632.135 703.275 625.52C697.03 618.915 689.828 613.195 681.658 608.695C680.75 608.196 679.83 607.713 678.897 607.245C679.911 607.494 680.918 607.773 681.918 608.083C690.926 610.869 699.266 616.162 705.82 623.118C712.386 630.062 717.191 638.691 719.457 647.844C719.71 648.86 719.931 649.881 720.122 650.907Z" fill="#255791"/>
<path d="M379.638 159.795C379.077 160.503 378.517 161.21 377.959 161.916C372.934 168.273 368.007 174.564 363.093 180.864C358.18 187.165 353.28 193.476 348.341 199.9C347.792 200.614 347.243 201.329 346.694 202.046C347.041 201.212 347.4 200.383 347.77 199.559C351.099 192.141 355.331 185.125 360.333 178.712C365.334 172.297 371.107 166.484 377.489 161.446C378.198 160.886 378.914 160.335 379.638 159.795Z" fill="#255791"/>
<path d="M2286.68 482.905C2292.42 484.013 2298.17 485.11 2303.91 486.219L2304.07 486.249L2303.96 486.361C2290.99 499.401 2274.04 507.774 2256.5 512.848C2205.62 527.552 2148.86 520.412 2102.95 548.599C2047.82 583.936 2039.19 655.664 2035.68 716.631C2032.12 777.864 2028.12 849.549 1975.95 891.372C1952.98 909.438 1924.48 917.831 1896.63 923.84C1887.39 925.825 1878.09 927.573 1868.74 929.045C1826.81 935.653 1783.55 936.744 1741.72 928.175C1695.64 918.72 1653.19 898.172 1608.27 886.4C1541.58 866.693 1459.55 864.637 1411.88 922.832C1375.58 967.748 1383.55 1032.24 1392.68 1086.76C1397.65 1110.21 1403.94 1134.11 1417.19 1154.35C1403.74 1134.23 1397.22 1110.34 1392.03 1086.89C1382.53 1032.25 1373.49 968.098 1410.51 921.431C1457.94 862.429 1542.31 863.798 1609.03 883.473C1654.38 895.204 1696.86 915.609 1742.39 924.852C1783.73 933.247 1826.56 932.148 1868.2 925.587C1877.48 924.126 1886.71 922.392 1895.9 920.423C1923.58 914.474 1951.56 906.179 1973.84 888.691C2024.51 848.386 2029.07 777.714 2032.8 716.472C2036.58 655.397 2045.53 582.721 2101.95 547.006C2148.91 518.713 2205.51 526.467 2256.31 512.209C2273.83 507.306 2290.77 499.133 2303.84 486.242L2303.88 486.383C2298.15 485.22 2292.41 484.068 2286.68 482.905Z" fill="#255791"/>
</g>
</svg>
