<svg width="1654" height="773" viewBox="0 0 1654 773" fill="none" xmlns="http://www.w3.org/2000/svg">
<mask id="mask0_1496_8444" style="mask-type:alpha" maskUnits="userSpaceOnUse" x="0" y="0" width="1654" height="773">
<rect width="1654" height="772.943" fill="#D9D9D9"/>
</mask>
<g mask="url(#mask0_1496_8444)">
<path d="M-280.504 179.852C-281.408 192.318 -281.158 204.855 -279.822 217.265C-272.599 286.5 -230.357 352.198 -167.534 382.492C-130.609 402.082 -90.2753 426.971 -48.5461 414.214C-30.6748 408.816 -15.3709 396.952 -3.01552 382.756C54.1829 310.552 47.399 195.219 135.106 144.895C145.708 138.309 156.957 132.863 168.748 128.352C157.043 133.08 145.912 138.718 135.462 145.457C49.0695 196.972 57.9125 310.272 -0.437271 385.002C-13.0244 399.548 -28.8432 411.917 -47.525 417.561C-91.2697 430.832 -132.532 404.772 -168.901 385.265C-232.603 354.047 -274.437 286.883 -280.484 217.33C-281.614 204.861 -281.641 192.299 -280.504 179.852Z" fill="#255791"/>
<path d="M30.2688 223.852C28.8411 231.614 27.2411 239.162 25.3961 246.659C13.5529 298.522 -21.739 372.133 -87.0091 355.308C-98.796 351.795 -110.115 346.844 -120.847 340.914C-123.086 339.676 -125.3 338.396 -127.491 337.075C-158.14 318.658 -183.833 291.935 -200.539 260.347C-215.524 231.984 -223.489 200.017 -223.51 168.094C-223.503 160.318 -223.004 152.547 -221.979 144.852C-221.979 144.852 -221.979 144.852 -221.979 144.852C-222.772 152.574 -223.047 160.34 -222.845 168.086C-221.962 199.877 -213.381 231.337 -198.198 259.082C-181.256 289.991 -155.833 315.997 -125.688 334.08C-123.532 335.377 -121.354 336.634 -119.154 337.85C-108.609 343.677 -97.5307 348.55 -86.025 352.038C-24.832 368.717 11.4618 298.332 24.7526 246.492C26.7972 239.062 28.6123 231.569 30.2688 223.852Z" fill="#255791"/>
<path d="M18.7704 205.352C18.7704 205.352 18.7704 205.352 18.7704 205.352C16.7866 211.419 14.5407 217.111 11.8433 222.733C-9.31771 277.625 -86.7012 293.699 -131.224 256.025C-145.764 244.753 -157.358 228.854 -161.239 210.558C-170.6 173.511 -141.207 125.627 -100.268 134.055C-94.0792 134.908 -88.0537 136.601 -82.2141 138.852C-88.1334 136.82 -94.1942 135.352 -100.348 134.715C-140.905 127.992 -167.272 174.58 -158.112 209.872C-154.23 227.234 -143.101 242.385 -129.075 253.263C-86.0431 289.365 -11.9408 276.023 11.2489 222.435C14.1197 216.935 16.5662 211.342 18.7704 205.352Z" fill="#255791"/>
<path d="M293.728 -34.1482C296.726 -5.87542 295.807 24.3906 281.185 49.5912C277.248 56.7025 272.614 63.3807 268.079 70.0881C236.398 109.866 191.263 135.088 149.738 163.111C84.335 203.435 52.3647 278.52 36.154 351.172C29.8996 378.711 21.1506 405.412 10.1118 431.347C-0.414001 456.612 -15.2328 484.406 -1.21597 510.175C19.0302 555.563 87.7096 588.619 63.8575 647.571C57.648 661.722 45.6437 672.936 31.783 679.297C-9.84613 697.057 -55.8048 689.312 -98.1976 681.083C-144.333 671.388 -186.695 650.384 -231.642 638.342C-280.858 625.154 -332.244 622.87 -383.172 622.27C-455.31 621.491 -530.677 624.377 -595.577 658.487C-634.066 678.946 -666.329 711.998 -683.849 752.168C-695.241 778.347 -699.441 808.084 -693.061 836.146C-693.061 836.146 -693.061 836.146 -693.061 836.146C-699.672 808.139 -695.708 778.275 -684.461 751.907C-667.162 711.443 -634.974 677.982 -596.302 657.121C-531.179 622.388 -455.374 619.132 -383.147 619.621C-332.159 620.022 -280.528 622.12 -230.829 635.297C-185.45 647.351 -143.079 668.24 -97.4985 677.736C-55.4021 685.927 -9.63953 693.267 30.2908 676.131C43.5683 670.016 54.7792 659.515 60.6774 646.132C83.6881 591.429 17.3903 558.48 -4.22919 511.529C-18.8928 484.447 -3.1467 454.89 7.24768 430.141C18.3076 404.346 27.0611 377.908 33.3821 350.531C49.8787 277.681 82.5606 201.87 148.763 161.593C190.403 133.852 235.721 108.822 267.385 69.6153C271.972 62.9333 276.637 56.3116 280.605 49.2665C295.321 24.3413 296.5 -5.84191 293.728 -34.1482Z" fill="#255791"/>
<path d="M34.2681 289.852C32.9145 293.676 31.4812 297.426 29.9581 301.108C16.5395 333.903 -7.65221 367.407 -44.8875 375.337C-50.2157 376.47 -55.6612 377.029 -61.0997 377.016C-91.5812 376.855 -124.363 375.803 -151.022 359.119C-154.426 356.959 -157.665 354.553 -160.693 351.914C-160.693 351.914 -160.693 351.914 -160.693 351.914C-157.517 354.373 -154.165 356.585 -150.681 358.548C-123.483 373.628 -91.5741 373.623 -61.1052 373.577C-55.9007 373.55 -50.7046 372.996 -45.6148 371.914C-10.2146 364.448 14.1993 332.891 29.3505 300.838C31.0608 297.252 32.6969 293.592 34.2681 289.852Z" fill="#255791"/>
<path d="M-75.2144 642.352C-66.9855 649.829 -58.2158 656.36 -48.6121 661.5C-23.9952 675.591 10.0676 676.113 30.4521 655.345C40.3471 645.597 46.7951 630.889 42.7069 617.501C38.633 603.92 24.3398 596.929 10.5257 594.834C-9.83167 591.408 -30.4645 586.918 -48.7546 576.53C-67.6149 566.351 -78.6387 547.448 -93.5953 533.975C-95.9831 531.785 -98.3868 529.745 -100.959 527.731L-101.011 527.689C-131.048 502.264 -167.063 483.92 -205.343 474.612C-237.173 466.951 -274.56 466.023 -300.635 488.014C-317.062 502.26 -323.284 526.948 -316.755 547.801C-313.49 558.149 -305.98 567.369 -295.725 571.507C-306.064 567.596 -313.877 558.446 -317.386 548.014C-324.39 526.995 -318.644 501.756 -301.806 486.659C-275.291 463.64 -236.986 464.228 -204.655 471.73C-165.838 480.823 -129.228 499.254 -98.7529 525.019L-98.8051 524.976C-96.1587 527.045 -93.6838 529.144 -91.2292 531.396C-75.7408 545.451 -65.0882 563.843 -47.061 573.609C-29.4938 583.699 -9.14771 588.322 11.0198 591.87C25.2796 594.132 40.8317 601.696 45.1956 616.747C49.4747 631.528 42.2868 646.84 31.9052 656.827C10.4039 678.102 -24.4991 676.721 -48.931 662.083C-58.4935 656.726 -67.1438 650 -75.2144 642.352Z" fill="#255791"/>
<path d="M38.7676 579.852C33.5478 580.377 28.6175 580.724 23.5376 580.815C8.47841 581.141 -11.9505 578.952 -17.4745 561.609C-22.3427 546.303 -23.9707 529.434 -37.412 520.435C-48.5623 512.13 -58.3526 502.245 -67.6073 492.057C-85.2268 472.67 -101.268 451.743 -122.445 436.598C-138.099 425.407 -156.133 417.793 -174.604 412.037C-179.433 410.532 -184.303 409.148 -189.197 407.852C-189.197 407.852 -189.197 407.852 -189.197 407.852C-184.249 408.921 -179.317 410.092 -174.42 411.398C-155.688 416.395 -137.221 423.461 -120.979 434.494C-98.9994 449.446 -82.5073 470.473 -65.0166 489.704C-55.8239 499.825 -46.252 509.597 -35.4587 517.847C-21.0302 527.768 -19.5432 546.383 -15.3154 560.817C-10.8323 576.875 8.34038 579.847 23.5399 580.15C28.5955 580.269 33.5297 580.145 38.7676 579.852Z" fill="#255791"/>
<path d="M393.713 881.352C387.296 888.877 378.496 894.237 369.002 897.068C336.867 905.868 302.708 893.803 276.04 875.312C258.528 862.99 239.742 851.077 218.584 848.161C197.367 844.956 176.464 854.363 160.352 868.172C149.827 876.964 135.776 879.312 122.826 879.246C49.3521 873.35 -16.0818 833.364 -70.3462 786.433C-82.4506 775.087 -92.8758 762.219 -105.131 751.186C-112.435 744.609 -120.47 738.715 -129.489 734.673C-120.377 738.5 -112.166 744.238 -104.691 750.687C-92.1501 761.505 -81.4391 774.209 -69.248 785.24C-14.6411 830.947 51.3383 870.091 122.846 875.746C135.381 875.823 148.589 873.498 158.146 865.532C174.65 851.428 196.795 841.549 219.001 845.119C241.092 848.382 259.973 860.786 277.422 873.392C303.401 891.924 336.888 904.452 368.817 896.429C378.263 893.829 387.117 888.723 393.713 881.352Z" fill="#255791"/>
<path d="M1.0188 734.655C-1.73945 733.522 -4.74123 733.132 -7.65111 733.425C-17.4649 734.607 -25.412 741.258 -32.5473 747.78C-41.6897 756.029 -53.7084 766.786 -68.0954 761.954C-72.2461 760.423 -75.5842 757.56 -78.4202 754.603C-79.9141 753.046 -81.2994 751.435 -82.6676 749.856C-98.7511 731.341 -116.649 714.386 -136.101 699.247C-138.447 697.422 -140.814 695.623 -143.205 693.852C-140.683 695.43 -138.185 697.049 -135.712 698.708C-115.195 712.462 -96.4033 728.937 -80.0432 747.567C-78.6577 749.148 -77.3032 750.713 -75.8949 752.18C-73.2163 754.978 -70.2828 757.45 -66.8878 758.737C-55.3621 763.041 -43.5372 753.934 -34.1265 746.009C-26.5864 739.705 -17.9371 733.267 -7.69179 732.761C-4.67034 732.67 -1.63986 733.309 1.0188 734.655Z" fill="#255791"/>
<path d="M407.36 184.027C407.36 184.027 407.36 184.027 407.36 184.027C410.833 171.198 403.474 157.831 393.212 150.38C389.241 147.492 384.816 145.268 380.211 143.581C372.48 140.753 364.298 139.372 356.11 138.555C280.092 131.138 207.452 168.96 152.01 218.434C94.8805 269.634 49.689 337.18 35.996 413.211C34.4634 421.793 33.3488 430.449 32.6761 439.142C26.1004 523.764 67.1115 614.269 143.593 654.709C202.294 685.854 274.076 684.044 335.966 661.783C352.785 655.753 369.075 648.187 384.523 639.175C369.194 648.388 352.979 656.166 336.194 662.408C274.443 685.437 202.155 688.083 142.422 656.939C64.5602 616.444 22.5682 524.779 29.1948 438.874C29.8711 430.062 30.9979 421.29 32.5505 412.596C46.435 335.553 92.3297 267.515 150.119 216.307C206.199 166.798 279.854 129.285 356.209 137.611C364.432 138.525 372.668 140.01 380.443 142.958C385.075 144.717 389.523 147.02 393.501 149.986C403.804 157.655 411.009 171.239 407.36 184.027Z" fill="#255791"/>
<path d="M331.088 600.264C325.816 602.496 320.431 604.472 314.959 606.191C284.282 615.821 250.93 617.343 219.336 610.28C205.383 607.169 191.818 602.428 178.842 596.473C174.034 594.268 169.303 591.888 164.668 589.331C141.595 576.606 120.655 559.318 105.581 537.529C91.0507 516.521 82.3314 491.252 82.5354 465.778C82.5835 460.036 83.0904 454.305 84.0771 448.665C83.3211 454.341 83.0388 460.066 83.2003 465.771C83.9352 491.073 93.2282 515.609 107.842 535.934C123.022 557.019 143.661 573.743 166.359 586.266C170.918 588.781 175.569 591.132 180.295 593.321C193.056 599.236 206.353 604.013 220.031 607.262C250.991 614.628 283.873 614.013 314.772 605.553C320.283 604.042 325.73 602.279 331.088 600.264Z" fill="#255791"/>
<path d="M505.739 60.6151C499.359 63.4847 493.165 66.7391 487.373 70.5878C476.618 77.7101 466.882 87.3838 463.151 99.7402C460.859 107.205 460.822 115.129 460.953 123.037C460.695 130.532 462.668 140.533 454.439 146.075C449.641 148.881 444.009 148.103 439.341 146.749C426.878 143.617 426.125 128.304 417.144 124.889C400.275 117.96 381.622 124.793 363.056 126.08C358.832 126.384 354.546 126.421 350.27 125.942C325.014 123.09 303.552 99.8551 304.528 74.2229C304.954 64.6901 308.126 55.7597 311.194 47.1099C320.044 23.5007 330.45 0.692612 337.865 -23.3082C339.982 -29.9786 341.928 -36.6482 343.725 -43.4182C342.154 -36.5921 340.42 -29.8578 338.502 -23.1166C331.812 1.10846 321.873 24.3883 313.537 47.9183C310.618 56.6181 307.71 65.374 307.442 74.3312C306.781 98.1669 327.279 119.959 350.654 122.476C354.656 122.916 358.728 122.883 362.805 122.589C380.715 121.465 399.898 114.25 418.409 121.891C429.84 127.44 429.721 141.681 440.146 143.973C444.533 145.335 449.373 145.896 453.086 143.769C459.381 140.073 458.494 130.629 458.712 123.046C458.741 115.127 458.94 106.941 461.514 99.2165C465.732 86.4116 475.992 76.8688 487.013 70.0286C492.959 66.3313 499.267 63.2707 505.739 60.6151Z" fill="#255791"/>
<path d="M150.25 468.352C146.287 464.716 142.585 460.851 139.124 456.728C107.498 419.582 101.081 364.193 119.488 319.068C124.595 306.302 131.553 294.284 140.122 283.528C162.114 255.951 193.068 237.877 224.322 223.357C229.185 221.1 234.08 218.921 238.997 216.793C234.178 219.133 229.378 221.512 224.614 223.954C193.961 239.677 163.855 258.38 142.695 285.554C134.44 296.155 127.723 307.909 122.737 320.369C104.864 364.414 109.77 418.146 139.641 456.311C142.921 460.543 146.448 464.547 150.25 468.352Z" fill="#255791"/>
<path d="M757.641 482.905C757.641 482.905 757.641 482.905 757.641 482.905C763.385 484.013 769.131 485.11 774.874 486.219L775.029 486.249L774.917 486.361C761.955 499.401 745 507.775 727.462 512.849C676.595 527.552 619.847 520.413 573.941 548.599C518.82 583.94 510.189 655.666 506.684 716.631C503.119 777.863 499.129 849.545 446.964 891.372C423.998 909.437 395.505 917.831 367.658 923.84C358.417 925.825 349.12 927.572 339.778 929.044C297.844 935.652 254.588 936.744 212.762 928.175C166.696 918.72 124.256 898.172 79.3329 886.4C12.6522 866.692 -69.3622 864.64 -117.025 922.832C-153.323 967.752 -145.348 1032.25 -136.217 1086.76C-131.245 1110.21 -124.958 1134.11 -111.711 1154.35C-125.16 1134.23 -131.684 1110.35 -136.868 1086.9C-146.37 1032.25 -155.412 968.102 -118.394 921.431C-70.9762 862.432 13.3903 863.797 80.0949 883.473C125.439 895.204 167.911 915.609 213.44 924.852C254.773 933.248 297.602 932.148 339.233 925.586C348.507 924.125 357.741 922.392 366.925 920.423C394.596 914.474 422.572 906.178 444.852 888.691C495.512 848.383 500.069 777.713 503.802 716.472C507.582 655.399 516.529 582.726 572.943 547.006C619.889 518.714 676.484 526.467 727.278 512.21C744.79 507.306 761.737 499.134 774.799 486.242L774.842 486.383C769.109 485.22 763.374 484.068 757.641 482.905Z" fill="#255791"/>
<path d="M797.819 506.011C799.788 505.301 801.738 504.552 803.672 503.766C821.071 496.685 837.009 486.624 850.897 474.288C864.775 461.943 876.639 447.288 885.539 430.745C886.527 428.907 887.477 427.045 888.389 425.162C887.693 427.135 886.942 429.092 886.14 431.029C878.918 448.481 867.445 464.272 853.222 476.904C839.007 489.549 822.007 499.079 803.891 504.394C801.879 504.985 799.855 505.524 797.819 506.011Z" fill="#255791"/>
<path d="M349.253 623.769C346.985 626.078 344.544 628.225 341.963 630.198C320.205 646.596 291.983 650.049 265.715 652.553C263.29 652.776 260.855 652.99 258.421 653.187C229.671 655.451 198.636 656.056 172.507 641.948C169.658 640.393 166.908 638.669 164.278 636.779C167.038 638.475 169.886 639.998 172.807 641.355C199.482 653.566 229.444 651.919 258.138 649.699C260.56 649.502 262.986 649.296 265.406 649.087C291.684 646.696 319.092 644.393 341.576 629.657C344.255 627.871 346.825 625.909 349.253 623.769Z" fill="#255791"/>
<path d="M394.63 553.2C391.996 556.823 388.223 559.55 384.115 561.379C376.602 564.701 368.307 565.554 360.229 566.039C338.452 567.277 316.28 567.293 294.698 562.457C284.602 560.197 274.713 557.068 265.118 553.229C227.41 538.08 194.976 512.741 166.231 484.811C163.034 481.699 159.868 478.537 156.749 475.352C160.03 478.37 163.348 481.369 166.684 484.324C196.698 510.856 229.343 535.09 266.418 549.979C275.859 553.757 285.552 556.887 295.443 559.227C316.489 564.214 338.405 564.769 360.164 564.348C368.19 564.168 376.345 563.672 383.857 560.766C387.966 559.162 391.807 556.68 394.63 553.2Z" fill="#255791"/>
<path d="M365.413 190.077C365.413 190.077 365.413 190.077 365.413 190.077C363.568 189.863 361.723 189.692 359.877 189.563C343.26 188.408 326.683 190.569 311.015 195.504C295.354 200.456 280.535 208.203 267.67 218.786C266.242 219.962 264.839 221.173 263.463 222.42C263.463 222.42 263.463 222.42 263.463 222.42C264.672 221.01 265.925 219.635 267.219 218.297C278.873 206.235 293.83 197.249 309.962 192.167C326.091 187.069 343.476 185.842 359.961 188.903C361.791 189.242 363.609 189.633 365.413 190.077Z" fill="#255791"/>
<path d="M295.055 161.404C293.178 161.95 291.31 162.515 289.449 163.1C272.704 168.365 256.587 175.162 241.222 183.36C225.86 191.563 211.244 201.17 197.588 212.2C196.071 213.425 194.566 214.669 193.074 215.93C194.405 214.5 195.762 213.091 197.143 211.706C209.572 199.23 223.964 188.602 239.574 180.272C255.183 171.938 272.016 165.898 289.284 162.456C291.203 162.073 293.127 161.722 295.055 161.404Z" fill="#255791"/>
<path d="M651.252 497.309C634.961 500.863 618.669 504.412 602.375 507.956C594.038 509.769 585.701 511.581 577.363 513.39C559.314 517.31 541.039 521.283 524.622 529.696C495.162 544.769 474.424 573.22 463.47 603.992C452.499 634.806 450.452 667.976 450.916 700.611C451.263 732.765 453.992 768.232 434.925 796.886C424.561 812.274 408.995 823.229 392.507 830.859C386.682 833.551 380.67 835.835 374.533 837.705C341.382 847.802 303.954 846.037 273.145 829.321C248.924 816.119 230.711 795.36 210.105 778.263C179.946 753.231 143.89 735.333 105.699 726.26C73.8196 718.802 36.5081 717.77 10.126 739.476C-1.84247 749.493 -8.27325 765.27 -8.51233 780.844C-9.01196 797.214 -0.826904 815.079 15.2258 821.176C-0.917542 815.32 -9.48413 797.407 -9.17731 780.839C-9.12823 765.086 -2.84277 748.978 9.33423 738.538C36.0035 716.104 73.9345 716.834 106.204 724.097C144.806 732.922 181.373 750.749 212.032 775.93C232.959 793.146 251.168 813.646 274.742 826.374C304.658 842.507 341.163 844.215 373.513 834.357C379.499 832.533 385.363 830.307 391.042 827.686C407.14 820.252 422.179 809.629 432.084 794.972C450.38 767.745 448.08 732.939 447.826 700.648C447.519 667.855 449.771 634.327 461.135 603.151C472.487 571.997 493.817 543.276 523.902 528.273C540.66 519.909 559.067 516.142 577.161 512.433C585.52 510.723 593.879 509.013 602.238 507.305C618.575 503.967 634.913 500.634 651.252 497.309Z" fill="#255791"/>
<path d="M526.061 565.285C523.912 566.929 521.815 568.635 519.773 570.399C502.029 585.741 488.385 605.451 480.574 627.271C480.301 628.035 480.035 628.801 479.776 629.569C472.079 652.383 470.555 676.855 469.289 701.108C469.148 703.809 469.01 706.511 468.868 709.212C468.777 706.509 468.693 703.805 468.624 701.1C468.007 676.855 468.548 651.946 476.459 628.451C476.725 627.662 476.999 626.875 477.282 626.09C485.364 603.64 500.363 583.855 519.359 569.879C521.542 568.27 523.778 566.738 526.061 565.285Z" fill="#255791"/>
<path d="M229.06 837.505C229.06 837.505 229.06 837.505 229.06 837.505C225.244 836.104 221.708 833.967 218.494 831.453C212.467 826.736 207.517 820.85 202.369 815.334C182.713 794.263 158.446 777.765 131.914 766.901C123.96 763.646 115.798 760.9 107.488 758.697C92.1938 754.655 76.127 752.396 60.5705 755.443C49.2064 757.698 38.1986 763.02 30.0966 771.566C27.332 774.496 24.9469 777.809 23.1111 781.432C24.7354 777.71 26.9531 774.236 29.601 771.122C37.3653 762.029 48.4305 756.03 60.1076 753.289C76.0566 749.579 92.7131 751.538 108.324 755.463C116.808 757.601 125.141 760.348 133.24 763.662C160.259 774.714 184.703 792.112 203.651 814.187C208.607 819.957 213.215 825.981 218.917 830.94C221.959 833.583 225.331 835.887 229.06 837.505Z" fill="#255791"/>
<path d="M430.476 624.011C426.777 627.022 423.288 630.276 420.031 633.738C407.547 647.006 398.451 663.35 394.037 680.854C390.893 693.287 390.074 706.3 386.909 719.094C384.056 730.514 379.072 742.052 369.864 750.201C368.787 751.149 367.659 752.041 366.483 752.87C351.506 763.314 331.475 762.12 315.873 754.605C306.294 749.949 298.203 743.253 289.509 737.771C277.727 730.341 264.597 724.989 250.903 721.964C246.26 720.939 241.551 720.182 236.806 719.705C241.569 719.949 246.323 720.487 251.032 721.311C264.922 723.743 278.436 728.662 290.665 735.877C299.682 741.209 307.904 747.654 317.147 751.917C332.112 758.799 350.963 759.527 364.465 750.014C365.537 749.256 366.566 748.441 367.551 747.574C375.968 740.147 380.836 729.305 383.72 718.284C386.951 705.913 388.022 692.863 391.558 680.194C396.537 662.357 406.418 646.054 419.557 633.272C422.985 629.936 426.634 626.838 430.476 624.011Z" fill="#255791"/>
<path d="M324.692 802.554C320.562 802.989 316.411 803.295 312.244 803.344C305.306 803.426 298.272 802.783 291.531 800.746C283.572 798.338 276.313 794.095 269.617 789.32C251.252 776.205 236.583 758.957 221.624 742.579C210.102 729.955 198.207 717.625 184.263 707.909C167.829 696.449 148.901 688.838 129.583 683.044C125.609 681.853 121.609 680.735 117.594 679.673C121.663 680.508 125.72 681.411 129.758 682.403C149.378 687.223 168.81 694.18 185.896 705.509C200.388 715.116 212.641 727.546 224.209 740.22C239.244 756.687 253.463 773.907 271.095 787.313C277.527 792.199 284.419 796.556 292.03 799.207C298.478 801.45 305.363 802.413 312.253 802.679C316.39 802.84 320.544 802.756 324.692 802.554Z" fill="#255791"/>
<path d="M482.327 530.015C480.377 530.227 478.44 530.503 476.516 530.841C462.667 533.281 449.569 538.87 438.469 547.08C435.701 549.13 433.043 551.352 430.423 553.646C424.466 558.859 418.678 564.478 412.112 569.276C404.248 575.006 394.977 579.537 385.168 579.899C383.189 579.967 381.213 579.856 379.275 579.552C381.236 579.623 383.188 579.51 385.11 579.236C394.605 577.845 403.004 572.852 410.336 566.963C416.465 562.014 422.046 556.331 428.117 551.013C430.786 548.676 433.553 546.41 436.483 544.337C448.241 536.009 462.29 531.12 476.437 530.181C478.401 530.05 480.366 529.994 482.327 530.015Z" fill="#255791"/>
<path d="M670.162 545.617C670.817 549.645 671.107 553.74 671.047 557.837C670.566 583.362 657.467 606.914 641.654 626.372C634.263 635.415 626.203 643.836 618.101 652.136C605.662 664.879 593.042 677.402 582.427 691.548C571.172 706.529 562.246 723.313 556.11 741.147C554.785 744.997 553.591 748.896 552.532 752.835C553.364 748.841 554.346 744.875 555.475 740.947C560.704 722.749 569.082 705.384 580.141 689.876C590.571 675.231 603.179 662.414 615.597 649.691C623.69 641.401 631.747 633.115 639.179 624.317C655.041 605.389 668.587 582.989 670.383 557.81C670.651 553.759 670.586 549.676 670.162 545.617Z" fill="#255791"/>
<path d="M641.021 557.446C640.115 559.641 639.019 561.766 637.768 563.802C632.153 572.912 623.737 580.015 614.873 585.884C605.791 591.883 596.146 596.776 587.131 602.454C585.255 603.634 583.408 604.848 581.599 606.111C566.209 616.883 553.465 631.517 544.931 648.562C543.873 650.679 542.881 652.832 541.959 655.02C542.662 652.752 543.452 650.507 544.324 648.291C551.347 630.432 563.782 614.546 579.599 603.277C581.454 601.956 583.348 600.699 585.266 599.492C594.497 593.684 604.228 589.021 613.393 583.534C622.335 578.163 630.907 571.876 637.217 563.429C638.624 561.537 639.904 559.542 641.021 557.446Z" fill="#255791"/>
<path d="M531.649 700.313C529.238 705.817 527.448 711.561 526.146 717.403C521.326 739.215 522.965 761.647 521.527 783.985C520.149 805.413 515.894 826.475 511.608 847.362C509.517 857.541 507.387 867.784 504.312 877.829C501.809 886.005 498.659 894.055 494.446 901.586C483.201 921.655 465.405 936.78 446.858 949.406C434.832 957.59 421.864 965.104 407.474 968.377C399.022 970.279 390.174 970.574 381.72 968.782C375.814 967.527 370.115 965.192 365.226 961.693C370.248 964.998 375.978 967.094 381.848 968.129C390.247 969.604 398.919 969.027 407.122 966.926C421.113 963.306 433.626 955.648 445.39 947.294C463.54 934.408 480.728 919.325 491.447 899.92C495.47 892.635 498.513 884.816 500.966 876.804C503.979 866.963 506.127 856.83 508.284 846.668C512.712 825.807 517.214 804.967 519.012 783.798C520.896 761.727 519.883 739.024 525.499 717.247C527.014 711.419 529.026 705.719 531.649 700.313Z" fill="#255791"/>
<path d="M597.102 632.381C596.383 633.629 595.58 634.835 594.71 635.995C586.997 646.155 575.279 652.027 565.869 659.601C565.506 659.892 565.145 660.186 564.787 660.484C555.107 668.543 547.258 678.849 542.096 690.661C541.524 691.974 540.986 693.306 540.484 694.655C540.761 693.242 541.09 691.836 541.469 690.441C544.867 677.87 552.361 666.245 562.55 657.792C562.926 657.48 563.306 657.171 563.69 656.867C573.7 648.944 585.339 644.27 594.208 635.559C595.222 634.554 596.191 633.497 597.102 632.381Z" fill="#255791"/>
<path d="M769.41 514.624C769.169 514.266 769.525 513.81 769.895 513.677C770.262 513.522 770.779 513.505 771.117 513.878C771.711 514.549 771.423 515.542 770.963 516.161C770.894 516.255 770.819 516.345 770.737 516.431C761.656 526.077 751.614 534.851 740.824 542.579C729.951 550.368 718.317 557.095 706.165 562.622C704.815 563.236 703.458 563.835 702.095 564.42C702.095 564.42 702.095 564.42 702.095 564.42C703.349 563.629 704.6 562.835 705.847 562.037C717.073 554.862 728.029 547.437 738.786 539.733C749.459 532.088 759.934 524.168 770.256 515.911C770.324 515.858 770.39 515.798 770.453 515.735C770.88 515.302 771.18 514.613 770.839 514.096C770.568 513.584 769.17 513.768 769.41 514.624Z" fill="#255791"/>
<path d="M1178.6 409.622C1179.04 411.694 1179.62 413.742 1180.3 415.757C1184.01 426.738 1190.49 436.554 1194.08 447.193C1196.45 454.172 1197.61 461.509 1197.8 468.886C1198.23 487.59 1193.02 506.099 1187.68 524.319C1187.08 526.348 1186.48 528.38 1185.88 530.406C1186.7 528.459 1187.51 526.5 1188.31 524.539C1195.42 506.955 1201.72 488.357 1201.29 468.795C1201.1 461.101 1199.73 453.371 1196.95 446.155C1192.71 435.12 1185.63 425.947 1180.91 415.514C1180.05 413.594 1179.26 411.633 1178.6 409.622Z" fill="#255791"/>
<path d="M1150.28 583.166C1150.28 583.166 1150.28 583.166 1150.28 583.166C1145.44 586.337 1140.83 589.886 1136.53 593.783C1120.95 607.809 1107.44 628.914 1112.71 651.167C1116.31 666.383 1127.7 678.254 1140.17 686.688C1150.34 693.545 1161.92 698.796 1174.33 700.336C1178.01 700.792 1181.71 700.92 1185.39 700.766C1203.24 699.966 1219.75 693.073 1235.64 686.38C1267.65 672.823 1299.58 659.066 1331.43 645.118C1336.73 642.796 1342.03 640.47 1347.33 638.137C1347.33 638.137 1347.33 638.137 1347.33 638.137C1341.94 640.254 1336.56 642.376 1331.18 644.504C1298.84 657.287 1266.59 670.268 1234.41 683.438C1218.46 689.946 1202.23 696.525 1185.25 697.269C1181.74 697.415 1178.23 697.298 1174.75 696.876C1163.05 695.457 1151.9 690.536 1141.97 683.991C1129.81 675.958 1118.83 664.78 1115.16 650.567C1109.69 629.825 1121.95 608.791 1136.98 594.267C1141.11 590.242 1145.57 586.529 1150.28 583.166Z" fill="#255791"/>
<path d="M1233.89 489.206C1237.61 492.906 1238.46 498.454 1237.79 503.432C1237.18 508.25 1235.52 512.882 1233.53 517.308C1224.08 538.19 1212.42 558.014 1198.82 576.37C1192.42 585.381 1183.27 597.199 1189.47 609.827C1193.16 616.728 1201.25 619.53 1208.33 619.26C1211.77 619.148 1215.19 618.401 1218.36 616.968C1228.14 612.489 1234.58 603.876 1240.54 595.926C1251.91 580.705 1263.31 565.442 1277.43 552.84C1287.75 543.628 1299.59 535.896 1312.77 531.346C1317.6 529.679 1322.61 528.461 1327.71 527.794C1322.59 528.229 1317.5 529.233 1312.56 530.713C1299.1 534.753 1286.79 542.18 1276.05 551.24C1261.34 563.625 1249.48 578.867 1237.93 593.956C1231.91 601.847 1225.64 609.865 1216.92 613.792C1214.21 615.01 1211.21 615.666 1208.22 615.762C1201.98 616 1195.35 613.526 1192.49 608.187C1187.32 598.513 1194.9 587.185 1201.28 578.167C1214.72 559.408 1225.95 539.095 1234.66 517.796C1236.52 513.229 1238.03 508.448 1238.46 503.499C1238.94 498.388 1237.79 492.724 1233.89 489.206Z" fill="#255791"/>
<path d="M1167.31 555.604C1167.96 558.245 1168.52 560.904 1168.99 563.575C1172.73 584.96 1170.65 607.096 1163.08 627.136C1162.12 629.662 1161.16 632.23 1160.35 634.888C1158.45 641.141 1156.98 649.548 1162.4 655.45C1164.85 658.113 1168.06 659.546 1171.11 660.593C1185.56 665.473 1201.96 662.641 1213.96 653.974C1216.18 652.368 1218.24 650.562 1220.11 648.579C1220.11 648.579 1220.11 648.579 1220.11 648.579C1218.08 650.395 1215.89 652.011 1213.59 653.42C1201.14 661.007 1185.43 662.674 1172.13 657.724C1169.31 656.667 1166.64 655.303 1164.85 653.254C1160.86 648.84 1161.84 641.958 1163.7 635.9C1164.46 633.384 1165.39 630.881 1166.32 628.348C1173.98 607.607 1175.07 584.592 1169.64 563.435C1168.96 560.792 1168.18 558.179 1167.31 555.604Z" fill="#255791"/>
</g>
</svg>
