<svg width="1654" height="773" viewBox="0 0 1654 773" fill="none" xmlns="http://www.w3.org/2000/svg">
<g clip-path="url(#clip0_1496_8443)">
<path d="M743.141 708.218C961.678 292.484 1172.95 490.283 1124.78 542.107C1096.34 572.71 1049.52 594.529 1047.15 636.034C1045.98 656.349 1056.91 675.635 1070.78 690.653C1125.84 750.262 1221.78 753.256 1299.03 727.183C1376.27 701.11 1443.19 651.835 1517.46 618.345C1551.74 602.882 1587.47 590.844 1623.12 578.836C1650.67 569.562 1678.33 560.257 1706.98 555.235C1787.18 541.201 1870.9 562.13 1941.81 601.762C2024.88 648.18 2096.46 728.396 2100.51 822.677C2104.52 915.775 2038.9 1003.36 1953.32 1042.33C1929.7 1053.08 1904.11 1060.79 1878.14 1060.04C1859.98 1059.51 1842.24 1054.91 1824.61 1050.58C1790.78 1042.26 1756.73 1034.85 1722.48 1028.37C1680.18 1020.37 1635.43 1013.94 1594.85 1028.19C1560.64 1040.2 1531.17 1066.38 1495.01 1069.56C1445.12 1073.95 1400.64 1029.47 1391.83 980.697C1383.04 931.929 1402.34 882.101 1429.38 840.412C1500.55 730.592 1636.33 659.282 1766.37 681.117C1813.61 689.056 1859.98 709.448 1891.66 744.98C1923.33 780.527 1937.99 832.519 1921.86 877.126C1914.34 897.932 1900.79 916.144 1885.43 932.205C1875.95 942.125 1865.23 951.63 1852.07 955.745C1838.9 959.86 951.062 1111.95 880.179 1050.58" fill="#FF9C56"/>
<path d="M1032.74 -460.223C1091.37 -420.315 1102.02 -326.879 1053.86 -275.055C1025.41 -244.452 978.599 -222.633 976.224 -181.128C975.059 -160.813 985.99 -141.526 999.856 -126.509C1054.91 -66.9003 1150.86 -63.9059 1228.1 -89.979C1305.35 -116.052 1372.27 -165.327 1446.54 -198.817C1480.82 -214.279 1516.55 -226.318 1552.2 -238.326C1579.74 -247.6 1607.41 -256.905 1636.06 -261.926C1716.25 -275.961 1799.97 -255.032 1870.89 -215.4C1953.96 -168.981 2025.54 -88.7661 2029.59 5.51475C2033.59 98.6132 1967.98 186.199 1882.39 225.171C1858.78 235.919 1833.19 243.628 1807.21 242.875C1789.06 242.353 1771.31 237.747 1753.69 233.417C1719.86 225.094 1685.81 217.693 1651.55 211.213C1609.26 203.213 1564.51 196.779 1523.92 211.029C1489.72 223.036 1460.25 249.217 1424.08 252.395C1374.19 256.787 1329.71 212.303 1320.91 163.535C1312.12 114.767 1331.42 64.9394 1358.45 23.2501C1429.63 -86.5702 1565.41 -157.88 1695.45 -136.045C1742.68 -128.106 1789.06 -107.714 1820.73 -72.1823C1852.41 -36.635 1867.07 15.3574 1850.93 59.9642C1843.42 80.7705 1829.86 98.9819 1814.51 115.043C1805.02 124.963 1794.31 134.468 1781.14 138.583C1767.97 142.698 1751.8 140.134 1743.38 129.308" fill="#FF9C56"/>
<path d="M1032.74 -460.223C1081.49 -426.789 1096.94 -356.801 1072.75 -304.049C1067.91 -293.541 1061.47 -283.782 1053.57 -275.324C1026.41 -245.264 979.844 -226.297 975.618 -181.162C974.433 -160.228 985.656 -140.934 999.339 -126.032C1057.1 -64.2988 1152.84 -63.8375 1228.44 -88.9868C1306.22 -115.179 1372.95 -164.291 1447.08 -197.61C1481.33 -213.015 1517 -225 1552.65 -236.973C1580.18 -246.217 1607.79 -255.474 1636.32 -260.45C1716.51 -274.386 1799.66 -253.335 1870.08 -213.96C1950.91 -168.608 2023.42 -90.2414 2027.85 5.58945C2029.86 49.9734 2015.28 94.1571 1990.65 130.955C1963.84 171.1 1925.58 203.529 1881.67 223.589C1858.26 234.245 1832.96 241.889 1807.26 241.155C1789.32 240.644 1771.71 236.083 1754.1 231.76C1720.23 223.44 1686.13 216.043 1651.86 209.576C1609.89 201.719 1565.09 194.952 1523.39 209.519C1488.86 221.671 1460.16 247.532 1423.95 250.872C1374 255.083 1330.93 210.717 1322.29 163.285C1313.49 114.305 1333.02 64.959 1359.51 23.9391C1430.26 -85.2403 1564.58 -156.808 1695.32 -135.293C1742.05 -127.488 1788.34 -107.535 1820.34 -71.8263C1846.01 -43.0214 1860.77 -3.57205 1856.42 35.1175C1855.45 43.5497 1853.54 51.8735 1850.67 59.8669C1843.16 80.7581 1829.62 98.933 1814.39 114.932C1804.97 124.812 1794.34 134.332 1781.12 138.505C1768.22 142.533 1752.13 140.376 1743.38 129.308C1752.08 140.414 1768.2 142.655 1781.17 138.661C1794.45 134.525 1805.15 125.012 1814.63 115.155C1829.94 99.1949 1843.58 81.0322 1851.2 60.0613C1854.12 52.0359 1856.08 43.672 1857.08 35.1948C1861.6 -3.70615 1846.9 -43.4325 1821.13 -72.5381C1789.04 -108.597 1742.53 -128.808 1695.57 -136.797C1564.16 -158.814 1428.9 -87.2552 1357.39 22.5613C1330.64 63.8195 1310.63 113.687 1319.52 163.785C1328.36 212.447 1372.11 258.078 1424.22 253.918C1461.8 250.389 1490.68 224.26 1524.45 212.538C1565.13 198.351 1609.37 204.952 1651.24 212.85C1685.45 219.336 1719.48 226.746 1753.28 235.073C1770.86 239.394 1788.7 244.054 1807.16 244.596C1833.62 245.359 1859.41 237.526 1883.11 226.752C1927.63 206.425 1966.36 173.607 1993.57 132.896C2018.54 95.5839 2033.38 50.6638 2031.33 5.43997C2026.71 -92.2002 1953.18 -171.184 1871.69 -216.84C1800.71 -256.435 1716.84 -277.604 1635.8 -263.402C1606.98 -258.328 1579.26 -248.969 1551.74 -239.679C1516.11 -227.644 1480.37 -215.567 1445.99 -200.023C1371.6 -166.382 1305.07 -117.203 1227.77 -90.9713C1152.72 -65.7831 1057.68 -66.0627 1000.37 -126.986C986.785 -141.685 975.727 -160.664 976.829 -181.093C980.665 -225.199 1026.88 -244.533 1054.15 -274.786C1062.07 -283.337 1068.53 -293.185 1073.35 -303.771C1097.48 -356.918 1081.63 -426.985 1032.74 -460.223Z" fill="#255791"/>
<path d="M1718.94 122.66C1718.94 122.66 1718.94 122.66 1718.94 122.66C1711.36 118.946 1702.97 117.047 1694.54 116.478C1676.89 115.324 1659.46 119.21 1642.29 122.409C1605.85 129.251 1568.76 132.463 1531.73 131.983C1520.73 131.838 1509.61 131.324 1499.6 127.351C1490.57 123.804 1482.82 117.445 1476.79 109.76C1466.55 96.6605 1460.64 80.5535 1456.3 64.3599C1452.87 51.4332 1450.15 37.731 1454.22 25.1382C1457.25 15.7885 1463.81 7.91055 1470.56 0.46534C1485.07 -15.5218 1501.14 -30.499 1520.39 -40.4294C1532.19 -46.502 1545.17 -50.502 1558.47 -51.416C1566.84 -51.9862 1575.33 -51.2847 1583.45 -49.0422C1583.45 -49.0422 1583.45 -49.0422 1583.45 -49.0422C1575.39 -51.5094 1566.88 -52.4448 1558.44 -52.08C1545 -51.4941 1531.78 -47.7536 1519.69 -41.8388C1499.97 -32.176 1483.41 -17.2541 1468.59 -1.35105C1461.7 6.06512 1454.73 14.1089 1451.33 24.187C1446.82 37.787 1449.68 52.1305 1453.05 65.2119C1457.37 81.6633 1463.31 98.1807 1474.04 111.928C1480.36 119.985 1488.64 126.797 1498.34 130.56C1509.09 134.777 1520.62 135.183 1531.7 135.263C1568.96 135.488 1606.22 131.765 1642.65 124.2C1659.79 120.663 1676.97 116.435 1694.51 117.142C1702.88 117.499 1711.26 119.159 1718.94 122.66Z" fill="#255791"/>
<path d="M1540.27 116.385C1547.31 116.502 1554.34 116.341 1561.36 115.908C1599.28 115.568 1636.14 96.1878 1672.27 98.7493C1693.36 105.425 1717.62 114.488 1739.77 103.466C1742.2 102.214 1744.49 100.707 1746.61 98.9817C1764.15 84.3476 1767.67 58.0983 1758.77 38.0245C1748.3 14.8915 1725.42 0.525315 1702.22 -6.60818C1685.43 -11.7461 1667.97 -13.6585 1650.64 -15.1553C1643.65 -15.7595 1636.65 -16.2963 1629.65 -16.9489C1636.62 -16.0643 1643.6 -15.3064 1650.58 -14.4937C1667.84 -12.4828 1685.17 -10.1165 1701.61 -4.69097C1724.31 2.8148 1746.21 17.2766 1755.87 39.3108C1764.08 58.2147 1760.42 83.0265 1744.4 96.2688C1742.47 97.843 1740.38 99.2162 1738.16 100.359C1718.03 110.576 1694.42 102.38 1673.19 95.8494C1633.71 93.604 1599.51 113.814 1561.31 115.245C1554.32 115.886 1547.31 116.268 1540.27 116.385Z" fill="#255791"/>
<path d="M1420.53 15.4781C1417.04 19.6599 1413.74 24.0011 1410.63 28.4817C1386.96 62.576 1374.63 104.764 1376.78 146.551C1377.18 154.199 1378.24 161.884 1380.55 169.305C1383.59 179.195 1389.44 189.003 1398.85 194.409C1416.51 204.398 1436.71 197.637 1453.7 191.771C1472.87 184.962 1492.02 178.076 1511.14 171.116C1516.26 169.254 1521.37 167.386 1526.48 165.514C1521.3 167.165 1516.11 168.823 1510.93 170.486C1491.55 176.704 1472.2 183.002 1452.88 189.376C1435.81 194.926 1416.23 200.697 1400.56 191.499C1392.15 186.575 1386.79 177.673 1383.89 168.26C1381.7 161.222 1380.64 153.803 1380.21 146.365C1377.87 105.37 1388.95 63.7182 1411.18 28.8502C1414.11 24.2689 1417.22 19.8054 1420.53 15.4781Z" fill="#255791"/>
<path d="M1440.6 -11.2692C1440.6 -11.2692 1440.6 -11.2692 1440.6 -11.2692C1440.32 -7.79054 1439.99 -4.31757 1439.62 -0.851241C1436.91 24.3283 1431.8 49.158 1424.4 73.2635C1422.62 79.0444 1420.83 84.8758 1419.43 90.8444C1416.24 104.251 1414.77 120.327 1423.82 132.423C1435.28 147.782 1455.79 148.906 1472.67 147.597C1476.16 147.316 1479.63 146.906 1483.08 146.413C1483.08 146.413 1483.08 146.413 1483.08 146.413C1479.61 146.674 1476.12 146.862 1472.64 146.933C1455.68 147.275 1436.06 144.935 1426.21 130.707C1418.31 119.585 1419.71 104.819 1422.84 91.6448C1424.21 85.8224 1425.94 80.0485 1427.65 74.2405C1434.84 49.8174 1439.09 24.5454 1440.28 -0.799965C1440.45 -4.28904 1440.55 -7.77947 1440.6 -11.2692Z" fill="#255791"/>
<path d="M1360.17 73.0753C1359.35 74.5173 1358.58 75.9838 1357.84 77.4749C1351.2 90.8965 1348.05 106.168 1348.6 121.282C1349.12 136.396 1353.34 151.404 1360.91 164.328C1361.75 165.764 1362.62 167.172 1363.54 168.554C1362.83 167.057 1362.15 165.55 1361.5 164.029C1355.69 150.345 1352.62 135.784 1352.1 121.158C1351.58 106.531 1353.61 91.7887 1358.45 77.7312C1358.99 76.1696 1359.56 74.6181 1360.17 73.0753Z" fill="#255791"/>
<path d="M1401.79 223.849C1404.42 223.867 1407.06 223.879 1409.69 223.87C1425.11 223.812 1440.83 223.042 1455.87 218.379C1463.88 215.901 1471.47 212.382 1478.88 208.742C1488.9 203.817 1498.71 198.62 1509.16 195.203C1520.91 191.355 1533.4 189.794 1545.87 188.555C1548.49 188.294 1551.11 188.047 1553.73 187.795C1551.1 187.814 1548.46 187.84 1545.83 187.891C1533.3 188.137 1520.59 188.949 1508.32 192.456C1497.4 195.58 1487.31 200.705 1477.34 205.6C1469.96 209.226 1462.58 212.764 1454.9 215.376C1440.48 220.297 1425.03 221.923 1409.66 223.205C1407.04 223.424 1404.41 223.634 1401.79 223.849Z" fill="#255791"/>
<path d="M1526.5 -10.7372C1526.5 -10.7372 1526.5 -10.7372 1526.5 -10.7372C1525.19 -11.0887 1523.84 -11.3261 1522.48 -11.4461C1509.89 -12.4772 1497.88 -4.00537 1491.69 6.88472C1491.68 6.90695 1491.67 6.92918 1491.65 6.95142C1485.43 18.0025 1484.16 30.6608 1483.84 42.7221C1483.81 44.076 1483.78 45.4296 1483.77 46.7832C1483.77 46.7832 1483.77 46.7832 1483.77 46.7832C1484.02 45.4524 1484.26 44.1209 1484.5 42.7908C1486.69 30.8778 1488.92 18.8879 1494.7 8.67176C1494.71 8.65145 1494.72 8.63115 1494.74 8.61085C1500.48 -1.32208 1510.36 -9.82181 1522.47 -10.7811C1523.8 -10.8715 1525.15 -10.859 1526.5 -10.7372Z" fill="#255791"/>
<path d="M1103.67 356.938C1162.2 397.029 1172.74 490.021 1124.55 541.892C1121.84 544.802 1118.99 547.598 1116.07 550.314C1089.74 575.582 1049.94 595.518 1046.66 636.006C1045.48 656.891 1056.69 676.155 1070.36 691.039C1128.08 752.698 1223.75 753.149 1299.3 728.002C1377.04 701.813 1443.77 652.701 1517.92 619.365C1552.18 603.953 1587.86 591.966 1623.51 579.993C1651.04 570.749 1678.66 561.489 1707.21 556.51C1787.46 542.569 1870.65 563.643 1941.09 603.045C2021.95 648.429 2094.48 726.85 2098.89 822.746C2102.7 916.765 2036.25 1002.72 1952.61 1040.77C1929.19 1051.42 1903.88 1059.05 1878.19 1058.31C1860.25 1057.79 1842.64 1053.22 1825.03 1048.89C1791.16 1040.56 1757.07 1033.14 1722.8 1026.66C1694.96 1021.41 1666.58 1016.82 1637.95 1018.3C1623.14 1019.07 1608.33 1021.59 1594.27 1026.54C1559.7 1038.69 1530.98 1064.52 1494.86 1067.82C1445.05 1072 1402.1 1027.7 1393.52 980.392C1384.77 931.527 1404.29 882.277 1430.78 841.325C1501.53 732.319 1635.76 661.001 1766.12 682.592C1812.73 690.417 1858.83 710.366 1890.61 745.913C1921.64 780.654 1936.7 832.086 1920.64 876.686C1913.18 897.379 1899.73 915.43 1884.54 931.349C1875.15 941.181 1864.63 950.541 1851.71 954.596C1602.52 984.375 1351.19 1010 1100.61 1034.44C1027.13 1040.71 952.695 1050.58 880.179 1050.58C952.707 1050.82 1027.17 1041.17 1100.68 1035.11C1351.47 1011.34 1602.22 986.432 1852.42 956.894C1866.02 952.639 1876.82 942.967 1886.33 933.062C1901.68 917.021 1915.4 898.735 1923.08 877.566C1939.58 831.856 1924.26 779.508 1892.71 744.047C1860.4 707.825 1813.71 687.611 1766.62 679.642C1634.83 657.7 1499.49 729.509 1427.97 839.499C1401.22 880.825 1381.2 930.788 1390.14 981.002C1399.05 1029.79 1442.91 1075.49 1495.16 1071.29C1532.84 1067.72 1561.7 1041.56 1595.43 1029.84C1609.12 1025.02 1623.59 1022.55 1638.13 1021.79C1666.26 1020.34 1694.38 1024.86 1722.15 1030.09C1756.36 1036.56 1790.39 1043.95 1824.2 1052.27C1841.78 1056.58 1859.62 1061.23 1878.09 1061.77C1904.55 1062.52 1930.34 1054.67 1954.03 1043.89C2038.73 1005.27 2106.02 918.326 2102.13 822.607C2097.49 725.031 2023.99 646.103 1942.53 600.479C1871.57 560.91 1787.74 539.765 1706.76 553.961C1677.96 559.033 1650.25 568.388 1622.73 577.679C1587.1 589.714 1551.36 601.789 1517 617.325C1442.63 650.95 1376.09 700.129 1298.75 726.363C1223.66 751.553 1128.55 751.264 1071.2 690.266C1057.6 675.548 1046.53 656.54 1047.64 636.062C1050.65 596.333 1090.14 576.184 1116.52 550.801C1119.45 548.067 1122.3 545.253 1125.01 542.321C1173.33 489.971 1162.33 396.84 1103.67 356.938Z" fill="#255791"/>
<path d="M1027.4 739.481C1022.14 737.753 1016.98 735.723 1012 733.334C996.891 726.117 982.691 714.97 976.635 699.331C966.306 672.287 982.13 643.145 1001.69 623.963C1004.74 620.989 1007.92 618.137 1011.18 615.37C1029.67 599.664 1050.9 586.694 1067.67 568.354C1084.95 549.394 1096.28 525.247 1099.96 500.081C1100.77 494.588 1101.21 489.048 1101.28 483.51C1100.98 489.04 1100.31 494.542 1099.31 499.972C1094.69 524.848 1082.85 548.214 1065.6 566.437C1048.89 584.076 1027.72 596.757 1008.92 612.701C1005.61 615.511 1002.37 618.423 999.258 621.476C979.203 641.24 962.974 671.888 974.535 700.182C981.331 716.433 996.286 727.26 1011.72 733.939C1016.82 736.151 1022.07 737.976 1027.4 739.481Z" fill="#255791"/>
<path d="M1011.9 690.068C1012.67 691.193 1013.47 692.303 1014.29 693.397C1021.65 703.251 1030.92 711.786 1041.38 718.44C1051.83 725.1 1063.48 729.883 1075.51 732.421C1076.85 732.703 1078.19 732.958 1079.54 733.185C1078.25 732.732 1076.97 732.264 1075.7 731.783C1064.26 727.443 1053.44 721.966 1043.26 715.488C1033.08 709.003 1023.54 701.512 1014.79 692.959C1013.82 692.009 1012.85 691.045 1011.9 690.068Z" fill="#255791"/>
<path d="M949.749 689.744C947.356 692.955 945.378 696.484 943.846 700.209C936.453 718.162 939.417 740.497 952.602 755.554C964.085 768.627 980.694 775.143 996.627 780.001C997.195 780.173 997.763 780.344 998.331 780.512C1032.46 790.642 1067.69 795.85 1102.82 800.114C1106.79 800.596 1110.76 801.066 1114.74 801.53C1110.8 800.835 1106.86 800.146 1102.92 799.456C1068.04 793.353 1033.14 787.229 999.328 777.158C998.767 776.991 998.205 776.822 997.644 776.652C981.872 771.849 965.887 765.715 954.752 753.626C942.023 739.802 938.125 718.526 944.467 700.446C945.785 696.695 947.548 693.089 949.749 689.744Z" fill="#255791"/>
<path d="M1789.86 939.821C1789.86 939.821 1789.86 939.821 1789.86 939.821C1782.29 936.108 1773.89 934.209 1765.47 933.64C1747.82 932.486 1730.39 936.372 1713.22 939.571C1676.77 946.412 1639.68 949.625 1602.66 949.145C1591.65 949 1580.53 948.486 1570.53 944.513C1561.49 940.966 1553.74 934.607 1547.72 926.922C1537.48 913.822 1531.56 897.715 1527.22 881.522C1523.8 868.595 1521.08 854.893 1525.15 842.3C1528.17 832.95 1534.73 825.072 1541.49 817.627C1556 801.64 1572.07 786.663 1591.32 776.732C1603.11 770.66 1616.09 766.66 1629.4 765.746C1637.76 765.176 1646.25 765.877 1654.38 768.12C1654.38 768.12 1654.38 768.12 1654.38 768.12C1646.32 765.652 1637.8 764.717 1629.36 765.082C1615.93 765.668 1602.7 769.408 1590.61 775.323C1570.89 784.986 1554.34 799.908 1539.51 815.811C1532.62 823.227 1525.65 831.271 1522.26 841.349C1517.74 854.949 1520.61 869.292 1523.97 882.374C1528.29 898.825 1534.24 915.342 1544.97 929.09C1551.28 937.147 1559.57 943.959 1569.26 947.722C1580.02 951.939 1591.55 952.345 1602.62 952.425C1639.88 952.65 1677.14 948.926 1713.57 941.361C1730.72 937.825 1747.9 933.596 1765.43 934.304C1773.8 934.661 1782.19 936.32 1789.86 939.821Z" fill="#255791"/>
<path d="M1623.03 731.664C1623.03 731.664 1623.03 731.664 1623.03 731.664C1624.77 730.898 1626.53 730.171 1628.31 729.483C1644.26 723.3 1661.16 720.253 1678.05 720.084C1694.94 719.93 1711.89 722.653 1727.96 728.526C1729.75 729.18 1731.52 729.872 1733.28 730.605C1731.63 729.662 1729.94 728.766 1728.23 727.915C1712.81 720.249 1695.38 716.41 1678.02 716.584C1660.65 716.742 1643.3 720.915 1628.03 728.877C1626.34 729.761 1624.67 730.69 1623.03 731.664Z" fill="#255791"/>
<path d="M1220.72 799.196C1225.34 802.443 1230.43 805.025 1235.77 806.945C1249.46 811.857 1264.49 812.534 1278.85 810.169C1298.92 806.84 1317.54 798.014 1335.08 788.232C1349.33 780.284 1363.15 771.602 1376.73 762.607C1419.1 734.546 1459.31 703.255 1504.78 680.512C1509.82 677.991 1514.92 675.582 1520.08 673.299C1514.83 675.367 1509.63 677.576 1504.49 679.912C1458.07 701.005 1417 731.741 1374.79 759.689C1361.26 768.658 1347.56 777.374 1333.5 785.438C1316.19 795.363 1298.09 804.363 1278.49 808.153C1264.48 810.841 1249.71 810.669 1235.98 806.315C1230.63 804.611 1225.47 802.249 1220.72 799.196Z" fill="#255791"/>
<path d="M1446.05 754.023C1448.35 752.161 1450.69 750.353 1453.06 748.591C1466.39 738.676 1480.65 730.219 1494.85 721.586C1502.94 716.658 1511.01 711.691 1519.04 706.66C1519.47 706.392 1519.9 706.122 1520.33 705.852C1542.75 691.929 1565.77 677.378 1592.39 674.413C1595.32 674.1 1598.27 673.94 1601.23 673.946C1601.23 673.946 1601.23 673.946 1601.23 673.946C1598.28 673.707 1595.31 673.645 1592.34 673.75C1565.24 674.811 1540.86 688.946 1518.48 702.885C1518.05 703.155 1517.61 703.425 1517.18 703.695C1509.16 708.736 1501.16 713.816 1493.21 718.959C1479.25 727.962 1465.28 737.196 1452.64 748.071C1450.4 750.004 1448.2 751.986 1446.05 754.023Z" fill="#255791"/>
<path d="M1143.46 766.568C1146.55 763.919 1150.03 761.788 1153.73 760.182C1168.07 754.085 1184.21 755.227 1199.11 758.487C1218.06 762.707 1236.8 770.384 1257.12 769.943C1258.51 769.909 1259.89 769.837 1261.27 769.729C1299.66 766.224 1327.14 737.838 1359.33 721.447C1362.93 719.587 1366.6 717.856 1370.36 716.311C1366.52 717.638 1362.75 719.17 1359.04 720.848C1325.8 735.763 1297.46 763.117 1260.99 766.24C1259.68 766.343 1258.36 766.413 1257.03 766.448C1237.71 766.95 1219.02 759.727 1199.64 755.977C1184.35 753.093 1167.69 752.622 1153.45 759.579C1149.78 761.401 1146.39 763.747 1143.46 766.568Z" fill="#255791"/>
<path d="M1050.84 757.507C1050.84 757.507 1050.84 757.507 1050.84 757.507C1051.82 757.526 1052.8 757.548 1053.77 757.572C1062.54 757.788 1071.18 758.181 1079.81 758.727C1088.44 759.275 1097.06 759.976 1105.79 760.871C1106.75 760.97 1107.73 761.072 1108.7 761.177C1108.7 761.177 1108.7 761.177 1108.7 761.177C1107.78 760.845 1106.85 760.526 1105.92 760.22C1097.56 757.468 1088.83 755.791 1080.03 755.234C1071.23 754.675 1062.36 755.238 1053.71 756.909C1052.75 757.095 1051.8 757.294 1050.84 757.507Z" fill="#255791"/>
</g>
<defs>
<clipPath id="clip0_1496_8443">
<rect width="1654" height="773" fill="white"/>
</clipPath>
</defs>
</svg>
