<svg width="1142" height="3592" viewBox="0 0 1142 3592" fill="none" xmlns="http://www.w3.org/2000/svg">
<g clip-path="url(#clip0_1333_7031)">
<path d="M140.681 -225.501C141.898 -202.446 147.737 -179.709 157.219 -158.693C179.95 -107.533 228.452 -63.1702 286.32 -62.1999C290.108 -62.115 293.885 -62.1992 297.657 -62.4338C357.352 -66.2985 409.532 -105.84 470.963 -101.818C524.536 -97.7366 569.473 -57.3145 590.458 -9.35825C604.79 23.3708 609.387 59.5905 608.004 94.989C607.341 112.182 605.318 129.295 602.303 146.203C583.514 251.505 525.586 351.86 436.001 411.962C366.183 458.649 278.101 478.078 195.621 462.239C172.935 457.854 150.778 450.739 129.905 440.867C150.877 450.527 173.072 457.417 195.744 461.586C278.169 476.632 365.589 456.593 434.609 409.898C523.192 349.763 580.304 250.079 598.876 145.593C601.855 128.818 603.851 111.861 604.506 94.8546C605.874 59.8328 601.427 24.1592 587.493 -8.07115C567.138 -55.2097 523.261 -95.2408 470.792 -99.6179C410.507 -104.149 357.799 -65.0994 297.717 -61.4356C293.917 -61.218 290.112 -61.1516 286.297 -61.2552C227.966 -62.5347 179.558 -107.289 156.979 -158.585C147.562 -179.664 141.806 -202.441 140.681 -225.501Z" fill="#255791"/>
<path d="M545.965 125.895C545.246 134.472 544.107 143.009 542.564 151.483C528.631 227.894 482.237 297.582 418.2 341.845C395.002 357.88 369.435 370.564 342.489 378.925C314.776 387.526 284.792 392.022 256.087 385.534C236.081 380.972 217.207 370.659 203.655 355.269C197.959 348.781 193.296 341.381 190.119 333.38C193.512 341.291 198.344 348.528 204.149 354.824C217.959 369.753 236.79 379.492 256.503 383.618C284.825 389.483 314.212 384.687 341.549 375.942C368.106 367.442 393.284 354.812 416.211 338.966C479.46 295.194 526.116 227.183 541.911 151.356C543.656 142.942 545.014 134.449 545.965 125.895Z" fill="#255791"/>
<path d="M453.594 351.006C450.361 354.496 447.035 357.902 443.621 361.222C412.887 391.112 375.068 413.862 334.203 427.383C311.758 434.814 288.382 439.47 264.814 441.052C245.625 442.268 225.115 441.228 208.202 431.207C204.102 428.739 200.345 425.723 197.12 422.218C200.513 425.561 204.379 428.373 208.532 430.63C225.634 439.757 245.676 440.064 264.604 438.415C287.909 436.281 310.917 431.404 333.103 424.06C373.488 410.682 411.211 389.158 443.168 360.735C446.717 357.577 450.194 354.333 453.594 351.006Z" fill="#255791"/>
<path d="M404.824 310.759C402.933 312.359 401.007 313.919 399.048 315.44C381.419 329.138 361.14 339.588 339.688 346.188C318.239 352.797 295.592 355.563 273.312 354.147C270.837 353.991 268.367 353.783 265.904 353.523C268.381 353.55 270.855 353.536 273.326 353.482C295.57 352.997 317.556 349.335 338.658 342.842C359.757 336.342 379.996 327.004 398.663 314.898C400.737 313.553 402.79 312.173 404.824 310.759Z" fill="#255791"/>
<path d="M232.057 588.724C232.057 588.724 232.057 588.724 232.057 588.724C236.669 584.055 243.795 583.045 250.122 583.876C256.357 584.642 262.335 586.685 268.154 588.892C297.254 599.99 328.553 607.911 359.438 603.713C379.068 601 398.124 592.811 412.77 579.519C420.847 572.17 427.445 563.17 431.541 553.073C438.094 536.97 438.422 519.041 438.846 501.45C439.28 483.869 439.954 465.508 447.432 449.072C452.179 438.751 459.932 429.703 469.875 424.243C475.541 421.144 481.98 419.382 488.407 419.577C481.976 419.618 475.678 421.592 470.202 424.822C460.598 430.512 453.293 439.604 448.951 449.741C442.083 465.953 441.782 483.925 441.638 501.494C441.487 519.073 441.443 537.383 434.689 554.343C430.452 564.983 423.546 574.449 415.128 582.105C399.855 595.958 380.112 604.272 359.845 606.841C328.064 610.773 296.539 602.015 267.694 590.046C261.976 587.684 256.138 585.489 250.033 584.535C243.835 583.524 236.845 584.236 232.057 588.724Z" fill="#255791"/>
<path d="M442.725 428.505C442.725 428.505 442.725 428.505 442.725 428.505C441.187 427.558 439.49 428.754 438.309 429.766C437.277 430.687 436.291 431.655 435.353 432.665C426.551 442.184 422.193 454.761 419.892 467.28C417.331 481.261 417.114 495.667 414.558 509.993C414.519 510.211 414.48 510.427 414.44 510.642C411.843 524.605 406.609 539.018 395.706 548.963C385.519 558.197 369.865 562.272 357.445 556.081C356.632 555.669 355.842 555.215 355.077 554.719L355.398 554.646C354.141 556.402 352.891 558.165 351.629 559.918C351.629 559.918 351.629 559.918 351.629 559.918C352.754 558.074 353.871 556.224 355.001 554.382L355.139 554.191L355.323 554.31C356.106 554.743 356.908 555.132 357.725 555.478C370.159 560.628 384.656 555.849 393.819 546.96C403.703 537.29 408.464 523.604 410.998 510.004C411.037 509.794 411.076 509.584 411.114 509.374C413.622 495.421 414.111 480.949 417.239 466.746C420.045 454.019 425.28 441.23 434.882 432.195C435.902 431.238 436.967 430.331 438.073 429.479C439.354 428.521 441.249 427.421 442.725 428.505Z" fill="#255791"/>
<path d="M403.832 464.934C403.731 466.431 403.59 467.927 403.409 469.42C401.788 482.865 396.915 496.046 389.341 507.454C387.253 510.603 384.961 513.618 382.484 516.469C376.552 523.264 367.362 530.344 357.742 527.316L357.588 527.287L357.464 527.108C357.192 526.572 356.92 526.035 356.65 525.497C355.975 524.158 355.306 522.816 354.642 521.471C355.507 522.697 356.367 523.926 357.221 525.157C357.564 525.652 357.907 526.146 358.248 526.642L357.97 526.433C367.064 527.991 374.5 521.019 379.965 514.362C382.253 511.513 384.407 508.562 386.425 505.52C393.73 494.492 399.283 482.287 402.756 469.294C403.141 467.85 403.5 466.397 403.832 464.934Z" fill="#255791"/>
<path d="M332.638 551.363C331.275 551.244 329.921 550.85 328.679 550.185C322.149 546.354 320.159 538.339 318.909 531.499C318.048 526.349 317.269 521.189 316.575 516.017C315.864 510.718 315.242 505.407 314.713 500.084C313.968 493.423 313.209 486.309 308.502 481.334C307.565 480.39 306.472 479.586 305.249 478.972C306.558 479.369 307.809 479.998 308.935 480.829C314.723 485.303 316.448 492.969 317.646 499.691C318.532 504.967 319.332 510.253 320.043 515.551C320.737 520.724 321.346 525.908 321.867 531.104C322.657 537.786 323.631 545.22 329.035 549.623C330.091 550.419 331.314 551.013 332.638 551.363Z" fill="#255791"/>
<path d="M297.021 522.993C296.818 521.95 296.62 520.906 296.423 519.864C294.652 510.508 292.918 501.123 288.326 493.285C288.314 493.265 288.303 493.246 288.291 493.226C283.767 485.709 275.849 479.295 266.385 479.334C265.344 479.354 264.295 479.465 263.25 479.67C264.225 479.242 265.249 478.907 266.305 478.674C276.101 476.592 286.279 482.887 291.31 491.455C291.323 491.477 291.335 491.498 291.348 491.52C296.428 500.256 297.186 510.334 297.085 519.805C297.073 520.868 297.051 521.931 297.021 522.993Z" fill="#255791"/>
<path d="M386.456 461.672C384.733 461.417 382.991 461.603 381.383 462.127C376.991 463.597 373.611 467.153 371.572 471.107C368.736 476.687 367.973 483.098 366.076 489.466C364.761 493.817 362.828 498.182 359.479 501.697C357.917 503.324 356.019 504.713 353.883 505.616C350.103 507.17 344.422 507.155 342.097 502.319C341.248 500.236 341.571 498.315 341.656 496.743C342.144 488.909 339.558 480.783 334.476 474.393C333.405 473.048 332.221 471.782 330.931 470.617C332.366 471.599 333.718 472.716 334.97 473.948C340.918 479.795 344.568 488.193 344.522 496.844C344.489 498.551 344.449 500.065 344.95 501.056C345.932 503.312 349.85 503.674 352.508 502.451C354.17 501.715 355.663 500.616 356.958 499.269C359.733 496.372 361.598 492.495 362.956 488.477C364.973 482.529 366.156 475.858 369.726 470.064C372.349 465.882 376.414 462.466 381.218 461.483C382.967 461.138 384.784 461.188 386.456 461.672Z" fill="#255791"/>
<path d="M547.889 1011.26C547.636 1007.46 547.886 1003.62 548.579 999.846C551.549 984.056 561.589 970.265 573.952 960.136C588.496 948.292 606.032 940.96 623.631 935.378C625.757 934.705 627.889 934.057 630.026 933.43C660.893 924.37 692.896 919.228 724.952 918.134C728.76 918.004 732.569 917.931 736.377 917.916C732.577 918.165 728.782 918.459 724.993 918.798C693.097 921.657 661.596 927.685 631.015 936.775C628.9 937.404 626.79 938.05 624.687 938.715C607.272 944.241 590.086 951.15 575.616 962.237C563.345 971.713 553.02 984.614 549.23 999.984C548.342 1003.66 547.87 1007.45 547.889 1011.26Z" fill="#255791"/>
<path d="M329.425 1244.59C329.707 1253.72 330.127 1262.65 330.704 1271.75C335.768 1352.98 353.709 1433.62 387.188 1507.77C420.42 1582 468.885 1648.94 526.424 1706.52C532.831 1712.95 539.295 1719.22 545.925 1725.45C545.925 1725.45 545.925 1725.45 545.925 1725.45C539.137 1719.39 532.518 1713.28 525.959 1706.99C467.05 1650.73 417.419 1583.88 383.995 1509.2C350.307 1434.62 333.209 1353.17 330.04 1271.78C329.672 1262.67 329.474 1253.72 329.425 1244.59Z" fill="#255791"/>
<path d="M841.389 1802.41C842.635 1795.48 844.097 1788.58 845.684 1781.71C859.042 1722.2 886.387 1657.53 856.869 1600.29C856.437 1599.45 855.996 1598.61 855.546 1597.78C824.143 1542.12 760.919 1514.71 701.307 1496.64C694.548 1494.66 687.748 1492.8 680.925 1491.08C687.801 1492.58 694.661 1494.22 701.485 1496C761.612 1512.31 826.183 1538.83 858.622 1596.11C859.085 1596.97 859.538 1597.82 859.982 1598.69C890.306 1658.16 861.299 1723.05 846.33 1781.87C844.541 1788.68 842.864 1795.53 841.389 1802.41Z" fill="#255791"/>
<path d="M259.531 1872.6C259.531 1872.6 259.531 1872.6 259.531 1872.6C256.279 1860.71 255.486 1848.12 257.31 1835.89C259.55 1820.74 266.077 1805.94 277.086 1794.99C294.648 1777.59 319.621 1771.35 337.32 1755.2C352.635 1741.22 360.947 1721.07 364.647 1700.83C374.075 1651.02 355.892 1600.09 327.351 1559.22C306.813 1529.58 281.117 1503.63 252.786 1481.3C194.265 1435.25 126.967 1400.43 72.1557 1349.2C63.1552 1340.76 54.5482 1331.91 46.4862 1322.58C54.7234 1331.76 63.4785 1340.44 72.6063 1348.71C128.159 1398.89 195.616 1432.8 254.756 1478.78C283.432 1501.13 309.443 1527.23 330.231 1557.23C359.111 1598.55 377.531 1650.63 367.509 1701.36C363.572 1721.99 354.875 1742.63 338.876 1756.93C320.354 1773.35 295.464 1779.17 278.062 1795.99C267.142 1806.52 260.445 1821 257.967 1835.99C255.95 1848.1 256.505 1860.66 259.531 1872.6Z" fill="#255791"/>
<path d="M476.925 1836.92C476.027 1829.5 475.071 1822.34 474.014 1815.09C464.591 1749.75 447.414 1685.69 421.717 1625.07C396.662 1564.11 361.125 1508.07 333.749 1447.93C330.774 1441.21 327.953 1434.43 325.351 1427.6C328.17 1434.34 331.192 1441.03 334.353 1447.65C363.356 1506.83 399.737 1562.41 424.943 1623.71C450.77 1684.63 467.127 1749.38 474.674 1815C475.523 1822.29 476.259 1829.47 476.925 1836.92Z" fill="#255791"/>
<path d="M415.555 1221.66C414.825 1218.74 414.299 1215.77 413.974 1212.77C411.134 1185.3 424.468 1158.75 441.234 1137.7C441.243 1137.69 441.251 1137.68 441.259 1137.67C458.31 1116.37 479.077 1098.89 496.034 1077.87C497.916 1075.54 499.749 1073.16 501.521 1070.74C499.943 1073.29 498.286 1075.8 496.566 1078.27C481.02 1100.55 460.726 1118.92 443.993 1139.85C443.984 1139.86 443.976 1139.87 443.968 1139.88C427.532 1160.63 413.78 1185.51 414.637 1212.72C414.751 1215.71 415.054 1218.69 415.555 1221.66Z" fill="#255791"/>
<path d="M245.417 1237.27C241.118 1232.14 237.121 1226.74 233.445 1221.14C202.001 1173.17 194.212 1109.8 214.609 1055.57C215.672 1052.74 216.671 1049.92 217.459 1047.06C219.414 1040.12 220.17 1031.96 215.003 1027.41C212.832 1025.41 209.761 1024.31 206.561 1023.34C178.386 1014.88 146.805 1017.1 119.562 1002.71C102.185 993.445 88.8379 977.438 82.2632 959.144C79.9899 952.818 78.5273 946.21 77.9906 939.536C78.7598 946.187 80.4356 952.71 82.8854 958.909C89.9728 976.837 103.525 992.136 120.575 1000.77C147.295 1014.22 178.437 1011.61 207.532 1020.08C210.822 1021.06 214.415 1022.23 217.33 1024.86C224.165 1031.02 222.821 1040.82 220.833 1047.99C220 1051.01 218.961 1053.93 217.877 1056.8C197.857 1109.89 204.253 1172.02 234.007 1220.78C237.492 1226.48 241.299 1231.99 245.417 1237.27Z" fill="#255791"/>
<path d="M561.538 924.847C561.215 928.66 560.342 932.412 559.193 936.087C547.406 968.92 524.08 995.697 502.25 1022.14C497.567 1027.69 492.82 1033.2 488.228 1038.7L487.695 1036.13C512.083 1048.36 540.476 1033.92 567.581 1038.57C571.375 1039.25 575.095 1040.33 578.591 1041.9C578.591 1041.9 578.591 1041.9 578.591 1041.9C575.005 1040.55 571.261 1039.69 567.483 1039.23C540.636 1035.95 513.21 1051.83 486.156 1039.13L484.288 1038.16L485.622 1036.56C490.184 1030.96 494.898 1025.43 499.576 1019.88C521.395 993.446 545.156 967.647 558.564 935.871C559.9 932.296 560.982 928.632 561.538 924.847Z" fill="#255791"/>
<path d="M335.366 1416.14C334.673 1414.88 333.999 1413.61 333.343 1412.33C327.441 1400.8 323.055 1388.44 320.339 1375.73C317.619 1363.01 316.567 1349.94 317.239 1337.01C317.313 1335.57 317.409 1334.14 317.525 1332.71C317.642 1334.14 317.768 1335.57 317.904 1337C319.124 1349.85 321.09 1362.5 323.761 1375C326.435 1387.5 329.814 1399.85 333.956 1412.07C334.416 1413.43 334.886 1414.78 335.366 1416.14Z" fill="#255791"/>
<path d="M415.329 1688.73C415.981 1690.84 416.551 1692.98 417.041 1695.14C421.479 1714.61 419.195 1735.61 411.413 1754.18C403.666 1772.76 390.323 1789.14 373.347 1799.66C371.465 1800.83 369.545 1801.92 367.584 1802.94C369.426 1801.72 371.219 1800.44 372.97 1799.11C388.727 1787.1 400.651 1770.82 408.183 1752.83C415.697 1734.83 418.904 1714.91 416.386 1695.26C416.105 1693.07 415.754 1690.9 415.329 1688.73Z" fill="#255791"/>
<path d="M293.628 1480.51C293.628 1480.51 293.628 1480.51 293.628 1480.51C293.81 1478.25 295.81 1476.48 297.964 1475.81C299.152 1475.42 300.441 1475.29 301.713 1475.51C305.341 1476.13 308.196 1478.63 310.703 1480.94C321.867 1491.31 331.749 1503.12 340.05 1515.95C350.887 1532.69 359.03 1551.17 363.984 1570.38C364.535 1572.51 365.046 1574.65 365.518 1576.8C364.821 1574.72 364.098 1572.64 363.349 1570.57C356.602 1551.99 347.77 1534.32 337.111 1517.85C328.941 1505.22 319.69 1493.3 309.407 1482.24C307.105 1479.78 304.686 1477.33 301.505 1476.48C300.432 1476.2 299.26 1476.2 298.14 1476.45C296.111 1476.88 294.062 1478.29 293.628 1480.51Z" fill="#255791"/>
<path d="M184.77 1138.84C184.875 1135.7 184.985 1132.57 185.101 1129.43C185.945 1106.56 187.09 1083.71 188.557 1060.88C188.717 1058.78 188.631 1056.83 187.752 1055.88C187.04 1055.01 185.487 1054.55 183.707 1054.27C182.45 1054.06 181.19 1053.88 179.924 1053.71C167.164 1052.03 153.722 1052.36 140.87 1048.22C125.996 1043.39 113.973 1033.05 103.84 1021.88C101.728 1019.56 99.6807 1017.17 97.6795 1014.76C99.8548 1017.02 102.063 1019.25 104.318 1021.42C115.146 1031.87 127.435 1041.33 141.72 1045.46C154.05 1049.03 167.223 1048.53 180.378 1050.24C181.681 1050.41 182.984 1050.61 184.284 1050.83C186.156 1051.17 188.593 1051.57 190.391 1053.63C192.404 1056.12 192.072 1058.97 191.946 1061.12C190.19 1083.93 188.136 1106.71 185.764 1129.48C185.439 1132.6 185.108 1135.72 184.77 1138.84Z" fill="#255791"/>
<path d="M532.593 915.179C532.701 916.443 532.743 917.717 532.722 918.994C532.533 930.576 527.196 941.787 519.74 950.623C519.74 950.624 519.739 950.625 519.738 950.626C512.235 959.541 502.795 966.312 493.16 972.355C492.086 973.029 491.007 973.695 489.925 974.356C490.868 973.508 491.814 972.664 492.761 971.823C501.285 964.256 509.896 956.896 517.059 948.373C517.06 948.372 517.061 948.371 517.062 948.369C524.167 939.887 529.97 930.086 532.061 918.928C532.288 917.692 532.467 916.441 532.593 915.179Z" fill="#255791"/>
<path d="M515.121 1620.86C513.677 1619.75 512.245 1618.63 510.825 1617.49C498.046 1607.26 486.259 1595.72 475.718 1583.14C465.176 1570.56 455.879 1556.93 448.041 1542.56C447.17 1540.96 446.317 1539.35 445.482 1537.74C446.517 1539.23 447.558 1540.72 448.605 1542.21C458.033 1555.56 467.965 1568.43 478.401 1580.89C488.839 1593.34 499.781 1605.38 511.27 1617C512.547 1618.29 513.83 1619.58 515.121 1620.86Z" fill="#255791"/>
<path d="M463.185 1017.55C464.103 1018.7 464.937 1019.93 465.678 1021.22C472.421 1033.04 470.947 1048.31 464.871 1060.36C464.865 1060.37 464.858 1060.38 464.851 1060.4C458.672 1072.61 448.625 1081.93 438.403 1090.24C437.26 1091.16 436.11 1092.08 434.957 1093C434.957 1093 434.957 1093 434.957 1093C435.951 1091.91 436.95 1090.83 437.948 1089.75C446.911 1080.05 455.927 1070.32 461.727 1058.82C461.733 1058.8 461.74 1058.79 461.746 1058.78C467.374 1047.45 469.871 1033.81 465.08 1021.51C464.541 1020.15 463.91 1018.83 463.185 1017.55Z" fill="#255791"/>
<path d="M388.561 1185.73C388.257 1184.43 387.975 1183.13 387.715 1181.82C385.377 1170.04 384.86 1157.83 386.167 1145.82C387.469 1133.82 390.595 1122.01 395.406 1111C395.94 1109.78 396.495 1108.56 397.07 1107.36C396.713 1108.65 396.368 1109.93 396.034 1111.22C393.031 1122.79 390.925 1134.45 389.646 1146.2C388.372 1157.95 387.925 1169.79 388.376 1181.74C388.426 1183.07 388.488 1184.4 388.561 1185.73Z" fill="#255791"/>
<path d="M647.667 1170.67C636.655 1168.93 626.127 1164.44 616.984 1158.02C592.913 1141.12 577.554 1110.81 581.843 1080.98L583.695 1081.77C541.02 1137.65 509.79 1204.53 505.974 1275.1C504.471 1304.82 508.464 1334.9 518.824 1362.83C529.484 1391.71 546.505 1417.95 558.018 1446.9C572.597 1483.58 577.571 1523.89 572.747 1562.89C571.379 1573.96 569.222 1584.92 566.275 1595.65C568.996 1584.86 570.93 1573.87 572.086 1562.82C576.16 1523.84 570.582 1483.94 555.745 1447.82C544.039 1419.3 526.796 1393.23 515.782 1363.97C505.095 1335.65 500.951 1305.07 502.478 1274.92C506.358 1203.35 538.428 1136.06 582.052 1080.49L584.509 1077.35L583.904 1081.29C579.336 1110.14 593.807 1140.27 617.371 1157.48C626.317 1164.01 636.694 1168.7 647.667 1170.67Z" fill="#255791"/>
<path d="M550.146 1271.44C550.146 1271.44 550.146 1271.44 550.146 1271.44C551.371 1272.5 552.695 1273.42 554.089 1274.19C565.94 1280.37 579.463 1276.98 592.804 1277.59C594.148 1277.64 595.491 1277.74 596.829 1277.88C611.664 1279.37 625.853 1286.12 636.237 1296.44C637.391 1297.59 638.498 1298.77 639.555 1300C639.555 1300 639.555 1300 639.555 1300C638.333 1298.94 637.081 1297.92 635.8 1296.94C624.267 1288.17 610.558 1282.81 596.474 1281.36C595.202 1281.23 593.928 1281.13 592.651 1281.07C579.979 1280.31 565.21 1282.76 553.73 1274.75C552.409 1273.78 551.205 1272.67 550.146 1271.44Z" fill="#255791"/>
<path d="M603.745 1220.8C602.161 1220.33 600.607 1219.73 599.097 1219.03C585.264 1212.5 576.857 1198.19 572.001 1184.2C571.998 1184.19 571.995 1184.18 571.993 1184.17C567.094 1169.97 564.928 1155.31 559.247 1141.63C558.615 1140.11 557.939 1138.61 557.213 1137.13C558.141 1138.49 559.017 1139.9 559.843 1141.34C567.314 1154.36 570.531 1169.24 575.302 1183.03C575.304 1183.04 575.307 1183.05 575.31 1183.05C580.105 1196.67 586.891 1210.4 599.416 1218.45C600.799 1219.32 602.243 1220.11 603.745 1220.8Z" fill="#255791"/>
<path d="M680.288 1250.69C677.577 1250.93 674.866 1251.16 672.155 1251.39C659.862 1252.42 647.564 1253.32 635.261 1254.12C626.112 1254.7 616.489 1255.26 607.256 1252.22C604.349 1251.26 601.584 1249.95 598.966 1248.46C594.257 1245.77 590.018 1242.5 585.869 1239.28C570.96 1227.56 554.862 1214.22 549.422 1195.17C548.696 1192.53 548.22 1189.83 548.014 1187.11C548.452 1189.8 549.142 1192.43 550.056 1194.97C556.824 1213.15 572.851 1225.13 587.916 1236.6C592.114 1239.76 596.264 1242.89 600.699 1245.42C603.165 1246.82 605.716 1248.04 608.359 1248.94C616.73 1251.8 625.968 1251.56 635.134 1251.32C647.459 1251 659.79 1250.8 672.125 1250.72C674.846 1250.71 677.567 1250.69 680.288 1250.69Z" fill="#255791"/>
<path d="M636.736 1428.14C633.986 1430.98 629.539 1430.34 626.023 1429.45C625.299 1429.26 624.577 1429.07 623.86 1428.86C594.343 1420.34 572.046 1396.93 553.954 1373.12C547.767 1364.97 541.849 1356.53 536.775 1347.54C531.313 1337.87 526.843 1327.51 524.38 1316.57C517.724 1287.05 525.914 1257.22 535.45 1229.77C536.925 1225.54 538.449 1221.32 539.987 1217.11C538.67 1221.4 537.357 1225.68 536.083 1229.98C527.823 1257.86 520.768 1287.49 527.584 1315.82C530.094 1326.34 534.479 1336.36 539.823 1345.82C544.787 1354.62 550.565 1362.96 556.609 1371.13C574.322 1394.97 595.279 1418.41 624.058 1428.22C624.759 1428.46 625.465 1428.69 626.176 1428.91C629.599 1429.94 633.849 1430.81 636.736 1428.14Z" fill="#255791"/>
<path d="M608.283 1359.01C608.046 1357.89 607.532 1356.88 606.884 1355.99C605.171 1353.69 602.679 1352.09 600.096 1351.12C597.605 1350.15 594.34 1350.01 593.456 1351.5C591.699 1354.12 593.096 1358.56 594.886 1362.03C596.253 1364.66 598.015 1367.14 600.06 1369.31C604.699 1374.26 610.605 1378.05 616.69 1381.63C617.669 1382.2 618.652 1382.78 619.633 1383.36C618.554 1382.99 617.478 1382.62 616.406 1382.23C609.773 1379.83 603.136 1376.67 597.781 1371.6C595.358 1369.3 593.328 1366.62 591.777 1363.64C589.899 1359.7 587.688 1354.5 591.094 1349.66C594.332 1346.33 598.295 1347.97 600.94 1349.24C603.707 1350.71 606.103 1352.89 607.456 1355.65C607.963 1356.71 608.28 1357.87 608.283 1359.01Z" fill="#255791"/>
<path d="M656.849 1332.39C654.831 1330.4 652.728 1328.51 650.551 1326.71C630.927 1310.6 605.418 1302.37 580.483 1304.04C579.72 1304.09 578.959 1304.15 578.198 1304.22C576.465 1304.37 574.92 1304.64 573.96 1305.36C572.459 1306.41 571.822 1308.84 571.497 1311.39C568.86 1331.08 571.774 1351.55 579.887 1369.99C581.025 1372.57 582.265 1375.11 583.609 1377.6C583.609 1377.6 583.609 1377.6 583.609 1377.6C582.065 1375.23 580.624 1372.78 579.289 1370.28C569.754 1352.38 565.716 1331.37 568.145 1310.96C568.506 1308.3 568.934 1304.86 571.898 1302.57C573.865 1301.13 576.063 1300.93 577.868 1300.74C578.662 1300.66 579.454 1300.6 580.246 1300.55C606.184 1298.77 632.504 1308.52 650.992 1326.22C653.046 1328.18 655.002 1330.24 656.849 1332.39Z" fill="#255791"/>
<path d="M543.014 1281.09C543.336 1281.81 543.651 1282.53 543.957 1283.25C546.718 1289.76 548.859 1296.49 550.359 1303.37C551.859 1310.24 552.718 1317.25 552.923 1324.32C552.946 1325.11 552.961 1325.89 552.967 1326.68C552.73 1325.93 552.497 1325.18 552.267 1324.43C550.199 1317.68 548.426 1310.93 546.939 1304.11C545.452 1297.3 544.251 1290.43 543.316 1283.43C543.212 1282.65 543.112 1281.87 543.014 1281.09Z" fill="#255791"/>
<path d="M617.014 1270.09C618.575 1270.92 620.129 1271.75 621.677 1272.6C635.607 1280.24 649.002 1288.88 661.717 1298.43C674.433 1307.97 686.469 1318.42 697.692 1329.67C698.939 1330.92 700.176 1332.18 701.403 1333.45C700.019 1332.35 698.635 1331.26 697.25 1330.16C684.784 1320.34 672.254 1310.71 659.616 1301.23C646.977 1291.74 634.231 1282.4 621.323 1273.16C619.889 1272.14 618.452 1271.11 617.014 1270.09Z" fill="#255791"/>
<path d="M887.409 1641.97C887.409 1641.97 887.409 1641.97 887.409 1641.97C887.889 1636.42 887.853 1630.84 887.325 1625.31C882.141 1577.81 845.929 1540.76 806.896 1516.62C804.238 1514.99 801.549 1513.41 798.837 1511.87C755.303 1487.32 706.556 1473.7 658.122 1461.16C652.727 1459.77 647.326 1458.39 641.925 1457.03C641.925 1457.03 641.925 1457.03 641.925 1457.03C647.378 1458.17 652.83 1459.32 658.276 1460.51C707.132 1471.22 756.451 1483.97 800.563 1508.83C803.309 1510.38 806.03 1511.99 808.719 1513.64C848.297 1538.15 884.61 1577.09 887.988 1625.26C888.31 1630.84 888.121 1636.44 887.409 1641.97Z" fill="#255791"/>
<path d="M802.213 1878.54C802.213 1878.54 802.213 1878.54 802.213 1878.54C804.157 1875.39 805.384 1871.85 805.923 1868.24C807.442 1858.05 803.626 1847.12 795.719 1840.89C792.186 1838.09 787.959 1836.16 783.912 1833.62C768.002 1823.55 758.771 1804.59 759.226 1785.86C759.37 1779.92 760.509 1773.97 762.705 1768.42C765.89 1760.41 770.78 1753.51 774.851 1746.37C784.253 1729.92 789.896 1711.26 791.249 1692.16C791.51 1688.48 791.61 1684.79 791.546 1681.09C791.843 1684.78 791.965 1688.48 791.914 1692.19C791.651 1711.44 786.702 1730.73 777.466 1747.83C773.463 1755.23 768.785 1762.12 765.887 1769.66C763.896 1774.84 762.86 1780.38 762.725 1785.95C762.302 1803.49 770.659 1821.44 785.362 1831.39C789.126 1833.94 793.398 1836.06 797.094 1839.21C805.432 1846.36 808.716 1858.05 806.578 1868.36C805.818 1872.02 804.352 1875.52 802.213 1878.54Z" fill="#255791"/>
<path d="M600.287 1595.81C600.287 1595.81 600.287 1595.81 600.287 1595.81C600.167 1603.47 600.316 1611.16 600.885 1618.8C602.818 1645.38 610.645 1677.63 637.711 1686.99C645.618 1689.8 654.575 1690.15 662.707 1694.34C688.367 1709.11 682.777 1742.58 677.48 1766.15L674.26 1764.93C677.43 1758.78 680.583 1752.39 683.708 1746.08C695.005 1722.59 707.551 1699.03 716.002 1674.95C719.491 1657.54 703.269 1643.33 688.57 1635.04C666.138 1625.12 640.931 1620.19 618.188 1609.62C611.444 1606.23 603.724 1602.92 600.271 1595.83C600.277 1595.82 600.282 1595.82 600.287 1595.81C600.287 1595.81 600.287 1595.81 600.287 1595.81C600.282 1595.82 600.277 1595.82 600.272 1595.83C603.923 1602.78 611.66 1605.82 618.462 1609.02C641.468 1618.95 666.257 1623.11 689.694 1632.98C704.752 1641.25 722.535 1655.46 719.03 1675.58C710.437 1701.01 698.21 1723.93 686.847 1747.63C683.711 1753.96 680.568 1760.31 677.33 1766.54L670.73 1779.07L674.11 1765.32C679.547 1742.01 684.372 1710.1 661.367 1696.88C654.066 1692.94 645.207 1692.39 636.866 1689.33C608.322 1678.72 601.48 1645.43 600.221 1618.84C599.86 1611.17 599.934 1603.46 600.287 1595.81ZM600.287 1595.81" fill="#255791"/>
<path d="M586.39 1688.31C584.35 1687.21 582.436 1685.85 580.699 1684.27C569.486 1673.83 566.804 1657.58 565.805 1643C565.425 1636.9 565.244 1630.78 565.249 1624.66C565.265 1603.72 567.469 1582.83 571.365 1562.32C571.798 1560.05 572.252 1557.77 572.726 1555.5C572.483 1557.81 572.248 1560.11 572.024 1562.42C570.002 1583.17 568.766 1603.92 568.749 1624.66C568.744 1630.73 568.843 1636.79 569.059 1642.84C569.699 1657.22 571.259 1672.71 581.167 1683.8C582.72 1685.49 584.472 1687.01 586.39 1688.31Z" fill="#255791"/>
<path d="M716.598 1608.89C715.128 1608.52 713.66 1608.16 712.192 1607.79C698.982 1604.49 685.85 1601.13 672.739 1597.68C659.629 1594.23 646.541 1590.7 633.417 1587.07C631.959 1586.67 630.501 1586.26 629.041 1585.86C630.546 1586.04 632.048 1586.22 633.55 1586.42C647.061 1588.2 660.455 1590.83 673.63 1594.29C686.804 1597.76 699.76 1602.06 712.398 1607.16C713.802 1607.72 715.202 1608.3 716.598 1608.89Z" fill="#255791"/>
<path d="M580.629 1736.96C579.563 1735.91 578.502 1734.86 577.448 1733.8C567.961 1724.24 558.985 1714.2 550.56 1703.72C542.134 1693.24 534.258 1682.32 526.969 1671C526.159 1669.74 525.357 1668.48 524.561 1667.21C525.544 1668.34 526.524 1669.47 527.502 1670.6C536.299 1680.78 544.887 1691.08 553.287 1701.53C561.688 1711.98 569.901 1722.58 577.952 1733.36C578.846 1734.56 579.739 1735.76 580.629 1736.96Z" fill="#255791"/>
<path d="M686.353 1672.43C686.239 1671.59 686.092 1670.77 685.912 1669.96C684.276 1662.65 680.224 1656.45 675.05 1651.57C669.849 1646.73 663.39 1643.1 655.991 1641.95C655.169 1641.83 654.341 1641.74 653.498 1641.68C653.498 1641.68 653.498 1641.68 653.498 1641.68C654.324 1641.51 655.159 1641.38 656.007 1641.29C663.677 1640.49 671.722 1643.62 677.442 1649.02C683.206 1654.37 686.855 1662.19 686.575 1669.9C686.547 1670.75 686.473 1671.59 686.353 1672.43Z" fill="#255791"/>
<path d="M544.063 1665.63C544.25 1664.32 544.275 1663.02 544.127 1661.75C542.087 1649.99 529.975 1644.45 519.886 1639.83C519.884 1639.83 519.883 1639.83 519.882 1639.83C509.501 1635.18 496.524 1627.81 496.182 1614.83C496.226 1613.49 496.463 1612.17 496.861 1610.92C496.691 1612.23 496.683 1613.53 496.846 1614.8C499.022 1626.53 511.151 1631.97 521.254 1636.61C521.255 1636.61 521.256 1636.61 521.257 1636.61C531.647 1641.25 544.6 1648.74 544.792 1661.73C544.732 1663.07 544.477 1664.38 544.063 1665.63Z" fill="#255791"/>
<path d="M807.354 1578.05C806.941 1577.09 806.51 1576.14 806.064 1575.21C802.037 1566.8 796.741 1559.28 790.506 1552.67C784.261 1546.06 777.059 1540.35 768.89 1535.85C767.982 1535.35 767.062 1534.87 766.13 1534.4C767.143 1534.65 768.15 1534.93 769.15 1535.24C778.157 1538.02 786.496 1543.31 793.051 1550.26C799.618 1557.21 804.423 1565.83 806.69 1574.98C806.942 1576 807.164 1577.02 807.354 1578.05Z" fill="#255791"/>
<path d="M466.869 1087.07C466.308 1087.78 465.748 1088.49 465.19 1089.19C460.164 1095.55 455.238 1101.84 450.324 1108.14C445.411 1114.44 440.511 1120.74 435.572 1127.17C435.023 1127.88 434.474 1128.6 433.925 1129.31C434.272 1128.48 434.631 1127.65 435.001 1126.83C438.33 1119.41 442.561 1112.4 447.564 1105.98C452.565 1099.57 458.338 1093.76 464.72 1088.72C465.429 1088.16 466.145 1087.61 466.869 1087.07Z" fill="#255791"/>
<path d="M968.789 -40.5532C951.795 -19.7168 933.171 -0.199066 913.142 17.7641C903.572 26.3466 893.681 34.5743 883.495 42.4211C839.702 76.1695 790.213 103.11 753.114 144.354C700.334 203.127 679.379 288.626 698.879 364.987C708.962 404.421 728.872 440.728 739.434 480.573C749.656 519.581 749.751 566.307 721.364 598.407C712.565 608.296 701.435 615.95 689.381 621.195C659.88 633.842 626.957 633.919 595.921 629.464C552.012 622.963 508.855 608.471 464.766 613.426C430.032 617.378 397.862 633.362 368.428 652.056C302.513 694.008 243.047 755.661 226.868 834.079C216.734 884.693 229.395 939.845 261.691 980.443C278.419 1001.37 301.158 1017.84 327.06 1025.38C301.094 1018.07 278.138 1001.75 261.174 980.861C228.422 940.336 215.231 884.953 225.152 833.733C240.994 754.507 300.693 692.049 366.866 649.606C396.408 630.704 428.911 614.36 464.398 610.224C509.444 605.091 552.912 619.691 596.425 626.049C627.061 630.431 659.455 630.241 687.978 617.988C699.64 612.912 710.316 605.561 718.76 596.08C745.976 565.452 746.217 519.856 736.185 481.43C725.857 442.091 706.02 405.706 695.907 365.742C676.386 288.267 698.013 202.002 751.602 142.988C789.266 101.616 838.964 75.0303 882.913 41.66C893.138 33.9032 903.076 25.7639 912.7 17.2673C932.843 -0.516106 951.615 -19.8651 968.789 -40.5532Z" fill="#255791"/>
<path d="M265.558 686.297C262.697 689.365 259.894 692.484 257.152 695.652C237.916 717.879 221.64 742.524 208.824 768.828C205.196 776.27 201.844 783.844 198.723 791.517C184.563 826.345 175.235 862.983 166.005 899.563C164.98 903.629 163.955 907.698 162.925 911.764C163.727 907.647 164.536 903.53 165.356 899.417C172.741 862.437 181.183 825.376 195.481 790.198C198.631 782.454 202.061 774.819 205.809 767.338C219.054 740.892 236.29 716.484 256.66 695.204C259.564 692.171 262.53 689.201 265.558 686.297Z" fill="#255791"/>
<path d="M200.998 889.512C201.114 891.606 201.225 893.7 201.33 895.794C201.572 900.61 201.782 905.426 201.962 910.242L200.039 910.345C198.019 896.411 197.241 882.217 198.298 868.09C199.682 849.139 204.582 830.289 213.414 813.54C214.39 811.68 215.41 809.848 216.478 808.037C215.618 809.955 214.799 811.88 214.017 813.819C206.954 831.286 203.162 849.742 201.788 868.352C200.752 882.215 200.988 896.181 201.957 910.139L200.033 910.242C200.213 905.426 200.424 900.61 200.665 895.794C200.77 893.7 200.881 891.606 200.998 889.512Z" fill="#255791"/>
<path d="M916.556 812.383C902.514 809.668 888.788 805.489 875.313 800.702C849.577 791.561 824.659 780.221 798.646 772.141C709.894 744.717 598.313 762.799 543.408 842.113C539.715 847.499 536.33 853.1 533.172 858.836C518.989 884.613 509.49 912.853 495.422 939.135C467.514 991.247 421.746 1033.46 367.681 1057.04C331.018 1072.72 286.283 1079.83 250.231 1059.42C245.105 1056.43 240.317 1052.86 235.999 1048.8C232.82 1045.73 229.052 1040.61 232.135 1036.3C232.693 1035.52 233.735 1035.13 234.654 1035.38C235.573 1035.6 236.355 1036.18 236.991 1036.84C237.616 1037.52 238.159 1038.33 238.31 1039.25C238.382 1039.7 238.282 1040.23 237.901 1040.52C237.53 1040.8 237.049 1040.86 236.585 1040.86C237.049 1040.86 237.527 1040.79 237.886 1040.5C238.255 1040.21 238.343 1039.7 238.266 1039.26C238.103 1038.35 237.554 1037.56 236.926 1036.91C235.77 1035.61 233.388 1034.72 232.277 1036.41C229.366 1040.58 233.088 1045.53 236.269 1048.51C240.628 1052.48 245.436 1055.95 250.562 1058.84C286.567 1078.53 330.691 1070.93 366.806 1055.06C420.173 1031.14 465.093 989.082 492.466 937.558C506.28 911.566 515.729 883.305 530.106 857.149C533.309 851.329 536.756 845.63 540.529 840.137C596.847 759.088 710.211 741.845 799.171 770.482C825.231 778.911 849.977 790.574 875.54 800.077C888.924 805.054 902.56 809.439 916.556 812.383Z" fill="#255791"/>
<path d="M790.323 511.109C790.323 511.109 790.323 511.109 790.323 511.109C792.687 519.927 794.151 528.994 794.733 538.125C796.777 570.214 787.952 603.124 769.381 629.691C745.52 663.813 706.161 686.63 664.536 690.352C655.601 691.149 646.629 691.103 637.722 690.514C595.924 687.727 555.607 673.38 514.21 677.365C473.895 681.252 437.366 702.948 407.137 729.537C400.286 735.555 393.687 741.871 387.321 748.408C387.321 748.408 387.321 748.408 387.321 748.408C393.518 741.71 399.967 735.229 406.692 729.043C436.353 701.726 472.815 679.073 513.924 674.606C556.145 670.094 596.827 684.332 637.953 687.022C646.72 687.602 655.509 687.654 664.232 686.899C704.804 683.371 743.485 661.444 767.386 628.275C785.984 602.446 795.365 570.138 794.069 538.16C793.699 529.061 792.461 519.985 790.323 511.109Z" fill="#255791"/>
<path d="M536.845 776.762C531.602 778.124 526.603 780.293 521.979 783.051C509.287 790.662 499.508 802.212 491.799 814.662C474.108 843.511 465.899 876.78 452.986 908.262C444.018 930.244 432.153 952.042 413.7 967.78C394.453 984.306 368.991 992.965 343.953 992.202C338.524 992.037 333.115 991.429 327.806 990.365C333.156 991.199 338.565 991.583 343.961 991.538C368.842 991.322 393.46 982.044 411.839 965.653C429.489 950.01 440.853 928.72 449.748 906.933C462.538 875.795 471.275 842.315 490.003 813.521C498.169 801.089 508.525 789.662 521.65 782.473C526.427 779.869 531.548 777.897 536.845 776.762Z" fill="#255791"/>
<path d="M263.462 905.336C263.216 900.36 263.023 895.38 262.884 890.397C262.332 870.758 262.601 851.082 263.684 831.445C264.194 805.234 280.952 783.007 297.495 764.618C305.082 755.771 312.373 746.74 318.157 736.734C334.804 708.186 363.621 683.385 397.658 682.335C402.663 682.199 407.671 682.608 412.567 683.534C407.633 682.838 402.637 682.656 397.69 682.999C364.16 685.494 337.025 710.362 321.026 738.379C315.194 748.73 307.773 758.01 300.156 766.892C283.486 785.503 267.451 806.197 266.282 831.619C264.74 851.162 263.825 870.764 263.549 890.393C263.478 895.372 263.449 900.354 263.462 905.336Z" fill="#255791"/>
<path d="M324.608 907.386C324.019 904.893 323.437 902.394 322.867 899.894C317.761 877.437 313.511 854.476 314.159 831.145C314.499 819.128 316.22 807.078 319.796 795.563C323.183 784.925 328.953 773.882 339.302 768.721C341.647 767.598 344.174 766.895 346.734 766.671C344.205 767.127 341.794 768.035 339.612 769.309C330.065 775.1 325.283 785.924 322.433 796.319C319.419 807.716 317.993 819.462 317.657 831.246C317.016 854.09 320.266 876.956 323.521 899.773C323.884 902.31 324.248 904.849 324.608 907.386Z" fill="#255791"/>
<path d="M812.448 495.801C813.788 488.946 815.133 482.07 815.643 475.122C815.758 473.55 815.83 471.975 815.85 470.402C816.143 437.353 795.139 409.844 776.563 383.908C759.998 360.647 742.937 334.595 743.191 304.383C743.257 300.789 743.599 297.197 744.227 293.65C749.141 265.491 753.966 237.215 758.415 208.986C761.614 188.141 769.455 167.287 784.257 151.894C791.094 144.792 799.088 139.121 806.529 132.864C811.862 128.384 816.967 123.548 820.972 117.803C817.162 123.679 812.18 128.712 806.965 133.366C799.685 139.867 791.86 145.765 785.333 152.904C771.214 168.36 763.978 188.874 761.146 209.384C757.121 237.746 752.541 266.038 747.665 294.256C747.075 297.622 746.753 301.03 746.69 304.448C746.385 333.115 762.718 358.852 778.928 382.228C797.119 408.359 817.948 436.949 816.655 470.424C816.589 472.014 816.469 473.6 816.305 475.18C815.581 482.164 814.016 488.995 812.448 495.801Z" fill="#255791"/>
<path d="M340.445 916.362C340.445 916.362 340.445 916.362 340.445 916.362C347.804 911.231 352.823 903.463 356.083 895.255C361.76 880.973 363.439 865.529 368.139 850.762C378.117 819.74 401.906 796.171 424.482 774.049C439.396 759.484 454.683 744.575 473.48 734.503C484.25 728.747 496.122 724.827 508.408 723.833C517.456 723.105 526.747 724.08 535.357 727.232L537.215 727.905L536.301 729.662C525.833 749.262 504.751 757.734 487.19 767.866C443.545 792.738 409.379 833.747 392.093 881.196C389.05 889.556 386.534 898.115 384.589 906.812C384.589 906.812 384.589 906.812 384.589 906.812C386.306 898.067 388.611 889.432 391.466 880.976C407.668 832.973 441.521 790.808 485.638 765.167C503.391 754.81 523.719 746.196 533.229 728.06L534.173 730.489C526.08 727.551 517.313 726.628 508.685 727.322C496.976 728.266 485.521 732.009 475.097 737.535C456.833 747.227 441.633 761.793 426.584 776.22C403.794 798.12 380.085 820.988 369.704 851.278C364.786 865.739 362.757 881.242 356.697 895.51C353.217 903.713 347.937 911.43 340.445 916.362Z" fill="#255791"/>
<path d="M889.991 786.004C885.435 781.433 880.64 777.109 875.639 773.048C852.497 754.259 824.949 741.086 795.939 735.043C776.606 731.016 756.762 730.098 736.93 729.12C728.602 728.712 720.285 728.302 711.977 728.09C691.63 727.568 671.138 728.245 651.468 733.165C615.077 742.239 583.924 765.104 554.957 788.756C549.961 792.837 545.001 796.966 540.044 801.097C540.044 801.097 540.044 801.097 540.044 801.097C544.848 796.79 549.664 792.492 554.529 788.248C582.713 763.678 613.571 739.852 650.687 730.116C670.741 724.855 691.583 724.066 712.066 724.591C720.433 724.804 728.779 725.236 737.107 725.683C756.93 726.755 776.968 727.877 796.538 732.276C825.913 738.877 853.469 752.932 876.067 772.539C880.951 776.776 885.603 781.271 889.991 786.004Z" fill="#255791"/>
<path d="M813.458 642.912C812.805 644.325 812.106 645.704 811.35 647.068C804.561 659.392 793.597 669.186 781.603 676.45C769.552 683.77 756.441 688.881 743.2 693.195C741.729 693.673 740.248 694.145 738.773 694.605C740.162 693.928 741.56 693.251 742.952 692.578C755.494 686.51 768.04 680.596 779.784 673.46C791.496 666.335 802.475 657.855 810.791 646.707C811.716 645.47 812.601 644.212 813.458 642.912Z" fill="#255791"/>
<path d="M686.898 637.431C686.898 637.431 686.898 637.431 686.898 637.431C686.7 637.4 686.499 637.341 686.358 637.188C686.214 637.034 686.207 636.795 686.269 636.604C686.398 636.212 686.686 635.902 687.002 635.651C687.323 635.405 687.701 635.207 688.127 635.173C688.555 635.124 689.014 635.383 689.213 635.773C690.295 637.882 688.39 639.894 686.894 641.116C686.309 641.587 685.715 642.047 685.115 642.496C663.501 658.53 634.579 659.12 608.871 655.247C595.907 653.272 583.188 650.289 570.454 647.776C556.84 645.086 543.113 642.921 529.338 643.148C504.385 643.551 479.562 652.064 459.289 667.075C455.795 669.663 452.438 672.445 449.242 675.413C449.242 675.413 449.242 675.413 449.242 675.413C452.274 672.279 455.496 669.319 458.88 666.55C478.513 650.478 503.612 640.851 529.26 640.006C543.403 639.533 557.426 641.635 571.132 644.342C583.958 646.875 596.605 649.946 609.375 652.1C634.679 656.283 662.66 656.696 684.73 641.954C685.344 641.539 685.954 641.112 686.558 640.673C688.058 639.574 689.869 637.776 688.992 635.891C688.686 635.15 687.676 635.3 687.077 635.753C686.763 635.975 686.469 636.262 686.329 636.624C686.262 636.801 686.256 637.016 686.383 637.167C686.506 637.318 686.702 637.39 686.898 637.431Z" fill="#255791"/>
<path d="M603.642 702.617C602.437 703.176 601.242 703.749 600.056 704.335C589.38 709.617 579.43 715.964 570.207 723.229C560.99 730.499 552.494 738.69 544.866 747.838C544.018 748.855 543.182 749.884 542.357 750.924C542.987 749.755 543.643 748.598 544.323 747.454C550.44 737.156 558.559 727.949 568.041 720.48C577.518 713.005 588.367 707.262 599.809 703.718C601.08 703.324 602.358 702.957 603.642 702.617Z" fill="#255791"/>
<path d="M1145.8 811.08C1141.14 818.338 1135.3 824.807 1128.79 830.493C1114.11 843.298 1096.58 852.22 1079.23 860.728C1040.17 879.712 997.333 899.096 952.334 892.218C938.062 889.981 924.495 885.113 911.17 880.231C910.753 880.078 910.337 879.925 909.921 879.773C875.986 867.335 842.089 854.795 808.22 842.179C785.023 833.533 761.736 824.803 737.316 820.892C721.443 818.361 705.106 817.962 689.238 820.943C680.797 822.534 672.517 825.11 664.732 828.813C672.414 824.9 680.657 822.097 689.107 820.291C704.993 816.903 721.495 816.939 737.572 819.187C762.299 822.659 785.915 831.108 809.206 839.484C843.219 851.711 877.189 864.053 911.125 876.487C911.542 876.639 911.958 876.792 912.374 876.945C925.686 881.825 939.029 886.626 952.868 888.855C996.439 895.778 1039.03 877.304 1078.41 859.01C1095.89 850.83 1113.46 842.354 1128.36 829.988C1134.96 824.494 1140.95 818.209 1145.8 811.08Z" fill="#255791"/>
<path d="M717.811 799.575C717.811 799.575 717.811 799.575 717.811 799.575C714.424 798.075 710.95 796.792 707.419 795.722C677.151 786.606 642.928 792.935 618.647 812.443C617.412 813.438 616.202 814.463 615.013 815.517C601.943 827.102 591.819 841.736 580.404 855.349C570.354 867.306 558.909 878.758 544.684 885.607C541.328 887.215 537.842 888.538 534.267 889.513C534.267 889.513 534.267 889.513 534.267 889.513C537.774 888.315 541.152 886.794 544.38 885.016C558.04 877.447 568.711 865.779 578.31 853.646C589.213 839.836 599.179 824.896 612.692 812.897C613.921 811.808 615.176 810.748 616.46 809.719C641.808 789.417 677.702 784.128 707.63 795.092C711.12 796.369 714.525 797.865 717.811 799.575Z" fill="#255791"/>
<path d="M831.349 834.667C829.666 834.061 827.972 833.494 826.273 832.946C819.442 830.738 812.485 828.819 805.814 825.786C797.569 822.009 790.215 816.707 783.113 811.396C783.077 811.37 783.041 811.343 783.006 811.317C770.174 801.72 757.628 791.742 745.354 781.399C743.987 780.246 742.623 779.089 741.262 777.928C742.762 778.902 744.259 779.882 745.752 780.866C759.155 789.699 772.267 798.922 785.102 808.514C785.138 808.54 785.173 808.567 785.209 808.593C792.315 813.908 799.29 819.278 806.983 823.426C813.21 826.767 819.959 829.322 826.514 832.326C828.143 833.072 829.759 833.847 831.349 834.667Z" fill="#255791"/>
<path d="M755.792 853.799C753.103 853.506 750.432 853.009 747.787 852.42C744.291 851.64 740.837 850.701 737.383 849.847C724.263 846.607 710.738 844.528 697.5 846.055C690.571 846.864 683.758 848.721 677.514 851.731C671.909 854.433 666.772 858.101 662.645 862.714C658.504 867.308 655.22 873.076 650.123 877.535C640.85 885.562 628.354 886.76 617.051 886.67C614.341 886.645 611.637 886.539 608.938 886.408C611.638 886.306 614.34 886.19 617.031 886.005C628.302 885.243 640.242 883.188 648.308 875.527C652.788 871.303 655.823 865.602 660.163 860.536C664.517 855.462 670.022 851.455 675.993 848.579C682.647 845.372 689.872 843.501 697.164 842.818C711.06 841.544 724.815 844.339 737.774 848.465C741.188 849.554 744.551 850.734 747.957 851.777C750.534 852.565 753.138 853.275 755.792 853.799Z" fill="#255791"/>
<path d="M477.561 1841.92C479.311 1858.36 479.852 1875.01 477.168 1891.36C474.252 1911.65 463.749 1929.83 452.133 1946.28C420.425 1986.22 375.323 2011.46 333.795 2039.51C268.562 2079.75 236.602 2154.61 220.266 2227.2C219.687 2229.71 219.101 2232.16 218.508 2234.56C212.152 2260.63 203.241 2286.22 192.58 2310.79C182.156 2334.85 169.274 2361.56 182.493 2386.12C202.694 2431.57 270.985 2465.14 246.996 2523.15C227.384 2565.04 174.686 2566.77 134.825 2563.16C118.374 2561.59 102.018 2558.75 85.925 2555.28C102.065 2558.52 118.449 2561.14 134.884 2562.5C174.802 2565.67 226.789 2562.92 245.134 2522.31C268.011 2466.68 201.307 2434.28 179.637 2387.41C165.647 2361.82 179.232 2333.07 189.444 2309.45C200.009 2284.95 208.792 2259.62 215.11 2233.73C215.698 2231.34 216.281 2228.9 216.857 2226.42C233.234 2153.53 265.958 2077.53 332.327 2037.22C373.975 2009.52 419.335 1984.52 450.989 1945.5C462.797 1929.14 473.338 1911.4 476.512 1891.25C479.39 1875.02 479.08 1858.39 477.561 1841.92Z" fill="#255791"/>
<path d="M591.211 2060.03C593.709 2050.85 590.367 2041.05 584.594 2033.85C582.387 2031.09 579.804 2028.62 576.939 2026.56C566.224 2018.88 552.897 2016.19 539.916 2014.94C472.039 2008.42 406.212 2038.47 353.772 2079.82C347.715 2084.59 341.799 2089.55 336.032 2094.66C279.202 2145.21 233.762 2211.57 218.722 2287.1C216.909 2296.3 215.567 2305.59 214.729 2314.94C215.334 2305.57 216.457 2296.24 218.069 2286.98C231.422 2210.89 276.524 2143.1 333.722 2092.07C339.529 2086.89 345.493 2081.89 351.605 2077.07C404.463 2035.34 471.673 2005.43 540.091 2013.27C553.169 2014.77 566.708 2017.77 577.473 2025.83C580.36 2028.01 582.937 2030.58 585.119 2033.45C590.83 2040.89 593.945 2050.91 591.211 2060.03Z" fill="#255791"/>
<path d="M489.819 1950.31C489.819 1950.31 489.819 1950.31 489.819 1950.31C489.379 1964.86 496.816 1978.82 507.74 1988.04C515.254 1994.4 524.592 1998.69 534.363 1999.69C556.746 2002.12 579.425 1989.68 601.999 1998.53C612.963 2003.57 613.23 2018.04 623.91 2020.3C628.344 2021.62 633.274 2022.13 637.02 2019.91C643.35 2016.04 642.278 2006.66 642.4 1999.07C642.32 1991.15 642.389 1982.94 644.873 1975.09C657.235 1950.67 686.293 1937.37 712.75 1942.81C731.884 1946.73 751.199 1932.65 757.899 1914.78C765.334 1896.57 758.219 1875.39 744.35 1861.82C744.292 1861.76 744.234 1861.7 744.175 1861.64C714.974 1834.19 719.906 1789.1 733.959 1755.77C747.577 1720.94 768.142 1689.63 783.244 1655.96C794.285 1632.27 802.307 1596.39 774.049 1583.29C749.343 1570.72 720.759 1568.63 693.478 1563.62C679.271 1561.24 665.028 1558.68 650.925 1555.5C665.077 1558.45 679.347 1560.79 693.583 1562.96C720.961 1567.61 749.414 1569.2 774.893 1581.76C787.634 1587.92 796.686 1601.89 795.978 1616.27C795.781 1630.69 791.054 1643.96 785.607 1656.98C770.629 1691.1 750.31 1722.46 737.005 1756.95C723.264 1790.17 718.842 1833 746.675 1859.19C746.736 1859.25 746.797 1859.31 746.858 1859.38C761.362 1873.48 769.19 1896.45 761.1 1916.02C753.842 1935.15 733.232 1950.31 712.101 1945.97C687.266 1940.5 658.875 1953.81 647.509 1975.93C645.126 1983.26 644.96 1991.15 644.981 1999.06C644.628 2006.55 646.414 2016.61 638.22 2021.96C633.453 2024.68 627.91 2023.85 623.288 2022.45C611.08 2019.3 610.706 2004.21 601.258 2000.29C579.998 1991.51 557.044 2003.44 534.244 2000.77C524.249 1999.6 514.819 1995.1 507.306 1988.54C496.382 1979.06 489.14 1964.85 489.819 1950.31Z" fill="#255791"/>
<path d="M220.425 2362.77C220.846 2356.85 221.437 2351.02 222.209 2345.24C228.451 2292.35 254.695 2243.54 288.358 2202.92C300.082 2188.28 312.335 2174.14 323.984 2159.55C345.659 2132.42 376.026 2114.47 406.762 2100.03C412.08 2097.53 417.439 2095.13 422.822 2092.79C417.536 2095.34 412.274 2097.94 407.055 2100.62C376.869 2116.14 347.288 2134.7 326.454 2161.49C314.933 2176.3 302.762 2190.53 291.09 2205.11C257.606 2245.6 231.035 2292.83 222.866 2345.34C221.889 2351.08 221.079 2356.88 220.425 2362.77Z" fill="#255791"/>
<path d="M555.257 2066.08C553.412 2065.87 551.567 2065.7 549.721 2065.57C533.102 2064.41 516.524 2066.57 500.854 2071.51C485.191 2076.46 470.369 2084.2 457.5 2094.78C456.072 2095.96 454.668 2097.17 453.292 2098.41C454.501 2097 455.755 2095.63 457.049 2094.29C468.707 2082.23 483.668 2073.25 499.801 2068.17C515.933 2063.07 533.318 2061.85 549.805 2064.91C551.636 2065.25 553.454 2065.64 555.257 2066.08Z" fill="#255791"/>
<path d="M478.89 2037.42C477.014 2037.96 475.145 2038.53 473.284 2039.11C456.537 2044.37 440.419 2051.17 425.052 2059.36C409.687 2067.57 395.068 2077.17 381.409 2088.2C379.892 2089.42 378.386 2090.67 376.894 2091.93C378.225 2090.5 379.583 2089.09 380.964 2087.7C393.397 2075.23 407.792 2064.6 423.404 2056.28C439.015 2047.95 455.85 2041.91 473.119 2038.47C475.038 2038.08 476.962 2037.73 478.89 2037.42Z" fill="#255791"/>
<path d="M1227.38 2680.65C1193.55 2672.33 948.137 2645.95 913.885 2639.47C871.589 2631.47 826.841 2625.04 786.253 2639.28C752.047 2651.29 722.577 2677.47 686.415 2680.65C636.527 2685.04 592.042 2640.56 583.238 2591.79C574.45 2543.02 593.75 2493.2 620.783 2451.51C670.091 2388.78 820.553 2354.94 950.591 2376.78C997.824 2384.72 1051.39 2320.54 1083.07 2356.07C1114.74 2391.62 1184.08 2369.03 1167.95 2413.64C1183.44 2436.96 1261.59 2435.44 1246.24 2451.51C1236.75 2461.43 1312.7 2511.12 1299.54 2515.24C1286.37 2519.35 1324.61 2577.66 1316.19 2566.84" fill="#FF9C56"/>
<path d="M1227.38 2680.65C1199.69 2674.97 1171.48 2671.81 1143.35 2667.97C1066.93 2657.83 990.077 2649.74 914.082 2638.43C872.151 2630.45 827.46 2623.57 785.805 2638.01C751.308 2650.05 722.497 2675.86 686.28 2679.12C636.33 2683.22 593.446 2638.8 584.909 2591.49C576.251 2542.93 595.521 2493.99 621.75 2453.23C621.917 2452.98 622.084 2452.72 622.251 2452.46L622.159 2452.59C705.647 2369.81 837.897 2362.93 950.35 2378.21C975.039 2381.81 997.258 2369.16 1018.36 2359.52C1038.41 2350.16 1065.76 2337.21 1082.2 2356.85C1095.63 2371.9 1115.93 2376.76 1134.56 2380.58C1143.93 2382.65 1153.7 2384.08 1161.81 2388.78C1170.69 2393.35 1170.65 2404.68 1167.15 2413.35L1167 2413.75L1167.24 2414.11C1177.72 2427.15 1194.64 2429.81 1209.49 2433.86C1217.09 2435.69 1224.8 2437.29 1232.3 2439.27C1236.04 2440.29 1239.84 2441.36 1243.29 2443.06C1244.94 2443.9 1246.68 2444.95 1247.4 2446.48C1248.14 2448.02 1247.16 2449.74 1245.83 2451.12C1244.67 2452.32 1244.72 2454.01 1245.14 2455.37C1245.32 2456 1245.6 2456.65 1245.92 2457.28C1246.21 2457.85 1246.55 2458.43 1246.94 2459.04C1248.38 2461.25 1250.1 2463.27 1251.89 2465.25C1255.46 2469.13 1259.29 2472.72 1263.18 2476.27C1270.97 2483.34 1279.02 2490.08 1286.82 2497.11C1289.85 2499.86 1292.84 2502.63 1295.66 2505.6C1297.05 2507.08 1298.41 2508.62 1299.53 2510.29C1300.1 2511.16 1300.6 2512.07 1300.78 2512.95C1300.99 2513.97 1300.5 2514.71 1299.46 2515.01C1296.6 2515.88 1296.36 2519.26 1296.6 2521.64C1296.85 2524.18 1297.54 2526.63 1298.32 2529.05C1299.91 2533.83 1301.99 2538.47 1304.17 2543.01C1306.36 2547.55 1308.73 2552.05 1311.13 2556.45C1312.34 2558.68 1313.57 2560.89 1314.8 2563.09C1315.37 2564.13 1316.04 2565.32 1316.6 2566.39C1316.75 2566.68 1316.92 2567 1317.04 2567.24C1317.08 2567.32 1317.2 2567.56 1317.25 2567.69C1317.28 2567.76 1317.31 2567.82 1317.33 2567.87C1317.35 2567.92 1317.41 2568.08 1317.41 2568.12C1317.25 2568.2 1317.02 2567.83 1316.8 2567.59C1316.63 2567.39 1316.43 2567.14 1316.19 2566.84C1313.03 2555.54 1292.3 2532.15 1299.61 2515.47C1300.77 2515.2 1301.57 2514.03 1301.27 2512.86C1301.08 2511.84 1300.55 2510.91 1299.97 2510C1298.83 2508.27 1297.47 2506.72 1296.08 2505.21C1293.27 2502.19 1290.29 2499.4 1287.27 2496.62C1279.51 2489.52 1271.5 2482.72 1263.78 2475.61C1259.93 2472.05 1256.14 2468.44 1252.64 2464.57C1250.88 2462.61 1249.2 2460.6 1247.83 2458.47C1246.54 2456.4 1245.07 2453.53 1246.64 2451.89C1248.04 2450.45 1249.47 2448.26 1248.45 2446.01C1247.45 2443.95 1245.55 2442.92 1243.83 2441.99C1240.22 2440.2 1236.4 2439.1 1232.64 2438.05C1225.09 2436 1217.4 2434.36 1209.82 2432.48C1195.08 2428.44 1178.16 2425.29 1168.66 2413.16L1168.76 2413.93C1170.42 2409.28 1171.69 2404.43 1171.08 2399.35C1170.56 2394.22 1167.08 2389.72 1162.8 2387.19C1154.13 2382.12 1144.35 2380.73 1134.98 2378.6C1116.37 2374.69 1096.65 2369.73 1083.93 2355.3C1066.09 2334.09 1037.12 2348 1017.24 2357.13C996.079 2366.77 974.004 2378.9 950.831 2375.35C837.557 2359.79 705.31 2365.56 619.407 2450.42L619.315 2450.55C619.145 2450.82 618.977 2451.08 618.808 2451.34C592.335 2492.5 572.635 2542.22 581.568 2592.09C590.511 2640.87 634.441 2686.46 686.55 2682.18C724.133 2678.57 752.904 2652.4 786.702 2640.56C827.425 2626.24 871.773 2632.74 913.688 2640.51C990.009 2651.47 1066.75 2659.05 1143.26 2668.63C1171.42 2672.26 1199.65 2675.2 1227.38 2680.65Z" fill="#255791"/>
<path d="M981.091 2551.44C973.532 2547.78 965.179 2545.91 956.796 2545.34C939.15 2544.19 921.72 2548.02 904.543 2551.18C868.133 2557.92 831.097 2561.09 794.122 2560.61C783.133 2560.47 772.035 2559.97 762.03 2556.04C753.245 2552.64 745.647 2546.59 739.682 2539.23C729.211 2526.27 723.183 2510.14 718.782 2493.92C715.366 2481.18 712.651 2467.66 716.71 2455.26C719.744 2446.02 726.296 2438.26 733.029 2430.93C747.546 2415.12 763.617 2400.35 782.797 2390.58C794.621 2384.57 807.606 2380.62 820.913 2379.73C829.238 2379.18 837.684 2379.87 845.776 2382.07C837.749 2379.64 829.28 2378.72 820.878 2379.07C807.446 2379.63 794.213 2383.31 782.093 2389.17C762.449 2398.67 745.896 2413.38 731.065 2429.1C724.194 2436.4 717.234 2444.32 713.827 2454.3C709.313 2467.72 712.177 2481.89 715.538 2494.78C719.923 2511.26 725.983 2527.82 736.97 2541.44C743.226 2549.17 751.359 2555.65 760.775 2559.26C771.528 2563.42 783.032 2563.82 794.091 2563.9C831.291 2564.12 868.499 2560.44 904.894 2552.98C922.043 2549.48 939.229 2545.3 956.759 2546.01C965.088 2546.36 973.432 2548 981.091 2551.44Z" fill="#255791"/>
<path d="M802.6 2544.64C809.642 2544.76 816.673 2544.6 823.688 2544.16C861.613 2543.82 898.469 2524.44 934.598 2527.01C955.693 2533.68 979.955 2542.74 1002.1 2531.72C1004.53 2530.47 1006.83 2528.96 1008.94 2527.24C1026.48 2512.6 1030 2486.35 1021.1 2466.28C1010.63 2443.15 987.749 2428.78 964.556 2421.65C947.759 2416.51 930.3 2414.6 912.976 2413.1C905.978 2412.5 898.977 2411.96 891.985 2411.31C898.951 2412.19 905.936 2412.95 912.909 2413.76C930.174 2415.77 947.504 2418.14 963.947 2423.57C986.641 2431.07 1008.54 2445.53 1018.2 2467.57C1026.42 2486.47 1022.76 2511.28 1006.73 2524.53C1004.8 2526.1 1002.71 2527.47 1000.5 2528.62C980.36 2538.83 956.749 2530.64 935.523 2524.11C896.045 2521.86 861.845 2542.07 823.637 2543.5C816.655 2544.14 809.642 2544.52 802.6 2544.64Z" fill="#255791"/>
<path d="M682.859 2443.73C679.373 2447.92 676.071 2452.26 672.963 2456.74C649.293 2490.83 636.962 2533.02 639.114 2574.81C639.515 2582.46 640.575 2590.14 642.884 2597.56C645.918 2607.45 651.772 2617.26 661.18 2622.66C678.841 2632.65 699.043 2625.89 716.03 2620.03C735.205 2613.22 754.352 2606.33 773.474 2599.37C778.59 2597.51 783.703 2595.64 788.815 2593.77C783.628 2595.42 778.442 2597.08 773.259 2598.74C753.883 2604.96 734.533 2611.26 715.21 2617.63C698.147 2623.18 678.558 2628.95 662.895 2619.76C654.482 2614.83 649.121 2605.93 646.225 2596.52C644.032 2589.48 642.974 2582.06 642.541 2574.62C640.204 2533.63 651.279 2491.97 673.516 2457.11C676.439 2452.53 679.555 2448.06 682.859 2443.73Z" fill="#255791"/>
<path d="M702.935 2416.99C702.935 2416.99 702.935 2416.99 702.935 2416.99C702.653 2420.47 702.325 2423.94 701.951 2427.4C699.238 2452.58 694.13 2477.41 686.729 2501.52C684.956 2507.3 683.166 2513.13 681.763 2519.1C678.571 2532.51 677.103 2548.58 686.151 2560.68C697.615 2576.04 718.121 2577.16 735.005 2575.85C738.49 2575.57 741.966 2575.16 745.416 2574.67C745.416 2574.67 745.416 2574.67 745.416 2574.67C741.941 2574.93 738.452 2575.12 734.972 2575.19C718.017 2575.53 698.395 2573.19 688.54 2558.96C680.643 2547.84 682.041 2533.07 685.17 2519.9C686.538 2514.08 688.271 2508.3 689.98 2502.5C697.172 2478.07 701.421 2452.8 702.614 2427.46C702.779 2423.97 702.886 2420.48 702.935 2416.99Z" fill="#255791"/>
<path d="M622.505 2501.33C621.686 2502.77 620.907 2504.24 620.171 2505.73C613.529 2519.15 610.384 2534.42 610.93 2549.54C611.457 2564.65 615.675 2579.66 623.239 2592.58C624.078 2594.02 624.956 2595.43 625.875 2596.81C625.159 2595.31 624.479 2593.81 623.833 2592.29C618.022 2578.6 614.954 2564.04 614.428 2549.41C613.916 2534.79 615.944 2520.04 620.784 2505.99C621.323 2504.43 621.896 2502.87 622.505 2501.33Z" fill="#255791"/>
<path d="M664.118 2652.1C666.752 2652.12 669.387 2652.14 672.023 2652.13C687.446 2652.07 703.157 2651.3 718.205 2646.64C726.216 2644.16 733.802 2640.64 741.212 2637C751.233 2632.07 761.039 2626.88 771.488 2623.46C783.246 2619.61 795.733 2618.05 808.199 2616.81C810.819 2616.55 813.442 2616.3 816.064 2616.05C813.43 2616.07 810.795 2616.1 808.16 2616.15C795.628 2616.39 782.926 2617.2 770.647 2620.71C759.735 2623.84 749.638 2628.96 739.669 2633.86C732.29 2637.48 724.915 2641.02 717.23 2643.63C702.81 2648.55 687.366 2650.18 671.994 2651.46C669.37 2651.68 666.744 2651.89 664.118 2652.1Z" fill="#255791"/>
<path d="M788.83 2417.52C788.83 2417.52 788.83 2417.52 788.83 2417.52C787.521 2417.17 786.173 2416.93 784.808 2416.81C772.218 2415.78 760.208 2424.25 754.023 2435.14C754.011 2435.16 753.998 2435.19 753.985 2435.21C747.765 2446.26 746.488 2458.92 746.174 2470.98C746.139 2472.33 746.116 2473.69 746.1 2475.04C746.1 2475.04 746.1 2475.04 746.1 2475.04C746.349 2473.71 746.592 2472.38 746.836 2471.05C749.017 2459.13 751.25 2447.14 757.033 2436.93C757.045 2436.91 757.056 2436.89 757.068 2436.87C762.815 2426.93 772.689 2418.43 784.801 2417.48C786.132 2417.38 787.48 2417.4 788.83 2417.52Z" fill="#255791"/>
<path d="M43.4479 3402.52C11.9462 3339.52 137.348 3226.84 203.986 3178.37L665.844 3317.74L612.904 3563.06C466.501 3558.01 74.9496 3465.52 43.4479 3402.52Z" fill="#FF9C56"/>
<path d="M199.2 3177.9C277.841 3191.83 350.199 3240.5 427.446 3214.43C504.692 3188.35 571.614 3139.08 645.879 3105.59C680.163 3090.13 715.89 3078.09 751.54 3066.08C779.085 3056.81 806.754 3047.5 835.401 3042.48C915.598 3028.45 999.319 3049.38 1070.23 3089.01C1153.3 3135.43 1224.88 3215.64 1228.93 3309.92C1232.94 3403.02 1167.32 3490.61 1081.74 3529.58C1058.12 3540.33 1032.53 3548.03 1006.55 3547.28C988.403 3546.76 970.656 3542.15 953.033 3537.82C919.2 3529.5 885.149 3522.1 850.897 3515.62C808.601 3507.62 763.853 3501.19 723.265 3515.44C689.06 3527.44 659.589 3553.62 623.427 3556.8C573.539 3561.19 529.054 3516.71 520.251 3467.94C511.462 3419.17 530.763 3369.35 557.795 3327.66C628.97 3217.84 764.753 3146.53 894.792 3168.36C942.025 3176.3 988.404 3196.69 1020.08 3232.22C1051.75 3267.77 1066.41 3319.76 1050.28 3364.37C1042.76 3385.18 1029.21 3403.39 1013.85 3419.45C1004.37 3429.37 993.652 3438.87 980.485 3442.99C967.318 3447.11 951.139 3444.54 942.723 3433.72" fill="#FF9C56"/>
<path d="M199.2 3177.9C250.005 3186.98 296.875 3210.4 347.763 3219.39C374.198 3224.07 401.968 3223.66 427.603 3214.89C505.291 3188.79 572.061 3139.73 646.257 3106.43C680.536 3091.03 716.232 3079.06 751.886 3067.11C779.425 3057.88 807.052 3048.63 835.608 3043.66C915.895 3029.76 999.083 3050.87 1069.51 3090.29C1150.36 3135.7 1222.87 3214.12 1227.27 3309.99C1231.06 3403.99 1164.63 3489.92 1081.01 3527.99C1064 3535.72 1046.15 3541.82 1027.7 3544.35C1020.71 3545.31 1013.65 3545.74 1006.61 3545.53C988.671 3545.02 971.062 3540.45 953.45 3536.13C919.582 3527.8 885.488 3520.4 851.218 3513.92C809.246 3506.06 764.435 3499.28 722.709 3513.85C688.161 3526.01 659.457 3551.86 623.285 3555.19C573.396 3559.39 530.366 3515.06 521.74 3467.67C512.943 3418.73 532.463 3369.41 558.948 3328.4C629.677 3219.26 763.951 3147.7 894.651 3169.2C941.369 3176.99 987.646 3196.93 1019.63 3232.62C1049.7 3266.27 1064.96 3315.25 1051.64 3359.24C1051.13 3360.93 1050.57 3362.6 1049.98 3364.26C1042.48 3385.15 1028.95 3403.32 1013.72 3419.32C1004.3 3429.21 993.68 3438.73 980.458 3442.9C967.568 3446.93 951.475 3444.78 942.723 3433.72C951.425 3444.82 967.546 3447.07 980.513 3443.08C993.806 3438.94 1004.51 3429.43 1013.98 3419.58C1029.3 3403.62 1042.95 3385.46 1050.58 3364.48C1051.19 3362.81 1051.75 3361.13 1052.28 3359.43C1065.86 3315.22 1050.71 3265.86 1020.53 3231.83C988.426 3195.75 941.904 3175.52 894.932 3167.53C763.475 3145.49 628.173 3217.06 556.642 3326.91C529.884 3368.18 509.866 3418.07 518.76 3468.21C527.615 3516.92 571.4 3562.58 623.569 3558.42C661.197 3554.88 690.074 3528.74 723.822 3517.02C764.475 3502.84 808.702 3509.43 850.576 3517.32C884.781 3523.8 918.812 3531.2 952.616 3539.52C970.199 3543.84 988.039 3548.49 1006.5 3549.03C1013.75 3549.24 1021.01 3548.8 1028.17 3547.82C1047.08 3545.23 1065.24 3539 1082.46 3531.17C1167.18 3492.55 1234.49 3405.59 1230.6 3309.85C1225.95 3212.25 1152.42 3133.33 1070.95 3087.73C999.978 3048.18 916.144 3027.07 835.194 3041.3C806.411 3046.38 778.707 3055.75 751.194 3065.05C715.573 3077.11 679.844 3089.2 645.502 3104.75C571.176 3138.41 504.68 3187.64 427.288 3213.96C401.866 3222.76 374.26 3223.29 347.874 3218.73C297.085 3209.98 250.045 3186.75 199.2 3177.9Z" fill="#255791"/>
<path d="M1107.43 3545.84C1109.25 3545.64 1111.07 3545.39 1112.89 3545.1C1129.22 3542.48 1145.07 3536.2 1158.96 3526.99C1172.86 3517.79 1184.83 3505.63 1193.55 3491.58C1194.52 3490.01 1195.45 3488.43 1196.34 3486.83C1195.26 3488.31 1194.15 3489.76 1193.01 3491.19C1182.79 3504.08 1170.57 3515.09 1157.03 3524.07C1143.48 3533.04 1128.58 3539.99 1112.74 3544.45C1110.98 3544.94 1109.21 3545.41 1107.43 3545.84Z" fill="#255791"/>
<path d="M155.817 3226.73C155.817 3226.73 155.817 3226.73 155.817 3226.73C150.557 3225 145.399 3222.97 140.42 3220.58C125.31 3213.36 111.11 3202.22 105.054 3186.58C94.7251 3159.53 110.549 3130.39 130.109 3111.21C133.161 3108.23 136.341 3105.38 139.602 3102.62C158.091 3086.91 179.321 3073.94 196.085 3055.6C213.373 3036.64 224.695 3012.49 228.382 2987.33C229.188 2981.83 229.63 2976.29 229.695 2970.76C229.695 2970.76 229.695 2970.76 229.695 2970.76C229.397 2976.29 228.734 2981.79 227.726 2987.22C223.106 3012.09 211.264 3035.46 194.022 3053.68C177.308 3071.32 156.138 3084 137.337 3099.95C134.026 3102.76 130.789 3105.67 127.677 3108.72C107.622 3128.49 91.3934 3159.13 102.954 3187.43C109.75 3203.68 124.706 3214.51 140.144 3221.18C145.24 3223.4 150.488 3225.22 155.817 3226.73Z" fill="#255791"/>
<path d="M140.321 3177.31C141.092 3178.44 141.888 3179.55 142.706 3180.64C150.073 3190.5 159.339 3199.03 169.794 3205.69C180.246 3212.35 191.896 3217.13 203.933 3219.67C205.27 3219.95 206.612 3220.2 207.957 3220.43C206.67 3219.98 205.391 3219.51 204.12 3219.03C192.679 3214.69 181.855 3209.21 171.674 3202.73C161.497 3196.25 151.957 3188.76 143.207 3180.2C142.235 3179.25 141.273 3178.29 140.321 3177.31Z" fill="#255791"/>
<path d="M78.1677 3176.99C75.7755 3180.2 73.7975 3183.73 72.2651 3187.45C64.8724 3205.41 67.836 3227.74 81.0211 3242.8C92.5039 3255.87 109.113 3262.39 125.046 3267.25C125.614 3267.42 126.183 3267.59 126.75 3267.76C160.877 3277.89 196.106 3283.1 231.237 3287.36C235.21 3287.84 239.183 3288.31 243.157 3288.78C239.217 3288.08 235.276 3287.39 231.335 3286.7C196.462 3280.6 161.557 3274.47 127.747 3264.4C127.186 3264.24 126.624 3264.07 126.063 3263.9C110.291 3259.09 94.3064 3252.96 83.1716 3240.87C70.4423 3227.05 66.5444 3205.77 72.8864 3187.69C74.204 3183.94 75.9667 3180.33 78.1677 3176.99Z" fill="#255791"/>
<path d="M918.284 3427.07C918.284 3427.07 918.284 3427.07 918.284 3427.07C910.705 3423.35 902.311 3421.45 893.887 3420.89C876.235 3419.73 858.808 3423.62 841.637 3426.82C805.191 3433.66 768.103 3436.87 731.075 3436.39C720.069 3436.25 708.951 3435.73 698.948 3431.76C689.911 3428.21 682.162 3421.85 676.136 3414.17C665.895 3401.07 659.981 3384.96 655.639 3368.77C652.217 3355.84 649.497 3342.14 653.564 3329.55C656.593 3320.2 663.153 3312.32 669.908 3304.87C684.418 3288.89 700.489 3273.91 719.738 3263.98C731.534 3257.91 744.509 3253.91 757.817 3252.99C766.181 3252.42 774.672 3253.12 782.796 3255.37C782.796 3255.37 782.796 3255.37 782.796 3255.37C774.737 3252.9 766.223 3251.96 757.78 3252.33C744.346 3252.91 731.122 3256.65 719.029 3262.57C699.312 3272.23 682.758 3287.15 667.933 3303.06C661.039 3310.47 654.073 3318.52 650.677 3328.59C646.161 3342.19 649.024 3356.54 652.391 3369.62C656.714 3386.07 662.657 3402.59 673.388 3416.34C679.7 3424.39 687.988 3431.2 697.68 3434.97C708.437 3439.18 719.968 3439.59 731.044 3439.67C768.299 3439.9 805.561 3436.17 841.99 3428.61C859.134 3425.07 876.316 3420.84 893.849 3421.55C902.22 3421.91 910.604 3423.57 918.284 3427.07Z" fill="#255791"/>
<path d="M837.822 3381.42C841.253 3376.58 845.884 3372.71 851.062 3369.96C866.018 3362.21 883.443 3362.13 899.963 3363.14C922.053 3364.45 947.712 3367.25 966.402 3351.14C977.321 3341.59 981.619 3326.35 980.211 3312.39C979.194 3301.77 975.22 3291.41 968.536 3283.02C952.597 3263.19 926.79 3255 902.522 3253.93C883.83 3253.13 865.37 3256.07 847.153 3259.24C841.325 3260.25 835.505 3261.3 829.67 3262.26C829.67 3262.26 829.67 3262.26 829.67 3262.26C835.539 3261.53 841.397 3260.7 847.255 3259.9C865.572 3257.38 884.035 3255.01 902.398 3256.22C926.223 3257.81 950.996 3266.29 965.879 3285.13C972.06 3292.99 975.776 3302.76 976.727 3312.72C978.04 3325.84 974.077 3339.87 964.194 3348.67C947.284 3363.72 922.272 3361.83 900.083 3360.97C883.394 3360.36 865.649 3360.97 850.738 3369.38C845.584 3372.36 841.058 3376.45 837.822 3381.42Z" fill="#255791"/>
<path d="M619.871 3319.89C616.385 3324.07 613.083 3328.41 609.975 3332.89C586.305 3366.98 573.974 3409.17 576.125 3450.96C576.527 3458.61 577.587 3466.29 579.896 3473.71C582.93 3483.6 588.784 3493.41 598.192 3498.82C615.853 3508.81 636.055 3502.04 653.042 3496.18C672.217 3489.37 691.364 3482.48 710.486 3475.52C715.602 3473.66 720.715 3471.79 725.827 3469.92C720.639 3471.57 715.454 3473.23 710.271 3474.89C690.895 3481.11 671.545 3487.41 652.222 3493.78C635.158 3499.33 615.57 3505.1 599.907 3495.91C591.494 3490.98 586.133 3482.08 583.236 3472.67C581.044 3465.63 579.986 3458.21 579.553 3450.77C577.216 3409.78 588.291 3368.13 610.528 3333.26C613.451 3328.68 616.567 3324.21 619.871 3319.89Z" fill="#255791"/>
<path d="M751.446 3218.91C751.446 3218.91 751.446 3218.91 751.446 3218.91C753.193 3218.14 754.953 3217.42 756.725 3216.73C772.683 3210.55 789.576 3207.5 806.468 3207.33C823.36 3207.18 840.308 3209.9 856.383 3215.77C858.168 3216.42 859.942 3217.12 861.703 3217.85C860.045 3216.91 858.358 3216.01 856.646 3215.16C841.228 3207.49 823.795 3203.66 806.435 3203.83C789.074 3203.99 771.718 3208.16 756.451 3216.12C754.755 3217.01 753.086 3217.94 751.446 3218.91Z" fill="#255791"/>
<path d="M306.6 2897.25C307.04 2899.32 307.62 2901.37 308.3 2903.39C312.02 2914.37 318.496 2924.18 322.087 2934.82C324.46 2941.8 325.616 2949.14 325.803 2956.51C326.234 2975.22 321.029 2993.73 315.688 3011.95C315.089 3013.98 314.484 3016.01 313.882 3018.04C314.703 3016.09 315.518 3014.13 316.316 3012.17C323.423 2994.58 329.73 2975.99 329.302 2956.42C329.11 2948.73 327.737 2941 324.96 2933.78C320.713 2922.75 313.639 2913.58 308.919 2903.14C308.051 2901.22 307.266 2899.26 306.6 2897.25Z" fill="#255791"/>
<path d="M349.143 3286.44C365.772 3297.62 387.308 3299.95 407.089 3296.41C426.871 3292.86 445.254 3283.95 462.707 3274.08C526.01 3238.29 581.333 3188.6 648.502 3160.54" fill="#FF9C56"/>
<path d="M349.143 3286.44C353.761 3289.69 358.853 3292.27 364.187 3294.19C377.881 3299.1 392.905 3299.78 407.27 3297.41C427.342 3294.08 445.959 3285.26 463.497 3275.48C477.75 3267.53 491.568 3258.85 505.147 3249.85C547.523 3221.79 587.724 3190.5 633.196 3167.76C638.241 3165.24 643.337 3162.83 648.502 3160.54C643.247 3162.61 638.054 3164.82 632.91 3167.16C586.493 3188.25 545.421 3218.99 503.214 3246.93C489.676 3255.9 475.983 3264.62 461.917 3272.68C444.61 3282.61 426.505 3291.61 406.909 3295.4C392.9 3298.09 378.133 3297.91 364.401 3293.56C359.051 3291.86 353.891 3289.49 349.143 3286.44Z" fill="#255791"/>
<path d="M295.311 3043.23C295.964 3045.87 296.524 3048.53 296.993 3051.2C300.735 3072.59 298.653 3094.73 291.079 3114.77C290.124 3117.29 289.159 3119.86 288.355 3122.52C286.455 3128.77 284.988 3137.18 290.404 3143.08C292.854 3145.74 296.061 3147.18 299.115 3148.22C313.57 3153.1 329.973 3150.27 341.969 3141.6C344.19 3140 346.255 3138.19 348.118 3136.21C348.118 3136.21 348.118 3136.21 348.118 3136.21C346.092 3138.02 343.904 3139.64 341.601 3141.05C329.153 3148.64 313.438 3150.3 300.137 3145.35C297.312 3144.3 294.644 3142.93 292.855 3140.88C288.867 3136.47 289.846 3129.59 291.705 3123.53C292.466 3121.02 293.392 3118.51 294.326 3115.98C301.983 3095.24 303.077 3072.22 297.643 3051.06C296.966 3048.42 296.188 3045.81 295.311 3043.23Z" fill="#255791"/>
<path d="M639.947 3293.14C639.947 3293.14 639.947 3293.14 639.947 3293.14C639.665 3296.62 639.337 3300.09 638.963 3303.56C636.25 3328.74 631.142 3353.57 623.741 3377.67C621.968 3383.45 620.178 3389.28 618.775 3395.25C615.583 3408.66 614.115 3424.73 623.163 3436.83C634.626 3452.19 655.133 3453.31 672.017 3452C675.502 3451.72 678.978 3451.31 682.428 3450.82C682.428 3450.82 682.428 3450.82 682.428 3450.82C678.953 3451.08 675.463 3451.27 671.984 3451.34C655.029 3451.68 635.407 3449.34 625.552 3435.11C617.655 3423.99 619.053 3409.23 622.182 3396.05C623.55 3390.23 625.283 3384.46 626.992 3378.65C634.184 3354.22 638.433 3328.95 639.626 3303.61C639.791 3300.12 639.898 3296.63 639.947 3293.14Z" fill="#255791"/>
<path d="M882.867 3409.64C883.69 3406.53 885.309 3403.71 887.387 3401.33C890.605 3397.66 894.846 3394.99 899.385 3393.39C906.996 3390.74 915.232 3390.82 923.272 3391.6C930.678 3392.31 938.018 3393.58 945.207 3395.41C952.451 3397.21 960.222 3399.86 968.428 3398.24C969.014 3398.12 969.594 3397.98 970.167 3397.82C974.693 3396.54 978.64 3394.08 982.205 3391.42C1002.36 3376.35 1013.42 3350.6 1011.19 3326.07C1010.9 3322.86 1010.39 3319.69 1009.64 3316.57C1010.16 3319.73 1010.45 3322.92 1010.53 3326.11C1011.09 3350.48 999.424 3374.52 980.161 3388.66C976.738 3391.17 973.114 3393.35 969.22 3394.45C968.726 3394.59 968.23 3394.71 967.73 3394.81C960.768 3396.24 953.415 3393.97 945.982 3392.23C938.586 3390.49 931.047 3389.4 923.481 3388.95C915.257 3388.45 906.638 3388.73 898.832 3391.94C894.154 3393.88 889.927 3396.93 886.871 3400.91C884.899 3403.49 883.461 3406.48 882.867 3409.64Z" fill="#255791"/>
<path d="M574.471 3241.27C576.77 3239.41 579.108 3237.6 581.477 3235.84C594.807 3225.92 609.074 3217.46 623.272 3208.83C631.364 3203.9 639.431 3198.94 647.461 3193.91C647.89 3193.64 648.321 3193.37 648.753 3193.1C671.169 3179.17 694.186 3164.62 720.808 3161.66C723.736 3161.35 726.686 3161.19 729.647 3161.19C729.647 3161.19 729.647 3161.19 729.647 3161.19C726.695 3160.95 723.728 3160.89 720.761 3161C693.663 3162.06 669.279 3176.19 646.897 3190.13C646.465 3190.4 646.033 3190.67 645.603 3190.94C637.581 3195.98 629.584 3201.06 621.625 3206.2C607.668 3215.21 593.699 3224.44 581.062 3235.32C578.816 3237.25 576.616 3239.23 574.471 3241.27Z" fill="#255791"/>
<path d="M271.881 3253.81C274.967 3251.16 278.45 3249.03 282.146 3247.43C296.486 3241.33 312.629 3242.47 327.532 3245.73C346.484 3249.95 365.221 3257.63 385.535 3257.19C386.931 3257.15 388.312 3257.08 389.689 3256.97C428.075 3253.47 455.563 3225.08 487.748 3208.69C491.35 3206.83 495.021 3205.1 498.776 3203.56C494.938 3204.88 491.167 3206.42 487.458 3208.09C454.217 3223.01 425.878 3250.36 389.414 3253.49C388.099 3253.59 386.78 3253.66 385.447 3253.69C366.125 3254.2 347.439 3246.97 328.055 3243.22C312.765 3240.34 296.11 3239.87 281.865 3246.82C278.201 3248.65 274.809 3250.99 271.881 3253.81Z" fill="#255791"/>
<path d="M179.263 3244.75C179.263 3244.75 179.263 3244.75 179.263 3244.75C180.24 3244.77 181.215 3244.79 182.19 3244.82C190.956 3245.03 199.597 3245.43 208.229 3245.97C216.86 3246.52 225.482 3247.22 234.205 3248.12C235.174 3248.22 236.144 3248.32 237.116 3248.42C237.116 3248.42 237.116 3248.42 237.116 3248.42C236.197 3248.09 235.272 3247.77 234.343 3247.47C225.983 3244.71 217.252 3243.04 208.45 3242.48C199.648 3241.92 190.776 3242.48 182.134 3244.15C181.174 3244.34 180.217 3244.54 179.263 3244.75Z" fill="#255791"/>
<path d="M559.517 3377.48C558.698 3378.92 557.919 3380.39 557.183 3381.88C550.541 3395.3 547.396 3410.58 547.942 3425.69C548.469 3440.8 552.687 3455.81 560.251 3468.74C561.09 3470.17 561.968 3471.58 562.887 3472.96C562.171 3471.46 561.491 3469.96 560.845 3468.44C555.033 3454.75 551.966 3440.19 551.44 3425.56C550.928 3410.94 552.956 3396.2 557.796 3382.14C558.335 3380.58 558.908 3379.03 559.517 3377.48Z" fill="#255791"/>
<path d="M601.13 3528.26C603.764 3528.27 606.399 3528.29 609.035 3528.28C624.458 3528.22 640.169 3527.45 655.217 3522.79C663.228 3520.31 670.814 3516.79 678.224 3513.15C688.245 3508.22 698.051 3503.03 708.5 3499.61C720.257 3495.76 732.745 3494.2 745.211 3492.96C747.831 3492.7 750.454 3492.45 753.076 3492.2C750.442 3492.22 747.807 3492.25 745.172 3492.3C732.64 3492.54 719.938 3493.36 707.659 3496.86C696.747 3499.99 686.65 3505.11 676.681 3510.01C669.302 3513.63 661.927 3517.17 654.242 3519.78C639.822 3524.7 624.378 3526.33 609.006 3527.61C606.382 3527.83 603.756 3528.04 601.13 3528.26Z" fill="#255791"/>
<path d="M898.068 3590.35C899.786 3590.14 901.509 3590.14 903.213 3590.27C909.977 3590.82 916.38 3593.41 923.546 3593.69C932.728 3594.05 941.413 3590.05 948.735 3585.24C961.943 3576.73 972.595 3564.7 987.793 3560.95C989.46 3560.56 991.155 3560.29 992.892 3560.17C991.154 3560.06 989.418 3560.1 987.683 3560.29C971.623 3562.25 959.493 3574.17 946.824 3582.31C939.704 3586.97 931.958 3590.83 923.549 3591.07C916.989 3591.31 910.171 3589.34 903.225 3589.61C901.48 3589.68 899.742 3589.91 898.068 3590.35Z" fill="#255791"/>
<path d="M1125.23 3572.77C1125.23 3572.77 1125.23 3572.77 1125.23 3572.77C1126.13 3572.7 1127.04 3572.63 1127.95 3572.56C1136.11 3571.93 1144.15 3571.32 1152.2 3570.71C1160.25 3570.09 1168.3 3569.47 1176.46 3568.85C1177.36 3568.78 1178.27 3568.71 1179.18 3568.64C1179.18 3568.64 1179.18 3568.64 1179.18 3568.64C1178.28 3568.48 1177.39 3568.32 1176.48 3568.18C1168.38 3566.91 1160.12 3566.59 1151.94 3567.22C1143.75 3567.84 1135.64 3569.42 1127.82 3571.91C1126.95 3572.18 1126.09 3572.47 1125.23 3572.77Z" fill="#255791"/>
<path d="M813.585 3228.43C815.629 3230.74 817.946 3232.83 820.472 3234.64C837.561 3246.58 859.987 3245.99 879.752 3242.61C887.221 3241.28 894.589 3239.63 901.954 3238.17C917.306 3235.14 933.116 3232.83 948.241 3236.6C959.581 3239.41 970.122 3245.69 978.165 3254.44C980.24 3256.69 982.147 3259.12 983.853 3261.69C982.346 3259 980.608 3256.42 978.669 3254C971.16 3244.62 960.652 3237.5 948.911 3234.11C933.259 3229.55 916.733 3231.68 901.275 3234.74C893.843 3236.21 886.501 3237.92 879.147 3239.37C859.774 3243.02 838.344 3244.59 820.841 3234.09C818.239 3232.48 815.798 3230.58 813.585 3228.43Z" fill="#255791"/>
<path d="M738.311 3288.65C738.311 3288.65 738.311 3288.65 738.311 3288.65C737.001 3288.3 735.654 3288.06 734.289 3287.94C721.699 3286.91 709.688 3295.39 703.504 3306.28C703.491 3306.3 703.479 3306.32 703.466 3306.34C697.246 3317.39 695.969 3330.05 695.655 3342.11C695.62 3343.47 695.597 3344.82 695.581 3346.17C695.581 3346.17 695.581 3346.17 695.581 3346.17C695.829 3344.84 696.073 3343.51 696.316 3342.18C698.498 3330.27 700.731 3318.28 706.514 3308.06C706.526 3308.04 706.537 3308.02 706.549 3308C712.296 3298.07 722.17 3289.57 734.281 3288.61C735.613 3288.52 736.96 3288.53 738.311 3288.65Z" fill="#255791"/>
</g>
<defs>
<clipPath id="clip0_1333_7031">
<rect width="1142" height="3592" fill="white"/>
</clipPath>
</defs>
</svg>
