<svg width="1548" height="4333" viewBox="0 0 1548 4333" fill="none" xmlns="http://www.w3.org/2000/svg">
<path d="M1030.54 2130C1027.92 2131.06 1025.26 2132.29 1022.69 2133.6C1000.09 2145.7 978.579 2162.83 968.081 2185.92C962.904 2197.38 964.569 2211.31 973.811 2220.13C982.727 2229.16 995.041 2234.4 1007.24 2238.49C1009.87 2239.35 1012.64 2240.19 1015.56 2241C1012.59 2240.42 1009.76 2239.79 1007.06 2239.13C994.539 2235.91 981.74 2231.38 971.842 2222.11C961.474 2213.15 959.153 2196.76 964.843 2184.59C976.1 2159.98 998.826 2143.53 1022.41 2133C1025.09 2131.87 1027.84 2130.85 1030.54 2130Z" fill="#FF9C56"/>
<path d="M1037.48 2070.06C1035.68 2071.18 1033.88 2072.3 1032.09 2073.43C1019.81 2081.17 1007.77 2089.58 998.928 2100.77C996.208 2104.2 993.789 2107.89 991.543 2111.7C982.025 2127.72 975.476 2146.82 960.76 2159.66C959.141 2161.05 957.452 2162.33 955.676 2163.5C957.313 2162.14 958.847 2160.7 960.301 2159.17C973.414 2145.23 978.703 2126.52 988.528 2109.93C990.837 2106.01 993.396 2102.2 996.333 2098.66C1005.92 2087.13 1018.78 2079.34 1031.77 2072.85C1033.66 2071.9 1035.57 2070.97 1037.48 2070.06Z" fill="#FF9C56"/>
<path d="M916.599 1170.76C920.157 1186.27 924.387 1201.68 926.232 1217.55C927.581 1229.14 927.546 1241.05 924.776 1252.5C921.509 1266.1 914.635 1278.41 907.605 1290.27C895.215 1311.17 881.548 1332.01 862.434 1347.67C836.429 1368.89 803.752 1378.14 773.361 1390.08C743.279 1401.9 712.278 1418.24 696.886 1447.24C688.339 1463.43 685.61 1482.08 679.153 1499.75C675.995 1508.36 671.895 1516.62 666.957 1524.34C654.449 1543.93 636.323 1560.25 614.664 1569.15C584.634 1581.49 548.071 1578.62 521.788 1558.93C478.36 1525.64 473.022 1462.78 425.519 1436.29C419.224 1432.94 411.721 1430.48 405.041 1433.02C397.313 1435.99 393.424 1444.42 390.79 1452.2C385.111 1469.11 382.278 1487.14 374.297 1503.4C373.419 1505.18 372.464 1506.93 371.438 1508.64C363.346 1522.14 349.85 1534.14 333.562 1534.72C349.83 1533.89 363.018 1521.78 370.866 1508.3C371.86 1506.6 372.782 1504.85 373.629 1503.07C381.335 1486.86 383.933 1468.89 389.462 1451.76C392.066 1443.88 395.862 1434.92 404.435 1431.45C411.887 1428.57 419.875 1431.23 426.407 1434.61C475.331 1461.54 481.339 1524.81 523.634 1556.46C548.983 1575.28 584.425 1577.96 613.356 1565.99C634.259 1557.34 651.844 1541.51 664.008 1522.46C668.81 1514.95 672.801 1506.91 675.877 1498.55C682.214 1481.35 684.959 1462.53 693.886 1445.65C710.088 1415.43 741.934 1399.05 772.277 1387.29C802.925 1375.47 835.317 1366.49 860.988 1345.89C879.874 1330.69 893.66 1310.18 906.246 1289.46C913.392 1277.69 920.32 1265.59 923.7 1252.24C926.568 1240.98 926.762 1229.18 925.571 1217.62C923.944 1201.79 919.93 1186.32 916.599 1170.76Z" fill="#FF9C56"/>
<path d="M822.972 1326.3C822.035 1328.07 820.967 1329.78 819.78 1331.41C815.688 1337.02 810.138 1341.72 803.634 1344.62C795.563 1348.21 786.768 1348.89 778.499 1350.16C775.968 1350.54 773.444 1350.99 770.928 1351.48C753.46 1354.89 736.448 1360.67 719.352 1366.27C717.452 1366.9 715.55 1367.52 713.647 1368.13C715.465 1367.3 717.287 1366.47 719.112 1365.65C735.51 1358.29 752.393 1351.54 770.256 1348.04C772.826 1347.54 775.411 1347.11 778.008 1346.75C786.502 1345.6 794.958 1345.25 802.716 1342.38C808.979 1340.06 814.674 1336.06 819.264 1330.99C820.595 1329.52 821.835 1327.95 822.972 1326.3Z" fill="#FF9C56"/>
<path d="M834.802 1256.56C835.124 1258.57 835.211 1260.62 835.069 1262.66C834.707 1267.88 832.85 1273.07 829.637 1277.38C825.7 1282.65 820.134 1286.29 814.718 1289.51C808.881 1292.98 802.872 1296.16 796.723 1299.05C788.805 1302.76 780.656 1305.99 772.346 1308.69C763.44 1311.66 753.925 1314.32 747.8 1321.63C746.549 1323.18 745.533 1324.93 744.823 1326.83C745.309 1324.86 746.14 1322.96 747.261 1321.24C752.817 1313 762.658 1309.39 771.398 1305.99C779.475 1302.92 787.424 1299.55 795.235 1295.88C801.302 1293.03 807.286 1290.01 813.181 1286.8C818.655 1283.83 824.042 1280.7 828.043 1276.1C831.304 1272.35 833.528 1267.62 834.409 1262.58C834.753 1260.61 834.891 1258.59 834.802 1256.56Z" fill="#FF9C56"/>
<path d="M910.732 1248.06C910.732 1248.06 910.732 1248.06 910.732 1248.06C910.42 1246.43 910.055 1244.84 909.639 1243.25C905.882 1228.92 898.178 1216.34 890.507 1203.78C882.838 1191.23 874.854 1178.37 870.442 1164.09C869.955 1162.51 869.515 1160.92 869.128 1159.32C869.128 1159.32 869.128 1159.32 869.128 1159.32C869.738 1160.85 870.384 1162.36 871.063 1163.86C877.196 1177.32 885.757 1189.29 893.493 1201.95C901.195 1214.53 908.377 1228.23 910.292 1243.12C910.505 1244.77 910.652 1246.4 910.732 1248.06Z" fill="#FF9C56"/>
<path d="M808.994 1262.96C808.992 1260.21 809.5 1257.45 810.375 1254.82C812.251 1249.2 815.629 1244.2 819.316 1239.63C824.746 1232.93 830.893 1226.81 834.508 1219.35C838.047 1210.72 830.664 1201.06 824.993 1193.16C823.205 1190.76 821.327 1188.41 819.503 1185.94C806.434 1168.15 799.55 1146.04 799.959 1124.27C800.01 1121.51 800.176 1118.76 800.459 1116.03C800.409 1118.77 800.465 1121.52 800.624 1124.25C801.894 1145.85 809.513 1166.8 822.28 1183.88C824.055 1186.24 825.974 1188.62 827.794 1191.06C833.385 1199.23 841.923 1208.99 837.19 1220.71C832.986 1228.66 826.422 1234.55 820.717 1240.83C816.842 1245.1 813.249 1249.71 810.998 1255.05C809.948 1257.56 809.226 1260.22 808.994 1262.96Z" fill="#FF9C56"/>
<path d="M1153.04 974.48C1153 978.766 1152.65 983.053 1152.03 987.306C1149.43 1005.11 1142.12 1022.07 1132.33 1037.18C1120.99 1054.69 1106.45 1069.82 1091.31 1083.91C1090.2 1084.95 1089.08 1085.98 1087.96 1087.01C1080.37 1093.94 1071.9 1101.36 1060.96 1103.39C1044.42 1106.28 1028.6 1094.95 1022.51 1080.46C1018.02 1069.79 1018.15 1057.8 1021.01 1046.94C1022.1 1042.78 1023.59 1038.73 1025.41 1034.85C1023.8 1038.82 1022.53 1042.92 1021.65 1047.1C1019.35 1057.98 1019.78 1069.63 1024.41 1079.62C1030.62 1093.14 1045.81 1103.08 1060.36 1100.21C1070.09 1098.29 1078.07 1091.36 1085.59 1084.44C1086.71 1083.41 1087.82 1082.38 1088.93 1081.35C1103.99 1067.33 1118.49 1052.62 1130.1 1035.69C1140.1 1021.08 1147.92 1004.73 1151.38 987.194C1152.2 983.004 1152.77 978.757 1153.04 974.48Z" fill="#F97706"/>
<path d="M1119.35 984.499C1119.19 986.384 1118.98 988.267 1118.73 990.145C1116.43 1007.06 1110.23 1023.57 1100.8 1037.98C1096.29 1044.89 1091.04 1051.32 1085.16 1057.09C1079.85 1062.24 1072.15 1067.98 1064.18 1065.03L1063.85 1064.94L1063.81 1064.54C1063.84 1063.24 1063.87 1061.95 1063.91 1060.66C1063.96 1058.77 1064.01 1056.88 1064.06 1054.98C1064.24 1056.87 1064.41 1058.75 1064.57 1060.64C1064.68 1061.93 1064.79 1063.22 1064.89 1064.51L1064.53 1064.01C1071.82 1065.91 1078.26 1060.32 1083.11 1055.11C1088.55 1049.17 1093.48 1042.79 1097.87 1036.06C1107.04 1022.03 1113.92 1006.48 1118.07 990.019C1118.53 988.19 1118.96 986.35 1119.35 984.499Z" fill="#F97706"/>
<path d="M716.176 1544.7C722.394 1533.44 727.406 1521.58 732.057 1509.6C738.328 1493.46 743.969 1477.04 751.168 1461.21C763.584 1434.02 782.039 1406.97 810.767 1394.83C834.211 1385.08 860.18 1386.83 882.833 1377.52C912.637 1365.23 931.596 1336.42 944.816 1307.65C949.429 1297.58 953.565 1287.26 957.777 1276.94C965.773 1257.36 974.119 1237.55 986.489 1220C1004.98 1193.87 1036.07 1171.86 1069.69 1177.25C1073.07 1177.83 1076.75 1178.72 1079.66 1181.27C1083.41 1184.64 1084.51 1189.48 1085.27 1193.77C1093.67 1245.05 1065.32 1293.58 1075.6 1343.85C1076.47 1347.96 1077.6 1352.01 1078.9 1356.01C1082.87 1368.22 1088.33 1379.91 1092.61 1392.04C1092.61 1392.04 1092.61 1392.04 1092.61 1392.04C1088.11 1379.99 1082.46 1368.41 1078.27 1356.22C1076.9 1352.22 1075.69 1348.17 1074.75 1344.04C1063.65 1293.43 1091.38 1244.06 1082.6 1194.23C1081.86 1190.09 1080.69 1185.89 1077.8 1183.39C1075.58 1181.46 1072.44 1180.62 1069.23 1180.11C1037.27 1175.16 1007.19 1196.44 989.275 1221.96C977.234 1239.14 969.001 1258.7 961.017 1278.26C956.81 1288.57 952.65 1298.93 947.973 1309.1C934.543 1338.17 915.115 1367.74 884.001 1380.39C860.356 1389.84 834.495 1387.87 811.728 1397.16C783.815 1408.6 765.189 1434.95 752.484 1461.82C745.105 1477.46 739.215 1493.79 732.675 1509.85C727.825 1521.76 722.598 1533.55 716.176 1544.7Z" fill="#FF9C56"/>
<path d="M1099.51 1343.25C1099.05 1338.49 1098.81 1333.7 1098.75 1328.91C1098.29 1285.61 1112.29 1243.96 1116.97 1201.59C1116.99 1201.48 1117 1201.38 1117.01 1201.27C1119.07 1182.09 1118.91 1161.13 1107.34 1145.42C1099.26 1134.51 1085.85 1127.55 1072.09 1127.31C1063.01 1127.15 1053.88 1129.92 1046.2 1134.97C1042.24 1137.59 1038.65 1140.81 1035.68 1144.56C1038.47 1140.67 1041.92 1137.25 1045.82 1134.43C1053.37 1128.96 1062.63 1125.72 1072.09 1125.56C1086.43 1125.32 1100.76 1132.17 1109.65 1143.67C1122.34 1160.25 1122.57 1182.19 1120.49 1201.65C1120.48 1201.76 1120.46 1201.87 1120.45 1201.97C1115.67 1244.97 1100.83 1285.89 1099.41 1328.92C1099.26 1333.69 1099.28 1338.47 1099.51 1343.25Z" fill="#FF9C56"/>
<path d="M1003.11 1162.41C1000.83 1163.57 998.638 1164.89 996.544 1166.34C981 1177.23 971.589 1194.09 962.962 1210.65C961.064 1214.32 959.187 1218.01 957.328 1221.71C946.999 1242.23 937.19 1263.05 927.031 1283.75C925.902 1286.05 924.769 1288.35 923.631 1290.64C924.556 1288.25 925.486 1285.86 926.423 1283.48C934.851 1262.03 943.821 1240.76 954.201 1220.13C956.07 1216.42 957.983 1212.73 959.946 1209.06C968.838 1192.53 979.536 1175.49 996.188 1165.78C998.419 1164.49 1000.73 1163.36 1003.11 1162.41Z" fill="#FF9C56"/>
<path d="M1115.55 1129.37C1115.12 1128.25 1114.73 1127.11 1114.38 1125.96C1111.2 1115.58 1111.1 1104.15 1113.9 1093.51C1116.68 1082.86 1122.37 1072.95 1130.23 1065.46C1131.1 1064.63 1132 1063.83 1132.92 1063.06C1132.17 1064 1131.44 1064.94 1130.73 1065.9C1124.38 1074.56 1119.95 1084.26 1117.29 1094.4C1114.64 1104.54 1113.75 1115.16 1115.03 1125.82C1115.18 1127 1115.35 1128.19 1115.55 1129.37Z" fill="#F97706"/>
<path d="M1113.2 1035.18C1113.2 1035.18 1113.2 1035.18 1113.2 1035.18C1114.01 1033.31 1114.8 1031.38 1115.55 1029.48C1122.24 1012.24 1127.3 994.469 1130.94 976.477C1132.18 970.181 1133.21 963.829 1133.68 957.498C1134.41 946.52 1134.33 930.653 1120.94 928.984C1118.94 928.645 1116.87 928.56 1114.82 928.552C1114.82 928.552 1114.82 928.552 1114.82 928.552C1116.86 928.328 1118.93 928.187 1121.02 928.324C1127.24 928.306 1133.08 933.289 1134.81 939.361C1136.81 945.314 1137.01 951.559 1136.82 957.666C1136.58 964.24 1135.63 970.746 1134.38 977.154C1130.68 995.446 1124.6 1013.2 1116.16 1029.76C1115.21 1031.58 1114.22 1033.41 1113.2 1035.18Z" fill="#F97706"/>
<path d="M1093.19 1420.82C1091.01 1415.68 1086.29 1412.02 1081.08 1410.48C1071.3 1407.62 1060.31 1410.01 1052.3 1415.95C1039.59 1425.63 1032.84 1440.73 1022.54 1453.32C1007.45 1471.75 984.715 1483.6 960.951 1485.76C957.927 1486.04 954.888 1486.15 951.851 1486.11C924.903 1485.68 898.609 1472.41 882.289 1451.15C874.273 1440.71 868.635 1428.66 858.58 1420.5C852.974 1416.01 845.682 1413.43 838.398 1413.67C832.977 1413.85 827.416 1416.08 824.058 1420.56C827.216 1415.94 832.802 1413.39 838.358 1413.01C845.825 1412.48 853.421 1414.84 859.47 1419.37C870.141 1427.49 876.229 1439.65 884.266 1449.6C900.563 1469.86 926.062 1482.26 951.901 1482.62C954.814 1482.66 957.73 1482.54 960.634 1482.28C983.455 1480.2 1005.44 1469.02 1020.33 1451.48C1030.55 1439.5 1037.8 1424.24 1051.28 1414.57C1059.97 1408.54 1071.34 1406.54 1081.29 1409.84C1086.58 1411.63 1091.23 1415.6 1093.19 1420.82Z" fill="#FF9C56"/>
<path d="M875.111 1489.52C872.439 1487.52 870.336 1484.81 868.659 1481.92C864.783 1475.2 862.789 1467.52 858.371 1461.48C847.386 1446.71 824.78 1446.73 810.054 1455.8C806.9 1457.74 803.962 1460.03 801.252 1462.58C790.813 1472.45 783.964 1485.64 778.286 1499.04C772.403 1512.97 767.456 1527.59 759.53 1540.7C757.801 1543.56 755.935 1546.32 753.908 1548.96C755.745 1546.19 757.415 1543.31 758.95 1540.37C765.983 1526.89 770.171 1512.25 775.676 1497.99C781.002 1484.26 787.796 1470.5 798.854 1460.03C801.723 1457.33 804.866 1454.9 808.252 1452.85C824.342 1443.11 848.746 1443.83 859.959 1460.37C864.347 1467.07 865.844 1474.77 869.245 1481.6C870.711 1484.55 872.587 1487.33 875.111 1489.52Z" fill="#FF9C56"/>
<path d="M1079.1 1500.67C1079.1 1500.67 1079.1 1500.67 1079.1 1500.67C1079.12 1499.46 1079.14 1498.25 1079.16 1497.05C1079.3 1490.63 1079.59 1484.23 1080.05 1477.84C1080.37 1473.45 1080.7 1469.1 1080.35 1464.9C1080.05 1461.22 1079.18 1457.64 1077.33 1454.59C1074.21 1449.54 1066.48 1446.2 1060.52 1449.48C1059.52 1450.07 1058.64 1450.9 1057.96 1451.9C1058.44 1450.79 1059.18 1449.76 1060.12 1448.94C1066.01 1444.26 1075.41 1446.56 1079.95 1452.88C1082.38 1456.35 1083.51 1460.56 1083.84 1464.61C1084.21 1469.25 1083.69 1473.78 1083.06 1478.17C1082.14 1484.5 1081.07 1490.82 1079.82 1497.12C1079.59 1498.3 1079.35 1499.49 1079.1 1500.67Z" fill="#FF9C56"/>
<path d="M903.183 1413.27C903.183 1413.27 903.183 1413.27 903.183 1413.27C913.231 1411.12 922.879 1407.27 931.677 1402.04C944.358 1394.5 955.308 1384.07 963.235 1371.7C991.893 1326.69 979.905 1266.14 1016.36 1223.42C1021.54 1217.59 1027.99 1212.12 1036.12 1210.25C1045.27 1210.51 1049.13 1216.9 1054.01 1221.59C1058.47 1226.83 1062.95 1231.79 1065.23 1239.19C1065.97 1242.94 1066.19 1246.77 1065.98 1250.55C1064.83 1268.51 1055.79 1283.97 1051.24 1300.24C1046.16 1318.13 1046.48 1337.55 1052.13 1355.31C1055.52 1366.02 1061.01 1376.46 1062.32 1388.26L1062.62 1390.79L1060.33 1389.64C1042.83 1386.8 1021.81 1396.87 1008.3 1409.16C1001.26 1418.55 998.447 1430.38 994.042 1441.45C989.677 1452.35 982.774 1463.8 971.018 1467.77C969.677 1468.22 968.285 1468.49 966.884 1468.62C956.796 1469.57 944.522 1462.21 945.681 1451.23C944.788 1462.21 957.089 1469.08 966.819 1467.96C968.169 1467.81 969.501 1467.51 970.775 1467.06C982.075 1463 988.603 1451.75 992.717 1440.94C996.896 1429.93 999.481 1417.93 1006.69 1407.97C1013.61 1400.11 1022.86 1396.01 1031.93 1391.98C1041.15 1388.6 1050.7 1383.84 1061.57 1387.19L1059.59 1388.57C1058.27 1377.48 1052.83 1367.26 1049.22 1356.26C1043.23 1337.96 1042.77 1317.89 1047.97 1299.31C1052.66 1282.52 1061.48 1267.14 1062.49 1250.36C1062.68 1246.83 1062.47 1243.3 1061.8 1239.86C1057.53 1229.31 1046.92 1215.79 1036.87 1213.57C1029.82 1215.14 1023.8 1220.05 1018.82 1225.62C983.364 1266.17 994.235 1327.15 964.491 1372.52C956.216 1384.96 944.932 1395.28 932.011 1402.61C923.047 1407.7 913.277 1411.35 903.183 1413.27Z" fill="#FF9C56"/>
<path d="M963.704 1009.23C964.479 1006.46 965.293 1003.82 966.226 1001.1C974.347 977.06 989.921 954.327 1012.76 941.552C1035.44 928.513 1063.49 927.486 1087.72 935.063C1090.47 935.895 1093.09 936.795 1095.78 937.809C1093.02 937.016 1090.34 936.331 1087.55 935.706C1062.89 930.022 1036.24 932.124 1014.48 944.601C992.578 956.863 976.732 978.043 966.846 1001.33C965.722 1003.97 964.701 1006.53 963.704 1009.23Z" fill="#F97706"/>
<path d="M943.795 1030.88C942.987 1032.81 942.218 1034.74 941.489 1036.69C934.933 1054.24 931.534 1072.7 930.942 1091.23C930.364 1109.75 932.593 1128.38 937.767 1146.38C938.342 1148.38 938.955 1150.37 939.604 1152.36C938.737 1150.46 937.915 1148.54 937.138 1146.6C930.137 1129.13 926.841 1110.06 927.443 1091.11C928.035 1072.17 932.537 1053.31 940.879 1036.43C941.804 1034.55 942.777 1032.7 943.795 1030.88Z" fill="#F97706"/>
<path d="M839.151 1124.82C834.284 1115.29 829.684 1105.51 827.089 1095.04C826.411 1092.31 825.877 1089.53 825.52 1086.73C822.451 1062.45 832.732 1038.66 846.251 1018.99C875.731 976.32 920.132 947.988 954.681 910.711C967.169 897.228 978.427 882.401 985.91 865.71C989.203 858.348 991.715 850.645 993.171 842.74C997.853 817.368 990.024 787.989 968.287 773.054C959.625 767.121 949.272 763.793 939.675 758.534C912.141 743.415 894.395 711.791 897.313 680.526C899.241 660.255 910.125 641.364 925.878 628.854C934.303 622.162 944.216 617.301 954.73 615.152C944.265 617.53 934.515 622.576 926.296 629.371C910.927 642.073 900.594 660.891 899.027 680.675C896.643 711.207 914.391 741.723 941.042 756.015C950.353 761.03 960.818 764.27 970.045 770.464C993.245 786.238 1001.41 816.889 996.594 843.369C995.095 851.579 992.498 859.555 989.105 867.138C981.391 884.336 969.862 899.416 957.166 913.025C922.024 950.597 877.629 978.355 847.907 1020.15C834.275 1039.4 823.776 1062.62 826.342 1086.63C826.642 1089.41 827.117 1092.16 827.736 1094.89C830.104 1105.32 834.491 1115.19 839.151 1124.82Z" fill="#F97706"/>
<path d="M1018.66 876.213C1019.15 875.366 1019.62 874.517 1020.06 873.655C1024.07 865.904 1026.22 857.626 1027.75 849.205C1029.27 840.775 1030.18 832.15 1031.39 823.461C1031.52 822.497 1031.66 821.529 1031.8 820.565C1031.89 821.535 1031.97 822.509 1032.05 823.481C1032.74 832.218 1032.77 841.075 1031.2 849.828C1029.64 858.534 1026.3 867.211 1020.62 874.023C1019.99 874.779 1019.34 875.507 1018.66 876.213Z" fill="#F97706"/>
<path d="M862.781 683.623C858.496 688.975 854.297 694.4 850.34 699.989C841.311 712.729 833.456 726.508 829.358 741.51C823.549 762.708 826.179 787.621 841.421 803.701C853.4 816.695 874.026 823.329 879.89 843.24C881.305 848.54 881.037 854.2 879.529 859.369C876.389 869.929 869.15 878.557 860.67 885.021C847.889 894.617 832.983 900.087 820.761 909.366C792.068 931.038 782.878 968.84 777.941 1003.53C776.979 1010.31 776.166 1017.13 775.404 1023.94C775.933 1017.11 776.526 1010.27 777.281 1003.45C781.186 968.642 789.414 930.012 818.935 906.99C831.538 897.207 846.436 891.577 858.606 882.295C866.588 876.166 873.354 867.933 876.165 858.4C877.525 853.729 877.748 848.771 876.523 844.122C871.732 826.62 851.882 819.538 839.17 805.814C823.137 788.415 821.093 762.519 827.51 740.981C832.048 725.764 840.367 712.088 849.803 699.597C853.941 694.116 858.316 688.826 862.781 683.623Z" fill="#F97706"/>
<path d="M812.646 1099.8C811.765 1094.47 810.978 1089.13 810.317 1083.77C805.826 1047.27 806.739 1007.21 827.763 975.043C834.111 965.34 842.035 956.838 850.405 949.012C857.822 942.074 865.613 935.623 873.262 929.082C901.923 904.31 930.737 875.629 939.279 837.579C940.409 832.32 941.083 826.953 941.265 821.555C941.317 826.955 940.863 832.368 939.932 837.706C932.83 876.448 904.1 906.539 875.468 931.641C867.84 938.269 860.112 944.723 852.796 951.568C844.537 959.29 836.781 967.553 830.553 976.887C809.923 1007.75 807.902 1047.07 810.978 1083.7C811.43 1089.07 811.996 1094.44 812.646 1099.8Z" fill="#F97706"/>
<path d="M948.899 873.826C950.389 871.275 951.774 868.666 952.984 865.986C954.323 863.02 955.447 859.966 956.247 856.841C962.068 833.947 950.367 811.455 937.155 793.078C935.359 790.594 933.502 788.152 931.598 785.744C917.274 767.524 900.545 749.359 894.312 726.233C893.554 723.364 892.981 720.451 892.615 717.517C893.212 720.413 893.998 723.258 894.948 726.04C902.711 748.358 919.665 765.271 934.305 783.586C936.259 786.016 938.16 788.495 939.991 791.028C953.464 809.631 965.042 833.921 957.515 857.209C956.493 860.365 955.142 863.39 953.58 866.281C952.169 868.894 950.586 871.4 948.899 873.826Z" fill="#F97706"/>
<path d="M805.93 964.443C805.706 962.448 805.633 960.429 805.707 958.409C806.188 944.903 813.247 931.454 824.723 923.501C828.688 920.748 833.035 918.691 837.402 916.937C844.663 914.023 852.049 911.881 858.826 908.563C867.575 904.159 875.992 896.774 877.805 886.615C878.116 884.666 878.121 882.659 877.799 880.674C878.349 882.608 878.576 884.644 878.467 886.684C877.704 897.439 869.351 906.112 860.197 911.209C853.239 915.004 845.764 917.345 838.707 920.184C834.454 921.892 830.324 923.791 826.574 926.246C815.809 933.302 808.257 945.303 806.369 958.467C806.089 960.439 805.939 962.436 805.93 964.443Z" fill="#F97706"/>
<path d="M1224.2 718.925C1224.2 718.925 1224.2 718.925 1224.2 718.925C1205.25 722.068 1185.81 722.274 1166.74 719.764C1123.14 714.032 1081.23 694.143 1049.99 662.863C1024.42 637.253 1006.49 605.596 987.169 575.541C959.635 532.665 928.708 491.999 895.067 453.745C867.389 422.303 837.351 392.073 800.786 371.576C795.307 368.511 789.7 365.681 783.973 363.121C740.737 343.827 686.753 341.182 646.664 368.324C609.021 393.958 590.806 442.432 595.778 487.256C600.838 532.696 627.266 573.906 662.28 602.884C682.742 619.842 706.176 633.039 730.773 643.146C748.526 650.444 766.911 656.179 785.574 660.72C785.574 660.72 785.574 660.72 785.574 660.72C766.858 656.406 748.392 650.88 730.523 643.762C705.768 633.904 682.102 620.9 661.347 604.022C625.828 575.167 598.709 533.77 593.251 487.545C587.913 441.9 606.121 392.289 644.852 365.667C686.14 337.556 741.307 340.289 785.399 359.929C791.227 362.531 796.929 365.408 802.495 368.522C839.643 389.354 869.881 419.931 897.572 451.548C931.217 490.012 962.068 530.942 989.427 574.101C1008.62 604.358 1026.24 635.946 1051.36 661.51C1082.02 692.721 1123.44 712.917 1166.83 719.106C1185.81 721.815 1205.21 721.838 1224.2 718.925Z" fill="#F97706"/>
<path d="M825.326 416.15C828.316 418.174 831.274 420.271 834.182 422.427C860.376 441.849 882.894 466.257 901.102 493.394C919.33 520.56 933.309 550.499 942.794 581.659C943.85 585.126 944.846 588.597 945.791 592.095C944.623 588.665 943.416 585.265 942.164 581.871C930.9 551.369 916.234 522.237 898.196 495.344C880.16 468.482 858.722 443.81 833.77 422.95C830.999 420.634 828.179 418.363 825.326 416.15Z" fill="#F97706"/>
<path d="M344.938 44.3103C357.36 40.7243 369.928 37.6249 382.6 35.0186C413.278 28.7095 444.573 25.2907 475.931 24.8534C489.435 24.6749 503.329 25.0426 516.421 29.541C539.828 37.6382 556.677 57.5096 568.386 78.3796C591.926 120.574 598.608 168.857 614.117 213.487C615.285 216.856 616.503 220.206 617.78 223.53C627.253 248.139 640.643 272.245 661.899 288.01C682.651 303.383 712.536 309.277 735.568 296.26C744.727 291.063 752.261 283.214 761.179 276.908C786.786 258.83 822.917 256.732 849.703 273.008C865.136 282.415 876.514 297.747 881.908 314.806C885.826 327.172 886.567 340.614 883.354 353.164C886.338 340.558 885.357 327.206 881.275 315.012C875.655 298.187 864.174 283.258 848.948 274.266C822.516 258.685 787.237 261.246 762.654 278.975C754.049 285.159 746.556 293.141 736.971 298.707C712.703 312.615 681.62 306.568 659.935 290.672C637.827 274.402 624.127 249.695 614.516 224.786C613.221 221.421 611.99 218.035 610.811 214.634C595.176 169.54 588.652 121.501 565.741 79.8489C554.37 59.2538 538.08 39.8404 515.619 31.8334C503.046 27.364 489.397 26.8141 475.946 26.8383C444.711 26.9031 413.464 29.8689 382.729 35.671C370.032 38.068 357.423 40.9491 344.938 44.3103Z" fill="#F97706"/>
<path d="M668.83 310.508C671.328 313.433 674.129 316.08 677.155 318.416C687.823 326.651 701.289 331.069 714.54 330.516C735.447 329.594 753.59 317.618 773.1 309.535C777.275 307.799 781.542 306.22 785.925 304.96C799.442 301.109 816.274 300.579 827.326 311.294C832.354 316.249 835.183 322.909 836.336 329.612C837.98 339.076 836.322 348.937 832.016 357.332C830.248 360.78 828.031 363.985 825.419 366.809C827.854 363.831 829.863 360.531 831.416 357.045C835.2 348.554 836.305 338.935 834.38 329.989C833.03 323.642 830.125 317.547 825.47 313.232C815.366 303.914 799.794 304.492 786.892 308.274C782.677 309.519 778.536 311.065 774.444 312.766C755.352 320.631 736.521 332.686 714.602 332.967C700.712 333.084 687.055 327.843 676.734 318.931C673.806 316.404 671.146 313.579 668.83 310.508Z" fill="#F97706"/>
<path d="M843.442 290.345C845.852 291.653 848.11 293.26 850.173 295.1C857.74 301.87 862.534 311.403 864.9 321.292C867.902 333.987 867.227 347.09 866.395 359.775C866.268 361.659 866.142 363.517 866.091 365.354C866.005 368.397 866.134 371.395 866.795 374.234C867.778 378.508 869.995 382.515 872.693 386.181C882.376 399.307 898.367 407.69 915.065 408.501C917.785 408.629 920.523 408.554 923.248 408.26C920.558 408.785 917.815 409.085 915.059 409.165C898.13 409.666 880.793 401.876 870.129 388.119C867.174 384.297 864.62 379.947 863.433 375.03C862.644 371.774 862.503 368.461 862.592 365.257C862.646 363.322 862.782 361.415 862.92 359.534C863.829 346.857 864.79 334.164 862.455 321.816C860.608 312.216 856.604 302.78 849.712 295.579C847.828 293.621 845.732 291.853 843.442 290.345Z" fill="#F97706"/>
<path d="M618.499 300.669C619.045 301.482 619.605 302.273 620.183 303.051C625.393 310.051 631.888 315.617 638.787 320.683C645.696 325.746 653.05 330.343 660.333 335.234C661.14 335.776 661.951 336.324 662.754 336.874C661.843 336.531 660.93 336.18 660.024 335.823C651.87 332.607 643.892 328.76 636.717 323.505C629.575 318.289 623.242 311.482 619.61 303.388C619.206 302.492 618.837 301.588 618.499 300.669Z" fill="#F97706"/>
<path d="M500.381 0C505.554 1.54337 510.703 3.17939 515.813 4.93608C550.581 16.8988 586.185 35.2806 605.883 68.2798C611.821 78.2393 615.988 89.0889 619.353 100.042C622.337 109.75 624.72 119.58 627.245 129.323C636.945 165.943 650.091 204.414 680.545 228.772C684.777 232.093 689.305 235.052 694.076 237.582C689.2 235.261 684.534 232.48 680.144 229.304C648.438 205.936 633.987 166.922 623.978 130.184C621.365 120.423 618.952 110.647 616.008 101.07C612.688 90.2626 608.661 79.6689 603.003 69.9791C584.308 37.9076 549.857 18.8552 515.584 5.56064C510.556 3.61012 505.483 1.76547 500.381 0Z" fill="#F97706"/>
<path d="M908.56 435.949C911.999 436.825 915.551 437.16 919.063 437.002C930.193 436.499 941 431.098 947.558 422.389L951.314 417.566L949.574 423.435C945.43 438.398 950.68 454.173 958.076 467.579C960.428 471.826 963.02 475.962 965.676 480.082C971.519 489.153 977.726 498.212 982.277 508.273C991.101 527.686 993.412 549.583 1007.03 565.954C1009.32 568.627 1011.93 571.044 1014.83 573.1C1011.8 571.239 1009.02 568.972 1006.54 566.402C991.71 550.56 988.352 528.19 979.399 509.608C974.808 499.97 968.624 491.114 962.734 481.978C960.06 477.829 957.441 473.611 955.066 469.228C947.573 455.369 942.342 438.55 947.361 422.77L949.376 423.816C941.992 432.865 930.41 437.828 919.073 437.667C915.495 437.616 911.933 437.05 908.56 435.949Z" fill="#F97706"/>
<path d="M653.419 234.522C655.059 236.98 656.796 239.368 658.674 241.63C660.753 244.134 663.005 246.484 665.463 248.573C683.488 263.841 708.833 263.185 731.142 259.366C734.162 258.841 737.171 258.243 740.17 257.587C762.825 252.7 786.486 245.628 810.004 250.164C812.915 250.741 815.784 251.503 818.581 252.46C815.717 251.727 812.815 251.186 809.898 250.82C786.436 248.013 763.802 255.837 740.923 260.966C737.882 261.657 734.821 262.278 731.742 262.814C709.115 266.768 682.208 266.525 664.577 249.551C662.188 247.249 660.062 244.708 658.148 242.036C656.418 239.623 654.86 237.102 653.419 234.522Z" fill="#F97706"/>
<path d="M822.833 2582.3C817.546 2578.28 812.349 2574.14 807.247 2569.88C782.875 2549.53 760.682 2526.5 741.213 2501.32C731.718 2489.02 722.709 2476.03 716.711 2461.41C711.877 2449.63 709.161 2437.16 707.251 2424.72C707.042 2423.36 706.843 2422 706.652 2420.64C702.111 2388.38 701.863 2354.77 711.475 2323.28C719.099 2298.39 733.222 2275.16 753.402 2258.72C758.571 2254.51 764.12 2250.79 769.98 2247.66C764.233 2251 758.832 2254.89 753.829 2259.23C734.31 2276.19 721.018 2299.42 713.957 2324.01C705.061 2355.15 705.598 2388.19 710.116 2420.15C710.307 2421.5 710.504 2422.85 710.711 2424.19C712.598 2436.49 715.227 2448.69 719.838 2460.14C725.553 2474.34 734.245 2487.22 743.502 2499.58C762.474 2524.88 784.001 2548.3 807.682 2569.38C812.639 2573.79 817.69 2578.1 822.833 2582.3Z" fill="#FF9C56"/>
<path d="M737.56 2529.61C738.568 2530.79 739.499 2531.88 740.446 2533.03C740.992 2533.7 741.486 2534.3 741.999 2534.99C742.068 2535.09 742.129 2535.17 742.182 2535.25C742.251 2535.35 742.317 2535.45 742.378 2535.56C742.406 2535.62 742.434 2535.66 742.457 2535.8C742.461 2535.83 742.465 2535.87 742.46 2535.94C742.458 2535.95 742.441 2536.2 742.204 2536.35C741.968 2536.49 741.793 2536.43 741.718 2536.41C741.636 2536.38 741.597 2536.36 741.562 2536.34C741.455 2536.27 741.427 2536.24 741.362 2536.18C741.259 2536.09 741.201 2536.04 741.107 2535.95C740.809 2535.66 740.501 2535.33 740.226 2535.04C739.083 2533.81 737.993 2532.57 736.921 2531.31C734.784 2528.74 732.679 2526.27 730.832 2523.25C727.521 2517.43 723.823 2511.86 719.778 2506.55C711.763 2496.15 702.543 2486.47 691.022 2479.75C689.743 2479.02 688.421 2478.33 687.081 2477.69C688.504 2478.11 689.925 2478.6 691.311 2479.15C703.869 2484.25 714.34 2493.73 722.56 2504.43C726.728 2509.89 730.333 2515.78 733.289 2521.97C734.665 2524.65 736.615 2527.46 738.425 2530.16C739.346 2531.51 740.28 2532.87 741.243 2534.2C741.471 2534.51 741.736 2534.87 741.966 2535.16C742.04 2535.25 742.084 2535.31 742.143 2535.37C742.173 2535.41 742.203 2535.43 742.17 2535.41C742.156 2535.41 742.135 2535.39 742.067 2535.37C742.006 2535.35 741.842 2535.29 741.613 2535.42C741.383 2535.57 741.37 2535.81 741.368 2535.82C741.363 2535.88 741.367 2535.91 741.371 2535.94C741.389 2536.04 741.399 2536.03 741.393 2536.01C741.383 2535.98 741.336 2535.88 741.288 2535.79C741.253 2535.72 741.209 2535.63 741.155 2535.54C740.755 2534.82 740.351 2534.15 739.903 2533.41C739.131 2532.14 738.38 2530.92 737.56 2529.61Z" fill="#FF9C56"/>
<path d="M968.266 2559.83C970.387 2556.82 972.818 2554.03 975.43 2551.43C987.533 2539.39 1003.1 2531.27 1013.67 2518.35C1023.72 2506.08 1028.48 2490.51 1034.2 2475.46C1034.77 2473.96 1035.36 2472.46 1035.95 2470.97C1047.73 2441.51 1066.26 2414.82 1089.51 2393.54C1092.23 2391.06 1095.01 2388.64 1097.85 2386.31C1095.16 2388.82 1092.54 2391.39 1089.98 2394.02C1068.05 2416.54 1050.72 2443.25 1039.2 2472.26C1038.61 2473.73 1038.04 2475.22 1037.48 2476.71C1031.8 2491.6 1026.72 2507.58 1015.84 2520.18C1004.32 2533.38 988.515 2540.68 975.886 2551.91C973.151 2554.34 970.573 2556.96 968.266 2559.83Z" fill="#FF9C56"/>
<path d="M131.186 3589.46C130.741 3586.37 130.304 3583.28 129.882 3580.19C126.119 3552.45 123.474 3523.89 129.099 3495.92C129.973 3491.59 131.046 3487.3 132.335 3483.08C139.353 3460.09 152.947 3439.25 170.862 3423.59C173.218 3421.54 175.648 3419.57 178.145 3417.69C175.795 3419.75 173.517 3421.88 171.317 3424.08C154.592 3440.83 142.236 3461.61 135.622 3484.06C134.408 3488.2 133.383 3492.38 132.529 3496.61C127.028 3523.9 128.65 3552.16 130.544 3580.12C130.756 3583.23 130.973 3586.35 131.186 3589.46Z" fill="#FF9C56"/>
<path d="M225.938 3266.9C227.854 3261.84 230.128 3256.92 232.723 3252.19C245.069 3229.36 264.896 3212.18 285.867 3197.26C289.9 3193.32 289.162 3188.55 289.278 3184.42C289.161 3180.2 288.692 3176.07 288.258 3171.97C287.826 3167.88 287.361 3163.78 287.285 3159.8C287.192 3156.03 287.66 3151.1 289.978 3150.57C295.875 3148.84 302.137 3148.22 308.166 3149.1C312.181 3149.68 316.081 3150.95 319.55 3152.97C333.438 3161.06 338.374 3179.09 337.198 3194.94C335.972 3211.29 329.587 3226.92 325.978 3243.25C323.576 3254.24 322.57 3265.8 325.143 3276.84C326.39 3282.14 328.548 3287.24 331.698 3291.65C328.742 3287.11 326.82 3281.97 325.793 3276.7C323.681 3265.73 325.063 3254.42 327.749 3243.66C331.773 3227.66 338.584 3212.16 340.167 3195.19C341.637 3178.65 336.899 3159.25 321.302 3149.97C317.416 3147.69 313.075 3146.27 308.671 3145.64C302.054 3144.68 295.315 3145.37 288.992 3147.27C285.939 3148.17 284.796 3151.18 284.362 3153.32C283.901 3155.59 283.874 3157.74 283.918 3159.87C284.037 3164.1 284.555 3168.24 285.035 3172.33C285.711 3180.13 288.078 3189.94 284.083 3195.01C263.48 3210.21 243.596 3228.48 232.133 3251.88C229.71 3256.74 227.634 3261.76 225.938 3266.9Z" fill="#FF9C56"/>
<path d="M331.881 3416.86C342.908 3426.77 351.733 3438.97 358.054 3452.3C381.678 3502.32 371.807 3568.28 329.269 3604.38C298.773 3631.07 249.779 3644.47 239.871 3689.93C236.059 3711.17 244.938 3732.14 256.829 3748.94C265.64 3761.36 276.405 3772.33 288.523 3781.51C343.17 3822.04 416.01 3827.11 480.597 3813.7C546.438 3799.58 606.647 3769.02 668.751 3744.67C682.525 3739.27 696.418 3734.15 710.497 3729.58C696.348 3733.93 682.371 3738.84 668.512 3744.05C606.017 3767.55 545.477 3797.43 480.021 3810.96C415.929 3823.82 344.015 3818.37 290.637 3778.72C278.787 3769.75 268.275 3759.05 259.652 3746.93C248.027 3730.59 239.589 3710.42 243.116 3690.52C251.871 3647.76 299.911 3633.54 330.916 3606.31C374.181 3568.9 383.109 3501.96 358.652 3452.01C352.108 3438.69 343.062 3426.59 331.881 3416.86Z" fill="#FF9C56"/>
<path d="M989.503 3479.22C988.981 3483.27 989.368 3487.43 989.98 3491.5C992.272 3505.75 997.359 3519.41 999.708 3533.42C1000.75 3540.25 1001.46 3548.04 997.461 3553.06C993.315 3558 985.606 3557.92 978.74 3557.04L977.475 3556.87L976.973 3558.07C973.869 3565.46 969.713 3572.4 964.984 3578.93C957.521 3589.24 948.694 3598.56 939.869 3607.92C923.468 3625.2 906.574 3643.16 884 3651.81C880.18 3653.25 876.232 3654.37 872.199 3655.13C876.269 3654.6 880.294 3653.69 884.218 3652.44C907.472 3644.88 925.44 3627.1 942.145 3610.11C951.137 3600.9 960.163 3591.55 967.819 3580.98C972.669 3574.28 976.938 3567.08 980.079 3559.35L978.311 3560.38C985.484 3561.13 994.242 3561.57 999.804 3554.95C1004.76 3548.15 1003.3 3539.99 1002.11 3533C999.243 3518.71 993.627 3505.4 990.635 3491.38C989.822 3487.38 989.215 3483.29 989.503 3479.22Z" fill="#FF9C56"/>
<path d="M941.827 3650.44C938.875 3651.75 935.946 3653.11 933.043 3654.53C909.686 3665.96 888.012 3681.06 869.147 3699.13C866.919 3701.27 864.755 3703.37 862.411 3705.12C860.211 3706.75 857.837 3708.04 855.313 3708.6C851.107 3709.55 846.492 3708.47 841.788 3707.47C820.762 3702.98 799.01 3702.07 777.799 3704.71C774.59 3705.11 771.394 3705.6 768.215 3706.16C771.426 3705.83 774.642 3705.57 777.86 3705.38C799.129 3704.12 820.463 3705.92 841.077 3710.69C845.697 3711.73 850.746 3713.11 856.055 3711.99C859.222 3711.31 862.055 3709.74 864.497 3707.93C867.103 3705.99 869.352 3703.77 871.555 3701.63C890.063 3683.66 910.847 3668.02 933.354 3655.12C936.152 3653.52 938.977 3651.96 941.827 3650.44Z" fill="#FF9C56"/>
<path d="M209.181 3791.69C209.181 3791.69 209.181 3791.69 209.181 3791.69C204.14 3789.3 199.242 3786.62 194.572 3783.6C180.44 3774.5 167.779 3761.56 163.724 3745.22C156.809 3716.85 175.998 3689.53 197.864 3672.56C201.265 3669.94 204.778 3667.46 208.364 3665.07C228.638 3651.56 251.328 3641.09 270.183 3624.75C289.744 3607.75 303.91 3584.85 310.639 3560.07C312.104 3554.67 313.217 3549.18 313.958 3543.66C313.958 3543.66 313.958 3543.66 313.958 3543.66C312.986 3549.15 311.659 3554.57 310 3559.88C302.377 3584.27 287.781 3606.33 268.352 3622.6C249.631 3638.26 227.035 3648.44 206.425 3662.16C202.783 3664.58 199.206 3667.12 195.736 3669.81C173.306 3687.3 153.56 3716.06 161.538 3745.8C166.244 3762.83 179.695 3775.56 194.221 3784.17C199.03 3787.03 204.044 3789.52 209.181 3791.69Z" fill="#FF9C56"/>
<path d="M243.292 3604.3C243.292 3604.3 243.292 3604.3 243.292 3604.3C247.438 3601.17 251.455 3597.86 255.333 3594.39C281.577 3570.92 301.355 3540 311.485 3506.02C314.35 3496.32 316.684 3485.43 313.016 3475.08C312.494 3473.62 311.864 3472.22 311.137 3470.86C303.106 3456.55 287.856 3450.28 278.417 3439C266.836 3425.29 264.732 3405.49 268.471 3387.94C271.194 3375.16 276.688 3363.07 282.824 3351.44C285.244 3346.85 287.77 3342.31 290.295 3337.77C290.295 3337.77 290.295 3337.77 290.295 3337.77C287.569 3342.19 284.851 3346.62 282.242 3351.11C275.632 3362.51 269.651 3374.49 266.483 3387.48C262.145 3405.35 263.702 3426.07 275.96 3441.05C286.011 3453.15 301.025 3459.66 308.052 3472.51C308.702 3473.73 309.26 3474.97 309.725 3476.26C312.989 3485.33 311.033 3495.54 308.293 3505.08C298.665 3538.57 280.056 3569.47 254.88 3593.91C251.158 3597.52 247.293 3600.98 243.292 3604.3Z" fill="#FF9C56"/>
<path d="M339.203 3326.07C339.203 3326.07 339.203 3326.07 339.203 3326.07C337.741 3324.64 335.26 3324.91 333.57 3325.99C332.147 3326.86 330.958 3328.19 330.375 3329.86C329.12 3333.57 330.061 3337.42 330.048 3340.85C330.155 3353.09 320.55 3362.19 312.488 3371.3C309.319 3374.84 306.161 3378.51 303.493 3382.61C296.241 3393.77 293.933 3407.77 296.829 3420.38C297.268 3422.3 297.827 3424.19 298.503 3426.03C298.503 3426.03 298.503 3426.03 298.503 3426.03C298.05 3424.12 297.712 3422.2 297.484 3420.27C296.001 3407.59 299.185 3394.65 306.229 3384.44C308.848 3380.66 311.949 3377.15 315.096 3373.63C322.988 3364.7 333.236 3354.33 332.144 3340.76C331.841 3337 330.688 3333.55 331.485 3330.18C331.818 3328.78 332.737 3327.47 333.943 3326.54C335.377 3325.41 337.571 3324.84 339.203 3326.07Z" fill="#FF9C56"/>
<path d="M399.318 3479.19C399.501 3481.33 399.825 3483.45 400.253 3485.56C402.594 3497.02 407.82 3507.67 410.076 3518.78C411.577 3526.1 411.821 3533.61 411.097 3541.05C409.222 3559.87 401.789 3577.82 394.249 3595.46C393.405 3597.42 392.555 3599.39 391.708 3601.35C392.763 3599.49 393.813 3597.62 394.846 3595.75C404.066 3578.95 412.601 3561.05 414.58 3541.39C415.337 3533.64 414.928 3525.71 413.055 3518.11C410.199 3506.53 404.298 3496.44 400.897 3485.39C400.271 3483.36 399.732 3481.29 399.318 3479.19Z" fill="#FF9C56"/>
<path d="M349.887 3650C349.887 3650 349.887 3650 349.887 3650C344.696 3652.6 339.682 3655.6 334.94 3658.99C317.668 3671.23 301.744 3690.8 304.236 3713.71C305.927 3729.35 315.744 3742.68 327.13 3752.7C336.362 3760.8 347.215 3767.49 359.37 3770.55C362.835 3771.42 366.364 3771.99 369.909 3772.29C387.879 3773.76 405.248 3768.8 421.956 3763.98C455.391 3754.26 488.766 3744.34 522.085 3734.21C527.644 3732.53 533.202 3730.83 538.758 3729.13C533.138 3730.61 527.52 3732.09 521.903 3733.57C488.24 3742.49 454.635 3751.61 421.086 3760.92C404.342 3765.54 387.294 3770.22 370.207 3768.8C366.833 3768.52 363.491 3767.98 360.217 3767.16C348.753 3764.31 338.298 3758.01 329.26 3750.24C318.13 3740.67 308.633 3728.08 306.743 3713.41C303.866 3691.96 318.556 3672.33 335.337 3659.52C339.925 3655.99 344.804 3652.81 349.887 3650Z" fill="#FF9C56"/>
<path d="M479.401 3702.73C484.349 3699.12 489.391 3695.64 494.521 3692.31C540.465 3662.41 594.713 3642.82 649.557 3646.3C651.668 3646.44 653.776 3646.61 655.886 3646.81C682.831 3649.39 709.391 3657.63 737.097 3657.79C763.042 3657.91 788.84 3650.5 810.742 3636.98C815.967 3633.75 820.971 3630.18 825.699 3626.29C820.826 3630 815.71 3633.38 810.403 3636.41C788.155 3649.1 762.557 3655.68 737.134 3655.1C709.986 3654.46 683.671 3646.02 656.223 3643.33C654.075 3643.12 651.929 3642.95 649.779 3642.81C593.88 3639.26 539.092 3660.24 494.148 3691.75C489.126 3695.27 484.208 3698.94 479.401 3702.73Z" fill="#FF9C56"/>
<path d="M441.944 3565.5C445.181 3569.67 445.335 3575.3 444.08 3580.2C442.886 3584.98 440.659 3589.45 438.126 3593.67C426.195 3613.47 412.184 3631.97 396.405 3648.77C388.926 3657.06 378.424 3667.81 383.023 3681.19C385.756 3688.4 393.282 3692.26 400.263 3692.92C403.803 3693.28 407.412 3692.95 410.834 3691.87C421.132 3688.54 428.56 3680.68 435.436 3673.44C448.584 3659.55 461.761 3645.61 477.356 3634.66C488.685 3626.7 501.353 3620.38 514.983 3617.4C520.015 3616.3 525.164 3615.68 530.338 3615.63C530.338 3615.63 530.338 3615.63 530.338 3615.63C525.167 3615.45 519.969 3615.85 514.854 3616.75C500.998 3619.19 487.9 3625.15 476.166 3632.92C460.019 3643.58 446.389 3657.44 433.077 3671.18C426.141 3678.35 418.949 3685.65 409.779 3688.54C406.856 3689.47 403.697 3689.75 400.621 3689.44C394.486 3688.85 388.356 3685.54 386.231 3679.95C382.281 3669.59 391.188 3659.14 398.649 3650.84C414.311 3633.62 427.949 3614.59 439.198 3594.29C441.613 3589.91 443.707 3585.28 444.729 3580.35C445.816 3575.3 445.376 3569.51 441.944 3565.5Z" fill="#FF9C56"/>
<path d="M835.715 3682.4C837.32 3682.14 838.923 3681.87 840.524 3681.58C854.929 3678.98 869.113 3675.01 882.806 3669.76C896.5 3664.51 909.702 3657.97 922.156 3650.28C923.54 3649.43 924.915 3648.56 926.28 3647.68C924.802 3648.35 923.324 3649.03 921.844 3649.7C908.526 3655.7 895.113 3661.29 881.553 3666.49C867.993 3671.69 854.286 3676.5 840.364 3680.93C838.817 3681.43 837.267 3681.91 835.715 3682.4Z" fill="#FF9C56"/>
<path d="M610.373 3712.73C613.385 3710.92 616.571 3709.44 619.852 3708.24C629.215 3704.85 639.229 3703.81 649.098 3704.08C662.493 3704.46 675.698 3707.17 689.071 3709.29C697.077 3710.56 705.249 3711.64 713.538 3711.35C715.153 3711.29 716.769 3711.18 718.382 3711.01C747.195 3697.52 765.566 3672.78 795.002 3663.72C798.313 3662.54 801.643 3661.52 805.067 3660.64C801.592 3661.29 798.192 3662.1 794.799 3663.08C765.149 3670.24 742.906 3695.79 718.018 3707.54C716.488 3707.69 714.953 3707.8 713.413 3707.85C705.508 3708.14 697.541 3707.16 689.567 3706.01C676.252 3704.11 662.784 3701.74 649.115 3701.91C639.039 3702.04 628.857 3703.63 619.606 3707.63C616.365 3709.03 613.258 3710.73 610.373 3712.73Z" fill="#FF9C56"/>
<path d="M329.345 3556.57C330.111 3554.99 330.835 3553.38 331.517 3551.76C337.664 3537.14 340.314 3520.94 339.367 3504.97C338.436 3489 333.905 3473.22 326.093 3459.41C325.226 3457.88 324.319 3456.37 323.374 3454.89C324.115 3456.49 324.821 3458.09 325.495 3459.71C331.554 3474.26 334.954 3489.65 335.873 3505.17C336.78 3520.69 335.207 3536.38 330.889 3551.54C330.409 3553.22 329.894 3554.9 329.345 3556.57Z" fill="#FF9C56"/>
<path d="M370.179 3624.39C370.502 3627.12 370.73 3629.84 370.867 3632.57C371.955 3654.51 367.178 3676.48 357.186 3695.71C355.972 3698.05 354.745 3700.42 353.652 3702.9C350.948 3709.01 348.325 3717.32 353.042 3724.03C355.137 3726.99 358.148 3728.82 361.056 3730.25C374.797 3736.91 391.461 3736.05 404.388 3728.84C406.799 3727.49 409.077 3725.93 411.173 3724.16C411.173 3724.16 411.173 3724.16 411.173 3724.16C408.934 3725.74 406.557 3727.1 404.086 3728.24C390.838 3734.34 375.005 3734.12 362.425 3727.54C359.746 3726.13 357.266 3724.44 355.746 3722.16C352.266 3717.14 354.203 3710.24 356.852 3704.31C357.891 3701.96 359.074 3699.65 360.269 3697.3C370.429 3677.38 374.331 3654.43 371.529 3632.51C371.182 3629.79 370.732 3627.08 370.179 3624.39Z" fill="#FF9C56"/>
<path d="M571.707 3695.82C571.707 3695.82 571.707 3695.82 571.707 3695.82C573.577 3694.71 575.47 3693.65 577.388 3692.64C594.658 3683.54 613.73 3678.57 632.966 3677.49C652.203 3676.42 671.71 3679.25 689.883 3686.37C691.901 3687.16 693.9 3688.01 695.881 3688.91C694.008 3687.8 692.099 3686.75 690.155 3685.76C672.654 3676.84 652.541 3672.88 632.771 3673.99C613 3675.08 593.454 3681.26 577.049 3692.06C575.227 3693.26 573.447 3694.52 571.707 3695.82Z" fill="#FF9C56"/>
<path d="M814.49 3674.59C815.192 3674.39 815.891 3674.17 816.588 3673.96C822.861 3672 828.931 3669.61 834.796 3666.8C840.661 3664 846.322 3660.76 851.779 3657.1C852.385 3656.69 852.989 3656.28 853.59 3655.86C852.888 3656.07 852.188 3656.28 851.491 3656.5C845.218 3658.46 839.149 3660.84 833.284 3663.65C827.419 3666.46 821.757 3669.69 816.301 3673.36C815.695 3673.76 815.091 3674.18 814.49 3674.59Z" fill="#FF9C56"/>
<path d="M478.015 3573.04C477.057 3575.3 476.065 3577.54 475.041 3579.76C468.427 3594.12 460.47 3607.76 451.308 3620.51L446.668 3627.09L453.516 3622.84C458.785 3619.63 464.201 3616.67 469.741 3613.97C489.358 3604.39 510.519 3597.96 532.351 3595.06C534.777 3594.74 537.211 3594.46 539.652 3594.23C537.2 3594.23 534.746 3594.28 532.292 3594.4C510.207 3595.41 488.204 3601.05 468.205 3610.82C462.556 3613.58 457.067 3616.67 451.78 3620.06L453.989 3622.39C462.98 3609.22 470.281 3594.93 475.657 3580.01C476.489 3577.7 477.276 3575.38 478.015 3573.04Z" fill="#FF9C56"/>
<path d="M482.58 3679.3C482.58 3679.3 482.58 3679.3 482.58 3679.3C482.569 3677.28 482.884 3675.29 483.499 3673.42C487.36 3662.68 498.165 3656.89 508.188 3652.63C514.39 3650.11 520.692 3647.83 527.057 3645.73C544.115 3640.09 561.624 3635.69 579.107 3631C581.05 3630.47 582.992 3629.95 584.933 3629.42C582.944 3629.72 580.955 3630.03 578.969 3630.35C561.102 3633.19 543.253 3636.69 525.959 3642.4C519.511 3644.53 513.154 3646.97 506.96 3649.78C496.773 3654.54 485.705 3661.62 482.857 3673.24C482.425 3675.24 482.336 3677.3 482.58 3679.3Z" fill="#FF9C56"/>
<path d="M431.792 3786.54C434.159 3786.79 436.524 3786.99 438.903 3787.12C460.333 3788.36 481.924 3784.55 502.381 3778.13C522.894 3771.71 542.428 3762.78 561.526 3753.2C563.648 3752.14 565.77 3751.06 567.883 3749.98C565.674 3750.85 563.461 3751.72 561.254 3752.6C541.377 3760.45 521.601 3768.45 501.336 3774.79C481.092 3781.13 460.255 3785.79 438.911 3786.46C436.54 3786.53 434.173 3786.56 431.792 3786.54Z" fill="#FF9C56"/>
<path d="M991.768 2706.83C989.375 2712.5 986.977 2718.17 984.573 2723.84C972.982 2751.16 961.261 2778.43 949.426 2805.65C939.831 2827.67 929.812 2850.43 912.691 2868.26C911.58 2869.42 910.435 2870.54 909.261 2871.64C892.695 2887.09 868.864 2897.39 845.918 2891.62C826.133 2886.54 811.563 2871.17 800.402 2855.34C792.685 2844.35 786.096 2832.72 778.399 2821.82C774.855 2816.8 771.073 2811.94 766.875 2807.44C771.24 2811.78 775.21 2816.51 778.936 2821.43C787.028 2832.1 793.987 2843.56 801.916 2854.25C813.361 2869.65 827.945 2884.2 846.642 2888.67C868.25 2893.82 890.916 2883.97 906.874 2869.08C908.003 2868.03 909.103 2866.94 910.171 2865.84C926.743 2848.63 936.851 2826.36 946.785 2804.47C959.051 2777.45 971.449 2750.48 983.966 2723.57C986.561 2717.99 989.162 2712.41 991.768 2706.83Z" fill="#FF9C56"/>
<path d="M937.206 2742.26C937.289 2744.57 937.289 2746.87 937.209 2749.18C936.503 2770.02 929.129 2790.32 918.84 2808.38C913.464 2817.83 907.275 2826.79 900.601 2835.31C894.477 2843.02 887.096 2851.05 877.051 2853.3C874.763 2853.77 872.41 2853.85 870.13 2853.51C872.434 2853.62 874.722 2853.31 876.888 2852.65C886.321 2849.61 892.754 2841.52 898.412 2833.68C904.623 2824.92 910.511 2815.95 915.798 2806.65C925.908 2788.85 933.942 2769.65 936.546 2749.12C936.834 2746.85 937.056 2744.56 937.206 2742.26Z" fill="#FF9C56"/>
<path d="M847.957 2838.11C847.185 2838.5 846.207 2838.52 845.333 2838.26C843.873 2837.83 842.652 2836.89 841.559 2835.93C836.821 2831.73 832.529 2827.03 828.779 2821.93C824.185 2815.69 820.404 2808.84 817.566 2801.64C817.251 2800.83 816.947 2800.03 816.655 2799.22C817.154 2799.92 817.652 2800.62 818.15 2801.32C822.636 2807.6 827.101 2813.74 831.599 2819.86C835.272 2824.85 838.969 2829.83 842.741 2834.83C843.561 2835.92 844.442 2836.97 845.588 2837.65C846.277 2838.05 847.103 2838.28 847.957 2838.11Z" fill="#FF9C56"/>
<path d="M903.621 2775.38C902.862 2778.19 902.064 2781 901.183 2783.79C897.478 2795.49 892.142 2807.47 882.094 2815.6C877.643 2819.18 872.012 2822.08 865.79 2821.72C856.257 2821.14 849.886 2813.34 845.333 2806.56C843.628 2804.01 842.062 2801.41 840.493 2798.86C828.473 2779.37 811.435 2762.95 791.296 2751.49C788.768 2750.05 786.19 2748.69 783.567 2747.42C786.283 2748.48 788.965 2749.64 791.604 2750.9C812.635 2760.91 830.926 2777.09 843.434 2797.03C845.039 2799.6 846.594 2802.15 848.241 2804.61C852.683 2811.27 858.325 2817.93 866.023 2818.51C871.05 2818.95 876.169 2816.65 880.431 2813.47C890.113 2806.26 896.041 2794.95 900.556 2783.56C901.631 2780.86 902.64 2778.12 903.621 2775.38Z" fill="#FF9C56"/>
<path d="M986.373 2765.92C986.38 2767.32 986.361 2768.73 986.316 2770.13C985.92 2782.77 983.447 2795.42 979.039 2807.36C977.283 2812.12 975.221 2816.77 972.869 2821.26C969.331 2827.98 964.805 2834.79 958.077 2838.71C956.847 2839.42 955.559 2840.02 954.232 2840.48C955.464 2839.8 956.622 2839.02 957.703 2838.16C963.567 2833.43 967.053 2826.69 970.128 2819.93C972.164 2815.4 974.039 2810.8 975.756 2806.15C980.058 2794.48 983.38 2782.44 985.655 2770.06C985.908 2768.69 986.147 2767.31 986.373 2765.92Z" fill="#FF9C56"/>
<path d="M791.595 2888.64C789.721 2887.86 787.9 2886.95 786.147 2885.91C770.088 2876.22 761.676 2858.12 755.48 2841.21C755.479 2841.21 755.478 2841.2 755.476 2841.2C749.233 2824.18 744.143 2806.42 731.882 2792.85C730.525 2791.37 729.086 2789.95 727.562 2788.61C729.229 2789.76 730.827 2791.02 732.349 2792.38C746.219 2804.83 752.598 2823.14 758.766 2840.01C758.767 2840.01 758.768 2840.01 758.77 2840.02C764.98 2856.81 771.903 2874.29 786.516 2885.36C788.127 2886.56 789.822 2887.65 791.595 2888.64Z" fill="#FF9C56"/>
<path d="M641.561 4289.29C650.062 4292.55 658.803 4295.21 667.69 4297.25C739.146 4313.67 819.189 4290.8 869.982 4236.85C876.071 4230.38 881.743 4223.52 887.065 4216.43C899.999 4199.17 910.846 4180.54 921.077 4161.7C935.483 4135.17 948.958 4107.77 957.147 4078.5C965.377 4049.11 968.018 4018.54 968.196 3988.23C968.251 3979.12 968.084 3970.01 967.777 3960.92C967.85 3970.02 967.796 3979.12 967.532 3988.22C966.656 4018.49 963.439 4048.86 954.864 4077.84C946.334 4106.7 932.703 4133.74 918.176 4160.11C907.863 4178.83 897.037 4197.29 884.265 4214.33C879.009 4221.34 873.427 4228.09 867.453 4234.48C817.71 4287.54 739.396 4311.26 667.832 4296.6C658.93 4294.77 650.143 4292.33 641.561 4289.29Z" fill="url(#paint0_linear_663_22310)"/>
<path d="M1547.31 4332.07C1547.31 4332.07 1547.31 4332.07 1547.31 4332.07C1538.57 4316.33 1531.52 4299.75 1524.97 4283.02C1516.14 4260.45 1508.21 4237.5 1498.1 4215.4C1480.67 4177.44 1454.83 4139.74 1414.8 4122.9C1382.15 4109.35 1345.84 4111.83 1313.96 4098.79C1272.01 4081.52 1245.39 4041.07 1226.86 4000.78C1220.4 3986.66 1214.61 3972.22 1208.72 3957.79C1197.53 3930.4 1185.88 3902.75 1168.64 3878.27C1142.89 3841.84 1099.6 3811.2 1052.91 3818.66C1048.22 3819.45 1043.17 3820.69 1039.25 3824.13C1034.17 3828.67 1032.61 3835.31 1031.56 3841.27C1019.73 3912.72 1059.27 3980.77 1044.72 4051.16C1043.5 4056.9 1041.89 4062.57 1040.06 4068.16C1034.47 4085.24 1026.78 4101.57 1020.76 4118.52C1020.76 4118.52 1020.76 4118.52 1020.76 4118.52C1027 4101.65 1034.88 4085.44 1040.69 4068.37C1042.6 4062.79 1044.27 4057.11 1045.57 4051.35C1060.93 3980.62 1022.02 3911.73 1034.23 3841.74C1035.27 3835.92 1036.89 3829.92 1041.1 3826.25C1044.34 3823.42 1048.85 3822.24 1053.37 3821.51C1098.4 3814.5 1140.68 3844.41 1165.86 3880.22C1182.77 3904.34 1194.31 3931.74 1205.47 3959.11C1211.36 3973.52 1217.18 3988.01 1223.7 4002.22C1242.45 4042.82 1269.53 4084.03 1312.79 4101.66C1345.67 4114.85 1381.86 4112.14 1413.84 4125.22C1453.05 4141.36 1479.07 4178.36 1496.78 4216.01C1507.07 4237.92 1515.26 4260.78 1524.35 4283.26C1531.1 4299.93 1538.37 4316.45 1547.31 4332.07Z" fill="#FF9C56"/>
<path d="M1011.11 4050.28C1011.7 4043.61 1012 4036.92 1012.04 4030.22C1012.31 3969.71 992.552 3911.6 985.985 3852.2C985.969 3852.05 985.953 3851.91 985.937 3851.76C983.047 3824.87 983.282 3795.36 999.694 3773.21C1011.16 3757.83 1030.09 3748.12 1049.47 3747.88C1062.24 3747.72 1075.04 3751.68 1085.75 3758.84C1091.28 3762.53 1096.27 3767.09 1100.4 3772.35C1096.46 3766.95 1091.6 3762.2 1086.13 3758.29C1075.54 3750.73 1062.62 3746.28 1049.47 3746.12C1029.51 3745.89 1009.65 3755.49 997.379 3771.46C979.851 3794.47 979.548 3824.97 982.457 3852.14C982.474 3852.29 982.49 3852.44 982.507 3852.59C989.175 3912.6 1009.76 3969.99 1011.38 4030.23C1011.54 4036.91 1011.47 4043.59 1011.11 4050.28Z" fill="#FF9C56"/>
<path d="M1019.95 4158.78C1022.96 4151.58 1029.54 4146.39 1036.84 4144.19C1050.56 4140.1 1066.01 4143.37 1077.35 4151.7C1095.28 4165.24 1104.82 4186.38 1119.21 4203.87C1140.28 4229.47 1171.93 4245.92 1204.98 4248.93C1209.19 4249.31 1213.42 4249.47 1217.64 4249.41C1255.11 4248.82 1291.73 4230.43 1314.56 4200.9C1325.77 4186.39 1333.75 4169.51 1347.94 4158.11C1355.87 4151.83 1366.13 4148.25 1376.35 4148.65C1383.96 4148.94 1391.75 4152.12 1396.4 4158.41C1391.95 4151.98 1384.14 4148.48 1376.39 4147.99C1365.99 4147.3 1355.42 4150.66 1347.05 4156.98C1332.24 4168.34 1323.82 4185.33 1312.58 4199.35C1289.78 4227.88 1253.95 4245.41 1217.59 4245.92C1213.49 4245.97 1209.39 4245.81 1205.3 4245.44C1173.19 4242.52 1142.29 4226.74 1121.42 4202.03C1107.11 4185.15 1097.07 4163.85 1078.36 4150.31C1066.35 4141.9 1050.52 4139.02 1036.63 4143.55C1029.25 4146 1022.73 4151.49 1019.95 4158.78Z" fill="#FF9C56"/>
<path d="M1039.65 4270.47C1039.65 4270.47 1039.65 4270.47 1039.65 4270.47C1039.58 4268.79 1039.51 4267.11 1039.44 4265.42C1039.03 4256.47 1038.47 4247.53 1037.72 4238.61C1037.22 4232.46 1036.72 4226.35 1037.21 4220.38C1037.64 4215.16 1038.9 4210.03 1041.61 4205.67C1046.25 4198.36 1057.4 4193.9 1065.73 4198.76C1067.11 4199.64 1068.31 4200.84 1069.23 4202.25C1069.23 4202.25 1069.23 4202.25 1069.23 4202.25C1068.52 4200.72 1067.46 4199.33 1066.12 4198.22C1057.87 4191.96 1045.05 4195.38 1038.99 4203.96C1035.7 4208.74 1034.17 4214.5 1033.72 4220.09C1033.2 4226.49 1033.89 4232.79 1034.72 4238.94C1035.91 4247.81 1037.26 4256.66 1038.78 4265.49C1039.06 4267.15 1039.35 4268.81 1039.65 4270.47Z" fill="#FF9C56"/>
<path d="M1285.73 4148.22C1271.66 4145.26 1258.14 4139.91 1245.8 4132.62C1228.02 4122.12 1212.63 4107.55 1201.48 4090.23C1161.17 4027.2 1177.72 3942.43 1126.93 3883.1C1119.72 3875 1110.79 3867.45 1099.62 3864.9C1087.73 3865.2 1081.95 3874.04 1075.26 3880.56C1069.07 3887.82 1062.8 3894.89 1059.74 3904.85C1058.72 3910.04 1058.42 3915.33 1058.7 3920.57C1060.28 3945.46 1072.88 3967.07 1079.28 3989.93C1086.41 4015.1 1085.94 4042.39 1077.96 4067.34C1073.18 4082.37 1065.5 4096.93 1063.67 4113.3L1063.38 4115.83L1065.66 4114.68C1090.89 4110.66 1119.84 4124.81 1139.01 4142.23C1148.89 4155.48 1152.78 4172.06 1158.9 4187.54C1164.95 4202.76 1174.54 4218.74 1190.89 4224.31C1192.75 4224.94 1194.69 4225.33 1196.64 4225.51C1210.67 4226.88 1227.85 4216.68 1226.28 4201.32C1227.58 4216.68 1210.38 4226.39 1196.7 4224.85C1194.8 4224.64 1192.93 4224.24 1191.13 4223.6C1175.23 4217.94 1166.03 4202.17 1160.22 4187.03C1154.33 4171.61 1150.67 4154.87 1140.62 4141.04C1131.08 4130.23 1118.1 4124.47 1105.45 4118.89C1092.64 4114.18 1079.11 4107.66 1064.42 4112.23L1066.41 4113.61C1068.25 4097.95 1075.87 4083.62 1080.88 4068.28C1089.19 4042.79 1089.8 4014.85 1082.55 3989C1076.02 3965.62 1063.64 3944.09 1062.2 3920.38C1061.93 3915.39 1062.22 3910.4 1063.17 3905.52C1069.49 3890.26 1083.64 3871.59 1098.87 3868.22C1108.95 3870.48 1117.46 3877.46 1124.47 3885.3C1174.26 3942.45 1158.83 4027.66 1200.22 4091.05C1211.72 4108.44 1227.44 4122.9 1245.47 4133.2C1257.97 4140.34 1271.62 4145.49 1285.73 4148.22Z" fill="#FF9C56"/>
<path d="M919.958 4282.14C922.145 4279.74 924.263 4277.28 926.309 4274.75C940.085 4257.74 950.552 4237.92 956.846 4216.79C958.959 4209.68 960.612 4202.46 962.055 4195.22C967.837 4166.64 970.001 4136.91 984.616 4111.41C986.238 4108.61 987.994 4105.9 989.914 4103.27C987.811 4105.75 985.864 4108.34 984.051 4111.06C967.624 4135.85 964.335 4166.28 958.623 4194.53C957.191 4201.72 955.617 4208.86 953.656 4215.87C947.813 4236.7 938.372 4256.55 925.779 4274.35C923.908 4276.99 921.967 4279.59 919.958 4282.14Z" fill="url(#paint1_linear_663_22310)"/>
<path d="M844.518 4158.05C844.518 4158.05 844.518 4158.05 844.518 4158.05C847.771 4155.14 851.022 4152.23 854.257 4149.3C883.262 4123 911.886 4095.01 931.325 4060.3C934.326 4054.93 937.086 4049.43 939.565 4043.79C953.042 4013.13 957.778 3978.79 953.336 3945.84C952.752 3941.51 952.011 3937.2 951.112 3932.93C951.782 3937.24 952.302 3941.57 952.675 3945.92C955.501 3978.91 949.864 4012.41 936.428 4042.4C933.953 4047.91 931.221 4053.31 928.27 4058.6C909.184 4092.7 881.528 4121.13 853.799 4148.82C850.71 4151.9 847.611 4154.97 844.518 4158.05Z" fill="url(#paint2_linear_663_22310)"/>
<defs>
<linearGradient id="paint0_linear_663_22310" x1="953.5" y1="3961" x2="844" y2="4260" gradientUnits="userSpaceOnUse">
<stop offset="0.0673077" stop-color="#FF9C56"/>
<stop offset="0.615385" stop-color="#FF9C56" stop-opacity="0.05"/>
</linearGradient>
<linearGradient id="paint1_linear_663_22310" x1="974.386" y1="4103.27" x2="935.486" y2="4282.14" gradientUnits="userSpaceOnUse">
<stop stop-color="#FF9C56" stop-opacity="0.82"/>
<stop offset="0.461538" stop-color="#FF9C56" stop-opacity="0.05"/>
</linearGradient>
<linearGradient id="paint2_linear_663_22310" x1="947.972" y1="3933.78" x2="830.556" y2="4147.82" gradientUnits="userSpaceOnUse">
<stop offset="0.254808" stop-color="#FF9C56"/>
<stop offset="0.778846" stop-color="#FF9C56" stop-opacity="0.05"/>
</linearGradient>
</defs>
</svg>
